# Blender 5.2.2 LTS
# www.blender.org
mtllib fault_fretting.mtl
o fault_fretting
v -1.440000 0.342000 0.000000
v -1.390000 0.342000 -0.000000
v -1.440000 0.340353 -0.033522
v -1.390000 0.340353 -0.033522
v -1.440000 0.335429 -0.066721
v -1.390000 0.335429 -0.066721
v -1.440000 0.327274 -0.099277
v -1.390000 0.327274 -0.099277
v -1.440000 0.315967 -0.130878
v -1.390000 0.315967 -0.130878
v -1.440000 0.301617 -0.161218
v -1.390000 0.301617 -0.161218
v -1.440000 0.284363 -0.190005
v -1.390000 0.284363 -0.190005
v -1.440000 0.264370 -0.216963
v -1.390000 0.264370 -0.216963
v -1.440000 0.241831 -0.241831
v -1.390000 0.241831 -0.241831
v -1.440000 0.216963 -0.264370
v -1.390000 0.216963 -0.264370
v -1.440000 0.190005 -0.284363
v -1.390000 0.190005 -0.284363
v -1.440000 0.161218 -0.301617
v -1.390000 0.161218 -0.301617
v -1.440000 0.130878 -0.315967
v -1.390000 0.130878 -0.315967
v -1.440000 0.099277 -0.327274
v -1.390000 0.099277 -0.327274
v -1.440000 0.066721 -0.335429
v -1.390000 0.066721 -0.335429
v -1.440000 0.033522 -0.340353
v -1.390000 0.033522 -0.340353
v -1.440000 0.000000 -0.342000
v -1.390000 0.000000 -0.342000
v -1.440000 -0.033522 -0.340353
v -1.390000 -0.033522 -0.340353
v -1.440000 -0.066721 -0.335429
v -1.390000 -0.066721 -0.335429
v -1.440000 -0.099277 -0.327274
v -1.390000 -0.099277 -0.327274
v -1.440000 -0.130878 -0.315967
v -1.390000 -0.130878 -0.315967
v -1.440000 -0.161218 -0.301617
v -1.390000 -0.161218 -0.301617
v -1.440000 -0.190005 -0.284363
v -1.390000 -0.190005 -0.284363
v -1.440000 -0.216963 -0.264370
v -1.390000 -0.216963 -0.264370
v -1.440000 -0.241831 -0.241831
v -1.390000 -0.241831 -0.241831
v -1.440000 -0.264370 -0.216963
v -1.390000 -0.264370 -0.216963
v -1.440000 -0.284363 -0.190005
v -1.390000 -0.284363 -0.190005
v -1.440000 -0.301617 -0.161218
v -1.390000 -0.301617 -0.161218
v -1.440000 -0.315967 -0.130878
v -1.390000 -0.315967 -0.130878
v -1.440000 -0.327274 -0.099277
v -1.390000 -0.327274 -0.099277
v -1.440000 -0.335429 -0.066721
v -1.390000 -0.335429 -0.066721
v -1.440000 -0.340353 -0.033522
v -1.390000 -0.340353 -0.033522
v -1.440000 -0.342000 0.000000
v -1.390000 -0.342000 -0.000000
v -1.440000 -0.340353 0.033522
v -1.390000 -0.340353 0.033522
v -1.440000 -0.335429 0.066721
v -1.390000 -0.335429 0.066721
v -1.440000 -0.327274 0.099277
v -1.390000 -0.327274 0.099277
v -1.440000 -0.315967 0.130878
v -1.390000 -0.315967 0.130878
v -1.440000 -0.301617 0.161218
v -1.390000 -0.301617 0.161218
v -1.440000 -0.284363 0.190005
v -1.390000 -0.284363 0.190005
v -1.440000 -0.264370 0.216963
v -1.390000 -0.264370 0.216963
v -1.440000 -0.241831 0.241831
v -1.390000 -0.241831 0.241831
v -1.440000 -0.216963 0.264370
v -1.390000 -0.216963 0.264370
v -1.440000 -0.190005 0.284363
v -1.390000 -0.190005 0.284363
v -1.440000 -0.161218 0.301617
v -1.390000 -0.161218 0.301617
v -1.440000 -0.130878 0.315967
v -1.390000 -0.130878 0.315967
v -1.440000 -0.099277 0.327274
v -1.390000 -0.099277 0.327274
v -1.440000 -0.066721 0.335429
v -1.390000 -0.066721 0.335429
v -1.440000 -0.033522 0.340353
v -1.390000 -0.033522 0.340353
v -1.440000 0.000000 0.342000
v -1.390000 0.000000 0.342000
v -1.440000 0.033522 0.340353
v -1.390000 0.033522 0.340353
v -1.440000 0.066721 0.335429
v -1.390000 0.066721 0.335429
v -1.440000 0.099277 0.327274
v -1.390000 0.099277 0.327274
v -1.440000 0.130878 0.315967
v -1.390000 0.130878 0.315967
v -1.440000 0.161218 0.301617
v -1.390000 0.161218 0.301617
v -1.440000 0.190005 0.284363
v -1.390000 0.190005 0.284363
v -1.440000 0.216963 0.264370
v -1.390000 0.216963 0.264370
v -1.440000 0.241831 0.241831
v -1.390000 0.241831 0.241831
v -1.440000 0.264370 0.216963
v -1.390000 0.264370 0.216963
v -1.440000 0.284363 0.190005
v -1.390000 0.284363 0.190005
v -1.440000 0.301617 0.161218
v -1.390000 0.301617 0.161218
v -1.440000 0.315967 0.130878
v -1.390000 0.315967 0.130878
v -1.440000 0.327274 0.099277
v -1.390000 0.327274 0.099277
v -1.440000 0.335429 0.066721
v -1.390000 0.335429 0.066721
v -1.440000 0.340353 0.033522
v -1.390000 0.340353 0.033522
v -1.390000 0.306221 0.092891
v -1.390000 0.318459 0.031365
v -1.390000 0.313851 0.062429
v -1.390000 0.150847 0.282215
v -1.390000 0.203006 0.247363
v -1.390000 0.177782 0.266070
v -1.390000 -0.031365 0.318459
v -1.390000 -0.062429 0.313851
v -1.390000 -0.092891 0.306221
v -1.390000 -0.247363 0.203006
v -1.390000 -0.266070 0.177782
v -1.390000 -0.282215 0.150847
v -1.390000 -0.318459 -0.031365
v -1.390000 -0.313851 -0.062429
v -1.390000 -0.306221 -0.092891
v -1.390000 -0.203006 -0.247363
v -1.390000 -0.177782 -0.266070
v -1.390000 -0.150847 -0.282215
v -1.390000 0.092891 -0.306221
v -1.390000 0.031365 -0.318459
v -1.390000 0.062429 -0.313851
v -1.390000 0.282215 -0.150847
v -1.390000 0.247363 -0.203006
v -1.390000 0.266070 -0.177782
v -1.390000 0.092891 0.306221
v -1.390000 0.122459 0.295641
v -1.390000 0.247363 0.203006
v -1.390000 0.226274 0.226274
v -1.390000 0.295641 0.122459
v -1.390000 0.282215 0.150847
v -1.390000 0.318459 -0.031365
v -1.390000 0.320000 -0.000000
v -1.390000 0.266070 0.177782
v -1.390000 0.000000 0.320000
v -1.390000 0.031365 0.318459
v -1.390000 -0.150847 0.282215
v -1.390000 -0.122459 0.295641
v -1.390000 -0.226274 0.226274
v -1.390000 -0.203006 0.247363
v -1.390000 -0.306221 0.092891
v -1.390000 -0.295641 0.122459
v -1.390000 -0.177782 0.266070
v -1.390000 -0.318459 0.031365
v -1.390000 -0.320000 -0.000000
v -1.390000 -0.282215 -0.150847
v -1.390000 -0.295641 -0.122459
v -1.390000 -0.247363 -0.203006
v -1.390000 -0.226274 -0.226274
v -1.390000 -0.092891 -0.306221
v -1.390000 -0.122459 -0.295641
v -1.390000 -0.266070 -0.177782
v -1.390000 0.306221 -0.092891
v -1.390000 0.295641 -0.122459
v -1.390000 0.203006 -0.247363
v -1.390000 0.226274 -0.226274
v -1.390000 0.150847 -0.282215
v -1.390000 0.122459 -0.295641
v -1.390000 0.000000 -0.320000
v -1.390000 -0.031365 -0.318459
v -1.390000 0.177782 -0.266070
v -1.390000 0.062429 0.313851
v -1.390000 0.313851 -0.062429
v -1.390000 -0.313851 0.062429
v -1.390000 -0.062429 -0.313851
v -1.440000 0.313851 -0.062429
v -1.440000 0.295641 -0.122459
v -1.440000 0.306221 -0.092891
v -1.440000 0.177782 -0.266070
v -1.440000 0.122459 -0.295641
v -1.440000 0.150847 -0.282215
v -1.440000 -0.122459 -0.295641
v -1.440000 -0.092891 -0.306221
v -1.440000 -0.062429 -0.313851
v -1.440000 -0.295641 -0.122459
v -1.440000 -0.282215 -0.150847
v -1.440000 -0.266070 -0.177782
v -1.440000 -0.295641 0.122459
v -1.440000 -0.306221 0.092891
v -1.440000 -0.313851 0.062429
v -1.440000 -0.122459 0.295641
v -1.440000 -0.150847 0.282215
v -1.440000 -0.177782 0.266070
v -1.440000 0.062429 0.313851
v -1.440000 0.122459 0.295641
v -1.440000 0.092891 0.306221
v -1.440000 0.266070 0.177782
v -1.440000 0.295641 0.122459
v -1.440000 0.282215 0.150847
v -1.440000 0.320000 0.000000
v -1.440000 0.318459 -0.031365
v -1.440000 0.266070 -0.177782
v -1.440000 0.282215 -0.150847
v -1.440000 0.226274 -0.226274
v -1.440000 0.203006 -0.247363
v -1.440000 0.092891 -0.306221
v -1.440000 0.062429 -0.313851
v -1.440000 0.247363 -0.203006
v -1.440000 -0.306221 -0.092891
v -1.440000 -0.313851 -0.062429
v -1.440000 -0.226274 -0.226274
v -1.440000 -0.247363 -0.203006
v -1.440000 -0.203006 -0.247363
v -1.440000 -0.150847 -0.282215
v -1.440000 -0.177782 -0.266070
v -1.440000 0.000000 -0.320000
v -1.440000 -0.031365 -0.318459
v -1.440000 -0.092891 0.306221
v -1.440000 -0.062429 0.313851
v -1.440000 -0.203006 0.247363
v -1.440000 -0.226274 0.226274
v -1.440000 -0.247363 0.203006
v -1.440000 -0.282215 0.150847
v -1.440000 -0.266070 0.177782
v -1.440000 -0.320000 0.000000
v -1.440000 -0.318459 0.031365
v -1.440000 0.000000 0.320000
v -1.440000 0.031365 0.318459
v -1.440000 0.177782 0.266070
v -1.440000 0.150847 0.282215
v -1.440000 0.247363 0.203006
v -1.440000 0.226274 0.226274
v -1.440000 0.306221 0.092891
v -1.440000 0.313851 0.062429
v -1.440000 0.203006 0.247363
v -1.440000 0.318459 0.031365
v -1.440000 0.031365 -0.318459
v -1.440000 -0.031365 0.318459
v -1.440000 -0.318459 -0.031365
v -1.440000 -0.031870 -0.329066
v -1.440000 -0.049077 -0.437712
v -1.440000 -0.071377 -0.322808
v -1.440000 -0.088585 -0.431454
v -1.437000 -0.031870 -0.329066
v -1.437000 -0.049077 -0.437712
v -1.437000 -0.071377 -0.322808
v -1.437000 -0.088585 -0.431454
vn -0.0000 0.9988 -0.0491
vn -0.0000 0.9892 -0.1467
vn -0.0000 0.9700 -0.2430
vn -0.0000 0.9415 -0.3369
vn -0.0000 0.9040 -0.4276
vn -0.0000 0.8577 -0.5141
vn -0.0000 0.8032 -0.5957
vn -0.0000 0.7410 -0.6716
vn -0.0000 0.6716 -0.7410
vn -0.0000 0.5957 -0.8032
vn -0.0000 0.5141 -0.8577
vn -0.0000 0.4276 -0.9040
vn -0.0000 0.3369 -0.9415
vn -0.0000 0.2430 -0.9700
vn -0.0000 0.1467 -0.9892
vn -0.0000 0.0491 -0.9988
vn -0.0000 -0.0491 -0.9988
vn -0.0000 -0.1467 -0.9892
vn -0.0000 -0.2430 -0.9700
vn -0.0000 -0.3369 -0.9415
vn -0.0000 -0.4276 -0.9040
vn -0.0000 -0.5141 -0.8577
vn -0.0000 -0.5957 -0.8032
vn -0.0000 -0.6716 -0.7410
vn -0.0000 -0.7410 -0.6716
vn -0.0000 -0.8032 -0.5957
vn -0.0000 -0.8577 -0.5141
vn -0.0000 -0.9040 -0.4276
vn -0.0000 -0.9415 -0.3369
vn -0.0000 -0.9700 -0.2430
vn -0.0000 -0.9892 -0.1467
vn -0.0000 -0.9988 -0.0491
vn -0.0000 -0.9988 0.0491
vn -0.0000 -0.9892 0.1467
vn -0.0000 -0.9700 0.2430
vn -0.0000 -0.9415 0.3369
vn -0.0000 -0.9040 0.4276
vn -0.0000 -0.8577 0.5141
vn -0.0000 -0.8032 0.5957
vn -0.0000 -0.7410 0.6716
vn -0.0000 -0.6716 0.7410
vn -0.0000 -0.5957 0.8032
vn -0.0000 -0.5141 0.8577
vn -0.0000 -0.4276 0.9040
vn -0.0000 -0.3369 0.9415
vn -0.0000 -0.2430 0.9700
vn -0.0000 -0.1467 0.9892
vn -0.0000 -0.0491 0.9988
vn -0.0000 0.0491 0.9988
vn -0.0000 0.1467 0.9892
vn -0.0000 0.2430 0.9700
vn -0.0000 0.3369 0.9415
vn -0.0000 0.4276 0.9040
vn -0.0000 0.5141 0.8577
vn -0.0000 0.5957 0.8032
vn -0.0000 0.6716 0.7410
vn -0.0000 0.7410 0.6716
vn -0.0000 0.8032 0.5957
vn -0.0000 0.8577 0.5141
vn -0.0000 0.9040 0.4276
vn -0.0000 0.9415 0.3369
vn -0.0000 0.9700 0.2430
vn 1.0000 -0.0000 -0.0000
vn -0.0000 0.9892 0.1467
vn -0.0000 0.9988 0.0491
vn -1.0000 -0.0000 -0.0000
vn -0.0000 -0.9877 0.1564
vn -0.0000 0.9877 -0.1564
vn -0.0000 0.1564 0.9877
vn -0.0000 -0.1564 -0.9877
s 0
usemtl rust
f 2//1 3//1 1//1
f 4//2 5//2 3//2
f 6//3 7//3 5//3
f 8//4 9//4 7//4
f 10//5 11//5 9//5
f 12//6 13//6 11//6
f 14//7 15//7 13//7
f 16//8 17//8 15//8
f 18//9 19//9 17//9
f 20//10 21//10 19//10
f 22//11 23//11 21//11
f 24//12 25//12 23//12
f 26//13 27//13 25//13
f 28//14 29//14 27//14
f 30//15 31//15 29//15
f 32//16 33//16 31//16
f 34//17 35//17 33//17
f 36//18 37//18 35//18
f 38//19 39//19 37//19
f 40//20 41//20 39//20
f 42//21 43//21 41//21
f 44//22 45//22 43//22
f 46//23 47//23 45//23
f 48//24 49//24 47//24
f 50//25 51//25 49//25
f 52//26 53//26 51//26
f 54//27 55//27 53//27
f 56//28 57//28 55//28
f 58//29 59//29 57//29
f 60//30 61//30 59//30
f 62//31 63//31 61//31
f 64//32 65//32 63//32
f 66//33 67//33 65//33
f 68//34 69//34 67//34
f 70//35 71//35 69//35
f 72//36 73//36 71//36
f 74//37 75//37 73//37
f 76//38 77//38 75//38
f 78//39 79//39 77//39
f 80//40 81//40 79//40
f 82//41 83//41 81//41
f 84//42 85//42 83//42
f 86//43 87//43 85//43
f 88//44 89//44 87//44
f 90//45 91//45 89//45
f 92//46 93//46 91//46
f 94//47 95//47 93//47
f 96//48 97//48 95//48
f 98//49 99//49 97//49
f 100//50 101//50 99//50
f 102//51 103//51 101//51
f 104//52 105//52 103//52
f 106//53 107//53 105//53
f 108//54 109//54 107//54
f 110//55 111//55 109//55
f 112//56 113//56 111//56
f 114//57 115//57 113//57
f 116//58 117//58 115//58
f 118//59 119//59 117//59
f 120//60 121//60 119//60
f 122//61 123//61 121//61
f 124//62 125//62 123//62
f 14//63 183//63 182//63
f 80//63 166//63 167//63
f 126//64 127//64 125//64
f 128//65 1//65 127//65
f 71//66 205//66 206//66
f 7//66 194//66 195//66
f 159//33 217//33 218//33
f 190//34 218//34 193//34
f 180//35 193//35 195//35
f 181//36 195//36 194//36
f 150//37 194//37 220//37
f 152//38 220//38 219//38
f 151//39 219//39 225//39
f 183//40 225//40 221//40
f 183//41 222//41 182//41
f 182//42 196//42 188//42
f 188//43 198//43 184//43
f 184//44 197//44 185//44
f 185//45 223//45 147//45
f 147//46 224//46 149//46
f 149//47 254//47 148//47
f 148//48 233//48 186//48
f 186//49 234//49 187//49
f 187//50 201//50 192//50
f 192//51 200//51 177//51
f 177//52 199//52 178//52
f 178//53 231//53 146//53
f 146//54 232//54 145//54
f 145//55 230//55 144//55
f 144//56 228//56 176//56
f 176//57 229//57 175//57
f 175//58 204//58 179//58
f 179//59 203//59 173//59
f 173//60 202//60 174//60
f 174//61 226//61 143//61
f 143//62 227//62 142//62
f 142//64 256//64 141//64
f 141//65 242//65 172//65
f 172//1 243//1 171//1
f 171//2 207//2 191//2
f 191//3 206//3 168//3
f 168//4 205//4 169//4
f 169//5 240//5 140//5
f 140//6 241//6 139//6
f 139//7 239//7 138//7
f 138//8 238//8 166//8
f 167//9 238//9 237//9
f 170//10 237//10 210//10
f 164//11 210//11 209//11
f 165//12 209//12 208//12
f 137//13 208//13 235//13
f 136//14 235//14 236//14
f 135//15 236//15 255//15
f 162//16 255//16 244//16
f 163//17 244//17 245//17
f 189//18 245//18 211//18
f 153//19 211//19 213//19
f 154//20 213//20 212//20
f 132//21 212//21 247//21
f 134//22 247//22 246//22
f 133//23 246//23 252//23
f 156//24 252//24 249//24
f 155//25 249//25 248//25
f 161//26 248//26 214//26
f 158//27 214//27 216//27
f 157//28 216//28 215//28
f 129//29 215//29 250//29
f 131//30 250//30 251//30
f 130//31 251//31 253//31
f 160//32 253//32 217//32
f 258//66 259//66 257//66
f 260//67 263//67 259//67
f 263//63 262//63 261//63
f 262//68 257//68 261//68
f 263//69 257//69 259//69
f 260//70 262//70 264//70
f 2//1 4//1 3//1
f 4//2 6//2 5//2
f 6//3 8//3 7//3
f 8//4 10//4 9//4
f 10//5 12//5 11//5
f 12//6 14//6 13//6
f 14//7 16//7 15//7
f 16//8 18//8 17//8
f 18//9 20//9 19//9
f 20//10 22//10 21//10
f 22//11 24//11 23//11
f 24//12 26//12 25//12
f 26//13 28//13 27//13
f 28//14 30//14 29//14
f 30//15 32//15 31//15
f 32//16 34//16 33//16
f 34//17 36//17 35//17
f 36//18 38//18 37//18
f 38//19 40//19 39//19
f 40//20 42//20 41//20
f 42//21 44//21 43//21
f 44//22 46//22 45//22
f 46//23 48//23 47//23
f 48//24 50//24 49//24
f 50//25 52//25 51//25
f 52//26 54//26 53//26
f 54//27 56//27 55//27
f 56//28 58//28 57//28
f 58//29 60//29 59//29
f 60//30 62//30 61//30
f 62//31 64//31 63//31
f 64//32 66//32 65//32
f 66//33 68//33 67//33
f 68//34 70//34 69//34
f 70//35 72//35 71//35
f 72//36 74//36 73//36
f 74//37 76//37 75//37
f 76//38 78//38 77//38
f 78//39 80//39 79//39
f 80//40 82//40 81//40
f 82//41 84//41 83//41
f 84//42 86//42 85//42
f 86//43 88//43 87//43
f 88//44 90//44 89//44
f 90//45 92//45 91//45
f 92//46 94//46 93//46
f 94//47 96//47 95//47
f 96//48 98//48 97//48
f 98//49 100//49 99//49
f 100//50 102//50 101//50
f 102//51 104//51 103//51
f 104//52 106//52 105//52
f 106//53 108//53 107//53
f 108//54 110//54 109//54
f 110//55 112//55 111//55
f 112//56 114//56 113//56
f 114//57 116//57 115//57
f 116//58 118//58 117//58
f 118//59 120//59 119//59
f 120//60 122//60 121//60
f 122//61 124//61 123//61
f 124//62 126//62 125//62
f 146//63 145//63 46//63
f 46//63 44//63 42//63
f 42//63 40//63 38//63
f 38//63 36//63 34//63
f 34//63 32//63 30//63
f 30//63 28//63 26//63
f 26//63 24//63 22//63
f 22//63 20//63 18//63
f 18//63 16//63 14//63
f 14//63 12//63 10//63
f 10//63 8//63 6//63
f 6//63 4//63 2//63
f 2//63 128//63 126//63
f 126//63 124//63 122//63
f 122//63 120//63 118//63
f 118//63 161//63 158//63
f 118//63 158//63 157//63
f 126//63 122//63 118//63
f 6//63 2//63 126//63
f 14//63 10//63 6//63
f 22//63 18//63 14//63
f 30//63 26//63 22//63
f 38//63 34//63 30//63
f 46//63 42//63 38//63
f 178//63 146//63 46//63
f 177//63 178//63 46//63
f 126//63 118//63 157//63
f 126//63 157//63 129//63
f 177//63 46//63 38//63
f 192//63 177//63 38//63
f 126//63 129//63 131//63
f 126//63 131//63 130//63
f 192//63 38//63 30//63
f 187//63 192//63 30//63
f 6//63 126//63 130//63
f 6//63 130//63 160//63
f 186//63 187//63 30//63
f 148//63 186//63 30//63
f 6//63 160//63 159//63
f 6//63 159//63 190//63
f 149//63 148//63 30//63
f 147//63 149//63 30//63
f 14//63 6//63 190//63
f 14//63 190//63 180//63
f 147//63 30//63 22//63
f 185//63 147//63 22//63
f 14//63 180//63 181//63
f 14//63 181//63 150//63
f 184//63 185//63 22//63
f 188//63 184//63 22//63
f 14//63 150//63 152//63
f 14//63 152//63 151//63
f 188//63 22//63 14//63
f 182//63 188//63 14//63
f 14//63 151//63 183//63
f 161//63 118//63 116//63
f 116//63 114//63 112//63
f 112//63 110//63 108//63
f 108//63 106//63 104//63
f 104//63 102//63 100//63
f 100//63 98//63 96//63
f 96//63 94//63 92//63
f 92//63 90//63 88//63
f 88//63 86//63 84//63
f 84//63 82//63 80//63
f 80//63 78//63 76//63
f 76//63 74//63 72//63
f 72//63 70//63 68//63
f 68//63 66//63 64//63
f 64//63 62//63 60//63
f 60//63 58//63 56//63
f 56//63 54//63 52//63
f 52//63 50//63 48//63
f 48//63 46//63 145//63
f 48//63 145//63 144//63
f 56//63 52//63 48//63
f 64//63 60//63 56//63
f 72//63 68//63 64//63
f 80//63 76//63 72//63
f 88//63 84//63 80//63
f 96//63 92//63 88//63
f 104//63 100//63 96//63
f 112//63 108//63 104//63
f 161//63 116//63 112//63
f 155//63 161//63 112//63
f 56//63 48//63 144//63
f 56//63 144//63 176//63
f 156//63 155//63 112//63
f 133//63 156//63 112//63
f 56//63 176//63 175//63
f 56//63 175//63 179//63
f 133//63 112//63 104//63
f 134//63 133//63 104//63
f 56//63 179//63 173//63
f 56//63 173//63 174//63
f 132//63 134//63 104//63
f 154//63 132//63 104//63
f 64//63 56//63 174//63
f 64//63 174//63 143//63
f 153//63 154//63 104//63
f 189//63 153//63 104//63
f 64//63 143//63 142//63
f 64//63 142//63 141//63
f 189//63 104//63 96//63
f 163//63 189//63 96//63
f 72//63 64//63 141//63
f 72//63 141//63 172//63
f 162//63 163//63 96//63
f 135//63 162//63 96//63
f 72//63 172//63 171//63
f 72//63 171//63 191//63
f 135//63 96//63 88//63
f 136//63 135//63 88//63
f 72//63 191//63 168//63
f 72//63 168//63 169//63
f 137//63 136//63 88//63
f 165//63 137//63 88//63
f 80//63 72//63 169//63
f 80//63 169//63 140//63
f 164//63 165//63 88//63
f 170//63 164//63 88//63
f 80//63 140//63 139//63
f 80//63 139//63 138//63
f 170//63 88//63 80//63
f 167//63 170//63 80//63
f 80//63 138//63 166//63
f 126//64 128//64 127//64
f 128//65 2//65 1//65
f 197//66 198//66 23//66
f 23//66 25//66 27//66
f 27//66 29//66 31//66
f 31//66 33//66 35//66
f 35//66 37//66 39//66
f 39//66 41//66 43//66
f 43//66 45//66 47//66
f 47//66 49//66 51//66
f 51//66 53//66 55//66
f 55//66 57//66 59//66
f 59//66 61//66 63//66
f 63//66 65//66 67//66
f 67//66 69//66 71//66
f 71//66 73//66 75//66
f 75//66 77//66 79//66
f 79//66 81//66 83//66
f 83//66 85//66 87//66
f 87//66 89//66 91//66
f 91//66 93//66 95//66
f 95//66 97//66 99//66
f 99//66 101//66 103//66
f 103//66 105//66 107//66
f 107//66 109//66 111//66
f 111//66 113//66 115//66
f 115//66 117//66 119//66
f 119//66 216//66 214//66
f 119//66 214//66 248//66
f 111//66 115//66 119//66
f 103//66 107//66 111//66
f 95//66 99//66 103//66
f 87//66 91//66 95//66
f 79//66 83//66 87//66
f 71//66 75//66 79//66
f 63//66 67//66 71//66
f 55//66 59//66 63//66
f 47//66 51//66 55//66
f 39//66 43//66 47//66
f 31//66 35//66 39//66
f 23//66 27//66 31//66
f 223//66 197//66 23//66
f 224//66 223//66 23//66
f 111//66 119//66 248//66
f 111//66 248//66 249//66
f 224//66 23//66 31//66
f 254//66 224//66 31//66
f 111//66 249//66 252//66
f 111//66 252//66 246//66
f 254//66 31//66 39//66
f 233//66 254//66 39//66
f 103//66 111//66 246//66
f 103//66 246//66 247//66
f 234//66 233//66 39//66
f 201//66 234//66 39//66
f 103//66 247//66 212//66
f 103//66 212//66 213//66
f 200//66 201//66 39//66
f 199//66 200//66 39//66
f 95//66 103//66 213//66
f 95//66 213//66 211//66
f 199//66 39//66 47//66
f 231//66 199//66 47//66
f 95//66 211//66 245//66
f 95//66 245//66 244//66
f 232//66 231//66 47//66
f 230//66 232//66 47//66
f 95//66 244//66 255//66
f 95//66 255//66 236//66
f 230//66 47//66 55//66
f 228//66 230//66 55//66
f 87//66 95//66 236//66
f 87//66 236//66 235//66
f 229//66 228//66 55//66
f 204//66 229//66 55//66
f 87//66 235//66 208//66
f 87//66 208//66 209//66
f 203//66 204//66 55//66
f 202//66 203//66 55//66
f 79//66 87//66 209//66
f 79//66 209//66 210//66
f 202//66 55//66 63//66
f 226//66 202//66 63//66
f 79//66 210//66 237//66
f 79//66 237//66 238//66
f 227//66 226//66 63//66
f 256//66 227//66 63//66
f 79//66 238//66 239//66
f 79//66 239//66 241//66
f 256//66 63//66 71//66
f 242//66 256//66 71//66
f 71//66 79//66 241//66
f 71//66 241//66 240//66
f 243//66 242//66 71//66
f 207//66 243//66 71//66
f 71//66 240//66 205//66
f 206//66 207//66 71//66
f 215//66 216//66 119//66
f 119//66 121//66 123//66
f 123//66 125//66 127//66
f 127//66 1//66 3//66
f 3//66 5//66 7//66
f 7//66 9//66 11//66
f 11//66 13//66 15//66
f 15//66 17//66 19//66
f 19//66 21//66 23//66
f 23//66 198//66 196//66
f 23//66 196//66 222//66
f 15//66 19//66 23//66
f 7//66 11//66 15//66
f 127//66 3//66 7//66
f 119//66 123//66 127//66
f 250//66 215//66 119//66
f 251//66 250//66 119//66
f 15//66 23//66 222//66
f 15//66 222//66 221//66
f 251//66 119//66 127//66
f 253//66 251//66 127//66
f 15//66 221//66 225//66
f 15//66 225//66 219//66
f 253//66 127//66 7//66
f 217//66 253//66 7//66
f 7//66 15//66 219//66
f 7//66 219//66 220//66
f 218//66 217//66 7//66
f 193//66 218//66 7//66
f 7//66 220//66 194//66
f 195//66 193//66 7//66
f 159//33 160//33 217//33
f 190//34 159//34 218//34
f 180//35 190//35 193//35
f 181//36 180//36 195//36
f 150//37 181//37 194//37
f 152//38 150//38 220//38
f 151//39 152//39 219//39
f 183//40 151//40 225//40
f 183//41 221//41 222//41
f 182//42 222//42 196//42
f 188//43 196//43 198//43
f 184//44 198//44 197//44
f 185//45 197//45 223//45
f 147//46 223//46 224//46
f 149//47 224//47 254//47
f 148//48 254//48 233//48
f 186//49 233//49 234//49
f 187//50 234//50 201//50
f 192//51 201//51 200//51
f 177//52 200//52 199//52
f 178//53 199//53 231//53
f 146//54 231//54 232//54
f 145//55 232//55 230//55
f 144//56 230//56 228//56
f 176//57 228//57 229//57
f 175//58 229//58 204//58
f 179//59 204//59 203//59
f 173//60 203//60 202//60
f 174//61 202//61 226//61
f 143//62 226//62 227//62
f 142//64 227//64 256//64
f 141//65 256//65 242//65
f 172//1 242//1 243//1
f 171//2 243//2 207//2
f 191//3 207//3 206//3
f 168//4 206//4 205//4
f 169//5 205//5 240//5
f 140//6 240//6 241//6
f 139//7 241//7 239//7
f 138//8 239//8 238//8
f 167//9 166//9 238//9
f 170//10 167//10 237//10
f 164//11 170//11 210//11
f 165//12 164//12 209//12
f 137//13 165//13 208//13
f 136//14 137//14 235//14
f 135//15 136//15 236//15
f 162//16 135//16 255//16
f 163//17 162//17 244//17
f 189//18 163//18 245//18
f 153//19 189//19 211//19
f 154//20 153//20 213//20
f 132//21 154//21 212//21
f 134//22 132//22 247//22
f 133//23 134//23 246//23
f 156//24 133//24 252//24
f 155//25 156//25 249//25
f 161//26 155//26 248//26
f 158//27 161//27 214//27
f 157//28 158//28 216//28
f 129//29 157//29 215//29
f 131//30 129//30 250//30
f 130//31 131//31 251//31
f 160//32 130//32 253//32
f 258//66 260//66 259//66
f 260//67 264//67 263//67
f 263//63 264//63 262//63
f 262//68 258//68 257//68
f 263//69 261//69 257//69
f 260//70 258//70 262//70
