# Blender 5.2.2 LTS
# www.blender.org
mtllib rotor_lock.mtl
o rotor_lock
v 0.280000 -0.620000 -0.120000
v 0.280000 -0.620000 0.120000
v 0.280000 -0.380000 -0.120000
v 0.280000 -0.380000 0.120000
v 0.500000 -0.620000 -0.120000
v 0.500000 -0.620000 0.120000
v 0.500000 -0.380000 -0.120000
v 0.500000 -0.380000 0.120000
v 0.200000 -0.600000 -0.450000
v 0.200000 -0.600000 -0.120000
v 0.200000 -0.400000 -0.450000
v 0.200000 -0.400000 -0.120000
v 0.400000 -0.600000 -0.450000
v 0.400000 -0.600000 -0.120000
v 0.400000 -0.400000 -0.450000
v 0.400000 -0.400000 -0.120000
v 0.200000 -0.500000 -0.112000
v 0.206000 -0.500000 -0.110392
v 0.210392 -0.500000 -0.106000
v 0.212000 -0.500000 -0.100000
v 0.210392 -0.500000 -0.094000
v 0.206000 -0.500000 -0.089608
v 0.200000 -0.500000 -0.088000
v 0.194000 -0.500000 -0.089608
v 0.189608 -0.500000 -0.094000
v 0.188000 -0.500000 -0.100000
v 0.189608 -0.500000 -0.106000
v 0.194000 -0.500000 -0.110392
v 0.200000 -0.485381 -0.111042
v 0.206000 -0.485591 -0.109448
v 0.210392 -0.486164 -0.105093
v 0.212000 -0.486947 -0.099144
v 0.210392 -0.487731 -0.093196
v 0.206000 -0.488304 -0.088841
v 0.200000 -0.488514 -0.087247
v 0.194000 -0.488304 -0.088841
v 0.189608 -0.487731 -0.093196
v 0.188000 -0.486947 -0.099144
v 0.189608 -0.486164 -0.105093
v 0.194000 -0.485591 -0.109448
v 0.200000 -0.471012 -0.108184
v 0.206000 -0.471428 -0.106631
v 0.210392 -0.472565 -0.102388
v 0.212000 -0.474118 -0.096593
v 0.210392 -0.475671 -0.090797
v 0.206000 -0.476808 -0.086554
v 0.200000 -0.477224 -0.085001
v 0.194000 -0.476808 -0.086554
v 0.189608 -0.475671 -0.090797
v 0.188000 -0.474118 -0.096593
v 0.189608 -0.472565 -0.102388
v 0.194000 -0.471428 -0.106631
v 0.200000 -0.457139 -0.103475
v 0.206000 -0.457755 -0.101989
v 0.210392 -0.459436 -0.097931
v 0.212000 -0.461732 -0.092388
v 0.210392 -0.464028 -0.086845
v 0.206000 -0.465709 -0.082787
v 0.200000 -0.466324 -0.081301
v 0.194000 -0.465709 -0.082787
v 0.189608 -0.464028 -0.086845
v 0.188000 -0.461732 -0.092388
v 0.189608 -0.459436 -0.097931
v 0.194000 -0.457755 -0.101989
v 0.200000 -0.444000 -0.096995
v 0.206000 -0.444804 -0.095603
v 0.210392 -0.447000 -0.091799
v 0.212000 -0.450000 -0.086603
v 0.210392 -0.453000 -0.081406
v 0.206000 -0.455196 -0.077603
v 0.200000 -0.456000 -0.076210
v 0.194000 -0.455196 -0.077603
v 0.189608 -0.453000 -0.081406
v 0.188000 -0.450000 -0.086603
v 0.189608 -0.447000 -0.091799
v 0.194000 -0.444804 -0.095603
v 0.200000 -0.431819 -0.088856
v 0.206000 -0.432797 -0.087580
v 0.210392 -0.435471 -0.084095
v 0.212000 -0.439124 -0.079335
v 0.210392 -0.442776 -0.074575
v 0.206000 -0.445450 -0.071091
v 0.200000 -0.446429 -0.069815
v 0.194000 -0.445450 -0.071091
v 0.189608 -0.442776 -0.074575
v 0.188000 -0.439124 -0.079335
v 0.189608 -0.435471 -0.084095
v 0.194000 -0.432797 -0.087580
v 0.200000 -0.420804 -0.079196
v 0.206000 -0.421941 -0.078059
v 0.210392 -0.425047 -0.074953
v 0.212000 -0.429289 -0.070711
v 0.210392 -0.433532 -0.066468
v 0.206000 -0.436638 -0.063362
v 0.200000 -0.437775 -0.062225
v 0.194000 -0.436638 -0.063362
v 0.189608 -0.433532 -0.066468
v 0.188000 -0.429289 -0.070711
v 0.189608 -0.425047 -0.074953
v 0.194000 -0.421941 -0.078059
v 0.200000 -0.411144 -0.068181
v 0.206000 -0.412420 -0.067203
v 0.210392 -0.415905 -0.064529
v 0.212000 -0.420665 -0.060876
v 0.210392 -0.425425 -0.057224
v 0.206000 -0.428909 -0.054550
v 0.200000 -0.430185 -0.053571
v 0.194000 -0.428909 -0.054550
v 0.189608 -0.425425 -0.057224
v 0.188000 -0.420665 -0.060876
v 0.189608 -0.415905 -0.064529
v 0.194000 -0.412420 -0.067203
v 0.200000 -0.403005 -0.056000
v 0.206000 -0.404397 -0.055196
v 0.210392 -0.408201 -0.053000
v 0.212000 -0.413397 -0.050000
v 0.210392 -0.418594 -0.047000
v 0.206000 -0.422397 -0.044804
v 0.200000 -0.423790 -0.044000
v 0.194000 -0.422397 -0.044804
v 0.189608 -0.418594 -0.047000
v 0.188000 -0.413397 -0.050000
v 0.189608 -0.408201 -0.053000
v 0.194000 -0.404397 -0.055196
v 0.200000 -0.396526 -0.042861
v 0.206000 -0.398011 -0.042245
v 0.210392 -0.402069 -0.040564
v 0.212000 -0.407612 -0.038268
v 0.210392 -0.413155 -0.035972
v 0.206000 -0.417213 -0.034291
v 0.200000 -0.418699 -0.033676
v 0.194000 -0.417213 -0.034291
v 0.189608 -0.413155 -0.035972
v 0.188000 -0.407612 -0.038268
v 0.189608 -0.402069 -0.040564
v 0.194000 -0.398011 -0.042245
v 0.200000 -0.391816 -0.028988
v 0.206000 -0.393369 -0.028572
v 0.210392 -0.397612 -0.027435
v 0.212000 -0.403407 -0.025882
v 0.210392 -0.409203 -0.024329
v 0.206000 -0.413446 -0.023192
v 0.200000 -0.414999 -0.022776
v 0.194000 -0.413446 -0.023192
v 0.189608 -0.409203 -0.024329
v 0.188000 -0.403407 -0.025882
v 0.189608 -0.397612 -0.027435
v 0.194000 -0.393369 -0.028572
v 0.200000 -0.388958 -0.014619
v 0.206000 -0.390552 -0.014409
v 0.210392 -0.394907 -0.013836
v 0.212000 -0.400856 -0.013053
v 0.210392 -0.406804 -0.012269
v 0.206000 -0.411159 -0.011696
v 0.200000 -0.412753 -0.011486
v 0.194000 -0.411159 -0.011696
v 0.189608 -0.406804 -0.012269
v 0.188000 -0.400856 -0.013053
v 0.189608 -0.394907 -0.013836
v 0.194000 -0.390552 -0.014409
v 0.200000 -0.388000 -0.000000
v 0.206000 -0.389608 -0.000000
v 0.210392 -0.394000 -0.000000
v 0.212000 -0.400000 -0.000000
v 0.210392 -0.406000 -0.000000
v 0.206000 -0.410392 -0.000000
v 0.200000 -0.412000 -0.000000
v 0.194000 -0.410392 -0.000000
v 0.189608 -0.406000 -0.000000
v 0.188000 -0.400000 -0.000000
v 0.189608 -0.394000 -0.000000
v 0.194000 -0.389608 -0.000000
v 0.200000 -0.388958 0.014619
v 0.206000 -0.390552 0.014409
v 0.210392 -0.394907 0.013836
v 0.212000 -0.400856 0.013053
v 0.210392 -0.406804 0.012269
v 0.206000 -0.411159 0.011696
v 0.200000 -0.412753 0.011486
v 0.194000 -0.411159 0.011696
v 0.189608 -0.406804 0.012269
v 0.188000 -0.400856 0.013053
v 0.189608 -0.394907 0.013836
v 0.194000 -0.390552 0.014409
v 0.200000 -0.391816 0.028988
v 0.206000 -0.393369 0.028572
v 0.210392 -0.397612 0.027435
v 0.212000 -0.403407 0.025882
v 0.210392 -0.409203 0.024329
v 0.206000 -0.413446 0.023192
v 0.200000 -0.414999 0.022776
v 0.194000 -0.413446 0.023192
v 0.189608 -0.409203 0.024329
v 0.188000 -0.403407 0.025882
v 0.189608 -0.397612 0.027435
v 0.194000 -0.393369 0.028572
v 0.200000 -0.396526 0.042861
v 0.206000 -0.398011 0.042245
v 0.210392 -0.402069 0.040564
v 0.212000 -0.407612 0.038268
v 0.210392 -0.413155 0.035972
v 0.206000 -0.417213 0.034291
v 0.200000 -0.418699 0.033676
v 0.194000 -0.417213 0.034291
v 0.189608 -0.413155 0.035972
v 0.188000 -0.407612 0.038268
v 0.189608 -0.402069 0.040564
v 0.194000 -0.398011 0.042245
v 0.200000 -0.403005 0.056000
v 0.206000 -0.404397 0.055196
v 0.210392 -0.408201 0.053000
v 0.212000 -0.413397 0.050000
v 0.210392 -0.418594 0.047000
v 0.206000 -0.422397 0.044804
v 0.200000 -0.423790 0.044000
v 0.194000 -0.422397 0.044804
v 0.189608 -0.418594 0.047000
v 0.188000 -0.413397 0.050000
v 0.189608 -0.408201 0.053000
v 0.194000 -0.404397 0.055196
v 0.200000 -0.411144 0.068181
v 0.206000 -0.412420 0.067203
v 0.210392 -0.415905 0.064529
v 0.212000 -0.420665 0.060876
v 0.210392 -0.425425 0.057224
v 0.206000 -0.428909 0.054550
v 0.200000 -0.430185 0.053571
v 0.194000 -0.428909 0.054550
v 0.189608 -0.425425 0.057224
v 0.188000 -0.420665 0.060876
v 0.189608 -0.415905 0.064529
v 0.194000 -0.412420 0.067203
v 0.200000 -0.420804 0.079196
v 0.206000 -0.421941 0.078059
v 0.210392 -0.425047 0.074953
v 0.212000 -0.429289 0.070711
v 0.210392 -0.433532 0.066468
v 0.206000 -0.436638 0.063362
v 0.200000 -0.437775 0.062225
v 0.194000 -0.436638 0.063362
v 0.189608 -0.433532 0.066468
v 0.188000 -0.429289 0.070711
v 0.189608 -0.425047 0.074953
v 0.194000 -0.421941 0.078059
v 0.200000 -0.431819 0.088856
v 0.206000 -0.432797 0.087580
v 0.210392 -0.435471 0.084095
v 0.212000 -0.439124 0.079335
v 0.210392 -0.442776 0.074575
v 0.206000 -0.445450 0.071091
v 0.200000 -0.446429 0.069815
v 0.194000 -0.445450 0.071091
v 0.189608 -0.442776 0.074575
v 0.188000 -0.439124 0.079335
v 0.189608 -0.435471 0.084095
v 0.194000 -0.432797 0.087580
v 0.200000 -0.444000 0.096995
v 0.206000 -0.444804 0.095603
v 0.210392 -0.447000 0.091799
v 0.212000 -0.450000 0.086603
v 0.210392 -0.453000 0.081406
v 0.206000 -0.455196 0.077603
v 0.200000 -0.456000 0.076210
v 0.194000 -0.455196 0.077603
v 0.189608 -0.453000 0.081406
v 0.188000 -0.450000 0.086603
v 0.189608 -0.447000 0.091799
v 0.194000 -0.444804 0.095603
v 0.200000 -0.457139 0.103475
v 0.206000 -0.457755 0.101989
v 0.210392 -0.459436 0.097931
v 0.212000 -0.461732 0.092388
v 0.210392 -0.464028 0.086845
v 0.206000 -0.465709 0.082787
v 0.200000 -0.466324 0.081301
v 0.194000 -0.465709 0.082787
v 0.189608 -0.464028 0.086845
v 0.188000 -0.461732 0.092388
v 0.189608 -0.459436 0.097931
v 0.194000 -0.457755 0.101989
v 0.200000 -0.471012 0.108184
v 0.206000 -0.471428 0.106631
v 0.210392 -0.472565 0.102388
v 0.212000 -0.474118 0.096593
v 0.210392 -0.475671 0.090797
v 0.206000 -0.476808 0.086554
v 0.200000 -0.477224 0.085001
v 0.194000 -0.476808 0.086554
v 0.189608 -0.475671 0.090797
v 0.188000 -0.474118 0.096593
v 0.189608 -0.472565 0.102388
v 0.194000 -0.471428 0.106631
v 0.200000 -0.485381 0.111042
v 0.206000 -0.485591 0.109448
v 0.210392 -0.486164 0.105093
v 0.212000 -0.486947 0.099144
v 0.210392 -0.487731 0.093196
v 0.206000 -0.488304 0.088841
v 0.200000 -0.488514 0.087247
v 0.194000 -0.488304 0.088841
v 0.189608 -0.487731 0.093196
v 0.188000 -0.486947 0.099144
v 0.189608 -0.486164 0.105093
v 0.194000 -0.485591 0.109448
v 0.200000 -0.500000 0.112000
v 0.206000 -0.500000 0.110392
v 0.210392 -0.500000 0.106000
v 0.212000 -0.500000 0.100000
v 0.210392 -0.500000 0.094000
v 0.206000 -0.500000 0.089608
v 0.200000 -0.500000 0.088000
v 0.194000 -0.500000 0.089608
v 0.189608 -0.500000 0.094000
v 0.188000 -0.500000 0.100000
v 0.189608 -0.500000 0.106000
v 0.194000 -0.500000 0.110392
v 0.200000 -0.514619 0.111042
v 0.206000 -0.514409 0.109448
v 0.210392 -0.513836 0.105093
v 0.212000 -0.513053 0.099144
v 0.210392 -0.512269 0.093196
v 0.206000 -0.511696 0.088841
v 0.200000 -0.511486 0.087247
v 0.194000 -0.511696 0.088841
v 0.189608 -0.512269 0.093196
v 0.188000 -0.513053 0.099144
v 0.189608 -0.513836 0.105093
v 0.194000 -0.514409 0.109448
v 0.200000 -0.528988 0.108184
v 0.206000 -0.528572 0.106631
v 0.210392 -0.527435 0.102388
v 0.212000 -0.525882 0.096593
v 0.210392 -0.524329 0.090797
v 0.206000 -0.523192 0.086554
v 0.200000 -0.522776 0.085001
v 0.194000 -0.523192 0.086554
v 0.189608 -0.524329 0.090797
v 0.188000 -0.525882 0.096593
v 0.189608 -0.527435 0.102388
v 0.194000 -0.528572 0.106631
v 0.200000 -0.542861 0.103475
v 0.206000 -0.542245 0.101989
v 0.210392 -0.540564 0.097931
v 0.212000 -0.538268 0.092388
v 0.210392 -0.535972 0.086845
v 0.206000 -0.534291 0.082787
v 0.200000 -0.533676 0.081301
v 0.194000 -0.534291 0.082787
v 0.189608 -0.535972 0.086845
v 0.188000 -0.538268 0.092388
v 0.189608 -0.540564 0.097931
v 0.194000 -0.542245 0.101989
v 0.200000 -0.556000 0.096995
v 0.206000 -0.555196 0.095603
v 0.210392 -0.553000 0.091799
v 0.212000 -0.550000 0.086603
v 0.210392 -0.547000 0.081406
v 0.206000 -0.544804 0.077603
v 0.200000 -0.544000 0.076210
v 0.194000 -0.544804 0.077603
v 0.189608 -0.547000 0.081406
v 0.188000 -0.550000 0.086603
v 0.189608 -0.553000 0.091799
v 0.194000 -0.555196 0.095603
v 0.200000 -0.568181 0.088856
v 0.206000 -0.567203 0.087580
v 0.210392 -0.564529 0.084095
v 0.212000 -0.560876 0.079335
v 0.210392 -0.557224 0.074575
v 0.206000 -0.554550 0.071091
v 0.200000 -0.553571 0.069815
v 0.194000 -0.554550 0.071091
v 0.189608 -0.557224 0.074575
v 0.188000 -0.560876 0.079335
v 0.189608 -0.564529 0.084095
v 0.194000 -0.567203 0.087580
v 0.200000 -0.579196 0.079196
v 0.206000 -0.578059 0.078059
v 0.210392 -0.574953 0.074953
v 0.212000 -0.570711 0.070711
v 0.210392 -0.566468 0.066468
v 0.206000 -0.563362 0.063362
v 0.200000 -0.562225 0.062225
v 0.194000 -0.563362 0.063362
v 0.189608 -0.566468 0.066468
v 0.188000 -0.570711 0.070711
v 0.189608 -0.574953 0.074953
v 0.194000 -0.578059 0.078059
v 0.200000 -0.588856 0.068181
v 0.206000 -0.587580 0.067203
v 0.210392 -0.584095 0.064529
v 0.212000 -0.579335 0.060876
v 0.210392 -0.574575 0.057224
v 0.206000 -0.571091 0.054550
v 0.200000 -0.569815 0.053571
v 0.194000 -0.571091 0.054550
v 0.189608 -0.574575 0.057224
v 0.188000 -0.579335 0.060876
v 0.189608 -0.584095 0.064529
v 0.194000 -0.587580 0.067203
v 0.200000 -0.596995 0.056000
v 0.206000 -0.595603 0.055196
v 0.210392 -0.591799 0.053000
v 0.212000 -0.586603 0.050000
v 0.210392 -0.581406 0.047000
v 0.206000 -0.577603 0.044804
v 0.200000 -0.576210 0.044000
v 0.194000 -0.577603 0.044804
v 0.189608 -0.581406 0.047000
v 0.188000 -0.586603 0.050000
v 0.189608 -0.591799 0.053000
v 0.194000 -0.595603 0.055196
v 0.200000 -0.603474 0.042861
v 0.206000 -0.601989 0.042245
v 0.210392 -0.597931 0.040564
v 0.212000 -0.592388 0.038268
v 0.210392 -0.586845 0.035972
v 0.206000 -0.582787 0.034291
v 0.200000 -0.581301 0.033676
v 0.194000 -0.582787 0.034291
v 0.189608 -0.586845 0.035972
v 0.188000 -0.592388 0.038268
v 0.189608 -0.597931 0.040564
v 0.194000 -0.601989 0.042245
v 0.200000 -0.608184 0.028988
v 0.206000 -0.606631 0.028572
v 0.210392 -0.602388 0.027435
v 0.212000 -0.596593 0.025882
v 0.210392 -0.590797 0.024329
v 0.206000 -0.586554 0.023192
v 0.200000 -0.585001 0.022776
v 0.194000 -0.586554 0.023192
v 0.189608 -0.590797 0.024329
v 0.188000 -0.596593 0.025882
v 0.189608 -0.602388 0.027435
v 0.194000 -0.606631 0.028572
v 0.200000 -0.611042 0.014619
v 0.206000 -0.609448 0.014409
v 0.210392 -0.605093 0.013836
v 0.212000 -0.599144 0.013053
v 0.210392 -0.593196 0.012270
v 0.206000 -0.588841 0.011696
v 0.200000 -0.587247 0.011486
v 0.194000 -0.588841 0.011696
v 0.189608 -0.593196 0.012270
v 0.188000 -0.599144 0.013053
v 0.189608 -0.605093 0.013836
v 0.194000 -0.609448 0.014409
v 0.200000 -0.612000 -0.000000
v 0.206000 -0.610392 -0.000000
v 0.210392 -0.606000 -0.000000
v 0.212000 -0.600000 -0.000000
v 0.210392 -0.594000 -0.000000
v 0.206000 -0.589608 -0.000000
v 0.200000 -0.588000 -0.000000
v 0.194000 -0.589608 -0.000000
v 0.189608 -0.594000 -0.000000
v 0.188000 -0.600000 -0.000000
v 0.189608 -0.606000 -0.000000
v 0.194000 -0.610392 -0.000000
v 0.200000 -0.611042 -0.014619
v 0.206000 -0.609448 -0.014409
v 0.210392 -0.605093 -0.013836
v 0.212000 -0.599144 -0.013053
v 0.210392 -0.593196 -0.012269
v 0.206000 -0.588841 -0.011696
v 0.200000 -0.587247 -0.011486
v 0.194000 -0.588841 -0.011696
v 0.189608 -0.593196 -0.012269
v 0.188000 -0.599144 -0.013053
v 0.189608 -0.605093 -0.013836
v 0.194000 -0.609448 -0.014409
v 0.200000 -0.608184 -0.028988
v 0.206000 -0.606631 -0.028572
v 0.210392 -0.602388 -0.027435
v 0.212000 -0.596593 -0.025882
v 0.210392 -0.590797 -0.024329
v 0.206000 -0.586554 -0.023192
v 0.200000 -0.585001 -0.022776
v 0.194000 -0.586554 -0.023192
v 0.189608 -0.590797 -0.024329
v 0.188000 -0.596593 -0.025882
v 0.189608 -0.602388 -0.027435
v 0.194000 -0.606631 -0.028572
v 0.200000 -0.603474 -0.042861
v 0.206000 -0.601989 -0.042245
v 0.210392 -0.597931 -0.040564
v 0.212000 -0.592388 -0.038268
v 0.210392 -0.586845 -0.035972
v 0.206000 -0.582787 -0.034291
v 0.200000 -0.581301 -0.033676
v 0.194000 -0.582787 -0.034291
v 0.189608 -0.586845 -0.035972
v 0.188000 -0.592388 -0.038268
v 0.189608 -0.597931 -0.040564
v 0.194000 -0.601989 -0.042245
v 0.200000 -0.596995 -0.056000
v 0.206000 -0.595603 -0.055196
v 0.210392 -0.591799 -0.053000
v 0.212000 -0.586603 -0.050000
v 0.210392 -0.581406 -0.047000
v 0.206000 -0.577603 -0.044804
v 0.200000 -0.576210 -0.044000
v 0.194000 -0.577603 -0.044804
v 0.189608 -0.581406 -0.047000
v 0.188000 -0.586603 -0.050000
v 0.189608 -0.591799 -0.053000
v 0.194000 -0.595603 -0.055196
v 0.200000 -0.588856 -0.068181
v 0.206000 -0.587580 -0.067203
v 0.210392 -0.584095 -0.064529
v 0.212000 -0.579335 -0.060876
v 0.210392 -0.574575 -0.057224
v 0.206000 -0.571091 -0.054550
v 0.200000 -0.569815 -0.053571
v 0.194000 -0.571091 -0.054550
v 0.189608 -0.574575 -0.057224
v 0.188000 -0.579335 -0.060876
v 0.189608 -0.584095 -0.064529
v 0.194000 -0.587580 -0.067203
v 0.200000 -0.579196 -0.079196
v 0.206000 -0.578059 -0.078059
v 0.210392 -0.574953 -0.074953
v 0.212000 -0.570711 -0.070711
v 0.210392 -0.566468 -0.066468
v 0.206000 -0.563362 -0.063362
v 0.200000 -0.562225 -0.062225
v 0.194000 -0.563362 -0.063362
v 0.189608 -0.566468 -0.066468
v 0.188000 -0.570711 -0.070711
v 0.189608 -0.574953 -0.074953
v 0.194000 -0.578059 -0.078059
v 0.200000 -0.568181 -0.088856
v 0.206000 -0.567203 -0.087580
v 0.210392 -0.564529 -0.084095
v 0.212000 -0.560876 -0.079335
v 0.210392 -0.557224 -0.074575
v 0.206000 -0.554550 -0.071091
v 0.200000 -0.553571 -0.069815
v 0.194000 -0.554550 -0.071091
v 0.189608 -0.557224 -0.074575
v 0.188000 -0.560876 -0.079335
v 0.189608 -0.564529 -0.084095
v 0.194000 -0.567203 -0.087580
v 0.200000 -0.556000 -0.096995
v 0.206000 -0.555196 -0.095603
v 0.210392 -0.553000 -0.091799
v 0.212000 -0.550000 -0.086603
v 0.210392 -0.547000 -0.081406
v 0.206000 -0.544804 -0.077603
v 0.200000 -0.544000 -0.076210
v 0.194000 -0.544804 -0.077603
v 0.189608 -0.547000 -0.081406
v 0.188000 -0.550000 -0.086603
v 0.189608 -0.553000 -0.091799
v 0.194000 -0.555196 -0.095603
v 0.200000 -0.542861 -0.103474
v 0.206000 -0.542245 -0.101989
v 0.210392 -0.540564 -0.097931
v 0.212000 -0.538268 -0.092388
v 0.210392 -0.535972 -0.086845
v 0.206000 -0.534291 -0.082787
v 0.200000 -0.533676 -0.081301
v 0.194000 -0.534291 -0.082787
v 0.189608 -0.535972 -0.086845
v 0.188000 -0.538268 -0.092388
v 0.189608 -0.540564 -0.097931
v 0.194000 -0.542245 -0.101989
v 0.200000 -0.528988 -0.108184
v 0.206000 -0.528572 -0.106631
v 0.210392 -0.527435 -0.102388
v 0.212000 -0.525882 -0.096593
v 0.210392 -0.524329 -0.090797
v 0.206000 -0.523192 -0.086554
v 0.200000 -0.522776 -0.085001
v 0.194000 -0.523192 -0.086554
v 0.189608 -0.524329 -0.090797
v 0.188000 -0.525882 -0.096593
v 0.189608 -0.527435 -0.102388
v 0.194000 -0.528572 -0.106631
v 0.200000 -0.514619 -0.111042
v 0.206000 -0.514409 -0.109448
v 0.210392 -0.513836 -0.105093
v 0.212000 -0.513053 -0.099144
v 0.210392 -0.512269 -0.093196
v 0.206000 -0.511696 -0.088841
v 0.200000 -0.511486 -0.087247
v 0.194000 -0.511696 -0.088841
v 0.189608 -0.512269 -0.093196
v 0.188000 -0.513053 -0.099144
v 0.189608 -0.513836 -0.105093
v 0.194000 -0.514409 -0.109448
v 0.200000 -0.480000 0.000000
v 0.280000 -0.480000 -0.000000
v 0.200000 -0.480096 -0.001960
v 0.280000 -0.480096 -0.001960
v 0.200000 -0.480384 -0.003902
v 0.280000 -0.480384 -0.003902
v 0.200000 -0.480861 -0.005806
v 0.280000 -0.480861 -0.005806
v 0.200000 -0.481522 -0.007654
v 0.280000 -0.481522 -0.007654
v 0.200000 -0.482362 -0.009428
v 0.280000 -0.482362 -0.009428
v 0.200000 -0.483371 -0.011111
v 0.280000 -0.483371 -0.011111
v 0.200000 -0.484540 -0.012688
v 0.280000 -0.484540 -0.012688
v 0.200000 -0.485858 -0.014142
v 0.280000 -0.485858 -0.014142
v 0.200000 -0.487312 -0.015460
v 0.280000 -0.487312 -0.015460
v 0.200000 -0.488889 -0.016629
v 0.280000 -0.488889 -0.016629
v 0.200000 -0.490572 -0.017638
v 0.280000 -0.490572 -0.017638
v 0.200000 -0.492346 -0.018478
v 0.280000 -0.492346 -0.018478
v 0.200000 -0.494194 -0.019139
v 0.280000 -0.494194 -0.019139
v 0.200000 -0.496098 -0.019616
v 0.280000 -0.496098 -0.019616
v 0.200000 -0.498040 -0.019904
v 0.280000 -0.498040 -0.019904
v 0.200000 -0.500000 -0.020000
v 0.280000 -0.500000 -0.020000
v 0.200000 -0.501960 -0.019904
v 0.280000 -0.501960 -0.019904
v 0.200000 -0.503902 -0.019616
v 0.280000 -0.503902 -0.019616
v 0.200000 -0.505806 -0.019139
v 0.280000 -0.505806 -0.019139
v 0.200000 -0.507654 -0.018478
v 0.280000 -0.507654 -0.018478
v 0.200000 -0.509428 -0.017638
v 0.280000 -0.509428 -0.017638
v 0.200000 -0.511111 -0.016629
v 0.280000 -0.511111 -0.016629
v 0.200000 -0.512688 -0.015460
v 0.280000 -0.512688 -0.015460
v 0.200000 -0.514142 -0.014142
v 0.280000 -0.514142 -0.014142
v 0.200000 -0.515460 -0.012688
v 0.280000 -0.515460 -0.012688
v 0.200000 -0.516629 -0.011111
v 0.280000 -0.516629 -0.011111
v 0.200000 -0.517638 -0.009428
v 0.280000 -0.517638 -0.009428
v 0.200000 -0.518478 -0.007654
v 0.280000 -0.518478 -0.007654
v 0.200000 -0.519139 -0.005806
v 0.280000 -0.519139 -0.005806
v 0.200000 -0.519616 -0.003902
v 0.280000 -0.519616 -0.003902
v 0.200000 -0.519904 -0.001960
v 0.280000 -0.519904 -0.001960
v 0.200000 -0.520000 0.000000
v 0.280000 -0.520000 -0.000000
v 0.200000 -0.519904 0.001960
v 0.280000 -0.519904 0.001960
v 0.200000 -0.519616 0.003902
v 0.280000 -0.519616 0.003902
v 0.200000 -0.519139 0.005806
v 0.280000 -0.519139 0.005806
v 0.200000 -0.518478 0.007654
v 0.280000 -0.518478 0.007654
v 0.200000 -0.517638 0.009428
v 0.280000 -0.517638 0.009428
v 0.200000 -0.516629 0.011111
v 0.280000 -0.516629 0.011111
v 0.200000 -0.515460 0.012688
v 0.280000 -0.515460 0.012688
v 0.200000 -0.514142 0.014142
v 0.280000 -0.514142 0.014142
v 0.200000 -0.512688 0.015460
v 0.280000 -0.512688 0.015460
v 0.200000 -0.511111 0.016629
v 0.280000 -0.511111 0.016629
v 0.200000 -0.509428 0.017638
v 0.280000 -0.509428 0.017638
v 0.200000 -0.507654 0.018478
v 0.280000 -0.507654 0.018478
v 0.200000 -0.505806 0.019139
v 0.280000 -0.505806 0.019139
v 0.200000 -0.503902 0.019616
v 0.280000 -0.503902 0.019616
v 0.200000 -0.501960 0.019904
v 0.280000 -0.501960 0.019904
v 0.200000 -0.500000 0.020000
v 0.280000 -0.500000 0.020000
v 0.200000 -0.498040 0.019904
v 0.280000 -0.498040 0.019904
v 0.200000 -0.496098 0.019616
v 0.280000 -0.496098 0.019616
v 0.200000 -0.494194 0.019139
v 0.280000 -0.494194 0.019139
v 0.200000 -0.492346 0.018478
v 0.280000 -0.492346 0.018478
v 0.200000 -0.490572 0.017638
v 0.280000 -0.490572 0.017638
v 0.200000 -0.488889 0.016629
v 0.280000 -0.488889 0.016629
v 0.200000 -0.487312 0.015460
v 0.280000 -0.487312 0.015460
v 0.200000 -0.485858 0.014142
v 0.280000 -0.485858 0.014142
v 0.200000 -0.484540 0.012688
v 0.280000 -0.484540 0.012688
v 0.200000 -0.483371 0.011111
v 0.280000 -0.483371 0.011111
v 0.200000 -0.482362 0.009428
v 0.280000 -0.482362 0.009428
v 0.200000 -0.481522 0.007654
v 0.280000 -0.481522 0.007654
v 0.200000 -0.480861 0.005806
v 0.280000 -0.480861 0.005806
v 0.200000 -0.480384 0.003902
v 0.280000 -0.480384 0.003902
v 0.200000 -0.480096 0.001960
v 0.280000 -0.480096 0.001960
v 0.195000 -0.506000 0.000000
v 0.195000 -0.506000 0.100000
v 0.195000 -0.494000 0.000000
v 0.195000 -0.494000 0.100000
v 0.205000 -0.506000 0.000000
v 0.205000 -0.506000 0.100000
v 0.205000 -0.494000 0.000000
v 0.205000 -0.494000 0.100000
v 0.195000 -0.497000 -0.005196
v 0.195000 -0.583603 -0.055196
v 0.195000 -0.503000 0.005196
v 0.195000 -0.589603 -0.044804
v 0.205000 -0.497000 -0.005196
v 0.205000 -0.583603 -0.055196
v 0.205000 -0.503000 0.005196
v 0.205000 -0.589603 -0.044804
v 0.195000 -0.497000 0.005196
v 0.195000 -0.410397 -0.044804
v 0.195000 -0.503000 -0.005196
v 0.195000 -0.416397 -0.055196
v 0.205000 -0.497000 0.005196
v 0.205000 -0.410397 -0.044804
v 0.205000 -0.503000 -0.005196
v 0.205000 -0.416397 -0.055196
vn -1.0000 -0.0000 -0.0000
vn -0.0000 1.0000 -0.0000
vn 1.0000 -0.0000 -0.0000
vn -0.0000 -1.0000 -0.0000
vn -0.0000 -0.0000 -1.0000
vn -0.0000 -0.0000 1.0000
vn 0.2583 0.0632 -0.9640
vn 0.7064 0.0463 -0.7063
vn 0.9658 0.0170 -0.2588
vn 0.9658 -0.0170 0.2588
vn 0.7064 -0.0463 0.7063
vn 0.2583 -0.0632 0.9640
vn -0.2583 -0.0632 0.9640
vn -0.7064 -0.0463 0.7063
vn -0.9658 -0.0170 0.2588
vn -0.9658 0.0170 -0.2588
vn -0.7064 0.0463 -0.7063
vn -0.2583 0.0632 -0.9640
vn 0.2583 0.1885 -0.9475
vn 0.7063 0.1381 -0.6943
vn 0.9658 0.0506 -0.2544
vn 0.9658 -0.0506 0.2544
vn 0.7064 -0.1381 0.6943
vn 0.2583 -0.1885 0.9475
vn -0.2583 -0.1885 0.9475
vn -0.7064 -0.1381 0.6943
vn -0.9658 -0.0506 0.2544
vn -0.9658 0.0506 -0.2544
vn -0.7063 0.1381 -0.6943
vn -0.2583 0.1885 -0.9475
vn 0.2583 0.3105 -0.9148
vn 0.7063 0.2275 -0.6703
vn 0.9658 0.0834 -0.2456
vn 0.9658 -0.0834 0.2456
vn 0.7063 -0.2275 0.6703
vn 0.2583 -0.3105 0.9148
vn -0.2583 -0.3105 0.9148
vn -0.7064 -0.2275 0.6703
vn -0.9658 -0.0834 0.2456
vn -0.9658 0.0834 -0.2456
vn -0.7063 0.2275 -0.6703
vn -0.2583 0.3105 -0.9148
vn 0.2583 0.4273 -0.8664
vn 0.7063 0.3131 -0.6349
vn 0.9658 0.1147 -0.2326
vn 0.9658 -0.1147 0.2326
vn 0.7064 -0.3131 0.6349
vn 0.2583 -0.4273 0.8664
vn -0.2583 -0.4273 0.8664
vn -0.7064 -0.3131 0.6349
vn -0.9658 -0.1147 0.2326
vn -0.9658 0.1147 -0.2326
vn -0.7063 0.3131 -0.6349
vn -0.2583 0.4273 -0.8664
vn 0.2583 0.5367 -0.8033
vn 0.7063 0.3933 -0.5886
vn 0.9658 0.1441 -0.2156
vn 0.9658 -0.1441 0.2156
vn 0.7063 -0.3933 0.5886
vn 0.2583 -0.5367 0.8033
vn -0.2583 -0.5367 0.8033
vn -0.7063 -0.3933 0.5886
vn -0.9658 -0.1441 0.2156
vn -0.9658 0.1441 -0.2156
vn -0.7063 0.3933 -0.5886
vn -0.2583 0.5367 -0.8033
vn 0.2583 0.6370 -0.7263
vn 0.7064 0.4667 -0.5322
vn 0.9658 0.1710 -0.1950
vn 0.9658 -0.1710 0.1950
vn 0.7063 -0.4667 0.5322
vn 0.2583 -0.6370 0.7263
vn -0.2583 -0.6370 0.7263
vn -0.7063 -0.4667 0.5322
vn -0.9658 -0.1710 0.1950
vn -0.9658 0.1710 -0.1950
vn -0.7064 0.4667 -0.5322
vn -0.2583 0.6370 -0.7263
vn 0.2583 0.7263 -0.6370
vn 0.7063 0.5322 -0.4667
vn 0.9658 0.1950 -0.1710
vn 0.9658 -0.1950 0.1710
vn 0.7063 -0.5322 0.4667
vn 0.2583 -0.7263 0.6370
vn -0.2583 -0.7263 0.6370
vn -0.7063 -0.5322 0.4667
vn -0.9658 -0.1950 0.1710
vn -0.9658 0.1950 -0.1710
vn -0.7064 0.5322 -0.4667
vn -0.2583 0.7263 -0.6370
vn 0.2583 0.8033 -0.5367
vn 0.7063 0.5886 -0.3933
vn 0.9658 0.2156 -0.1441
vn 0.9658 -0.2156 0.1441
vn 0.7063 -0.5886 0.3933
vn 0.2583 -0.8033 0.5367
vn -0.2583 -0.8033 0.5367
vn -0.7064 -0.5886 0.3933
vn -0.9658 -0.2156 0.1441
vn -0.9658 0.2156 -0.1441
vn -0.7063 0.5886 -0.3933
vn -0.2583 0.8033 -0.5367
vn 0.2583 0.8664 -0.4273
vn 0.7063 0.6349 -0.3131
vn 0.9658 0.2326 -0.1147
vn 0.9658 -0.2326 0.1147
vn 0.7063 -0.6349 0.3131
vn 0.2583 -0.8664 0.4273
vn -0.2583 -0.8664 0.4273
vn -0.7063 -0.6349 0.3131
vn -0.9658 -0.2326 0.1147
vn -0.9658 0.2326 -0.1147
vn -0.7064 0.6349 -0.3131
vn -0.2583 0.8664 -0.4273
vn 0.2583 0.9148 -0.3105
vn 0.7063 0.6703 -0.2275
vn 0.9658 0.2456 -0.0834
vn 0.9658 -0.2456 0.0834
vn 0.7063 -0.6703 0.2275
vn 0.2583 -0.9148 0.3105
vn -0.2583 -0.9148 0.3105
vn -0.7063 -0.6703 0.2275
vn -0.9658 -0.2456 0.0834
vn -0.9658 0.2456 -0.0834
vn -0.7063 0.6703 -0.2275
vn -0.2583 0.9148 -0.3105
vn 0.2583 0.9475 -0.1885
vn 0.7064 0.6943 -0.1381
vn 0.9658 0.2544 -0.0506
vn 0.9658 -0.2544 0.0506
vn 0.7063 -0.6943 0.1381
vn 0.2583 -0.9475 0.1885
vn -0.2583 -0.9475 0.1885
vn -0.7063 -0.6943 0.1381
vn -0.9658 -0.2543 0.0506
vn -0.9658 0.2544 -0.0506
vn -0.7063 0.6943 -0.1381
vn -0.2583 0.9475 -0.1885
vn 0.2583 0.9640 -0.0632
vn 0.7063 0.7063 -0.0463
vn 0.9658 0.2588 -0.0170
vn 0.9658 -0.2588 0.0170
vn 0.7063 -0.7064 0.0463
vn 0.2583 -0.9640 0.0632
vn -0.2583 -0.9640 0.0632
vn -0.7063 -0.7064 0.0463
vn -0.9658 -0.2588 0.0170
vn -0.9658 0.2588 -0.0170
vn -0.7063 0.7064 -0.0463
vn -0.2583 0.9640 -0.0632
vn 0.2583 0.9640 0.0632
vn 0.7063 0.7064 0.0463
vn 0.9658 0.2588 0.0170
vn 0.9658 -0.2588 -0.0170
vn 0.7064 -0.7063 -0.0463
vn 0.2583 -0.9640 -0.0632
vn -0.2583 -0.9640 -0.0632
vn -0.7064 -0.7063 -0.0463
vn -0.9658 -0.2588 -0.0170
vn -0.9658 0.2588 0.0170
vn -0.7064 0.7063 0.0463
vn -0.2583 0.9640 0.0632
vn 0.2583 0.9475 0.1885
vn 0.7063 0.6943 0.1381
vn 0.9658 0.2544 0.0506
vn 0.9658 -0.2544 -0.0506
vn 0.7063 -0.6943 -0.1381
vn 0.2583 -0.9475 -0.1885
vn -0.2583 -0.9475 -0.1885
vn -0.7063 -0.6943 -0.1381
vn -0.9658 -0.2543 -0.0506
vn -0.9658 0.2544 0.0506
vn -0.7064 0.6943 0.1381
vn -0.2583 0.9475 0.1885
vn 0.2583 0.9148 0.3105
vn 0.7063 0.6703 0.2275
vn 0.9658 0.2456 0.0834
vn 0.9658 -0.2456 -0.0834
vn 0.7063 -0.6703 -0.2275
vn 0.2583 -0.9148 -0.3105
vn -0.2583 -0.9148 -0.3105
vn -0.7063 -0.6703 -0.2275
vn -0.9658 -0.2456 -0.0834
vn -0.9658 0.2456 0.0834
vn -0.7063 0.6703 0.2275
vn -0.2583 0.9148 0.3105
vn 0.2583 0.8664 0.4273
vn 0.7063 0.6349 0.3131
vn 0.9658 0.2326 0.1147
vn 0.9658 -0.2326 -0.1147
vn 0.7063 -0.6349 -0.3131
vn 0.2583 -0.8664 -0.4273
vn -0.2583 -0.8664 -0.4273
vn -0.7063 -0.6349 -0.3131
vn -0.9658 -0.2326 -0.1147
vn -0.9658 0.2326 0.1147
vn -0.7063 0.6349 0.3131
vn -0.2583 0.8664 0.4273
vn 0.2583 0.8033 0.5367
vn 0.7063 0.5886 0.3933
vn 0.9658 0.2156 0.1441
vn 0.9658 -0.2156 -0.1441
vn 0.7063 -0.5886 -0.3933
vn 0.2583 -0.8033 -0.5367
vn -0.2583 -0.8033 -0.5367
vn -0.7063 -0.5886 -0.3933
vn -0.9658 -0.2156 -0.1441
vn -0.9658 0.2156 0.1441
vn -0.7063 0.5886 0.3933
vn -0.2583 0.8033 0.5367
vn 0.2583 0.7263 0.6370
vn 0.7064 0.5322 0.4667
vn 0.9658 0.1950 0.1710
vn 0.9658 -0.1950 -0.1710
vn 0.7063 -0.5322 -0.4667
vn 0.2583 -0.7263 -0.6370
vn -0.2583 -0.7263 -0.6370
vn -0.7063 -0.5322 -0.4667
vn -0.9658 -0.1950 -0.1710
vn -0.9658 0.1950 0.1710
vn -0.7063 0.5322 0.4667
vn -0.2583 0.7263 0.6370
vn 0.2583 0.6370 0.7263
vn 0.7063 0.4667 0.5322
vn 0.9658 0.1710 0.1950
vn 0.9658 -0.1710 -0.1950
vn 0.7063 -0.4667 -0.5322
vn 0.2583 -0.6370 -0.7263
vn -0.2583 -0.6370 -0.7263
vn -0.7063 -0.4667 -0.5322
vn -0.9658 -0.1710 -0.1950
vn -0.9658 0.1710 0.1950
vn -0.7063 0.4667 0.5322
vn -0.2583 0.6370 0.7263
vn 0.2583 0.5367 0.8033
vn 0.7063 0.3933 0.5886
vn 0.9658 0.1441 0.2156
vn 0.9658 -0.1441 -0.2156
vn 0.7063 -0.3933 -0.5886
vn 0.2583 -0.5367 -0.8033
vn -0.2583 -0.5367 -0.8033
vn -0.7063 -0.3933 -0.5886
vn -0.9658 -0.1441 -0.2156
vn -0.9658 0.1441 0.2156
vn -0.7064 0.3933 0.5886
vn -0.2583 0.5367 0.8033
vn 0.2583 0.4273 0.8664
vn 0.7063 0.3131 0.6349
vn 0.9658 0.1147 0.2326
vn 0.9658 -0.1147 -0.2326
vn 0.7063 -0.3131 -0.6349
vn 0.2583 -0.4273 -0.8664
vn -0.2583 -0.4273 -0.8664
vn -0.7063 -0.3131 -0.6349
vn -0.9658 -0.1147 -0.2326
vn -0.9658 0.1147 0.2326
vn -0.7063 0.3131 0.6349
vn -0.2583 0.4273 0.8664
vn 0.2583 0.3105 0.9148
vn 0.7064 0.2275 0.6703
vn 0.9658 0.0834 0.2456
vn 0.9658 -0.0834 -0.2456
vn 0.7064 -0.2275 -0.6703
vn 0.2583 -0.3105 -0.9148
vn -0.2583 -0.3105 -0.9148
vn -0.7064 -0.2275 -0.6703
vn -0.9658 -0.0834 -0.2456
vn -0.9658 0.0834 0.2456
vn -0.7063 0.2275 0.6703
vn -0.2583 0.3105 0.9148
vn 0.2583 0.1885 0.9475
vn 0.7064 0.1381 0.6943
vn 0.9658 0.0506 0.2544
vn 0.9658 -0.0506 -0.2544
vn 0.7064 -0.1381 -0.6943
vn 0.2583 -0.1885 -0.9475
vn -0.2583 -0.1885 -0.9475
vn -0.7064 -0.1381 -0.6943
vn -0.9658 -0.0506 -0.2544
vn -0.9658 0.0506 0.2544
vn -0.7064 0.1381 0.6943
vn -0.2583 0.1885 0.9475
vn 0.2583 0.0632 0.9640
vn 0.7064 0.0463 0.7063
vn 0.9658 0.0170 0.2588
vn 0.9658 -0.0170 -0.2588
vn 0.7063 -0.0463 -0.7063
vn 0.2583 -0.0632 -0.9640
vn -0.2583 -0.0632 -0.9640
vn -0.7063 -0.0463 -0.7063
vn -0.9658 -0.0170 -0.2588
vn -0.9658 0.0170 0.2588
vn -0.7063 0.0463 0.7063
vn -0.2583 0.0632 0.9640
vn -0.7063 -0.0463 0.7063
vn 0.7063 -0.1381 0.6943
vn 0.7064 0.1381 -0.6943
vn -0.7064 0.1381 -0.6943
vn -0.7063 -0.1381 0.6943
vn -0.7063 -0.2275 0.6703
vn 0.7063 -0.3131 0.6349
vn 0.7064 0.3131 -0.6349
vn -0.7063 -0.3131 0.6349
vn -0.7064 -0.3933 0.5886
vn 0.7064 -0.4667 0.5322
vn -0.7064 -0.4667 0.5322
vn -0.7063 0.5322 -0.4667
vn -0.7064 -0.5322 0.4667
vn 0.7064 0.5886 -0.3933
vn 0.7064 -0.6349 0.3131
vn -0.7063 0.6349 -0.3131
vn -0.7064 -0.6349 0.3131
vn 0.7064 -0.6703 0.2275
vn -0.9658 -0.2544 0.0506
vn 0.7063 -0.7063 0.0463
vn -0.7063 0.7063 -0.0463
vn 0.7063 -0.7064 -0.0463
vn 0.7063 0.7063 0.0463
vn -0.7063 0.7064 0.0463
vn 0.7064 0.6943 0.1381
vn -0.7063 0.6943 0.1381
vn -0.9658 -0.2544 -0.0506
vn 0.7064 -0.6703 -0.2275
vn 0.7064 0.6349 0.3131
vn -0.7064 0.6349 0.3131
vn 0.7063 0.5322 0.4667
vn 0.7064 -0.3933 -0.5886
vn -0.7063 0.3933 0.5886
vn -0.7064 0.3131 0.6349
vn 0.7063 -0.2275 -0.6703
vn 0.7063 0.2275 0.6703
vn 0.7063 -0.1381 -0.6943
vn 0.7063 0.0463 0.7063
vn -0.0000 0.9988 -0.0491
vn -0.0000 0.9892 -0.1467
vn -0.0000 0.9700 -0.2430
vn -0.0000 0.9415 -0.3369
vn -0.0000 0.9040 -0.4276
vn -0.0000 0.8577 -0.5141
vn -0.0000 0.8032 -0.5957
vn -0.0000 0.7410 -0.6716
vn -0.0000 0.6716 -0.7410
vn -0.0000 0.5957 -0.8032
vn -0.0000 0.5141 -0.8577
vn -0.0000 0.4276 -0.9040
vn -0.0000 0.3369 -0.9415
vn -0.0000 0.2430 -0.9700
vn -0.0000 0.1467 -0.9892
vn -0.0000 0.0491 -0.9988
vn -0.0000 -0.0491 -0.9988
vn -0.0000 -0.1467 -0.9892
vn -0.0000 -0.2430 -0.9700
vn -0.0000 -0.3369 -0.9415
vn -0.0000 -0.4276 -0.9040
vn -0.0000 -0.5141 -0.8577
vn -0.0000 -0.5957 -0.8032
vn -0.0000 -0.6716 -0.7410
vn -0.0000 -0.7410 -0.6716
vn -0.0000 -0.8032 -0.5957
vn -0.0000 -0.8577 -0.5141
vn -0.0000 -0.9040 -0.4276
vn -0.0000 -0.9415 -0.3369
vn -0.0000 -0.9700 -0.2430
vn -0.0000 -0.9892 -0.1467
vn -0.0000 -0.9988 -0.0491
vn -0.0000 -0.9988 0.0491
vn -0.0000 -0.9892 0.1467
vn -0.0000 -0.9700 0.2430
vn -0.0000 -0.9415 0.3369
vn -0.0000 -0.9040 0.4276
vn -0.0000 -0.8577 0.5141
vn -0.0000 -0.8032 0.5957
vn -0.0000 -0.7410 0.6716
vn -0.0000 -0.6716 0.7410
vn -0.0000 -0.5957 0.8032
vn -0.0000 -0.5141 0.8577
vn -0.0000 -0.4276 0.9040
vn -0.0000 -0.3369 0.9415
vn -0.0000 -0.2430 0.9700
vn -0.0000 -0.1467 0.9892
vn -0.0000 -0.0491 0.9988
vn -0.0000 0.0491 0.9988
vn -0.0000 0.1467 0.9892
vn -0.0000 0.2430 0.9700
vn -0.0000 0.3369 0.9415
vn -0.0000 0.4276 0.9040
vn -0.0000 0.5141 0.8577
vn -0.0000 0.5957 0.8032
vn -0.0000 0.6716 0.7410
vn -0.0000 0.7410 0.6716
vn -0.0000 0.8032 0.5957
vn -0.0000 0.8577 0.5141
vn -0.0000 0.9040 0.4276
vn -0.0000 0.9415 0.3369
vn -0.0000 0.9700 0.2430
vn -0.0000 0.9892 0.1467
vn -0.0000 0.9988 0.0491
vn -0.0000 -0.5000 0.8660
vn -0.0000 0.5000 -0.8660
vn -0.0000 0.8660 0.5000
vn -0.0000 -0.8660 -0.5000
vn -0.0000 -0.5000 -0.8660
vn -0.0000 0.5000 0.8660
vn -0.0000 -0.8660 0.5000
vn -0.0000 0.8660 -0.5000
vn 0.7063 0.0463 -0.7063
vn 0.7063 -0.0463 0.7063
vn -0.7063 0.0463 -0.7063
vn 0.7064 0.2275 -0.6703
vn 0.7064 -0.2275 0.6703
vn -0.7064 0.3131 -0.6349
vn 0.7064 0.3933 -0.5886
vn -0.7063 -0.5886 0.3933
vn -0.7064 0.5886 -0.3933
vn -0.7064 0.6703 -0.2275
vn 0.7063 0.6943 -0.1381
vn -0.7064 0.7063 -0.0463
vn 0.7064 0.7063 0.0463
vn 0.7063 -0.7063 -0.0463
vn -0.7063 -0.7063 -0.0463
vn -0.7063 0.7063 0.0463
vn 0.7064 -0.5886 -0.3933
vn -0.7064 -0.5886 -0.3933
vn -0.7064 0.5886 0.3933
vn 0.7064 0.4667 0.5322
vn 0.7064 -0.4667 -0.5322
vn -0.7064 -0.4667 -0.5322
vn -0.7064 0.4667 0.5322
vn 0.7064 0.3933 0.5886
vn -0.7064 -0.3933 -0.5886
vn 0.7063 0.1381 0.6943
vn -0.7063 0.1381 0.6943
vn -0.7064 -0.0463 -0.7063
vn -0.7064 0.0463 0.7063
vn -0.7064 0.2275 -0.6703
vn -0.7064 0.3933 -0.5886
vn 0.7063 0.4667 -0.5322
vn -0.7063 0.4667 -0.5322
vn 0.7064 -0.5886 0.3933
vn -0.7064 -0.6943 0.1381
vn 0.7063 0.7064 -0.0463
vn -0.7063 -0.7063 0.0463
vn -0.7063 -0.7064 -0.0463
vn 0.7064 0.6703 0.2275
vn -0.7064 -0.6703 -0.2275
vn -0.7064 -0.6349 -0.3131
vn 0.7064 -0.5322 -0.4667
vn -0.7064 -0.5322 -0.4667
vn 0.7064 -0.3131 -0.6349
vn -0.7064 -0.3131 -0.6349
vn -0.7064 0.2275 0.6703
vn -0.7063 -0.2275 -0.6703
vn -0.7063 -0.1381 -0.6943
vn 0.7064 -0.0463 -0.7063
vn 1.0000 -0.0001 -0.0000
vn 1.0000 0.0001 -0.0000
vn -1.0000 -0.0002 -0.0000
vn -1.0000 0.0001 -0.0000
vn -1.0000 -0.0001 -0.0000
vn -1.0000 0.0002 -0.0000
s 0
usemtl hatch_yellow
f 2//1 3//1 1//1
f 4//2 7//2 3//2
f 8//3 5//3 7//3
f 6//4 1//4 5//4
f 7//5 1//5 3//5
f 4//6 6//6 8//6
f 2//1 4//1 3//1
f 4//2 8//2 7//2
f 8//3 6//3 5//3
f 6//4 2//4 1//4
f 7//5 5//5 1//5
f 4//6 2//6 6//6
usemtl gear_paint
f 10//1 11//1 9//1
f 12//2 15//2 11//2
f 16//3 13//3 15//3
f 14//4 9//4 13//4
f 15//5 9//5 11//5
f 12//6 14//6 16//6
f 10//1 12//1 11//1
f 12//2 16//2 15//2
f 16//3 14//3 13//3
f 14//4 10//4 9//4
f 15//5 13//5 9//5
f 12//6 10//6 14//6
usemtl alarm_red
f 17//7 30//7 18//7
f 18//8 31//8 19//8
f 19//9 32//9 20//9
f 20//10 33//10 21//10
f 21//11 34//11 22//11
f 34//12 23//12 22//12
f 35//13 24//13 23//13
f 24//14 37//14 25//14
f 37//15 26//15 25//15
f 38//16 27//16 26//16
f 39//17 28//17 27//17
f 40//18 17//18 28//18
f 41//19 30//19 29//19
f 42//20 31//20 30//20
f 43//21 32//21 31//21
f 44//22 33//22 32//22
f 45//23 34//23 33//23
f 46//24 35//24 34//24
f 35//25 48//25 36//25
f 36//26 49//26 37//26
f 49//27 38//27 37//27
f 38//28 51//28 39//28
f 39//29 52//29 40//29
f 52//30 29//30 40//30
f 53//31 42//31 41//31
f 42//32 55//32 43//32
f 55//33 44//33 43//33
f 56//34 45//34 44//34
f 45//35 58//35 46//35
f 58//36 47//36 46//36
f 47//37 60//37 48//37
f 48//38 61//38 49//38
f 49//39 62//39 50//39
f 62//40 51//40 50//40
f 63//41 52//41 51//41
f 64//42 41//42 52//42
f 53//43 66//43 54//43
f 54//44 67//44 55//44
f 67//45 56//45 55//45
f 68//46 57//46 56//46
f 69//47 58//47 57//47
f 58//48 71//48 59//48
f 59//49 72//49 60//49
f 72//50 61//50 60//50
f 61//51 74//51 62//51
f 62//52 75//52 63//52
f 63//53 76//53 64//53
f 64//54 65//54 53//54
f 77//55 66//55 65//55
f 78//56 67//56 66//56
f 67//57 80//57 68//57
f 80//58 69//58 68//58
f 81//59 70//59 69//59
f 82//60 71//60 70//60
f 83//61 72//61 71//61
f 84//62 73//62 72//62
f 73//63 86//63 74//63
f 86//64 75//64 74//64
f 87//65 76//65 75//65
f 88//66 65//66 76//66
f 89//67 78//67 77//67
f 90//68 79//68 78//68
f 91//69 80//69 79//69
f 92//70 81//70 80//70
f 93//71 82//71 81//71
f 82//72 95//72 83//72
f 83//73 96//73 84//73
f 96//74 85//74 84//74
f 85//75 98//75 86//75
f 98//76 87//76 86//76
f 87//77 100//77 88//77
f 100//78 77//78 88//78
f 101//79 90//79 89//79
f 90//80 103//80 91//80
f 91//81 104//81 92//81
f 104//82 93//82 92//82
f 105//83 94//83 93//83
f 106//84 95//84 94//84
f 95//85 108//85 96//85
f 108//86 97//86 96//86
f 97//87 110//87 98//87
f 98//88 111//88 99//88
f 111//89 100//89 99//89
f 100//90 101//90 89//90
f 101//91 114//91 102//91
f 102//92 115//92 103//92
f 115//93 104//93 103//93
f 104//94 117//94 105//94
f 105//95 118//95 106//95
f 106//96 119//96 107//96
f 119//97 108//97 107//97
f 120//98 109//98 108//98
f 121//99 110//99 109//99
f 110//100 123//100 111//100
f 123//101 112//101 111//101
f 112//102 113//102 101//102
f 125//103 114//103 113//103
f 114//104 127//104 115//104
f 127//105 116//105 115//105
f 128//106 117//106 116//106
f 129//107 118//107 117//107
f 130//108 119//108 118//108
f 131//109 120//109 119//109
f 132//110 121//110 120//110
f 133//111 122//111 121//111
f 122//112 135//112 123//112
f 135//113 124//113 123//113
f 136//114 113//114 124//114
f 137//115 126//115 125//115
f 138//116 127//116 126//116
f 127//117 140//117 128//117
f 140//118 129//118 128//118
f 141//119 130//119 129//119
f 130//120 143//120 131//120
f 143//121 132//121 131//121
f 144//122 133//122 132//122
f 145//123 134//123 133//123
f 146//124 135//124 134//124
f 135//125 148//125 136//125
f 148//126 125//126 136//126
f 149//127 138//127 137//127
f 138//128 151//128 139//128
f 151//129 140//129 139//129
f 152//130 141//130 140//130
f 141//131 154//131 142//131
f 154//132 143//132 142//132
f 143//133 156//133 144//133
f 156//134 145//134 144//134
f 157//135 146//135 145//135
f 158//136 147//136 146//136
f 159//137 148//137 147//137
f 160//138 137//138 148//138
f 149//139 162//139 150//139
f 162//140 151//140 150//140
f 163//141 152//141 151//141
f 152//142 165//142 153//142
f 153//143 166//143 154//143
f 166//144 155//144 154//144
f 155//145 168//145 156//145
f 168//146 157//146 156//146
f 169//147 158//147 157//147
f 170//148 159//148 158//148
f 159//149 172//149 160//149
f 160//150 161//150 149//150
f 161//151 174//151 162//151
f 174//152 163//152 162//152
f 175//153 164//153 163//153
f 176//154 165//154 164//154
f 177//155 166//155 165//155
f 166//156 179//156 167//156
f 179//157 168//157 167//157
f 168//158 181//158 169//158
f 181//159 170//159 169//159
f 170//160 183//160 171//160
f 183//161 172//161 171//161
f 184//162 161//162 172//162
f 185//163 174//163 173//163
f 186//164 175//164 174//164
f 175//165 188//165 176//165
f 176//166 189//166 177//166
f 177//167 190//167 178//167
f 178//168 191//168 179//168
f 179//169 192//169 180//169
f 180//170 193//170 181//170
f 193//171 182//171 181//171
f 194//172 183//172 182//172
f 195//173 184//173 183//173
f 196//174 173//174 184//174
f 185//175 198//175 186//175
f 198//176 187//176 186//176
f 187//177 200//177 188//177
f 188//178 201//178 189//178
f 201//179 190//179 189//179
f 190//180 203//180 191//180
f 203//181 192//181 191//181
f 204//182 193//182 192//182
f 205//183 194//183 193//183
f 194//184 207//184 195//184
f 207//185 196//185 195//185
f 208//186 185//186 196//186
f 209//187 198//187 197//187
f 198//188 211//188 199//188
f 211//189 200//189 199//189
f 212//190 201//190 200//190
f 213//191 202//191 201//191
f 202//192 215//192 203//192
f 215//193 204//193 203//193
f 216//194 205//194 204//194
f 205//195 218//195 206//195
f 218//196 207//196 206//196
f 207//197 220//197 208//197
f 220//198 197//198 208//198
f 209//199 222//199 210//199
f 222//200 211//200 210//200
f 223//201 212//201 211//201
f 224//202 213//202 212//202
f 225//203 214//203 213//203
f 226//204 215//204 214//204
f 215//205 228//205 216//205
f 228//206 217//206 216//206
f 217//207 230//207 218//207
f 218//208 231//208 219//208
f 219//209 232//209 220//209
f 220//210 221//210 209//210
f 233//211 222//211 221//211
f 234//212 223//212 222//212
f 223//213 236//213 224//213
f 224//214 237//214 225//214
f 237//215 226//215 225//215
f 226//216 239//216 227//216
f 239//217 228//217 227//217
f 240//218 229//218 228//218
f 241//219 230//219 229//219
f 242//220 231//220 230//220
f 243//221 232//221 231//221
f 244//222 221//222 232//222
f 245//223 234//223 233//223
f 234//224 247//224 235//224
f 235//225 248//225 236//225
f 236//226 249//226 237//226
f 249//227 238//227 237//227
f 250//228 239//228 238//228
f 251//229 240//229 239//229
f 252//230 241//230 240//230
f 253//231 242//231 241//231
f 254//232 243//232 242//232
f 255//233 244//233 243//233
f 256//234 233//234 244//234
f 257//235 246//235 245//235
f 258//236 247//236 246//236
f 247//237 260//237 248//237
f 248//238 261//238 249//238
f 261//239 250//239 249//239
f 262//240 251//240 250//240
f 251//241 264//241 252//241
f 252//242 265//242 253//242
f 265//243 254//243 253//243
f 266//244 255//244 254//244
f 255//245 268//245 256//245
f 268//246 245//246 256//246
f 269//247 258//247 257//247
f 270//248 259//248 258//248
f 271//249 260//249 259//249
f 260//250 273//250 261//250
f 273//251 262//251 261//251
f 262//252 275//252 263//252
f 275//253 264//253 263//253
f 276//254 265//254 264//254
f 277//255 266//255 265//255
f 266//256 279//256 267//256
f 279//257 268//257 267//257
f 268//258 269//258 257//258
f 281//259 270//259 269//259
f 282//260 271//260 270//260
f 271//261 284//261 272//261
f 272//262 285//262 273//262
f 273//263 286//263 274//263
f 274//264 287//264 275//264
f 287//265 276//265 275//265
f 276//266 289//266 277//266
f 289//267 278//267 277//267
f 290//268 279//268 278//268
f 291//269 280//269 279//269
f 280//270 281//270 269//270
f 293//271 282//271 281//271
f 294//272 283//272 282//272
f 295//273 284//273 283//273
f 296//274 285//274 284//274
f 297//275 286//275 285//275
f 286//276 299//276 287//276
f 299//277 288//277 287//277
f 300//278 289//278 288//278
f 289//279 302//279 290//279
f 290//280 303//280 291//280
f 291//281 304//281 292//281
f 304//282 281//282 292//282
f 305//283 294//283 293//283
f 306//284 295//284 294//284
f 307//285 296//285 295//285
f 296//286 309//286 297//286
f 309//287 298//287 297//287
f 298//288 311//288 299//288
f 299//289 312//289 300//289
f 300//290 313//290 301//290
f 313//291 302//291 301//291
f 314//292 303//292 302//292
f 315//293 304//293 303//293
f 316//294 293//294 304//294
f 317//12 306//12 305//12
f 318//11 307//11 306//11
f 319//10 308//10 307//10
f 320//9 309//9 308//9
f 309//8 322//8 310//8
f 310//7 323//7 311//7
f 323//18 312//18 311//18
f 324//17 313//17 312//17
f 325//16 314//16 313//16
f 314//15 327//15 315//15
f 327//295 316//295 315//295
f 316//13 317//13 305//13
f 329//24 318//24 317//24
f 318//296 331//296 319//296
f 319//22 332//22 320//22
f 320//21 333//21 321//21
f 321//297 334//297 322//297
f 334//19 323//19 322//19
f 323//30 336//30 324//30
f 324//298 337//298 325//298
f 337//28 326//28 325//28
f 338//27 327//27 326//27
f 339//299 328//299 327//299
f 328//25 329//25 317//25
f 329//36 342//36 330//36
f 330//35 343//35 331//35
f 343//34 332//34 331//34
f 344//33 333//33 332//33
f 333//32 346//32 334//32
f 334//31 347//31 335//31
f 347//42 336//42 335//42
f 348//41 337//41 336//41
f 349//40 338//40 337//40
f 338//39 351//39 339//39
f 351//300 340//300 339//300
f 352//37 329//37 340//37
f 341//48 354//48 342//48
f 354//301 343//301 342//301
f 355//46 344//46 343//46
f 356//45 345//45 344//45
f 345//302 358//302 346//302
f 346//43 359//43 347//43
f 359//54 348//54 347//54
f 360//53 349//53 348//53
f 349//52 362//52 350//52
f 362//51 351//51 350//51
f 363//303 352//303 351//303
f 352//49 353//49 341//49
f 365//60 354//60 353//60
f 354//59 367//59 355//59
f 367//58 356//58 355//58
f 368//57 357//57 356//57
f 357//56 370//56 358//56
f 370//55 359//55 358//55
f 371//66 360//66 359//66
f 360//65 373//65 361//65
f 361//64 374//64 362//64
f 362//63 375//63 363//63
f 375//304 364//304 363//304
f 376//61 353//61 364//61
f 377//72 366//72 365//72
f 378//305 367//305 366//305
f 379//70 368//70 367//70
f 380//69 369//69 368//69
f 369//68 382//68 370//68
f 382//67 371//67 370//67
f 371//78 384//78 372//78
f 372//77 385//77 373//77
f 373//76 386//76 374//76
f 374//75 387//75 375//75
f 375//306 388//306 376//306
f 376//73 377//73 365//73
f 389//84 378//84 377//84
f 378//83 391//83 379//83
f 379//82 392//82 380//82
f 380//81 393//81 381//81
f 381//80 394//80 382//80
f 382//79 395//79 383//79
f 395//90 384//90 383//90
f 396//307 385//307 384//307
f 385//88 398//88 386//88
f 398//87 387//87 386//87
f 399//308 388//308 387//308
f 388//85 389//85 377//85
f 389//96 402//96 390//96
f 402//95 391//95 390//95
f 391//94 404//94 392//94
f 392//93 405//93 393//93
f 405//309 394//309 393//309
f 394//91 407//91 395//91
f 407//102 396//102 395//102
f 408//101 397//101 396//101
f 409//100 398//100 397//100
f 410//99 399//99 398//99
f 411//98 400//98 399//98
f 412//97 389//97 400//97
f 413//108 402//108 401//108
f 414//310 403//310 402//310
f 403//106 416//106 404//106
f 416//105 405//105 404//105
f 417//104 406//104 405//104
f 418//103 407//103 406//103
f 407//114 420//114 408//114
f 408//311 421//311 409//311
f 421//112 410//112 409//112
f 410//111 423//111 411//111
f 423//312 412//312 411//312
f 412//109 413//109 401//109
f 413//120 426//120 414//120
f 414//313 427//313 415//313
f 427//118 416//118 415//118
f 428//117 417//117 416//117
f 429//116 418//116 417//116
f 430//115 419//115 418//115
f 419//126 432//126 420//126
f 432//125 421//125 420//125
f 433//124 422//124 421//124
f 422//123 435//123 423//123
f 435//122 424//122 423//122
f 436//121 413//121 424//121
f 425//132 438//132 426//132
f 438//131 427//131 426//131
f 427//130 440//130 428//130
f 428//129 441//129 429//129
f 441//128 430//128 429//128
f 442//127 431//127 430//127
f 443//138 432//138 431//138
f 432//137 445//137 433//137
f 445//136 434//136 433//136
f 434//314 447//314 435//314
f 435//134 448//134 436//134
f 448//133 425//133 436//133
f 437//144 450//144 438//144
f 438//315 451//315 439//315
f 439//142 452//142 440//142
f 452//141 441//141 440//141
f 453//140 442//140 441//140
f 454//139 443//139 442//139
f 443//150 456//150 444//150
f 456//316 445//316 444//316
f 457//148 446//148 445//148
f 458//147 447//147 446//147
f 447//146 460//146 448//146
f 460//145 437//145 448//145
f 461//156 450//156 449//156
f 462//317 451//317 450//317
f 451//154 464//154 452//154
f 464//153 453//153 452//153
f 465//318 454//318 453//318
f 466//151 455//151 454//151
f 467//162 456//162 455//162
f 468//319 457//319 456//319
f 457//160 470//160 458//160
f 458//159 471//159 459//159
f 471//158 460//158 459//158
f 472//157 449//157 460//157
f 473//168 462//168 461//168
f 474//167 463//167 462//167
f 475//166 464//166 463//166
f 464//165 477//165 465//165
f 477//320 466//320 465//320
f 466//163 479//163 467//163
f 479//174 468//174 467//174
f 468//321 481//321 469//321
f 481//172 470//172 469//172
f 482//322 471//322 470//322
f 483//170 472//170 471//170
f 484//169 461//169 472//169
f 485//180 474//180 473//180
f 474//323 487//323 475//323
f 475//178 488//178 476//178
f 488//177 477//177 476//177
f 477//176 490//176 478//176
f 490//175 479//175 478//175
f 491//186 480//186 479//186
f 492//185 481//185 480//185
f 493//184 482//184 481//184
f 482//183 495//183 483//183
f 483//182 496//182 484//182
f 484//181 485//181 473//181
f 485//192 498//192 486//192
f 498//191 487//191 486//191
f 499//190 488//190 487//190
f 500//189 489//189 488//189
f 501//324 490//324 489//324
f 502//187 491//187 490//187
f 503//198 492//198 491//198
f 492//325 505//325 493//325
f 493//196 506//196 494//196
f 494//195 507//195 495//195
f 495//194 508//194 496//194
f 508//193 485//193 496//193
f 509//204 498//204 497//204
f 510//203 499//203 498//203
f 499//202 512//202 500//202
f 512//201 501//201 500//201
f 513//200 502//200 501//200
f 514//199 503//199 502//199
f 503//210 516//210 504//210
f 516//209 505//209 504//209
f 505//208 518//208 506//208
f 518//207 507//207 506//207
f 507//206 520//206 508//206
f 520//205 497//205 508//205
f 509//216 522//216 510//216
f 510//215 523//215 511//215
f 523//214 512//214 511//214
f 512//213 525//213 513//213
f 513//326 526//326 514//326
f 526//211 515//211 514//211
f 527//222 516//222 515//222
f 528//221 517//221 516//221
f 529//220 518//220 517//220
f 530//219 519//219 518//219
f 519//218 532//218 520//218
f 532//217 509//217 520//217
f 521//228 534//228 522//228
f 534//227 523//227 522//227
f 535//226 524//226 523//226
f 536//225 525//225 524//225
f 525//224 538//224 526//224
f 526//223 539//223 527//223
f 539//234 528//234 527//234
f 540//233 529//233 528//233
f 541//232 530//232 529//232
f 530//231 543//231 531//231
f 531//230 544//230 532//230
f 532//229 533//229 521//229
f 533//240 546//240 534//240
f 534//327 547//327 535//327
f 547//238 536//238 535//238
f 536//237 549//237 537//237
f 537//236 550//236 538//236
f 538//235 551//235 539//235
f 539//246 552//246 540//246
f 540//328 553//328 541//328
f 553//244 542//244 541//244
f 554//243 543//243 542//243
f 543//242 556//242 544//242
f 556//241 533//241 544//241
f 557//252 546//252 545//252
f 558//251 547//251 546//251
f 547//250 560//250 548//250
f 560//249 549//249 548//249
f 561//248 550//248 549//248
f 550//247 563//247 551//247
f 551//258 564//258 552//258
f 564//329 553//329 552//329
f 565//256 554//256 553//256
f 566//255 555//255 554//255
f 567//254 556//254 555//254
f 556//253 557//253 545//253
f 557//264 570//264 558//264
f 570//330 559//330 558//330
f 559//262 572//262 560//262
f 572//261 561//261 560//261
f 573//331 562//331 561//331
f 574//259 563//259 562//259
f 563//270 576//270 564//270
f 564//269 577//269 565//269
f 565//268 578//268 566//268
f 566//267 579//267 567//267
f 579//266 568//266 567//266
f 580//265 557//265 568//265
f 581//276 570//276 569//276
f 582//332 571//332 570//332
f 583//274 572//274 571//274
f 584//273 573//273 572//273
f 573//272 586//272 574//272
f 586//271 575//271 574//271
f 575//282 588//282 576//282
f 588//281 577//281 576//281
f 589//280 578//280 577//280
f 590//279 579//279 578//279
f 591//278 580//278 579//278
f 580//277 581//277 569//277
f 17//288 582//288 581//288
f 18//287 583//287 582//287
f 19//286 584//286 583//286
f 20//285 585//285 584//285
f 21//333 586//333 585//333
f 586//283 23//283 587//283
f 587//294 24//294 588//294
f 24//293 589//293 588//293
f 589//292 26//292 590//292
f 590//291 27//291 591//291
f 591//290 28//290 592//290
f 592//289 17//289 581//289
f 722//1 723//1 721//1
f 724//2 727//2 723//2
f 728//3 725//3 727//3
f 726//4 721//4 725//4
f 727//5 721//5 723//5
f 724//6 726//6 728//6
f 730//1 731//1 729//1
f 732//398 735//398 731//398
f 735//3 734//3 733//3
f 734//399 729//399 733//399
f 735//400 729//400 731//400
f 732//401 734//401 736//401
f 738//1 739//1 737//1
f 740//402 743//402 739//402
f 743//3 742//3 741//3
f 742//403 737//403 741//403
f 743//404 737//404 739//404
f 740//405 742//405 744//405
f 17//7 29//7 30//7
f 18//406 30//406 31//406
f 19//9 31//9 32//9
f 20//10 32//10 33//10
f 21//407 33//407 34//407
f 34//12 35//12 23//12
f 35//13 36//13 24//13
f 24//295 36//295 37//295
f 37//15 38//15 26//15
f 38//16 39//16 27//16
f 39//408 40//408 28//408
f 40//18 29//18 17//18
f 41//19 42//19 30//19
f 42//20 43//20 31//20
f 43//21 44//21 32//21
f 44//22 45//22 33//22
f 45//296 46//296 34//296
f 46//24 47//24 35//24
f 35//25 47//25 48//25
f 36//299 48//299 49//299
f 49//27 50//27 38//27
f 38//28 50//28 51//28
f 39//29 51//29 52//29
f 52//30 41//30 29//30
f 53//31 54//31 42//31
f 42//409 54//409 55//409
f 55//33 56//33 44//33
f 56//34 57//34 45//34
f 45//410 57//410 58//410
f 58//36 59//36 47//36
f 47//37 59//37 60//37
f 48//300 60//300 61//300
f 49//39 61//39 62//39
f 62//40 63//40 51//40
f 63//41 64//41 52//41
f 64//42 53//42 41//42
f 53//43 65//43 66//43
f 54//44 66//44 67//44
f 67//45 68//45 56//45
f 68//46 69//46 57//46
f 69//47 70//47 58//47
f 58//48 70//48 71//48
f 59//49 71//49 72//49
f 72//50 73//50 61//50
f 61//51 73//51 74//51
f 62//52 74//52 75//52
f 63//411 75//411 76//411
f 64//54 76//54 65//54
f 77//55 78//55 66//55
f 78//412 79//412 67//412
f 67//57 79//57 80//57
f 80//58 81//58 69//58
f 81//59 82//59 70//59
f 82//60 83//60 71//60
f 83//61 84//61 72//61
f 84//62 85//62 73//62
f 73//63 85//63 86//63
f 86//64 87//64 75//64
f 87//65 88//65 76//65
f 88//66 77//66 65//66
f 89//67 90//67 78//67
f 90//68 91//68 79//68
f 91//69 92//69 80//69
f 92//70 93//70 81//70
f 93//71 94//71 82//71
f 82//72 94//72 95//72
f 83//73 95//73 96//73
f 96//306 97//306 85//306
f 85//75 97//75 98//75
f 98//76 99//76 87//76
f 87//77 99//77 100//77
f 100//78 89//78 77//78
f 101//79 102//79 90//79
f 90//80 102//80 103//80
f 91//81 103//81 104//81
f 104//82 105//82 93//82
f 105//83 106//83 94//83
f 106//84 107//84 95//84
f 95//85 107//85 108//85
f 108//86 109//86 97//86
f 97//87 109//87 110//87
f 98//88 110//88 111//88
f 111//307 112//307 100//307
f 100//90 112//90 101//90
f 101//91 113//91 114//91
f 102//92 114//92 115//92
f 115//93 116//93 104//93
f 104//94 116//94 117//94
f 105//95 117//95 118//95
f 106//96 118//96 119//96
f 119//97 120//97 108//97
f 120//413 121//413 109//413
f 121//99 122//99 110//99
f 110//100 122//100 123//100
f 123//414 124//414 112//414
f 112//102 124//102 113//102
f 125//103 126//103 114//103
f 114//104 126//104 127//104
f 127//105 128//105 116//105
f 128//106 129//106 117//106
f 129//107 130//107 118//107
f 130//108 131//108 119//108
f 131//109 132//109 120//109
f 132//312 133//312 121//312
f 133//111 134//111 122//111
f 122//112 134//112 135//112
f 135//311 136//311 124//311
f 136//114 125//114 113//114
f 137//115 138//115 126//115
f 138//116 139//116 127//116
f 127//117 139//117 140//117
f 140//118 141//118 129//118
f 141//119 142//119 130//119
f 130//120 142//120 143//120
f 143//121 144//121 132//121
f 144//122 145//122 133//122
f 145//123 146//123 134//123
f 146//124 147//124 135//124
f 135//415 147//415 148//415
f 148//126 137//126 125//126
f 149//127 150//127 138//127
f 138//416 150//416 151//416
f 151//129 152//129 140//129
f 152//130 153//130 141//130
f 141//131 153//131 154//131
f 154//132 155//132 143//132
f 143//133 155//133 156//133
f 156//134 157//134 145//134
f 157//314 158//314 146//314
f 158//136 159//136 147//136
f 159//137 160//137 148//137
f 160//138 149//138 137//138
f 149//139 161//139 162//139
f 162//140 163//140 151//140
f 163//141 164//141 152//141
f 152//142 164//142 165//142
f 153//315 165//315 166//315
f 166//144 167//144 155//144
f 155//145 167//145 168//145
f 168//146 169//146 157//146
f 169//147 170//147 158//147
f 170//148 171//148 159//148
f 159//417 171//417 172//417
f 160//150 172//150 161//150
f 161//151 173//151 174//151
f 174//418 175//418 163//418
f 175//153 176//153 164//153
f 176//154 177//154 165//154
f 177//419 178//419 166//419
f 166//156 178//156 179//156
f 179//157 180//157 168//157
f 168//420 180//420 181//420
f 181//159 182//159 170//159
f 170//160 182//160 183//160
f 183//421 184//421 172//421
f 184//162 173//162 161//162
f 185//163 186//163 174//163
f 186//164 187//164 175//164
f 175//165 187//165 188//165
f 176//166 188//166 189//166
f 177//167 189//167 190//167
f 178//168 190//168 191//168
f 179//169 191//169 192//169
f 180//170 192//170 193//170
f 193//322 194//322 182//322
f 194//172 195//172 183//172
f 195//321 196//321 184//321
f 196//174 185//174 173//174
f 185//175 197//175 198//175
f 198//176 199//176 187//176
f 187//177 199//177 200//177
f 188//178 200//178 201//178
f 201//179 202//179 190//179
f 190//180 202//180 203//180
f 203//181 204//181 192//181
f 204//182 205//182 193//182
f 205//183 206//183 194//183
f 194//184 206//184 207//184
f 207//185 208//185 196//185
f 208//186 197//186 185//186
f 209//187 210//187 198//187
f 198//324 210//324 211//324
f 211//189 212//189 200//189
f 212//190 213//190 201//190
f 213//191 214//191 202//191
f 202//192 214//192 215//192
f 215//193 216//193 204//193
f 216//194 217//194 205//194
f 205//195 217//195 218//195
f 218//196 219//196 207//196
f 207//325 219//325 220//325
f 220//198 209//198 197//198
f 209//199 221//199 222//199
f 222//200 223//200 211//200
f 223//201 224//201 212//201
f 224//202 225//202 213//202
f 225//422 226//422 214//422
f 226//204 227//204 215//204
f 215//205 227//205 228//205
f 228//423 229//423 217//423
f 217//207 229//207 230//207
f 218//208 230//208 231//208
f 219//424 231//424 232//424
f 220//210 232//210 221//210
f 233//211 234//211 222//211
f 234//326 235//326 223//326
f 223//213 235//213 236//213
f 224//214 236//214 237//214
f 237//215 238//215 226//215
f 226//216 238//216 239//216
f 239//217 240//217 228//217
f 240//218 241//218 229//218
f 241//219 242//219 230//219
f 242//220 243//220 231//220
f 243//221 244//221 232//221
f 244//222 233//222 221//222
f 245//223 246//223 234//223
f 234//425 246//425 247//425
f 235//225 247//225 248//225
f 236//226 248//226 249//226
f 249//426 250//426 238//426
f 250//228 251//228 239//228
f 251//229 252//229 240//229
f 252//427 253//427 241//427
f 253//231 254//231 242//231
f 254//232 255//232 243//232
f 255//428 256//428 244//428
f 256//234 245//234 233//234
f 257//235 258//235 246//235
f 258//429 259//429 247//429
f 247//237 259//237 260//237
f 248//238 260//238 261//238
f 261//327 262//327 250//327
f 262//240 263//240 251//240
f 251//241 263//241 264//241
f 252//430 264//430 265//430
f 265//243 266//243 254//243
f 266//244 267//244 255//244
f 255//328 267//328 268//328
f 268//246 257//246 245//246
f 269//247 270//247 258//247
f 270//248 271//248 259//248
f 271//249 272//249 260//249
f 260//250 272//250 273//250
f 273//251 274//251 262//251
f 262//252 274//252 275//252
f 275//253 276//253 264//253
f 276//254 277//254 265//254
f 277//255 278//255 266//255
f 266//256 278//256 279//256
f 279//257 280//257 268//257
f 268//258 280//258 269//258
f 281//259 282//259 270//259
f 282//331 283//331 271//331
f 271//261 283//261 284//261
f 272//262 284//262 285//262
f 273//330 285//330 286//330
f 274//264 286//264 287//264
f 287//265 288//265 276//265
f 276//266 288//266 289//266
f 289//267 290//267 278//267
f 290//268 291//268 279//268
f 291//269 292//269 280//269
f 280//270 292//270 281//270
f 293//271 294//271 282//271
f 294//431 295//431 283//431
f 295//273 296//273 284//273
f 296//274 297//274 285//274
f 297//275 298//275 286//275
f 286//276 298//276 299//276
f 299//277 300//277 288//277
f 300//278 301//278 289//278
f 289//279 301//279 302//279
f 290//280 302//280 303//280
f 291//432 303//432 304//432
f 304//282 293//282 281//282
f 305//283 306//283 294//283
f 306//333 307//333 295//333
f 307//285 308//285 296//285
f 296//286 308//286 309//286
f 309//287 310//287 298//287
f 298//288 310//288 311//288
f 299//289 311//289 312//289
f 300//433 312//433 313//433
f 313//291 314//291 302//291
f 314//292 315//292 303//292
f 315//434 316//434 304//434
f 316//294 305//294 293//294
f 317//12 318//12 306//12
f 318//407 319//407 307//407
f 319//10 320//10 308//10
f 320//9 321//9 309//9
f 309//8 321//8 322//8
f 310//7 322//7 323//7
f 323//18 324//18 312//18
f 324//17 325//17 313//17
f 325//16 326//16 314//16
f 314//15 326//15 327//15
f 327//14 328//14 316//14
f 316//13 328//13 317//13
f 329//24 330//24 318//24
f 318//23 330//23 331//23
f 319//22 331//22 332//22
f 320//21 332//21 333//21
f 321//297 333//297 334//297
f 334//19 335//19 323//19
f 323//30 335//30 336//30
f 324//298 336//298 337//298
f 337//28 338//28 326//28
f 338//27 339//27 327//27
f 339//26 340//26 328//26
f 328//25 340//25 329//25
f 329//36 341//36 342//36
f 330//35 342//35 343//35
f 343//34 344//34 332//34
f 344//33 345//33 333//33
f 333//409 345//409 346//409
f 334//31 346//31 347//31
f 347//42 348//42 336//42
f 348//435 349//435 337//435
f 349//40 350//40 338//40
f 338//39 350//39 351//39
f 351//300 352//300 340//300
f 352//37 341//37 329//37
f 341//48 353//48 354//48
f 354//301 355//301 343//301
f 355//46 356//46 344//46
f 356//45 357//45 345//45
f 345//44 357//44 358//44
f 346//43 358//43 359//43
f 359//54 360//54 348//54
f 360//53 361//53 349//53
f 349//52 361//52 362//52
f 362//51 363//51 351//51
f 363//50 364//50 352//50
f 352//49 364//49 353//49
f 365//60 366//60 354//60
f 354//59 366//59 367//59
f 367//58 368//58 356//58
f 368//57 369//57 357//57
f 357//56 369//56 370//56
f 370//55 371//55 359//55
f 371//66 372//66 360//66
f 360//436 372//436 373//436
f 361//64 373//64 374//64
f 362//63 374//63 375//63
f 375//62 376//62 364//62
f 376//61 365//61 353//61
f 377//72 378//72 366//72
f 378//71 379//71 367//71
f 379//70 380//70 368//70
f 380//69 381//69 369//69
f 369//437 381//437 382//437
f 382//67 383//67 371//67
f 371//78 383//78 384//78
f 372//438 384//438 385//438
f 373//76 385//76 386//76
f 374//75 386//75 387//75
f 375//74 387//74 388//74
f 376//73 388//73 377//73
f 389//84 390//84 378//84
f 378//83 390//83 391//83
f 379//82 391//82 392//82
f 380//81 392//81 393//81
f 381//80 393//80 394//80
f 382//79 394//79 395//79
f 395//90 396//90 384//90
f 396//307 397//307 385//307
f 385//88 397//88 398//88
f 398//87 399//87 387//87
f 399//308 400//308 388//308
f 388//85 400//85 389//85
f 389//96 401//96 402//96
f 402//439 403//439 391//439
f 391//94 403//94 404//94
f 392//93 404//93 405//93
f 405//92 406//92 394//92
f 394//91 406//91 407//91
f 407//102 408//102 396//102
f 408//101 409//101 397//101
f 409//100 410//100 398//100
f 410//99 411//99 399//99
f 411//413 412//413 400//413
f 412//97 401//97 389//97
f 413//108 414//108 402//108
f 414//107 415//107 403//107
f 403//106 415//106 416//106
f 416//105 417//105 405//105
f 417//104 418//104 406//104
f 418//103 419//103 407//103
f 407//114 419//114 420//114
f 408//311 420//311 421//311
f 421//112 422//112 410//112
f 410//111 422//111 423//111
f 423//110 424//110 412//110
f 412//109 424//109 413//109
f 413//120 425//120 426//120
f 414//119 426//119 427//119
f 427//118 428//118 416//118
f 428//117 429//117 417//117
f 429//116 430//116 418//116
f 430//115 431//115 419//115
f 419//126 431//126 432//126
f 432//415 433//415 421//415
f 433//124 434//124 422//124
f 422//123 434//123 435//123
f 435//122 436//122 424//122
f 436//121 425//121 413//121
f 425//132 437//132 438//132
f 438//131 439//131 427//131
f 427//130 439//130 440//130
f 428//129 440//129 441//129
f 441//416 442//416 430//416
f 442//127 443//127 431//127
f 443//138 444//138 432//138
f 432//137 444//137 445//137
f 445//136 446//136 434//136
f 434//314 446//314 447//314
f 435//440 447//440 448//440
f 448//133 437//133 425//133
f 437//144 449//144 450//144
f 438//315 450//315 451//315
f 439//142 451//142 452//142
f 452//141 453//141 441//141
f 453//441 454//441 442//441
f 454//139 455//139 443//139
f 443//150 455//150 456//150
f 456//417 457//417 445//417
f 457//148 458//148 446//148
f 458//147 459//147 447//147
f 447//442 459//442 460//442
f 460//145 449//145 437//145
f 461//156 462//156 450//156
f 462//155 463//155 451//155
f 451//154 463//154 464//154
f 464//153 465//153 453//153
f 465//152 466//152 454//152
f 466//151 467//151 455//151
f 467//162 468//162 456//162
f 468//161 469//161 457//161
f 457//160 469//160 470//160
f 458//159 470//159 471//159
f 471//443 472//443 460//443
f 472//157 461//157 449//157
f 473//168 474//168 462//168
f 474//167 475//167 463//167
f 475//166 476//166 464//166
f 464//165 476//165 477//165
f 477//164 478//164 466//164
f 466//163 478//163 479//163
f 479//174 480//174 468//174
f 468//321 480//321 481//321
f 481//172 482//172 470//172
f 482//322 483//322 471//322
f 483//170 484//170 472//170
f 484//169 473//169 461//169
f 485//180 486//180 474//180
f 474//179 486//179 487//179
f 475//178 487//178 488//178
f 488//177 489//177 477//177
f 477//444 489//444 490//444
f 490//175 491//175 479//175
f 491//186 492//186 480//186
f 492//185 493//185 481//185
f 493//184 494//184 482//184
f 482//183 494//183 495//183
f 483//445 495//445 496//445
f 484//181 496//181 485//181
f 485//192 497//192 498//192
f 498//191 499//191 487//191
f 499//190 500//190 488//190
f 500//189 501//189 489//189
f 501//188 502//188 490//188
f 502//187 503//187 491//187
f 503//198 504//198 492//198
f 492//197 504//197 505//197
f 493//196 505//196 506//196
f 494//195 506//195 507//195
f 495//446 507//446 508//446
f 508//193 497//193 485//193
f 509//204 510//204 498//204
f 510//203 511//203 499//203
f 499//202 511//202 512//202
f 512//201 513//201 501//201
f 513//200 514//200 502//200
f 514//199 515//199 503//199
f 503//210 515//210 516//210
f 516//209 517//209 505//209
f 505//208 517//208 518//208
f 518//207 519//207 507//207
f 507//206 519//206 520//206
f 520//205 509//205 497//205
f 509//216 521//216 522//216
f 510//447 522//447 523//447
f 523//214 524//214 512//214
f 512//213 524//213 525//213
f 513//326 525//326 526//326
f 526//211 527//211 515//211
f 527//222 528//222 516//222
f 528//221 529//221 517//221
f 529//220 530//220 518//220
f 530//219 531//219 519//219
f 519//448 531//448 532//448
f 532//217 521//217 509//217
f 521//228 533//228 534//228
f 534//227 535//227 523//227
f 535//226 536//226 524//226
f 536//225 537//225 525//225
f 525//425 537//425 538//425
f 526//223 538//223 539//223
f 539//234 540//234 528//234
f 540//233 541//233 529//233
f 541//232 542//232 530//232
f 530//231 542//231 543//231
f 531//427 543//427 544//427
f 532//229 544//229 533//229
f 533//240 545//240 546//240
f 534//239 546//239 547//239
f 547//238 548//238 536//238
f 536//237 548//237 549//237
f 537//236 549//236 550//236
f 538//235 550//235 551//235
f 539//246 551//246 552//246
f 540//328 552//328 553//328
f 553//244 554//244 542//244
f 554//243 555//243 543//243
f 543//242 555//242 556//242
f 556//241 545//241 533//241
f 557//252 558//252 546//252
f 558//449 559//449 547//449
f 547//250 559//250 560//250
f 560//249 561//249 549//249
f 561//248 562//248 550//248
f 550//247 562//247 563//247
f 551//258 563//258 564//258
f 564//257 565//257 553//257
f 565//256 566//256 554//256
f 566//255 567//255 555//255
f 567//450 568//450 556//450
f 556//253 568//253 557//253
f 557//264 569//264 570//264
f 570//263 571//263 559//263
f 559//262 571//262 572//262
f 572//261 573//261 561//261
f 573//260 574//260 562//260
f 574//259 575//259 563//259
f 563//270 575//270 576//270
f 564//451 576//451 577//451
f 565//268 577//268 578//268
f 566//267 578//267 579//267
f 579//452 580//452 568//452
f 580//265 569//265 557//265
f 581//276 582//276 570//276
f 582//332 583//332 571//332
f 583//274 584//274 572//274
f 584//273 585//273 573//273
f 573//431 585//431 586//431
f 586//271 587//271 575//271
f 575//282 587//282 588//282
f 588//432 589//432 577//432
f 589//280 590//280 578//280
f 590//279 591//279 579//279
f 591//453 592//453 580//453
f 580//277 592//277 581//277
f 17//288 18//288 582//288
f 18//454 19//454 583//454
f 19//286 20//286 584//286
f 20//285 21//285 585//285
f 21//284 22//284 586//284
f 586//283 22//283 23//283
f 587//294 23//294 24//294
f 24//434 25//434 589//434
f 589//292 25//292 26//292
f 590//291 26//291 27//291
f 591//433 27//433 28//433
f 592//289 28//289 17//289
f 722//1 724//1 723//1
f 724//2 728//2 727//2
f 728//3 726//3 725//3
f 726//4 722//4 721//4
f 727//5 725//5 721//5
f 724//6 722//6 726//6
f 730//1 732//1 731//1
f 732//398 736//398 735//398
f 735//3 736//3 734//3
f 734//399 730//399 729//399
f 735//400 733//400 729//400
f 732//401 730//401 734//401
f 738//1 740//1 739//1
f 740//402 744//402 743//402
f 743//3 744//3 742//3
f 742//403 738//403 737//403
f 743//404 741//404 737//404
f 740//405 738//405 742//405
usemtl pipe_steel
f 594//334 595//334 593//334
f 596//335 597//335 595//335
f 598//336 599//336 597//336
f 600//337 601//337 599//337
f 602//338 603//338 601//338
f 604//339 605//339 603//339
f 606//340 607//340 605//340
f 608//341 609//341 607//341
f 610//342 611//342 609//342
f 612//343 613//343 611//343
f 614//344 615//344 613//344
f 616//345 617//345 615//345
f 618//346 619//346 617//346
f 620//347 621//347 619//347
f 622//348 623//348 621//348
f 624//349 625//349 623//349
f 626//350 627//350 625//350
f 628//351 629//351 627//351
f 630//352 631//352 629//352
f 632//353 633//353 631//353
f 634//354 635//354 633//354
f 636//355 637//355 635//355
f 638//356 639//356 637//356
f 639//357 642//357 641//357
f 641//358 644//358 643//358
f 644//359 645//359 643//359
f 646//360 647//360 645//360
f 648//361 649//361 647//361
f 650//362 651//362 649//362
f 652//363 653//363 651//363
f 654//364 655//364 653//364
f 656//365 657//365 655//365
f 658//366 659//366 657//366
f 659//367 662//367 661//367
f 662//368 663//368 661//368
f 664//369 665//369 663//369
f 666//370 667//370 665//370
f 668//371 669//371 667//371
f 670//372 671//372 669//372
f 671//373 674//373 673//373
f 673//374 676//374 675//374
f 676//375 677//375 675//375
f 678//376 679//376 677//376
f 679//377 682//377 681//377
f 682//378 683//378 681//378
f 684//379 685//379 683//379
f 686//380 687//380 685//380
f 687//381 690//381 689//381
f 690//382 691//382 689//382
f 692//383 693//383 691//383
f 694//384 695//384 693//384
f 696//385 697//385 695//385
f 698//386 699//386 697//386
f 700//387 701//387 699//387
f 702//388 703//388 701//388
f 704//389 705//389 703//389
f 706//390 707//390 705//390
f 708//391 709//391 707//391
f 710//392 711//392 709//392
f 712//393 713//393 711//393
f 714//394 715//394 713//394
f 716//395 717//395 715//395
f 662//3 630//3 598//3
f 717//396 720//396 719//396
f 720//397 593//397 719//397
f 655//1 687//1 719//1
f 594//334 596//334 595//334
f 596//335 598//335 597//335
f 598//336 600//336 599//336
f 600//337 602//337 601//337
f 602//338 604//338 603//338
f 604//339 606//339 605//339
f 606//340 608//340 607//340
f 608//341 610//341 609//341
f 610//342 612//342 611//342
f 612//343 614//343 613//343
f 614//344 616//344 615//344
f 616//345 618//345 617//345
f 618//346 620//346 619//346
f 620//347 622//347 621//347
f 622//348 624//348 623//348
f 624//349 626//349 625//349
f 626//350 628//350 627//350
f 628//351 630//351 629//351
f 630//352 632//352 631//352
f 632//353 634//353 633//353
f 634//354 636//354 635//354
f 636//355 638//355 637//355
f 638//356 640//356 639//356
f 639//357 640//357 642//357
f 641//358 642//358 644//358
f 644//359 646//359 645//359
f 646//360 648//360 647//360
f 648//361 650//361 649//361
f 650//362 652//362 651//362
f 652//363 654//363 653//363
f 654//364 656//364 655//364
f 656//365 658//365 657//365
f 658//366 660//366 659//366
f 659//367 660//367 662//367
f 662//368 664//368 663//368
f 664//369 666//369 665//369
f 666//370 668//370 667//370
f 668//371 670//371 669//371
f 670//372 672//372 671//372
f 671//373 672//373 674//373
f 673//374 674//374 676//374
f 676//375 678//375 677//375
f 678//376 680//376 679//376
f 679//377 680//377 682//377
f 682//378 684//378 683//378
f 684//379 686//379 685//379
f 686//380 688//380 687//380
f 687//381 688//381 690//381
f 690//382 692//382 691//382
f 692//383 694//383 693//383
f 694//384 696//384 695//384
f 696//385 698//385 697//385
f 698//386 700//386 699//386
f 700//387 702//387 701//387
f 702//388 704//388 703//388
f 704//389 706//389 705//389
f 706//390 708//390 707//390
f 708//391 710//391 709//391
f 710//392 712//392 711//392
f 712//393 714//393 713//393
f 714//394 716//394 715//394
f 716//395 718//395 717//395
f 598//3 596//3 594//3
f 594//3 720//3 718//3
f 718//455 716//455 714//455
f 714//3 712//3 710//3
f 710//3 708//3 706//3
f 706//455 704//455 702//455
f 702//3 700//3 698//3
f 698//3 696//3 694//3
f 694//3 692//3 690//3
f 690//3 688//3 686//3
f 686//3 684//3 682//3
f 682//3 680//3 678//3
f 678//456 676//456 674//456
f 674//3 672//3 670//3
f 670//3 668//3 666//3
f 666//456 664//456 662//456
f 662//3 660//3 658//3
f 658//3 656//3 654//3
f 654//456 652//456 650//456
f 650//3 648//3 646//3
f 646//3 644//3 642//3
f 642//456 640//456 638//456
f 638//3 636//3 634//3
f 634//3 632//3 630//3
f 630//3 628//3 626//3
f 626//3 624//3 622//3
f 622//3 620//3 618//3
f 618//3 616//3 614//3
f 614//455 612//455 610//455
f 610//3 608//3 606//3
f 606//3 604//3 602//3
f 602//455 600//455 598//455
f 598//3 594//3 718//3
f 718//3 714//3 710//3
f 710//3 706//3 702//3
f 702//3 698//3 694//3
f 694//3 690//3 686//3
f 686//3 682//3 678//3
f 678//3 674//3 670//3
f 670//3 666//3 662//3
f 662//3 658//3 654//3
f 654//3 650//3 646//3
f 646//3 642//3 638//3
f 638//3 634//3 630//3
f 630//3 626//3 622//3
f 622//3 618//3 614//3
f 614//3 610//3 606//3
f 606//3 602//3 598//3
f 598//3 718//3 710//3
f 710//3 702//3 694//3
f 694//3 686//3 678//3
f 678//3 670//3 662//3
f 662//3 654//3 646//3
f 646//3 638//3 630//3
f 630//3 622//3 614//3
f 614//3 606//3 598//3
f 598//3 710//3 694//3
f 694//3 678//3 662//3
f 662//3 646//3 630//3
f 630//3 614//3 598//3
f 598//3 694//3 662//3
f 717//396 718//396 720//396
f 720//397 594//397 593//397
f 719//1 593//1 595//1
f 595//457 597//457 599//457
f 599//1 601//1 603//1
f 603//1 605//1 607//1
f 607//1 609//1 611//1
f 611//1 613//1 615//1
f 615//458 617//458 619//458
f 619//1 621//1 623//1
f 623//1 625//1 627//1
f 627//1 629//1 631//1
f 631//459 633//459 635//459
f 635//1 637//1 639//1
f 639//1 641//1 643//1
f 643//1 645//1 647//1
f 647//1 649//1 651//1
f 651//460 653//460 655//460
f 655//1 657//1 659//1
f 659//460 661//460 663//460
f 663//1 665//1 667//1
f 667//1 669//1 671//1
f 671//1 673//1 675//1
f 675//1 677//1 679//1
f 679//459 681//459 683//459
f 683//1 685//1 687//1
f 687//1 689//1 691//1
f 691//1 693//1 695//1
f 695//458 697//458 699//458
f 699//1 701//1 703//1
f 703//1 705//1 707//1
f 707//1 709//1 711//1
f 711//1 713//1 715//1
f 715//457 717//457 719//457
f 719//1 595//1 599//1
f 599//1 603//1 607//1
f 607//1 611//1 615//1
f 615//1 619//1 623//1
f 623//1 627//1 631//1
f 631//1 635//1 639//1
f 639//1 643//1 647//1
f 647//1 651//1 655//1
f 655//1 659//1 663//1
f 663//1 667//1 671//1
f 671//1 675//1 679//1
f 679//1 683//1 687//1
f 687//1 691//1 695//1
f 695//1 699//1 703//1
f 703//1 707//1 711//1
f 711//1 715//1 719//1
f 719//1 599//1 607//1
f 607//1 615//1 623//1
f 623//1 631//1 639//1
f 639//1 647//1 655//1
f 655//1 663//1 671//1
f 671//1 679//1 687//1
f 687//1 695//1 703//1
f 703//1 711//1 719//1
f 719//1 607//1 623//1
f 623//1 639//1 655//1
f 655//1 671//1 687//1
f 687//1 703//1 719//1
f 719//1 623//1 655//1
