# Blender 5.2.2 LTS
# www.blender.org
mtllib shrink_disc_bolts_ok.mtl
o shrink_disc_bolts_ok
v -1.440000 -0.055183 0.362891
v -1.426000 -0.055183 0.362891
v -1.440000 -0.063683 0.348168
v -1.426000 -0.063683 0.348168
v -1.440000 -0.080683 0.348168
v -1.426000 -0.080683 0.348168
v -1.440000 -0.089183 0.362891
v -1.426000 -0.089183 0.362891
v -1.440000 -0.080683 0.377613
v -1.426000 -0.080683 0.377613
v -1.440000 -0.063683 0.377613
v -1.426000 -0.063683 0.377613
v -1.426000 -0.072590 0.349555
v -1.426000 -0.077662 0.375055
v -1.426000 -0.066705 0.350726
v -1.426000 -0.071777 0.376226
v -1.424000 -0.072590 0.349555
v -1.424000 -0.077662 0.375055
v -1.424000 -0.066705 0.350726
v -1.424000 -0.071777 0.376226
v -1.440000 -0.079028 0.381921
v -1.440000 -0.086831 0.421152
v -1.440000 -0.073143 0.383091
v -1.440000 -0.080946 0.422323
v -1.438000 -0.079028 0.381921
v -1.438000 -0.086831 0.421152
v -1.438000 -0.073143 0.383091
v -1.438000 -0.080946 0.422323
v -1.440000 -0.188561 0.307644
v -1.426000 -0.188561 0.307644
v -1.440000 -0.197061 0.292921
v -1.426000 -0.197061 0.292921
v -1.440000 -0.214061 0.292921
v -1.426000 -0.214061 0.292921
v -1.440000 -0.222561 0.307644
v -1.426000 -0.222561 0.307644
v -1.440000 -0.214061 0.322366
v -1.426000 -0.214061 0.322366
v -1.440000 -0.197061 0.322366
v -1.426000 -0.197061 0.322366
v -1.426000 -0.200833 0.295168
v -1.426000 -0.215278 0.316786
v -1.426000 -0.195844 0.298501
v -1.426000 -0.210289 0.320120
v -1.424000 -0.200833 0.295168
v -1.424000 -0.215278 0.316786
v -1.424000 -0.195844 0.298501
v -1.424000 -0.210289 0.320120
v -1.440000 -0.219167 0.322606
v -1.440000 -0.241390 0.355865
v -1.440000 -0.214178 0.325940
v -1.440000 -0.236401 0.359199
v -1.438000 -0.219167 0.322606
v -1.438000 -0.241390 0.355865
v -1.438000 -0.214178 0.325940
v -1.438000 -0.236401 0.359199
v -1.440000 -0.290644 0.205561
v -1.426000 -0.290644 0.205561
v -1.440000 -0.299144 0.190839
v -1.426000 -0.299144 0.190839
v -1.440000 -0.316144 0.190839
v -1.426000 -0.316144 0.190839
v -1.440000 -0.324644 0.205561
v -1.426000 -0.324644 0.205561
v -1.440000 -0.316144 0.220283
v -1.426000 -0.316144 0.220283
v -1.440000 -0.299144 0.220283
v -1.426000 -0.299144 0.220283
v -1.426000 -0.298501 0.195844
v -1.426000 -0.320120 0.210289
v -1.426000 -0.295168 0.200833
v -1.426000 -0.316786 0.215278
v -1.424000 -0.298501 0.195844
v -1.424000 -0.320120 0.210289
v -1.424000 -0.295168 0.200833
v -1.424000 -0.316786 0.215278
v -1.440000 -0.325940 0.214178
v -1.440000 -0.359199 0.236401
v -1.440000 -0.322606 0.219167
v -1.440000 -0.355865 0.241390
v -1.438000 -0.325940 0.214178
v -1.438000 -0.359199 0.236401
v -1.438000 -0.322606 0.219167
v -1.438000 -0.355865 0.241390
v -1.440000 -0.345891 0.072183
v -1.426000 -0.345891 0.072183
v -1.440000 -0.354391 0.057461
v -1.426000 -0.354391 0.057461
v -1.440000 -0.371391 0.057461
v -1.426000 -0.371391 0.057461
v -1.440000 -0.379891 0.072183
v -1.426000 -0.379891 0.072183
v -1.440000 -0.371391 0.086906
v -1.426000 -0.371391 0.086906
v -1.440000 -0.354391 0.086906
v -1.426000 -0.354391 0.086906
v -1.426000 -0.350726 0.066705
v -1.426000 -0.376226 0.071777
v -1.426000 -0.349555 0.072590
v -1.426000 -0.375056 0.077662
v -1.424000 -0.350726 0.066705
v -1.424000 -0.376226 0.071777
v -1.424000 -0.349555 0.072590
v -1.424000 -0.375056 0.077662
v -1.440000 -0.383091 0.073143
v -1.440000 -0.422323 0.080947
v -1.440000 -0.381921 0.079028
v -1.440000 -0.421152 0.086831
v -1.438000 -0.383091 0.073143
v -1.438000 -0.422323 0.080947
v -1.438000 -0.381921 0.079028
v -1.438000 -0.421152 0.086831
v -1.440000 -0.345891 -0.072183
v -1.426000 -0.345891 -0.072183
v -1.440000 -0.354391 -0.086906
v -1.426000 -0.354391 -0.086906
v -1.440000 -0.371391 -0.086906
v -1.426000 -0.371391 -0.086906
v -1.440000 -0.379891 -0.072183
v -1.426000 -0.379891 -0.072183
v -1.440000 -0.371391 -0.057461
v -1.426000 -0.371391 -0.057461
v -1.440000 -0.354391 -0.057461
v -1.426000 -0.354391 -0.057461
v -1.426000 -0.349555 -0.072590
v -1.426000 -0.375055 -0.077662
v -1.426000 -0.350726 -0.066705
v -1.426000 -0.376226 -0.071777
v -1.424000 -0.349555 -0.072590
v -1.424000 -0.375055 -0.077662
v -1.424000 -0.350726 -0.066705
v -1.424000 -0.376226 -0.071777
v -1.440000 -0.381921 -0.079028
v -1.440000 -0.421152 -0.086831
v -1.440000 -0.383091 -0.073143
v -1.440000 -0.422323 -0.080947
v -1.438000 -0.381921 -0.079028
v -1.438000 -0.421152 -0.086831
v -1.438000 -0.383091 -0.073143
v -1.438000 -0.422323 -0.080947
v -1.440000 -0.290644 -0.205561
v -1.426000 -0.290644 -0.205561
v -1.440000 -0.299144 -0.220283
v -1.426000 -0.299144 -0.220283
v -1.440000 -0.316144 -0.220283
v -1.426000 -0.316144 -0.220283
v -1.440000 -0.324644 -0.205561
v -1.426000 -0.324644 -0.205561
v -1.440000 -0.316144 -0.190839
v -1.426000 -0.316144 -0.190839
v -1.440000 -0.299144 -0.190839
v -1.426000 -0.299144 -0.190839
v -1.426000 -0.295168 -0.200833
v -1.426000 -0.316786 -0.215278
v -1.426000 -0.298501 -0.195844
v -1.426000 -0.320120 -0.210289
v -1.424000 -0.295168 -0.200833
v -1.424000 -0.316786 -0.215278
v -1.424000 -0.298501 -0.195844
v -1.424000 -0.320120 -0.210289
v -1.440000 -0.322606 -0.219167
v -1.440000 -0.355865 -0.241390
v -1.440000 -0.325940 -0.214178
v -1.440000 -0.359199 -0.236401
v -1.438000 -0.322606 -0.219167
v -1.438000 -0.355865 -0.241390
v -1.438000 -0.325940 -0.214178
v -1.438000 -0.359199 -0.236401
v -1.440000 -0.188561 -0.307644
v -1.426000 -0.188561 -0.307644
v -1.440000 -0.197061 -0.322366
v -1.426000 -0.197061 -0.322366
v -1.440000 -0.214061 -0.322366
v -1.426000 -0.214061 -0.322366
v -1.440000 -0.222561 -0.307644
v -1.426000 -0.222561 -0.307644
v -1.440000 -0.214061 -0.292921
v -1.426000 -0.214061 -0.292921
v -1.440000 -0.197061 -0.292921
v -1.426000 -0.197061 -0.292921
v -1.426000 -0.195844 -0.298501
v -1.426000 -0.210289 -0.320120
v -1.426000 -0.200833 -0.295168
v -1.426000 -0.215278 -0.316786
v -1.424000 -0.195844 -0.298501
v -1.424000 -0.210289 -0.320120
v -1.424000 -0.200833 -0.295168
v -1.424000 -0.215278 -0.316786
v -1.440000 -0.214178 -0.325940
v -1.440000 -0.236401 -0.359199
v -1.440000 -0.219167 -0.322606
v -1.440000 -0.241390 -0.355865
v -1.438000 -0.214178 -0.325940
v -1.438000 -0.236401 -0.359199
v -1.438000 -0.219167 -0.322606
v -1.438000 -0.241390 -0.355865
v -1.440000 -0.055183 -0.362891
v -1.426000 -0.055183 -0.362891
v -1.440000 -0.063683 -0.377613
v -1.426000 -0.063683 -0.377613
v -1.440000 -0.080683 -0.377613
v -1.426000 -0.080683 -0.377613
v -1.440000 -0.089183 -0.362891
v -1.426000 -0.089183 -0.362891
v -1.440000 -0.080683 -0.348168
v -1.426000 -0.080683 -0.348168
v -1.440000 -0.063683 -0.348168
v -1.426000 -0.063683 -0.348168
v -1.426000 -0.066705 -0.350726
v -1.426000 -0.071777 -0.376226
v -1.426000 -0.072590 -0.349555
v -1.426000 -0.077662 -0.375055
v -1.424000 -0.066705 -0.350726
v -1.424000 -0.071777 -0.376226
v -1.424000 -0.072590 -0.349555
v -1.424000 -0.077662 -0.375055
v -1.440000 -0.073143 -0.383092
v -1.440000 -0.080946 -0.422323
v -1.440000 -0.079028 -0.381921
v -1.440000 -0.086831 -0.421152
v -1.438000 -0.073143 -0.383092
v -1.438000 -0.080946 -0.422323
v -1.438000 -0.079028 -0.381921
v -1.438000 -0.086831 -0.421152
v -1.440000 0.089183 -0.362891
v -1.426000 0.089183 -0.362891
v -1.440000 0.080683 -0.377613
v -1.426000 0.080683 -0.377613
v -1.440000 0.063683 -0.377613
v -1.426000 0.063683 -0.377613
v -1.440000 0.055183 -0.362891
v -1.426000 0.055183 -0.362891
v -1.440000 0.063683 -0.348168
v -1.426000 0.063683 -0.348168
v -1.440000 0.080683 -0.348168
v -1.426000 0.080683 -0.348168
v -1.426000 0.072590 -0.349555
v -1.426000 0.077662 -0.375055
v -1.426000 0.066705 -0.350726
v -1.426000 0.071777 -0.376226
v -1.424000 0.072590 -0.349555
v -1.424000 0.077662 -0.375055
v -1.424000 0.066705 -0.350726
v -1.424000 0.071777 -0.376226
v -1.440000 0.079028 -0.381921
v -1.440000 0.086831 -0.421152
v -1.440000 0.073143 -0.383092
v -1.440000 0.080946 -0.422323
v -1.438000 0.079028 -0.381921
v -1.438000 0.086831 -0.421152
v -1.438000 0.073143 -0.383092
v -1.438000 0.080946 -0.422323
v -1.440000 0.222561 -0.307644
v -1.426000 0.222561 -0.307644
v -1.440000 0.214061 -0.322366
v -1.426000 0.214061 -0.322366
v -1.440000 0.197061 -0.322366
v -1.426000 0.197061 -0.322366
v -1.440000 0.188561 -0.307644
v -1.426000 0.188561 -0.307644
v -1.440000 0.197061 -0.292921
v -1.426000 0.197061 -0.292921
v -1.440000 0.214061 -0.292921
v -1.426000 0.214061 -0.292921
v -1.426000 0.200833 -0.295168
v -1.426000 0.215278 -0.316786
v -1.426000 0.195844 -0.298501
v -1.426000 0.210289 -0.320120
v -1.424000 0.200833 -0.295168
v -1.424000 0.215278 -0.316786
v -1.424000 0.195844 -0.298501
v -1.424000 0.210289 -0.320120
v -1.440000 0.219167 -0.322606
v -1.440000 0.241390 -0.355865
v -1.440000 0.214178 -0.325940
v -1.440000 0.236401 -0.359199
v -1.438000 0.219167 -0.322606
v -1.438000 0.241390 -0.355865
v -1.438000 0.214178 -0.325940
v -1.438000 0.236401 -0.359199
v -1.440000 0.324644 -0.205561
v -1.426000 0.324644 -0.205561
v -1.440000 0.316144 -0.220283
v -1.426000 0.316144 -0.220283
v -1.440000 0.299144 -0.220283
v -1.426000 0.299144 -0.220283
v -1.440000 0.290644 -0.205561
v -1.426000 0.290644 -0.205561
v -1.440000 0.299144 -0.190839
v -1.426000 0.299144 -0.190839
v -1.440000 0.316144 -0.190839
v -1.426000 0.316144 -0.190839
v -1.426000 0.298501 -0.195844
v -1.426000 0.320120 -0.210289
v -1.426000 0.295168 -0.200833
v -1.426000 0.316786 -0.215278
v -1.424000 0.298501 -0.195844
v -1.424000 0.320120 -0.210289
v -1.424000 0.295168 -0.200833
v -1.424000 0.316786 -0.215278
v -1.440000 0.325940 -0.214178
v -1.440000 0.359199 -0.236401
v -1.440000 0.322606 -0.219167
v -1.440000 0.355865 -0.241390
v -1.438000 0.325940 -0.214178
v -1.438000 0.359199 -0.236401
v -1.438000 0.322606 -0.219167
v -1.438000 0.355865 -0.241390
v -1.440000 0.379891 -0.072183
v -1.426000 0.379891 -0.072183
v -1.440000 0.371391 -0.086906
v -1.426000 0.371391 -0.086906
v -1.440000 0.354391 -0.086906
v -1.426000 0.354391 -0.086906
v -1.440000 0.345891 -0.072183
v -1.426000 0.345891 -0.072183
v -1.440000 0.354391 -0.057461
v -1.426000 0.354391 -0.057461
v -1.440000 0.371391 -0.057461
v -1.426000 0.371391 -0.057461
v -1.426000 0.350726 -0.066705
v -1.426000 0.376226 -0.071777
v -1.426000 0.349555 -0.072590
v -1.426000 0.375056 -0.077662
v -1.424000 0.350726 -0.066705
v -1.424000 0.376226 -0.071777
v -1.424000 0.349555 -0.072590
v -1.424000 0.375056 -0.077662
v -1.440000 0.383091 -0.073143
v -1.440000 0.422323 -0.080947
v -1.440000 0.381921 -0.079028
v -1.440000 0.421152 -0.086831
v -1.438000 0.383091 -0.073143
v -1.438000 0.422323 -0.080947
v -1.438000 0.381921 -0.079028
v -1.438000 0.421152 -0.086831
v -1.440000 0.379891 0.072183
v -1.426000 0.379891 0.072183
v -1.440000 0.371391 0.057461
v -1.426000 0.371391 0.057461
v -1.440000 0.354391 0.057461
v -1.426000 0.354391 0.057461
v -1.440000 0.345891 0.072183
v -1.426000 0.345891 0.072183
v -1.440000 0.354391 0.086906
v -1.426000 0.354391 0.086906
v -1.440000 0.371391 0.086906
v -1.426000 0.371391 0.086906
v -1.426000 0.349555 0.072590
v -1.426000 0.375056 0.077662
v -1.426000 0.350726 0.066705
v -1.426000 0.376226 0.071777
v -1.424000 0.349555 0.072590
v -1.424000 0.375056 0.077662
v -1.424000 0.350726 0.066705
v -1.424000 0.376226 0.071777
v -1.440000 0.381921 0.079028
v -1.440000 0.421152 0.086831
v -1.440000 0.383091 0.073143
v -1.440000 0.422323 0.080947
v -1.438000 0.381921 0.079028
v -1.438000 0.421152 0.086831
v -1.438000 0.383091 0.073143
v -1.438000 0.422323 0.080947
v -1.440000 0.324644 0.205561
v -1.426000 0.324644 0.205561
v -1.440000 0.316144 0.190839
v -1.426000 0.316144 0.190839
v -1.440000 0.299144 0.190839
v -1.426000 0.299144 0.190839
v -1.440000 0.290644 0.205561
v -1.426000 0.290644 0.205561
v -1.440000 0.299144 0.220283
v -1.426000 0.299144 0.220283
v -1.440000 0.316144 0.220283
v -1.426000 0.316144 0.220283
v -1.426000 0.295168 0.200833
v -1.426000 0.316786 0.215278
v -1.426000 0.298501 0.195844
v -1.426000 0.320120 0.210289
v -1.424000 0.295168 0.200833
v -1.424000 0.316786 0.215278
v -1.424000 0.298501 0.195844
v -1.424000 0.320120 0.210289
v -1.440000 0.322606 0.219167
v -1.440000 0.355865 0.241390
v -1.440000 0.325940 0.214178
v -1.440000 0.359199 0.236401
v -1.438000 0.322606 0.219167
v -1.438000 0.355865 0.241390
v -1.438000 0.325940 0.214178
v -1.438000 0.359199 0.236401
v -1.440000 0.222561 0.307644
v -1.426000 0.222561 0.307644
v -1.440000 0.214061 0.292921
v -1.426000 0.214061 0.292921
v -1.440000 0.197061 0.292921
v -1.426000 0.197061 0.292921
v -1.440000 0.188561 0.307644
v -1.426000 0.188561 0.307644
v -1.440000 0.197061 0.322366
v -1.426000 0.197061 0.322366
v -1.440000 0.214061 0.322366
v -1.426000 0.214061 0.322366
v -1.426000 0.195844 0.298501
v -1.426000 0.210289 0.320120
v -1.426000 0.200833 0.295168
v -1.426000 0.215278 0.316786
v -1.424000 0.195844 0.298501
v -1.424000 0.210289 0.320120
v -1.424000 0.200833 0.295168
v -1.424000 0.215278 0.316786
v -1.440000 0.214178 0.325940
v -1.440000 0.236401 0.359199
v -1.440000 0.219167 0.322606
v -1.440000 0.241390 0.355865
v -1.438000 0.214178 0.325940
v -1.438000 0.236401 0.359199
v -1.438000 0.219167 0.322606
v -1.438000 0.241390 0.355865
v -1.440000 0.089183 0.362891
v -1.426000 0.089183 0.362891
v -1.440000 0.080683 0.348168
v -1.426000 0.080683 0.348168
v -1.440000 0.063683 0.348168
v -1.426000 0.063683 0.348168
v -1.440000 0.055183 0.362891
v -1.426000 0.055183 0.362891
v -1.440000 0.063683 0.377613
v -1.426000 0.063683 0.377613
v -1.440000 0.080683 0.377613
v -1.426000 0.080683 0.377613
v -1.426000 0.066705 0.350726
v -1.426000 0.071777 0.376226
v -1.426000 0.072590 0.349555
v -1.426000 0.077662 0.375055
v -1.424000 0.066705 0.350726
v -1.424000 0.071777 0.376226
v -1.424000 0.072590 0.349555
v -1.424000 0.077662 0.375055
v -1.440000 0.073143 0.383092
v -1.440000 0.080946 0.422323
v -1.440000 0.079028 0.381921
v -1.440000 0.086831 0.421152
v -1.438000 0.073143 0.383092
v -1.438000 0.080946 0.422323
v -1.438000 0.079028 0.381921
v -1.438000 0.086831 0.421152
vn -0.0000 0.8660 -0.5000
vn -0.0000 -0.0000 -1.0000
vn -0.0000 -0.8660 -0.5000
vn -0.0000 -0.8660 0.5000
vn 1.0000 -0.0000 -0.0000
vn -0.0000 -0.0000 1.0000
vn -0.0000 0.8660 0.5000
vn -1.0000 -0.0000 -0.0000
vn -0.0000 0.9808 0.1951
vn -0.0000 -0.9808 -0.1951
vn -0.0000 0.1951 -0.9808
vn -0.0000 -0.1951 0.9808
vn -0.0000 0.8315 0.5556
vn -0.0000 -0.8315 -0.5556
vn -0.0000 0.5556 -0.8315
vn -0.0000 -0.5556 0.8315
vn -0.0000 0.5556 0.8315
vn -0.0000 -0.5556 -0.8315
vn -0.0000 0.8315 -0.5556
vn -0.0000 -0.8315 0.5556
vn -0.0000 0.1951 0.9808
vn -0.0000 -0.1951 -0.9808
vn -0.0000 0.9808 -0.1951
vn -0.0000 -0.9808 0.1951
s 0
usemtl bolt_black
f 2//1 3//1 1//1
f 4//2 5//2 3//2
f 6//3 7//3 5//3
f 8//4 9//4 7//4
f 2//5 10//5 6//5
f 10//6 11//6 9//6
f 12//7 1//7 11//7
f 3//8 7//8 11//8
f 30//1 31//1 29//1
f 32//2 33//2 31//2
f 34//3 35//3 33//3
f 36//4 37//4 35//4
f 30//5 38//5 34//5
f 38//6 39//6 37//6
f 40//7 29//7 39//7
f 31//8 35//8 39//8
f 58//1 59//1 57//1
f 60//2 61//2 59//2
f 62//3 63//3 61//3
f 64//4 65//4 63//4
f 58//5 66//5 62//5
f 66//6 67//6 65//6
f 68//7 57//7 67//7
f 59//8 63//8 67//8
f 86//1 87//1 85//1
f 88//2 89//2 87//2
f 90//3 91//3 89//3
f 92//4 93//4 91//4
f 86//5 94//5 90//5
f 94//6 95//6 93//6
f 96//7 85//7 95//7
f 87//8 91//8 95//8
f 114//1 115//1 113//1
f 116//2 117//2 115//2
f 118//3 119//3 117//3
f 120//4 121//4 119//4
f 114//5 122//5 118//5
f 122//6 123//6 121//6
f 124//7 113//7 123//7
f 115//8 119//8 123//8
f 142//1 143//1 141//1
f 144//2 145//2 143//2
f 146//3 147//3 145//3
f 148//4 149//4 147//4
f 142//5 150//5 146//5
f 150//6 151//6 149//6
f 152//7 141//7 151//7
f 143//8 147//8 151//8
f 170//1 171//1 169//1
f 172//2 173//2 171//2
f 174//3 175//3 173//3
f 176//4 177//4 175//4
f 170//5 178//5 174//5
f 178//6 179//6 177//6
f 180//7 169//7 179//7
f 171//8 175//8 179//8
f 198//1 199//1 197//1
f 200//2 201//2 199//2
f 202//3 203//3 201//3
f 204//4 205//4 203//4
f 198//5 206//5 202//5
f 206//6 207//6 205//6
f 208//7 197//7 207//7
f 199//8 203//8 207//8
f 226//1 227//1 225//1
f 228//2 229//2 227//2
f 230//3 231//3 229//3
f 232//4 233//4 231//4
f 226//5 234//5 230//5
f 234//6 235//6 233//6
f 236//7 225//7 235//7
f 227//8 231//8 235//8
f 254//1 255//1 253//1
f 256//2 257//2 255//2
f 258//3 259//3 257//3
f 260//4 261//4 259//4
f 254//5 262//5 258//5
f 262//6 263//6 261//6
f 264//7 253//7 263//7
f 255//8 259//8 263//8
f 282//1 283//1 281//1
f 284//2 285//2 283//2
f 286//3 287//3 285//3
f 288//4 289//4 287//4
f 282//5 290//5 286//5
f 290//6 291//6 289//6
f 292//7 281//7 291//7
f 283//8 287//8 291//8
f 310//1 311//1 309//1
f 312//2 313//2 311//2
f 314//3 315//3 313//3
f 316//4 317//4 315//4
f 310//5 318//5 314//5
f 318//6 319//6 317//6
f 320//7 309//7 319//7
f 311//8 315//8 319//8
f 338//1 339//1 337//1
f 340//2 341//2 339//2
f 342//3 343//3 341//3
f 344//4 345//4 343//4
f 338//5 346//5 342//5
f 346//6 347//6 345//6
f 348//7 337//7 347//7
f 339//8 343//8 347//8
f 366//1 367//1 365//1
f 368//2 369//2 367//2
f 370//3 371//3 369//3
f 372//4 373//4 371//4
f 366//5 374//5 370//5
f 374//6 375//6 373//6
f 376//7 365//7 375//7
f 367//8 371//8 375//8
f 394//1 395//1 393//1
f 396//2 397//2 395//2
f 398//3 399//3 397//3
f 400//4 401//4 399//4
f 394//5 402//5 398//5
f 402//6 403//6 401//6
f 404//7 393//7 403//7
f 395//8 399//8 403//8
f 422//1 423//1 421//1
f 424//2 425//2 423//2
f 426//3 427//3 425//3
f 428//4 429//4 427//4
f 422//5 430//5 426//5
f 430//6 431//6 429//6
f 432//7 421//7 431//7
f 423//8 427//8 431//8
f 2//1 4//1 3//1
f 4//2 6//2 5//2
f 6//3 8//3 7//3
f 8//4 10//4 9//4
f 6//5 4//5 2//5
f 2//5 12//5 10//5
f 10//5 8//5 6//5
f 10//6 12//6 11//6
f 12//7 2//7 1//7
f 11//8 1//8 3//8
f 3//8 5//8 7//8
f 7//8 9//8 11//8
f 30//1 32//1 31//1
f 32//2 34//2 33//2
f 34//3 36//3 35//3
f 36//4 38//4 37//4
f 34//5 32//5 30//5
f 30//5 40//5 38//5
f 38//5 36//5 34//5
f 38//6 40//6 39//6
f 40//7 30//7 29//7
f 39//8 29//8 31//8
f 31//8 33//8 35//8
f 35//8 37//8 39//8
f 58//1 60//1 59//1
f 60//2 62//2 61//2
f 62//3 64//3 63//3
f 64//4 66//4 65//4
f 62//5 60//5 58//5
f 58//5 68//5 66//5
f 66//5 64//5 62//5
f 66//6 68//6 67//6
f 68//7 58//7 57//7
f 67//8 57//8 59//8
f 59//8 61//8 63//8
f 63//8 65//8 67//8
f 86//1 88//1 87//1
f 88//2 90//2 89//2
f 90//3 92//3 91//3
f 92//4 94//4 93//4
f 90//5 88//5 86//5
f 86//5 96//5 94//5
f 94//5 92//5 90//5
f 94//6 96//6 95//6
f 96//7 86//7 85//7
f 95//8 85//8 87//8
f 87//8 89//8 91//8
f 91//8 93//8 95//8
f 114//1 116//1 115//1
f 116//2 118//2 117//2
f 118//3 120//3 119//3
f 120//4 122//4 121//4
f 118//5 116//5 114//5
f 114//5 124//5 122//5
f 122//5 120//5 118//5
f 122//6 124//6 123//6
f 124//7 114//7 113//7
f 123//8 113//8 115//8
f 115//8 117//8 119//8
f 119//8 121//8 123//8
f 142//1 144//1 143//1
f 144//2 146//2 145//2
f 146//3 148//3 147//3
f 148//4 150//4 149//4
f 146//5 144//5 142//5
f 142//5 152//5 150//5
f 150//5 148//5 146//5
f 150//6 152//6 151//6
f 152//7 142//7 141//7
f 151//8 141//8 143//8
f 143//8 145//8 147//8
f 147//8 149//8 151//8
f 170//1 172//1 171//1
f 172//2 174//2 173//2
f 174//3 176//3 175//3
f 176//4 178//4 177//4
f 174//5 172//5 170//5
f 170//5 180//5 178//5
f 178//5 176//5 174//5
f 178//6 180//6 179//6
f 180//7 170//7 169//7
f 179//8 169//8 171//8
f 171//8 173//8 175//8
f 175//8 177//8 179//8
f 198//1 200//1 199//1
f 200//2 202//2 201//2
f 202//3 204//3 203//3
f 204//4 206//4 205//4
f 202//5 200//5 198//5
f 198//5 208//5 206//5
f 206//5 204//5 202//5
f 206//6 208//6 207//6
f 208//7 198//7 197//7
f 207//8 197//8 199//8
f 199//8 201//8 203//8
f 203//8 205//8 207//8
f 226//1 228//1 227//1
f 228//2 230//2 229//2
f 230//3 232//3 231//3
f 232//4 234//4 233//4
f 230//5 228//5 226//5
f 226//5 236//5 234//5
f 234//5 232//5 230//5
f 234//6 236//6 235//6
f 236//7 226//7 225//7
f 235//8 225//8 227//8
f 227//8 229//8 231//8
f 231//8 233//8 235//8
f 254//1 256//1 255//1
f 256//2 258//2 257//2
f 258//3 260//3 259//3
f 260//4 262//4 261//4
f 258//5 256//5 254//5
f 254//5 264//5 262//5
f 262//5 260//5 258//5
f 262//6 264//6 263//6
f 264//7 254//7 253//7
f 263//8 253//8 255//8
f 255//8 257//8 259//8
f 259//8 261//8 263//8
f 282//1 284//1 283//1
f 284//2 286//2 285//2
f 286//3 288//3 287//3
f 288//4 290//4 289//4
f 286//5 284//5 282//5
f 282//5 292//5 290//5
f 290//5 288//5 286//5
f 290//6 292//6 291//6
f 292//7 282//7 281//7
f 291//8 281//8 283//8
f 283//8 285//8 287//8
f 287//8 289//8 291//8
f 310//1 312//1 311//1
f 312//2 314//2 313//2
f 314//3 316//3 315//3
f 316//4 318//4 317//4
f 314//5 312//5 310//5
f 310//5 320//5 318//5
f 318//5 316//5 314//5
f 318//6 320//6 319//6
f 320//7 310//7 309//7
f 319//8 309//8 311//8
f 311//8 313//8 315//8
f 315//8 317//8 319//8
f 338//1 340//1 339//1
f 340//2 342//2 341//2
f 342//3 344//3 343//3
f 344//4 346//4 345//4
f 342//5 340//5 338//5
f 338//5 348//5 346//5
f 346//5 344//5 342//5
f 346//6 348//6 347//6
f 348//7 338//7 337//7
f 347//8 337//8 339//8
f 339//8 341//8 343//8
f 343//8 345//8 347//8
f 366//1 368//1 367//1
f 368//2 370//2 369//2
f 370//3 372//3 371//3
f 372//4 374//4 373//4
f 370//5 368//5 366//5
f 366//5 376//5 374//5
f 374//5 372//5 370//5
f 374//6 376//6 375//6
f 376//7 366//7 365//7
f 375//8 365//8 367//8
f 367//8 369//8 371//8
f 371//8 373//8 375//8
f 394//1 396//1 395//1
f 396//2 398//2 397//2
f 398//3 400//3 399//3
f 400//4 402//4 401//4
f 398//5 396//5 394//5
f 394//5 404//5 402//5
f 402//5 400//5 398//5
f 402//6 404//6 403//6
f 404//7 394//7 393//7
f 403//8 393//8 395//8
f 395//8 397//8 399//8
f 399//8 401//8 403//8
f 422//1 424//1 423//1
f 424//2 426//2 425//2
f 426//3 428//3 427//3
f 428//4 430//4 429//4
f 426//5 424//5 422//5
f 422//5 432//5 430//5
f 430//5 428//5 426//5
f 430//6 432//6 431//6
f 432//7 422//7 421//7
f 431//8 421//8 423//8
f 423//8 425//8 427//8
f 427//8 429//8 431//8
usemtl hatch_yellow
f 13//8 16//8 15//8
f 16//9 19//9 15//9
f 20//5 17//5 19//5
f 18//10 13//10 17//10
f 19//11 13//11 15//11
f 16//12 18//12 20//12
f 21//8 24//8 23//8
f 24//9 27//9 23//9
f 28//5 25//5 27//5
f 26//10 21//10 25//10
f 27//11 21//11 23//11
f 24//12 26//12 28//12
f 41//8 44//8 43//8
f 44//13 47//13 43//13
f 48//5 45//5 47//5
f 46//14 41//14 45//14
f 47//15 41//15 43//15
f 44//16 46//16 48//16
f 50//8 51//8 49//8
f 52//13 55//13 51//13
f 55//5 54//5 53//5
f 54//14 49//14 53//14
f 55//15 49//15 51//15
f 52//16 54//16 56//16
f 70//8 71//8 69//8
f 72//17 75//17 71//17
f 76//5 73//5 75//5
f 74//18 69//18 73//18
f 75//19 69//19 71//19
f 72//20 74//20 76//20
f 77//8 80//8 79//8
f 80//17 83//17 79//17
f 84//5 81//5 83//5
f 82//18 77//18 81//18
f 83//19 77//19 79//19
f 80//20 82//20 84//20
f 98//8 99//8 97//8
f 100//21 103//21 99//21
f 103//5 102//5 101//5
f 102//22 97//22 101//22
f 103//23 97//23 99//23
f 100//24 102//24 104//24
f 106//8 107//8 105//8
f 108//21 111//21 107//21
f 111//5 110//5 109//5
f 110//22 105//22 109//22
f 111//23 105//23 107//23
f 108//24 110//24 112//24
f 125//8 128//8 127//8
f 128//12 131//12 127//12
f 132//5 129//5 131//5
f 130//11 125//11 129//11
f 131//9 125//9 127//9
f 128//10 130//10 132//10
f 133//8 136//8 135//8
f 136//12 139//12 135//12
f 140//5 137//5 139//5
f 138//11 133//11 137//11
f 139//9 133//9 135//9
f 136//10 138//10 140//10
f 154//8 155//8 153//8
f 156//16 159//16 155//16
f 159//5 158//5 157//5
f 158//15 153//15 157//15
f 159//13 153//13 155//13
f 156//14 158//14 160//14
f 162//8 163//8 161//8
f 164//16 167//16 163//16
f 167//5 166//5 165//5
f 166//15 161//15 165//15
f 167//13 161//13 163//13
f 164//14 166//14 168//14
f 182//8 183//8 181//8
f 184//20 187//20 183//20
f 187//5 186//5 185//5
f 186//19 181//19 185//19
f 187//17 181//17 183//17
f 184//18 186//18 188//18
f 189//8 192//8 191//8
f 192//20 195//20 191//20
f 196//5 193//5 195//5
f 194//19 189//19 193//19
f 195//17 189//17 191//17
f 192//18 194//18 196//18
f 210//8 211//8 209//8
f 212//24 215//24 211//24
f 215//5 214//5 213//5
f 214//23 209//23 213//23
f 215//21 209//21 211//21
f 212//22 214//22 216//22
f 218//8 219//8 217//8
f 220//24 223//24 219//24
f 223//5 222//5 221//5
f 222//23 217//23 221//23
f 223//21 217//21 219//21
f 220//22 222//22 224//22
f 237//8 240//8 239//8
f 240//10 243//10 239//10
f 244//5 241//5 243//5
f 242//9 237//9 241//9
f 243//12 237//12 239//12
f 240//11 242//11 244//11
f 245//8 248//8 247//8
f 248//10 251//10 247//10
f 252//5 249//5 251//5
f 250//9 245//9 249//9
f 251//12 245//12 247//12
f 248//11 250//11 252//11
f 266//8 267//8 265//8
f 268//14 271//14 267//14
f 271//5 270//5 269//5
f 270//13 265//13 269//13
f 271//16 265//16 267//16
f 268//15 270//15 272//15
f 274//8 275//8 273//8
f 276//14 279//14 275//14
f 279//5 278//5 277//5
f 278//13 273//13 277//13
f 279//16 273//16 275//16
f 276//15 278//15 280//15
f 293//8 296//8 295//8
f 296//18 299//18 295//18
f 300//5 297//5 299//5
f 298//17 293//17 297//17
f 299//20 293//20 295//20
f 296//19 298//19 300//19
f 301//8 304//8 303//8
f 304//18 307//18 303//18
f 308//5 305//5 307//5
f 306//17 301//17 305//17
f 307//20 301//20 303//20
f 304//19 306//19 308//19
f 322//8 323//8 321//8
f 324//22 327//22 323//22
f 327//5 326//5 325//5
f 326//21 321//21 325//21
f 327//24 321//24 323//24
f 324//23 326//23 328//23
f 330//8 331//8 329//8
f 332//22 335//22 331//22
f 335//5 334//5 333//5
f 334//21 329//21 333//21
f 335//24 329//24 331//24
f 332//23 334//23 336//23
f 349//8 352//8 351//8
f 352//11 355//11 351//11
f 356//5 353//5 355//5
f 354//12 349//12 353//12
f 355//10 349//10 351//10
f 352//9 354//9 356//9
f 357//8 360//8 359//8
f 360//11 363//11 359//11
f 364//5 361//5 363//5
f 362//12 357//12 361//12
f 363//10 357//10 359//10
f 360//9 362//9 364//9
f 378//8 379//8 377//8
f 380//15 383//15 379//15
f 384//5 381//5 383//5
f 382//16 377//16 381//16
f 383//14 377//14 379//14
f 380//13 382//13 384//13
f 386//8 387//8 385//8
f 388//15 391//15 387//15
f 391//5 390//5 389//5
f 390//16 385//16 389//16
f 391//14 385//14 387//14
f 388//13 390//13 392//13
f 406//8 407//8 405//8
f 408//19 411//19 407//19
f 412//5 409//5 411//5
f 410//20 405//20 409//20
f 411//18 405//18 407//18
f 408//17 410//17 412//17
f 413//8 416//8 415//8
f 416//19 419//19 415//19
f 420//5 417//5 419//5
f 418//20 413//20 417//20
f 419//18 413//18 415//18
f 416//17 418//17 420//17
f 434//8 435//8 433//8
f 436//23 439//23 435//23
f 439//5 438//5 437//5
f 438//24 433//24 437//24
f 439//22 433//22 435//22
f 436//21 438//21 440//21
f 442//8 443//8 441//8
f 444//23 447//23 443//23
f 447//5 446//5 445//5
f 446//24 441//24 445//24
f 447//22 441//22 443//22
f 444//21 446//21 448//21
f 13//8 14//8 16//8
f 16//9 20//9 19//9
f 20//5 18//5 17//5
f 18//10 14//10 13//10
f 19//11 17//11 13//11
f 16//12 14//12 18//12
f 21//8 22//8 24//8
f 24//9 28//9 27//9
f 28//5 26//5 25//5
f 26//10 22//10 21//10
f 27//11 25//11 21//11
f 24//12 22//12 26//12
f 41//8 42//8 44//8
f 44//13 48//13 47//13
f 48//5 46//5 45//5
f 46//14 42//14 41//14
f 47//15 45//15 41//15
f 44//16 42//16 46//16
f 50//8 52//8 51//8
f 52//13 56//13 55//13
f 55//5 56//5 54//5
f 54//14 50//14 49//14
f 55//15 53//15 49//15
f 52//16 50//16 54//16
f 70//8 72//8 71//8
f 72//17 76//17 75//17
f 76//5 74//5 73//5
f 74//18 70//18 69//18
f 75//19 73//19 69//19
f 72//20 70//20 74//20
f 77//8 78//8 80//8
f 80//17 84//17 83//17
f 84//5 82//5 81//5
f 82//18 78//18 77//18
f 83//19 81//19 77//19
f 80//20 78//20 82//20
f 98//8 100//8 99//8
f 100//21 104//21 103//21
f 103//5 104//5 102//5
f 102//22 98//22 97//22
f 103//23 101//23 97//23
f 100//24 98//24 102//24
f 106//8 108//8 107//8
f 108//21 112//21 111//21
f 111//5 112//5 110//5
f 110//22 106//22 105//22
f 111//23 109//23 105//23
f 108//24 106//24 110//24
f 125//8 126//8 128//8
f 128//12 132//12 131//12
f 132//5 130//5 129//5
f 130//11 126//11 125//11
f 131//9 129//9 125//9
f 128//10 126//10 130//10
f 133//8 134//8 136//8
f 136//12 140//12 139//12
f 140//5 138//5 137//5
f 138//11 134//11 133//11
f 139//9 137//9 133//9
f 136//10 134//10 138//10
f 154//8 156//8 155//8
f 156//16 160//16 159//16
f 159//5 160//5 158//5
f 158//15 154//15 153//15
f 159//13 157//13 153//13
f 156//14 154//14 158//14
f 162//8 164//8 163//8
f 164//16 168//16 167//16
f 167//5 168//5 166//5
f 166//15 162//15 161//15
f 167//13 165//13 161//13
f 164//14 162//14 166//14
f 182//8 184//8 183//8
f 184//20 188//20 187//20
f 187//5 188//5 186//5
f 186//19 182//19 181//19
f 187//17 185//17 181//17
f 184//18 182//18 186//18
f 189//8 190//8 192//8
f 192//20 196//20 195//20
f 196//5 194//5 193//5
f 194//19 190//19 189//19
f 195//17 193//17 189//17
f 192//18 190//18 194//18
f 210//8 212//8 211//8
f 212//24 216//24 215//24
f 215//5 216//5 214//5
f 214//23 210//23 209//23
f 215//21 213//21 209//21
f 212//22 210//22 214//22
f 218//8 220//8 219//8
f 220//24 224//24 223//24
f 223//5 224//5 222//5
f 222//23 218//23 217//23
f 223//21 221//21 217//21
f 220//22 218//22 222//22
f 237//8 238//8 240//8
f 240//10 244//10 243//10
f 244//5 242//5 241//5
f 242//9 238//9 237//9
f 243//12 241//12 237//12
f 240//11 238//11 242//11
f 245//8 246//8 248//8
f 248//10 252//10 251//10
f 252//5 250//5 249//5
f 250//9 246//9 245//9
f 251//12 249//12 245//12
f 248//11 246//11 250//11
f 266//8 268//8 267//8
f 268//14 272//14 271//14
f 271//5 272//5 270//5
f 270//13 266//13 265//13
f 271//16 269//16 265//16
f 268//15 266//15 270//15
f 274//8 276//8 275//8
f 276//14 280//14 279//14
f 279//5 280//5 278//5
f 278//13 274//13 273//13
f 279//16 277//16 273//16
f 276//15 274//15 278//15
f 293//8 294//8 296//8
f 296//18 300//18 299//18
f 300//5 298//5 297//5
f 298//17 294//17 293//17
f 299//20 297//20 293//20
f 296//19 294//19 298//19
f 301//8 302//8 304//8
f 304//18 308//18 307//18
f 308//5 306//5 305//5
f 306//17 302//17 301//17
f 307//20 305//20 301//20
f 304//19 302//19 306//19
f 322//8 324//8 323//8
f 324//22 328//22 327//22
f 327//5 328//5 326//5
f 326//21 322//21 321//21
f 327//24 325//24 321//24
f 324//23 322//23 326//23
f 330//8 332//8 331//8
f 332//22 336//22 335//22
f 335//5 336//5 334//5
f 334//21 330//21 329//21
f 335//24 333//24 329//24
f 332//23 330//23 334//23
f 349//8 350//8 352//8
f 352//11 356//11 355//11
f 356//5 354//5 353//5
f 354//12 350//12 349//12
f 355//10 353//10 349//10
f 352//9 350//9 354//9
f 357//8 358//8 360//8
f 360//11 364//11 363//11
f 364//5 362//5 361//5
f 362//12 358//12 357//12
f 363//10 361//10 357//10
f 360//9 358//9 362//9
f 378//8 380//8 379//8
f 380//15 384//15 383//15
f 384//5 382//5 381//5
f 382//16 378//16 377//16
f 383//14 381//14 377//14
f 380//13 378//13 382//13
f 386//8 388//8 387//8
f 388//15 392//15 391//15
f 391//5 392//5 390//5
f 390//16 386//16 385//16
f 391//14 389//14 385//14
f 388//13 386//13 390//13
f 406//8 408//8 407//8
f 408//19 412//19 411//19
f 412//5 410//5 409//5
f 410//20 406//20 405//20
f 411//18 409//18 405//18
f 408//17 406//17 410//17
f 413//8 414//8 416//8
f 416//19 420//19 419//19
f 420//5 418//5 417//5
f 418//20 414//20 413//20
f 419//18 417//18 413//18
f 416//17 414//17 418//17
f 434//8 436//8 435//8
f 436//23 440//23 439//23
f 439//5 440//5 438//5
f 438//24 434//24 433//24
f 439//22 437//22 433//22
f 436//21 434//21 438//21
f 442//8 444//8 443//8
f 444//23 448//23 447//23
f 447//5 448//5 446//5
f 446//24 442//24 441//24
f 447//22 445//22 441//22
f 444//21 442//21 446//21
