# Blender 5.2.2 LTS
# www.blender.org
mtllib shrink_disc_bolts_loose.mtl
o shrink_disc_bolts_loose
v -1.440000 -0.055183 0.362891
v -1.426000 -0.055183 0.362891
v -1.440000 -0.063683 0.348168
v -1.426000 -0.063683 0.348168
v -1.440000 -0.080683 0.348168
v -1.426000 -0.080683 0.348168
v -1.440000 -0.089183 0.362891
v -1.426000 -0.089183 0.362891
v -1.440000 -0.080683 0.377613
v -1.426000 -0.080683 0.377613
v -1.440000 -0.063683 0.377613
v -1.426000 -0.063683 0.377613
v -1.426000 -0.072590 0.349555
v -1.426000 -0.077662 0.375055
v -1.426000 -0.066705 0.350726
v -1.426000 -0.071777 0.376226
v -1.424000 -0.072590 0.349555
v -1.424000 -0.077662 0.375055
v -1.424000 -0.066705 0.350726
v -1.424000 -0.071777 0.376226
v -1.440000 -0.079028 0.381921
v -1.440000 -0.086831 0.421152
v -1.440000 -0.073143 0.383091
v -1.440000 -0.080946 0.422323
v -1.438000 -0.079028 0.381921
v -1.438000 -0.086831 0.421152
v -1.438000 -0.073143 0.383091
v -1.438000 -0.080946 0.422323
v -1.440000 -0.188561 0.307644
v -1.426000 -0.188561 0.307644
v -1.440000 -0.197061 0.292921
v -1.426000 -0.197061 0.292921
v -1.440000 -0.214061 0.292921
v -1.426000 -0.214061 0.292921
v -1.440000 -0.222561 0.307644
v -1.426000 -0.222561 0.307644
v -1.440000 -0.214061 0.322366
v -1.426000 -0.214061 0.322366
v -1.440000 -0.197061 0.322366
v -1.426000 -0.197061 0.322366
v -1.426000 -0.200833 0.295168
v -1.426000 -0.215278 0.316786
v -1.426000 -0.195844 0.298501
v -1.426000 -0.210289 0.320120
v -1.424000 -0.200833 0.295168
v -1.424000 -0.215278 0.316786
v -1.424000 -0.195844 0.298501
v -1.424000 -0.210289 0.320120
v -1.440000 -0.219167 0.322606
v -1.440000 -0.241390 0.355865
v -1.440000 -0.214178 0.325940
v -1.440000 -0.236401 0.359199
v -1.438000 -0.219167 0.322606
v -1.438000 -0.241390 0.355865
v -1.438000 -0.214178 0.325940
v -1.438000 -0.236401 0.359199
v -1.440000 -0.290644 0.205561
v -1.426000 -0.290644 0.205561
v -1.440000 -0.299144 0.190839
v -1.426000 -0.299144 0.190839
v -1.440000 -0.316144 0.190839
v -1.426000 -0.316144 0.190839
v -1.440000 -0.324644 0.205561
v -1.426000 -0.324644 0.205561
v -1.440000 -0.316144 0.220283
v -1.426000 -0.316144 0.220283
v -1.440000 -0.299144 0.220283
v -1.426000 -0.299144 0.220283
v -1.426000 -0.298501 0.195844
v -1.426000 -0.320120 0.210289
v -1.426000 -0.295168 0.200833
v -1.426000 -0.316786 0.215278
v -1.424000 -0.298501 0.195844
v -1.424000 -0.320120 0.210289
v -1.424000 -0.295168 0.200833
v -1.424000 -0.316786 0.215278
v -1.440000 -0.325940 0.214178
v -1.440000 -0.359199 0.236401
v -1.440000 -0.322606 0.219167
v -1.440000 -0.355865 0.241390
v -1.438000 -0.325940 0.214178
v -1.438000 -0.359199 0.236401
v -1.438000 -0.322606 0.219167
v -1.438000 -0.355865 0.241390
v -1.440000 -0.345891 0.072183
v -1.426000 -0.345891 0.072183
v -1.440000 -0.354391 0.057461
v -1.426000 -0.354391 0.057461
v -1.440000 -0.371391 0.057461
v -1.426000 -0.371391 0.057461
v -1.440000 -0.379891 0.072183
v -1.426000 -0.379891 0.072183
v -1.440000 -0.371391 0.086906
v -1.426000 -0.371391 0.086906
v -1.440000 -0.354391 0.086906
v -1.426000 -0.354391 0.086906
v -1.426000 -0.350726 0.066705
v -1.426000 -0.376226 0.071777
v -1.426000 -0.349555 0.072590
v -1.426000 -0.375056 0.077662
v -1.424000 -0.350726 0.066705
v -1.424000 -0.376226 0.071777
v -1.424000 -0.349555 0.072590
v -1.424000 -0.375056 0.077662
v -1.440000 -0.383091 0.073143
v -1.440000 -0.422323 0.080947
v -1.440000 -0.381921 0.079028
v -1.440000 -0.421152 0.086831
v -1.438000 -0.383091 0.073143
v -1.438000 -0.422323 0.080947
v -1.438000 -0.381921 0.079028
v -1.438000 -0.421152 0.086831
v -1.418000 -0.345891 -0.072183
v -1.404000 -0.345891 -0.072183
v -1.418000 -0.354391 -0.086906
v -1.404000 -0.354391 -0.086906
v -1.418000 -0.371391 -0.086906
v -1.404000 -0.371391 -0.086906
v -1.418000 -0.379891 -0.072183
v -1.404000 -0.379891 -0.072183
v -1.418000 -0.371391 -0.057461
v -1.404000 -0.371391 -0.057461
v -1.418000 -0.354391 -0.057461
v -1.404000 -0.354391 -0.057461
v -1.440000 -0.351891 -0.072183
v -1.418000 -0.351891 -0.072183
v -1.440000 -0.353364 -0.077683
v -1.418000 -0.353364 -0.077683
v -1.440000 -0.357391 -0.081710
v -1.418000 -0.357391 -0.081710
v -1.440000 -0.362891 -0.083183
v -1.418000 -0.362891 -0.083183
v -1.440000 -0.368391 -0.081710
v -1.418000 -0.368391 -0.081710
v -1.440000 -0.372417 -0.077683
v -1.418000 -0.372417 -0.077683
v -1.440000 -0.373891 -0.072183
v -1.418000 -0.373891 -0.072183
v -1.440000 -0.372417 -0.066683
v -1.418000 -0.372417 -0.066683
v -1.440000 -0.368391 -0.062657
v -1.418000 -0.368391 -0.062657
v -1.440000 -0.362891 -0.061183
v -1.418000 -0.362891 -0.061183
v -1.440000 -0.357391 -0.062657
v -1.418000 -0.357391 -0.062657
v -1.440000 -0.353364 -0.066683
v -1.418000 -0.353364 -0.066683
v -1.404000 -0.352429 -0.063903
v -1.404000 -0.368665 -0.084211
v -1.404000 -0.357116 -0.060156
v -1.404000 -0.373352 -0.080464
v -1.402000 -0.352429 -0.063903
v -1.402000 -0.368665 -0.084211
v -1.402000 -0.357116 -0.060156
v -1.402000 -0.373352 -0.080464
v -1.440000 -0.381921 -0.079028
v -1.440000 -0.421152 -0.086831
v -1.440000 -0.383091 -0.073143
v -1.440000 -0.422323 -0.080947
v -1.438000 -0.381921 -0.079028
v -1.438000 -0.421152 -0.086831
v -1.438000 -0.383091 -0.073143
v -1.438000 -0.422323 -0.080947
v -1.440000 -0.290644 -0.205561
v -1.426000 -0.290644 -0.205561
v -1.440000 -0.299144 -0.220283
v -1.426000 -0.299144 -0.220283
v -1.440000 -0.316144 -0.220283
v -1.426000 -0.316144 -0.220283
v -1.440000 -0.324644 -0.205561
v -1.426000 -0.324644 -0.205561
v -1.440000 -0.316144 -0.190839
v -1.426000 -0.316144 -0.190839
v -1.440000 -0.299144 -0.190839
v -1.426000 -0.299144 -0.190839
v -1.426000 -0.295168 -0.200833
v -1.426000 -0.316786 -0.215278
v -1.426000 -0.298501 -0.195844
v -1.426000 -0.320120 -0.210289
v -1.424000 -0.295168 -0.200833
v -1.424000 -0.316786 -0.215278
v -1.424000 -0.298501 -0.195844
v -1.424000 -0.320120 -0.210289
v -1.440000 -0.322606 -0.219167
v -1.440000 -0.355865 -0.241390
v -1.440000 -0.325940 -0.214178
v -1.440000 -0.359199 -0.236401
v -1.438000 -0.322606 -0.219167
v -1.438000 -0.355865 -0.241390
v -1.438000 -0.325940 -0.214178
v -1.438000 -0.359199 -0.236401
v -1.440000 -0.188561 -0.307644
v -1.426000 -0.188561 -0.307644
v -1.440000 -0.197061 -0.322366
v -1.426000 -0.197061 -0.322366
v -1.440000 -0.214061 -0.322366
v -1.426000 -0.214061 -0.322366
v -1.440000 -0.222561 -0.307644
v -1.426000 -0.222561 -0.307644
v -1.440000 -0.214061 -0.292921
v -1.426000 -0.214061 -0.292921
v -1.440000 -0.197061 -0.292921
v -1.426000 -0.197061 -0.292921
v -1.426000 -0.195844 -0.298501
v -1.426000 -0.210289 -0.320120
v -1.426000 -0.200833 -0.295168
v -1.426000 -0.215278 -0.316786
v -1.424000 -0.195844 -0.298501
v -1.424000 -0.210289 -0.320120
v -1.424000 -0.200833 -0.295168
v -1.424000 -0.215278 -0.316786
v -1.440000 -0.214178 -0.325940
v -1.440000 -0.236401 -0.359199
v -1.440000 -0.219167 -0.322606
v -1.440000 -0.241390 -0.355865
v -1.438000 -0.214178 -0.325940
v -1.438000 -0.236401 -0.359199
v -1.438000 -0.219167 -0.322606
v -1.438000 -0.241390 -0.355865
v -1.440000 -0.055183 -0.362891
v -1.426000 -0.055183 -0.362891
v -1.440000 -0.063683 -0.377613
v -1.426000 -0.063683 -0.377613
v -1.440000 -0.080683 -0.377613
v -1.426000 -0.080683 -0.377613
v -1.440000 -0.089183 -0.362891
v -1.426000 -0.089183 -0.362891
v -1.440000 -0.080683 -0.348168
v -1.426000 -0.080683 -0.348168
v -1.440000 -0.063683 -0.348168
v -1.426000 -0.063683 -0.348168
v -1.426000 -0.066705 -0.350726
v -1.426000 -0.071777 -0.376226
v -1.426000 -0.072590 -0.349555
v -1.426000 -0.077662 -0.375055
v -1.424000 -0.066705 -0.350726
v -1.424000 -0.071777 -0.376226
v -1.424000 -0.072590 -0.349555
v -1.424000 -0.077662 -0.375055
v -1.440000 -0.073143 -0.383092
v -1.440000 -0.080946 -0.422323
v -1.440000 -0.079028 -0.381921
v -1.440000 -0.086831 -0.421152
v -1.438000 -0.073143 -0.383092
v -1.438000 -0.080946 -0.422323
v -1.438000 -0.079028 -0.381921
v -1.438000 -0.086831 -0.421152
v -1.440000 0.089183 -0.362891
v -1.426000 0.089183 -0.362891
v -1.440000 0.080683 -0.377613
v -1.426000 0.080683 -0.377613
v -1.440000 0.063683 -0.377613
v -1.426000 0.063683 -0.377613
v -1.440000 0.055183 -0.362891
v -1.426000 0.055183 -0.362891
v -1.440000 0.063683 -0.348168
v -1.426000 0.063683 -0.348168
v -1.440000 0.080683 -0.348168
v -1.426000 0.080683 -0.348168
v -1.426000 0.072590 -0.349555
v -1.426000 0.077662 -0.375055
v -1.426000 0.066705 -0.350726
v -1.426000 0.071777 -0.376226
v -1.424000 0.072590 -0.349555
v -1.424000 0.077662 -0.375055
v -1.424000 0.066705 -0.350726
v -1.424000 0.071777 -0.376226
v -1.440000 0.079028 -0.381921
v -1.440000 0.086831 -0.421152
v -1.440000 0.073143 -0.383092
v -1.440000 0.080946 -0.422323
v -1.438000 0.079028 -0.381921
v -1.438000 0.086831 -0.421152
v -1.438000 0.073143 -0.383092
v -1.438000 0.080946 -0.422323
v -1.440000 0.222561 -0.307644
v -1.426000 0.222561 -0.307644
v -1.440000 0.214061 -0.322366
v -1.426000 0.214061 -0.322366
v -1.440000 0.197061 -0.322366
v -1.426000 0.197061 -0.322366
v -1.440000 0.188561 -0.307644
v -1.426000 0.188561 -0.307644
v -1.440000 0.197061 -0.292921
v -1.426000 0.197061 -0.292921
v -1.440000 0.214061 -0.292921
v -1.426000 0.214061 -0.292921
v -1.426000 0.200833 -0.295168
v -1.426000 0.215278 -0.316786
v -1.426000 0.195844 -0.298501
v -1.426000 0.210289 -0.320120
v -1.424000 0.200833 -0.295168
v -1.424000 0.215278 -0.316786
v -1.424000 0.195844 -0.298501
v -1.424000 0.210289 -0.320120
v -1.440000 0.219167 -0.322606
v -1.440000 0.241390 -0.355865
v -1.440000 0.214178 -0.325940
v -1.440000 0.236401 -0.359199
v -1.438000 0.219167 -0.322606
v -1.438000 0.241390 -0.355865
v -1.438000 0.214178 -0.325940
v -1.438000 0.236401 -0.359199
v -1.440000 0.324644 -0.205561
v -1.426000 0.324644 -0.205561
v -1.440000 0.316144 -0.220283
v -1.426000 0.316144 -0.220283
v -1.440000 0.299144 -0.220283
v -1.426000 0.299144 -0.220283
v -1.440000 0.290644 -0.205561
v -1.426000 0.290644 -0.205561
v -1.440000 0.299144 -0.190839
v -1.426000 0.299144 -0.190839
v -1.440000 0.316144 -0.190839
v -1.426000 0.316144 -0.190839
v -1.426000 0.298501 -0.195844
v -1.426000 0.320120 -0.210289
v -1.426000 0.295168 -0.200833
v -1.426000 0.316786 -0.215278
v -1.424000 0.298501 -0.195844
v -1.424000 0.320120 -0.210289
v -1.424000 0.295168 -0.200833
v -1.424000 0.316786 -0.215278
v -1.440000 0.325940 -0.214178
v -1.440000 0.359199 -0.236401
v -1.440000 0.322606 -0.219167
v -1.440000 0.355865 -0.241390
v -1.438000 0.325940 -0.214178
v -1.438000 0.359199 -0.236401
v -1.438000 0.322606 -0.219167
v -1.438000 0.355865 -0.241390
v -1.440000 0.379891 -0.072183
v -1.426000 0.379891 -0.072183
v -1.440000 0.371391 -0.086906
v -1.426000 0.371391 -0.086906
v -1.440000 0.354391 -0.086906
v -1.426000 0.354391 -0.086906
v -1.440000 0.345891 -0.072183
v -1.426000 0.345891 -0.072183
v -1.440000 0.354391 -0.057461
v -1.426000 0.354391 -0.057461
v -1.440000 0.371391 -0.057461
v -1.426000 0.371391 -0.057461
v -1.426000 0.350726 -0.066705
v -1.426000 0.376226 -0.071777
v -1.426000 0.349555 -0.072590
v -1.426000 0.375056 -0.077662
v -1.424000 0.350726 -0.066705
v -1.424000 0.376226 -0.071777
v -1.424000 0.349555 -0.072590
v -1.424000 0.375056 -0.077662
v -1.440000 0.383091 -0.073143
v -1.440000 0.422323 -0.080947
v -1.440000 0.381921 -0.079028
v -1.440000 0.421152 -0.086831
v -1.438000 0.383091 -0.073143
v -1.438000 0.422323 -0.080947
v -1.438000 0.381921 -0.079028
v -1.438000 0.421152 -0.086831
v -1.440000 0.379891 0.072183
v -1.426000 0.379891 0.072183
v -1.440000 0.371391 0.057461
v -1.426000 0.371391 0.057461
v -1.440000 0.354391 0.057461
v -1.426000 0.354391 0.057461
v -1.440000 0.345891 0.072183
v -1.426000 0.345891 0.072183
v -1.440000 0.354391 0.086906
v -1.426000 0.354391 0.086906
v -1.440000 0.371391 0.086906
v -1.426000 0.371391 0.086906
v -1.426000 0.349555 0.072590
v -1.426000 0.375056 0.077662
v -1.426000 0.350726 0.066705
v -1.426000 0.376226 0.071777
v -1.424000 0.349555 0.072590
v -1.424000 0.375056 0.077662
v -1.424000 0.350726 0.066705
v -1.424000 0.376226 0.071777
v -1.440000 0.381921 0.079028
v -1.440000 0.421152 0.086831
v -1.440000 0.383091 0.073143
v -1.440000 0.422323 0.080947
v -1.438000 0.381921 0.079028
v -1.438000 0.421152 0.086831
v -1.438000 0.383091 0.073143
v -1.438000 0.422323 0.080947
v -1.440000 0.324644 0.205561
v -1.426000 0.324644 0.205561
v -1.440000 0.316144 0.190839
v -1.426000 0.316144 0.190839
v -1.440000 0.299144 0.190839
v -1.426000 0.299144 0.190839
v -1.440000 0.290644 0.205561
v -1.426000 0.290644 0.205561
v -1.440000 0.299144 0.220283
v -1.426000 0.299144 0.220283
v -1.440000 0.316144 0.220283
v -1.426000 0.316144 0.220283
v -1.426000 0.295168 0.200833
v -1.426000 0.316786 0.215278
v -1.426000 0.298501 0.195844
v -1.426000 0.320120 0.210289
v -1.424000 0.295168 0.200833
v -1.424000 0.316786 0.215278
v -1.424000 0.298501 0.195844
v -1.424000 0.320120 0.210289
v -1.440000 0.322606 0.219167
v -1.440000 0.355865 0.241390
v -1.440000 0.325940 0.214178
v -1.440000 0.359199 0.236401
v -1.438000 0.322606 0.219167
v -1.438000 0.355865 0.241390
v -1.438000 0.325940 0.214178
v -1.438000 0.359199 0.236401
v -1.440000 0.222561 0.307644
v -1.426000 0.222561 0.307644
v -1.440000 0.214061 0.292921
v -1.426000 0.214061 0.292921
v -1.440000 0.197061 0.292921
v -1.426000 0.197061 0.292921
v -1.440000 0.188561 0.307644
v -1.426000 0.188561 0.307644
v -1.440000 0.197061 0.322366
v -1.426000 0.197061 0.322366
v -1.440000 0.214061 0.322366
v -1.426000 0.214061 0.322366
v -1.426000 0.195844 0.298501
v -1.426000 0.210289 0.320120
v -1.426000 0.200833 0.295168
v -1.426000 0.215278 0.316786
v -1.424000 0.195844 0.298501
v -1.424000 0.210289 0.320120
v -1.424000 0.200833 0.295168
v -1.424000 0.215278 0.316786
v -1.440000 0.214178 0.325940
v -1.440000 0.236401 0.359199
v -1.440000 0.219167 0.322606
v -1.440000 0.241390 0.355865
v -1.438000 0.214178 0.325940
v -1.438000 0.236401 0.359199
v -1.438000 0.219167 0.322606
v -1.438000 0.241390 0.355865
v -1.440000 0.089183 0.362891
v -1.426000 0.089183 0.362891
v -1.440000 0.080683 0.348168
v -1.426000 0.080683 0.348168
v -1.440000 0.063683 0.348168
v -1.426000 0.063683 0.348168
v -1.440000 0.055183 0.362891
v -1.426000 0.055183 0.362891
v -1.440000 0.063683 0.377613
v -1.426000 0.063683 0.377613
v -1.440000 0.080683 0.377613
v -1.426000 0.080683 0.377613
v -1.426000 0.066705 0.350726
v -1.426000 0.071777 0.376226
v -1.426000 0.072590 0.349555
v -1.426000 0.077662 0.375055
v -1.424000 0.066705 0.350726
v -1.424000 0.071777 0.376226
v -1.424000 0.072590 0.349555
v -1.424000 0.077662 0.375055
v -1.440000 0.073143 0.383092
v -1.440000 0.080946 0.422323
v -1.440000 0.079028 0.381921
v -1.440000 0.086831 0.421152
v -1.438000 0.073143 0.383092
v -1.438000 0.080946 0.422323
v -1.438000 0.079028 0.381921
v -1.438000 0.086831 0.421152
vn -0.0000 0.8660 -0.5000
vn -0.0000 -0.0000 -1.0000
vn -0.0000 -0.8660 -0.5000
vn -0.0000 -0.8660 0.5000
vn 1.0000 -0.0000 -0.0000
vn -0.0000 -0.0000 1.0000
vn -0.0000 0.8660 0.5000
vn -1.0000 -0.0000 -0.0000
vn -0.0000 0.9808 0.1951
vn -0.0000 -0.9808 -0.1951
vn -0.0000 0.1951 -0.9808
vn -0.0000 -0.1951 0.9808
vn -0.0000 0.8315 0.5556
vn -0.0000 -0.8315 -0.5556
vn -0.0000 0.5556 -0.8315
vn -0.0000 -0.5556 0.8315
vn -0.0000 0.5556 0.8315
vn -0.0000 -0.5556 -0.8315
vn -0.0000 0.8315 -0.5556
vn -0.0000 -0.8315 0.5556
vn -0.0000 0.1951 0.9808
vn -0.0000 -0.1951 -0.9808
vn -0.0000 0.9808 -0.1951
vn -0.0000 -0.9808 0.1951
vn -0.0000 0.9659 -0.2588
vn -0.0000 0.7071 -0.7071
vn -0.0000 0.2588 -0.9659
vn -0.0000 -0.2588 -0.9659
vn -0.0000 -0.7071 -0.7071
vn -0.0000 -0.9659 -0.2588
vn -0.0000 -0.9659 0.2588
vn -0.0000 -0.7071 0.7071
vn -0.0000 -0.2588 0.9659
vn -0.0000 0.2588 0.9659
vn -0.0000 0.7071 0.7071
vn -0.0000 0.9659 0.2588
vn -0.0000 -0.7811 0.6245
vn -0.0000 0.7811 -0.6245
vn -0.0000 0.6245 0.7811
vn -0.0000 -0.6245 -0.7811
s 0
usemtl bolt_black
f 2//1 3//1 1//1
f 4//2 5//2 3//2
f 6//3 7//3 5//3
f 8//4 9//4 7//4
f 2//5 10//5 6//5
f 10//6 11//6 9//6
f 12//7 1//7 11//7
f 3//8 7//8 11//8
f 30//1 31//1 29//1
f 32//2 33//2 31//2
f 34//3 35//3 33//3
f 36//4 37//4 35//4
f 30//5 38//5 34//5
f 38//6 39//6 37//6
f 40//7 29//7 39//7
f 31//8 35//8 39//8
f 58//1 59//1 57//1
f 60//2 61//2 59//2
f 62//3 63//3 61//3
f 64//4 65//4 63//4
f 58//5 66//5 62//5
f 66//6 67//6 65//6
f 68//7 57//7 67//7
f 59//8 63//8 67//8
f 86//1 87//1 85//1
f 88//2 89//2 87//2
f 90//3 91//3 89//3
f 92//4 93//4 91//4
f 86//5 94//5 90//5
f 94//6 95//6 93//6
f 96//7 85//7 95//7
f 87//8 91//8 95//8
f 114//1 115//1 113//1
f 116//2 117//2 115//2
f 118//3 119//3 117//3
f 120//4 121//4 119//4
f 114//5 122//5 118//5
f 122//6 123//6 121//6
f 124//7 113//7 123//7
f 115//8 119//8 123//8
f 166//1 167//1 165//1
f 168//2 169//2 167//2
f 170//3 171//3 169//3
f 172//4 173//4 171//4
f 166//5 174//5 170//5
f 174//6 175//6 173//6
f 176//7 165//7 175//7
f 167//8 171//8 175//8
f 194//1 195//1 193//1
f 196//2 197//2 195//2
f 198//3 199//3 197//3
f 200//4 201//4 199//4
f 194//5 202//5 198//5
f 202//6 203//6 201//6
f 204//7 193//7 203//7
f 195//8 199//8 203//8
f 222//1 223//1 221//1
f 224//2 225//2 223//2
f 226//3 227//3 225//3
f 228//4 229//4 227//4
f 222//5 230//5 226//5
f 230//6 231//6 229//6
f 232//7 221//7 231//7
f 223//8 227//8 231//8
f 250//1 251//1 249//1
f 252//2 253//2 251//2
f 254//3 255//3 253//3
f 256//4 257//4 255//4
f 250//5 258//5 254//5
f 258//6 259//6 257//6
f 260//7 249//7 259//7
f 251//8 255//8 259//8
f 278//1 279//1 277//1
f 280//2 281//2 279//2
f 282//3 283//3 281//3
f 284//4 285//4 283//4
f 278//5 286//5 282//5
f 286//6 287//6 285//6
f 288//7 277//7 287//7
f 279//8 283//8 287//8
f 306//1 307//1 305//1
f 308//2 309//2 307//2
f 310//3 311//3 309//3
f 312//4 313//4 311//4
f 306//5 314//5 310//5
f 314//6 315//6 313//6
f 316//7 305//7 315//7
f 307//8 311//8 315//8
f 334//1 335//1 333//1
f 336//2 337//2 335//2
f 338//3 339//3 337//3
f 340//4 341//4 339//4
f 334//5 342//5 338//5
f 342//6 343//6 341//6
f 344//7 333//7 343//7
f 335//8 339//8 343//8
f 362//1 363//1 361//1
f 364//2 365//2 363//2
f 366//3 367//3 365//3
f 368//4 369//4 367//4
f 362//5 370//5 366//5
f 370//6 371//6 369//6
f 372//7 361//7 371//7
f 363//8 367//8 371//8
f 390//1 391//1 389//1
f 392//2 393//2 391//2
f 394//3 395//3 393//3
f 396//4 397//4 395//4
f 390//5 398//5 394//5
f 398//6 399//6 397//6
f 400//7 389//7 399//7
f 391//8 395//8 399//8
f 418//1 419//1 417//1
f 420//2 421//2 419//2
f 422//3 423//3 421//3
f 424//4 425//4 423//4
f 418//5 426//5 422//5
f 426//6 427//6 425//6
f 428//7 417//7 427//7
f 419//8 423//8 427//8
f 446//1 447//1 445//1
f 448//2 449//2 447//2
f 450//3 451//3 449//3
f 452//4 453//4 451//4
f 446//5 454//5 450//5
f 454//6 455//6 453//6
f 456//7 445//7 455//7
f 447//8 451//8 455//8
f 2//1 4//1 3//1
f 4//2 6//2 5//2
f 6//3 8//3 7//3
f 8//4 10//4 9//4
f 6//5 4//5 2//5
f 2//5 12//5 10//5
f 10//5 8//5 6//5
f 10//6 12//6 11//6
f 12//7 2//7 1//7
f 11//8 1//8 3//8
f 3//8 5//8 7//8
f 7//8 9//8 11//8
f 30//1 32//1 31//1
f 32//2 34//2 33//2
f 34//3 36//3 35//3
f 36//4 38//4 37//4
f 34//5 32//5 30//5
f 30//5 40//5 38//5
f 38//5 36//5 34//5
f 38//6 40//6 39//6
f 40//7 30//7 29//7
f 39//8 29//8 31//8
f 31//8 33//8 35//8
f 35//8 37//8 39//8
f 58//1 60//1 59//1
f 60//2 62//2 61//2
f 62//3 64//3 63//3
f 64//4 66//4 65//4
f 62//5 60//5 58//5
f 58//5 68//5 66//5
f 66//5 64//5 62//5
f 66//6 68//6 67//6
f 68//7 58//7 57//7
f 67//8 57//8 59//8
f 59//8 61//8 63//8
f 63//8 65//8 67//8
f 86//1 88//1 87//1
f 88//2 90//2 89//2
f 90//3 92//3 91//3
f 92//4 94//4 93//4
f 90//5 88//5 86//5
f 86//5 96//5 94//5
f 94//5 92//5 90//5
f 94//6 96//6 95//6
f 96//7 86//7 85//7
f 95//8 85//8 87//8
f 87//8 89//8 91//8
f 91//8 93//8 95//8
f 114//1 116//1 115//1
f 116//2 118//2 117//2
f 118//3 120//3 119//3
f 120//4 122//4 121//4
f 118//5 116//5 114//5
f 114//5 124//5 122//5
f 122//5 120//5 118//5
f 122//6 124//6 123//6
f 124//7 114//7 113//7
f 123//8 113//8 115//8
f 115//8 117//8 119//8
f 119//8 121//8 123//8
f 166//1 168//1 167//1
f 168//2 170//2 169//2
f 170//3 172//3 171//3
f 172//4 174//4 173//4
f 170//5 168//5 166//5
f 166//5 176//5 174//5
f 174//5 172//5 170//5
f 174//6 176//6 175//6
f 176//7 166//7 165//7
f 175//8 165//8 167//8
f 167//8 169//8 171//8
f 171//8 173//8 175//8
f 194//1 196//1 195//1
f 196//2 198//2 197//2
f 198//3 200//3 199//3
f 200//4 202//4 201//4
f 198//5 196//5 194//5
f 194//5 204//5 202//5
f 202//5 200//5 198//5
f 202//6 204//6 203//6
f 204//7 194//7 193//7
f 203//8 193//8 195//8
f 195//8 197//8 199//8
f 199//8 201//8 203//8
f 222//1 224//1 223//1
f 224//2 226//2 225//2
f 226//3 228//3 227//3
f 228//4 230//4 229//4
f 226//5 224//5 222//5
f 222//5 232//5 230//5
f 230//5 228//5 226//5
f 230//6 232//6 231//6
f 232//7 222//7 221//7
f 231//8 221//8 223//8
f 223//8 225//8 227//8
f 227//8 229//8 231//8
f 250//1 252//1 251//1
f 252//2 254//2 253//2
f 254//3 256//3 255//3
f 256//4 258//4 257//4
f 254//5 252//5 250//5
f 250//5 260//5 258//5
f 258//5 256//5 254//5
f 258//6 260//6 259//6
f 260//7 250//7 249//7
f 259//8 249//8 251//8
f 251//8 253//8 255//8
f 255//8 257//8 259//8
f 278//1 280//1 279//1
f 280//2 282//2 281//2
f 282//3 284//3 283//3
f 284//4 286//4 285//4
f 282//5 280//5 278//5
f 278//5 288//5 286//5
f 286//5 284//5 282//5
f 286//6 288//6 287//6
f 288//7 278//7 277//7
f 287//8 277//8 279//8
f 279//8 281//8 283//8
f 283//8 285//8 287//8
f 306//1 308//1 307//1
f 308//2 310//2 309//2
f 310//3 312//3 311//3
f 312//4 314//4 313//4
f 310//5 308//5 306//5
f 306//5 316//5 314//5
f 314//5 312//5 310//5
f 314//6 316//6 315//6
f 316//7 306//7 305//7
f 315//8 305//8 307//8
f 307//8 309//8 311//8
f 311//8 313//8 315//8
f 334//1 336//1 335//1
f 336//2 338//2 337//2
f 338//3 340//3 339//3
f 340//4 342//4 341//4
f 338//5 336//5 334//5
f 334//5 344//5 342//5
f 342//5 340//5 338//5
f 342//6 344//6 343//6
f 344//7 334//7 333//7
f 343//8 333//8 335//8
f 335//8 337//8 339//8
f 339//8 341//8 343//8
f 362//1 364//1 363//1
f 364//2 366//2 365//2
f 366//3 368//3 367//3
f 368//4 370//4 369//4
f 366//5 364//5 362//5
f 362//5 372//5 370//5
f 370//5 368//5 366//5
f 370//6 372//6 371//6
f 372//7 362//7 361//7
f 371//8 361//8 363//8
f 363//8 365//8 367//8
f 367//8 369//8 371//8
f 390//1 392//1 391//1
f 392//2 394//2 393//2
f 394//3 396//3 395//3
f 396//4 398//4 397//4
f 394//5 392//5 390//5
f 390//5 400//5 398//5
f 398//5 396//5 394//5
f 398//6 400//6 399//6
f 400//7 390//7 389//7
f 399//8 389//8 391//8
f 391//8 393//8 395//8
f 395//8 397//8 399//8
f 418//1 420//1 419//1
f 420//2 422//2 421//2
f 422//3 424//3 423//3
f 424//4 426//4 425//4
f 422//5 420//5 418//5
f 418//5 428//5 426//5
f 426//5 424//5 422//5
f 426//6 428//6 427//6
f 428//7 418//7 417//7
f 427//8 417//8 419//8
f 419//8 421//8 423//8
f 423//8 425//8 427//8
f 446//1 448//1 447//1
f 448//2 450//2 449//2
f 450//3 452//3 451//3
f 452//4 454//4 453//4
f 450//5 448//5 446//5
f 446//5 456//5 454//5
f 454//5 452//5 450//5
f 454//6 456//6 455//6
f 456//7 446//7 445//7
f 455//8 445//8 447//8
f 447//8 449//8 451//8
f 451//8 453//8 455//8
usemtl hatch_yellow
f 13//8 16//8 15//8
f 16//9 19//9 15//9
f 20//5 17//5 19//5
f 18//10 13//10 17//10
f 19//11 13//11 15//11
f 16//12 18//12 20//12
f 21//8 24//8 23//8
f 24//9 27//9 23//9
f 28//5 25//5 27//5
f 26//10 21//10 25//10
f 27//11 21//11 23//11
f 24//12 26//12 28//12
f 41//8 44//8 43//8
f 44//13 47//13 43//13
f 48//5 45//5 47//5
f 46//14 41//14 45//14
f 47//15 41//15 43//15
f 44//16 46//16 48//16
f 50//8 51//8 49//8
f 52//13 55//13 51//13
f 55//5 54//5 53//5
f 54//14 49//14 53//14
f 55//15 49//15 51//15
f 52//16 54//16 56//16
f 70//8 71//8 69//8
f 72//17 75//17 71//17
f 76//5 73//5 75//5
f 74//18 69//18 73//18
f 75//19 69//19 71//19
f 72//20 74//20 76//20
f 77//8 80//8 79//8
f 80//17 83//17 79//17
f 84//5 81//5 83//5
f 82//18 77//18 81//18
f 83//19 77//19 79//19
f 80//20 82//20 84//20
f 98//8 99//8 97//8
f 100//21 103//21 99//21
f 103//5 102//5 101//5
f 102//22 97//22 101//22
f 103//23 97//23 99//23
f 100//24 102//24 104//24
f 106//8 107//8 105//8
f 108//21 111//21 107//21
f 111//5 110//5 109//5
f 110//22 105//22 109//22
f 111//23 105//23 107//23
f 108//24 110//24 112//24
f 149//8 152//8 151//8
f 152//37 155//37 151//37
f 156//5 153//5 155//5
f 154//38 149//38 153//38
f 155//39 149//39 151//39
f 152//40 154//40 156//40
f 157//8 160//8 159//8
f 160//12 163//12 159//12
f 164//5 161//5 163//5
f 162//11 157//11 161//11
f 163//9 157//9 159//9
f 160//10 162//10 164//10
f 178//8 179//8 177//8
f 180//16 183//16 179//16
f 183//5 182//5 181//5
f 182//15 177//15 181//15
f 183//13 177//13 179//13
f 180//14 182//14 184//14
f 186//8 187//8 185//8
f 188//16 191//16 187//16
f 191//5 190//5 189//5
f 190//15 185//15 189//15
f 191//13 185//13 187//13
f 188//14 190//14 192//14
f 206//8 207//8 205//8
f 208//20 211//20 207//20
f 211//5 210//5 209//5
f 210//19 205//19 209//19
f 211//17 205//17 207//17
f 208//18 210//18 212//18
f 213//8 216//8 215//8
f 216//20 219//20 215//20
f 220//5 217//5 219//5
f 218//19 213//19 217//19
f 219//17 213//17 215//17
f 216//18 218//18 220//18
f 234//8 235//8 233//8
f 236//24 239//24 235//24
f 239//5 238//5 237//5
f 238//23 233//23 237//23
f 239//21 233//21 235//21
f 236//22 238//22 240//22
f 242//8 243//8 241//8
f 244//24 247//24 243//24
f 247//5 246//5 245//5
f 246//23 241//23 245//23
f 247//21 241//21 243//21
f 244//22 246//22 248//22
f 261//8 264//8 263//8
f 264//10 267//10 263//10
f 268//5 265//5 267//5
f 266//9 261//9 265//9
f 267//12 261//12 263//12
f 264//11 266//11 268//11
f 269//8 272//8 271//8
f 272//10 275//10 271//10
f 276//5 273//5 275//5
f 274//9 269//9 273//9
f 275//12 269//12 271//12
f 272//11 274//11 276//11
f 290//8 291//8 289//8
f 292//14 295//14 291//14
f 295//5 294//5 293//5
f 294//13 289//13 293//13
f 295//16 289//16 291//16
f 292//15 294//15 296//15
f 298//8 299//8 297//8
f 300//14 303//14 299//14
f 303//5 302//5 301//5
f 302//13 297//13 301//13
f 303//16 297//16 299//16
f 300//15 302//15 304//15
f 317//8 320//8 319//8
f 320//18 323//18 319//18
f 324//5 321//5 323//5
f 322//17 317//17 321//17
f 323//20 317//20 319//20
f 320//19 322//19 324//19
f 325//8 328//8 327//8
f 328//18 331//18 327//18
f 332//5 329//5 331//5
f 330//17 325//17 329//17
f 331//20 325//20 327//20
f 328//19 330//19 332//19
f 346//8 347//8 345//8
f 348//22 351//22 347//22
f 351//5 350//5 349//5
f 350//21 345//21 349//21
f 351//24 345//24 347//24
f 348//23 350//23 352//23
f 354//8 355//8 353//8
f 356//22 359//22 355//22
f 359//5 358//5 357//5
f 358//21 353//21 357//21
f 359//24 353//24 355//24
f 356//23 358//23 360//23
f 373//8 376//8 375//8
f 376//11 379//11 375//11
f 380//5 377//5 379//5
f 378//12 373//12 377//12
f 379//10 373//10 375//10
f 376//9 378//9 380//9
f 381//8 384//8 383//8
f 384//11 387//11 383//11
f 388//5 385//5 387//5
f 386//12 381//12 385//12
f 387//10 381//10 383//10
f 384//9 386//9 388//9
f 402//8 403//8 401//8
f 404//15 407//15 403//15
f 408//5 405//5 407//5
f 406//16 401//16 405//16
f 407//14 401//14 403//14
f 404//13 406//13 408//13
f 410//8 411//8 409//8
f 412//15 415//15 411//15
f 415//5 414//5 413//5
f 414//16 409//16 413//16
f 415//14 409//14 411//14
f 412//13 414//13 416//13
f 430//8 431//8 429//8
f 432//19 435//19 431//19
f 436//5 433//5 435//5
f 434//20 429//20 433//20
f 435//18 429//18 431//18
f 432//17 434//17 436//17
f 437//8 440//8 439//8
f 440//19 443//19 439//19
f 444//5 441//5 443//5
f 442//20 437//20 441//20
f 443//18 437//18 439//18
f 440//17 442//17 444//17
f 458//8 459//8 457//8
f 460//23 463//23 459//23
f 463//5 462//5 461//5
f 462//24 457//24 461//24
f 463//22 457//22 459//22
f 460//21 462//21 464//21
f 466//8 467//8 465//8
f 468//23 471//23 467//23
f 471//5 470//5 469//5
f 470//24 465//24 469//24
f 471//22 465//22 467//22
f 468//21 470//21 472//21
f 13//8 14//8 16//8
f 16//9 20//9 19//9
f 20//5 18//5 17//5
f 18//10 14//10 13//10
f 19//11 17//11 13//11
f 16//12 14//12 18//12
f 21//8 22//8 24//8
f 24//9 28//9 27//9
f 28//5 26//5 25//5
f 26//10 22//10 21//10
f 27//11 25//11 21//11
f 24//12 22//12 26//12
f 41//8 42//8 44//8
f 44//13 48//13 47//13
f 48//5 46//5 45//5
f 46//14 42//14 41//14
f 47//15 45//15 41//15
f 44//16 42//16 46//16
f 50//8 52//8 51//8
f 52//13 56//13 55//13
f 55//5 56//5 54//5
f 54//14 50//14 49//14
f 55//15 53//15 49//15
f 52//16 50//16 54//16
f 70//8 72//8 71//8
f 72//17 76//17 75//17
f 76//5 74//5 73//5
f 74//18 70//18 69//18
f 75//19 73//19 69//19
f 72//20 70//20 74//20
f 77//8 78//8 80//8
f 80//17 84//17 83//17
f 84//5 82//5 81//5
f 82//18 78//18 77//18
f 83//19 81//19 77//19
f 80//20 78//20 82//20
f 98//8 100//8 99//8
f 100//21 104//21 103//21
f 103//5 104//5 102//5
f 102//22 98//22 97//22
f 103//23 101//23 97//23
f 100//24 98//24 102//24
f 106//8 108//8 107//8
f 108//21 112//21 111//21
f 111//5 112//5 110//5
f 110//22 106//22 105//22
f 111//23 109//23 105//23
f 108//24 106//24 110//24
f 149//8 150//8 152//8
f 152//37 156//37 155//37
f 156//5 154//5 153//5
f 154//38 150//38 149//38
f 155//39 153//39 149//39
f 152//40 150//40 154//40
f 157//8 158//8 160//8
f 160//12 164//12 163//12
f 164//5 162//5 161//5
f 162//11 158//11 157//11
f 163//9 161//9 157//9
f 160//10 158//10 162//10
f 178//8 180//8 179//8
f 180//16 184//16 183//16
f 183//5 184//5 182//5
f 182//15 178//15 177//15
f 183//13 181//13 177//13
f 180//14 178//14 182//14
f 186//8 188//8 187//8
f 188//16 192//16 191//16
f 191//5 192//5 190//5
f 190//15 186//15 185//15
f 191//13 189//13 185//13
f 188//14 186//14 190//14
f 206//8 208//8 207//8
f 208//20 212//20 211//20
f 211//5 212//5 210//5
f 210//19 206//19 205//19
f 211//17 209//17 205//17
f 208//18 206//18 210//18
f 213//8 214//8 216//8
f 216//20 220//20 219//20
f 220//5 218//5 217//5
f 218//19 214//19 213//19
f 219//17 217//17 213//17
f 216//18 214//18 218//18
f 234//8 236//8 235//8
f 236//24 240//24 239//24
f 239//5 240//5 238//5
f 238//23 234//23 233//23
f 239//21 237//21 233//21
f 236//22 234//22 238//22
f 242//8 244//8 243//8
f 244//24 248//24 247//24
f 247//5 248//5 246//5
f 246//23 242//23 241//23
f 247//21 245//21 241//21
f 244//22 242//22 246//22
f 261//8 262//8 264//8
f 264//10 268//10 267//10
f 268//5 266//5 265//5
f 266//9 262//9 261//9
f 267//12 265//12 261//12
f 264//11 262//11 266//11
f 269//8 270//8 272//8
f 272//10 276//10 275//10
f 276//5 274//5 273//5
f 274//9 270//9 269//9
f 275//12 273//12 269//12
f 272//11 270//11 274//11
f 290//8 292//8 291//8
f 292//14 296//14 295//14
f 295//5 296//5 294//5
f 294//13 290//13 289//13
f 295//16 293//16 289//16
f 292//15 290//15 294//15
f 298//8 300//8 299//8
f 300//14 304//14 303//14
f 303//5 304//5 302//5
f 302//13 298//13 297//13
f 303//16 301//16 297//16
f 300//15 298//15 302//15
f 317//8 318//8 320//8
f 320//18 324//18 323//18
f 324//5 322//5 321//5
f 322//17 318//17 317//17
f 323//20 321//20 317//20
f 320//19 318//19 322//19
f 325//8 326//8 328//8
f 328//18 332//18 331//18
f 332//5 330//5 329//5
f 330//17 326//17 325//17
f 331//20 329//20 325//20
f 328//19 326//19 330//19
f 346//8 348//8 347//8
f 348//22 352//22 351//22
f 351//5 352//5 350//5
f 350//21 346//21 345//21
f 351//24 349//24 345//24
f 348//23 346//23 350//23
f 354//8 356//8 355//8
f 356//22 360//22 359//22
f 359//5 360//5 358//5
f 358//21 354//21 353//21
f 359//24 357//24 353//24
f 356//23 354//23 358//23
f 373//8 374//8 376//8
f 376//11 380//11 379//11
f 380//5 378//5 377//5
f 378//12 374//12 373//12
f 379//10 377//10 373//10
f 376//9 374//9 378//9
f 381//8 382//8 384//8
f 384//11 388//11 387//11
f 388//5 386//5 385//5
f 386//12 382//12 381//12
f 387//10 385//10 381//10
f 384//9 382//9 386//9
f 402//8 404//8 403//8
f 404//15 408//15 407//15
f 408//5 406//5 405//5
f 406//16 402//16 401//16
f 407//14 405//14 401//14
f 404//13 402//13 406//13
f 410//8 412//8 411//8
f 412//15 416//15 415//15
f 415//5 416//5 414//5
f 414//16 410//16 409//16
f 415//14 413//14 409//14
f 412//13 410//13 414//13
f 430//8 432//8 431//8
f 432//19 436//19 435//19
f 436//5 434//5 433//5
f 434//20 430//20 429//20
f 435//18 433//18 429//18
f 432//17 430//17 434//17
f 437//8 438//8 440//8
f 440//19 444//19 443//19
f 444//5 442//5 441//5
f 442//20 438//20 437//20
f 443//18 441//18 437//18
f 440//17 438//17 442//17
f 458//8 460//8 459//8
f 460//23 464//23 463//23
f 463//5 464//5 462//5
f 462//24 458//24 457//24
f 463//22 461//22 457//22
f 460//21 458//21 462//21
f 466//8 468//8 467//8
f 468//23 472//23 471//23
f 471//5 472//5 470//5
f 470//24 466//24 465//24
f 471//22 469//22 465//22
f 468//21 466//21 470//21
usemtl pipe_steel
f 126//25 127//25 125//25
f 128//26 129//26 127//26
f 130//27 131//27 129//27
f 132//28 133//28 131//28
f 134//29 135//29 133//29
f 136//30 137//30 135//30
f 138//31 139//31 137//31
f 140//32 141//32 139//32
f 142//33 143//33 141//33
f 144//34 145//34 143//34
f 146//5 138//5 130//5
f 146//35 147//35 145//35
f 148//36 125//36 147//36
f 131//8 139//8 147//8
f 126//25 128//25 127//25
f 128//26 130//26 129//26
f 130//27 132//27 131//27
f 132//28 134//28 133//28
f 134//29 136//29 135//29
f 136//30 138//30 137//30
f 138//31 140//31 139//31
f 140//32 142//32 141//32
f 142//33 144//33 143//33
f 144//34 146//34 145//34
f 130//5 128//5 126//5
f 126//5 148//5 146//5
f 146//5 144//5 142//5
f 142//5 140//5 138//5
f 138//5 136//5 134//5
f 134//5 132//5 130//5
f 130//5 126//5 146//5
f 146//5 142//5 138//5
f 138//5 134//5 130//5
f 146//35 148//35 147//35
f 148//36 126//36 125//36
f 147//8 125//8 127//8
f 127//8 129//8 131//8
f 131//8 133//8 135//8
f 135//8 137//8 139//8
f 139//8 141//8 143//8
f 143//8 145//8 147//8
f 147//8 127//8 131//8
f 131//8 135//8 139//8
f 139//8 143//8 147//8
