# Blender 5.2.2 LTS
# www.blender.org
mtllib aviation_light_ok.mtl
o aviation_light_ok
v -7.900000 0.070000 5.830000
v -7.900000 0.070000 5.890000
v -7.890863 0.069401 5.830000
v -7.890863 0.069401 5.890000
v -7.881883 0.067615 5.830000
v -7.881883 0.067615 5.890000
v -7.873212 0.064672 5.830000
v -7.873212 0.064672 5.890000
v -7.865000 0.060622 5.830000
v -7.865000 0.060622 5.890000
v -7.857387 0.055535 5.830000
v -7.857387 0.055535 5.890000
v -7.850502 0.049497 5.830000
v -7.850502 0.049497 5.890000
v -7.844465 0.042613 5.830000
v -7.844465 0.042613 5.890000
v -7.839378 0.035000 5.830000
v -7.839378 0.035000 5.890000
v -7.835329 0.026788 5.830000
v -7.835329 0.026788 5.890000
v -7.832385 0.018117 5.830000
v -7.832385 0.018117 5.890000
v -7.830599 0.009137 5.830000
v -7.830599 0.009137 5.890000
v -7.830000 0.000000 5.830000
v -7.830000 0.000000 5.890000
v -7.830599 -0.009137 5.830000
v -7.830599 -0.009137 5.890000
v -7.832385 -0.018117 5.830000
v -7.832385 -0.018117 5.890000
v -7.835329 -0.026788 5.830000
v -7.835329 -0.026788 5.890000
v -7.839378 -0.035000 5.830000
v -7.839378 -0.035000 5.890000
v -7.844465 -0.042613 5.830000
v -7.844465 -0.042613 5.890000
v -7.850502 -0.049497 5.830000
v -7.850502 -0.049497 5.890000
v -7.857387 -0.055535 5.830000
v -7.857387 -0.055535 5.890000
v -7.865000 -0.060622 5.830000
v -7.865000 -0.060622 5.890000
v -7.873212 -0.064672 5.830000
v -7.873212 -0.064672 5.890000
v -7.881883 -0.067615 5.830000
v -7.881883 -0.067615 5.890000
v -7.890863 -0.069401 5.830000
v -7.890863 -0.069401 5.890000
v -7.900000 -0.070000 5.830000
v -7.900000 -0.070000 5.890000
v -7.909137 -0.069401 5.830000
v -7.909137 -0.069401 5.890000
v -7.918118 -0.067615 5.830000
v -7.918118 -0.067615 5.890000
v -7.926788 -0.064672 5.830000
v -7.926788 -0.064672 5.890000
v -7.935000 -0.060622 5.830000
v -7.935000 -0.060622 5.890000
v -7.942614 -0.055535 5.830000
v -7.942614 -0.055535 5.890000
v -7.949498 -0.049497 5.830000
v -7.949498 -0.049497 5.890000
v -7.955535 -0.042613 5.830000
v -7.955535 -0.042613 5.890000
v -7.960622 -0.035000 5.830000
v -7.960622 -0.035000 5.890000
v -7.964672 -0.026788 5.830000
v -7.964672 -0.026788 5.890000
v -7.967615 -0.018117 5.830000
v -7.967615 -0.018117 5.890000
v -7.969401 -0.009137 5.830000
v -7.969401 -0.009137 5.890000
v -7.970000 0.000000 5.830000
v -7.970000 0.000000 5.890000
v -7.969401 0.009137 5.830000
v -7.969401 0.009137 5.890000
v -7.967615 0.018117 5.830000
v -7.967615 0.018117 5.890000
v -7.964672 0.026788 5.830000
v -7.964672 0.026788 5.890000
v -7.960622 0.035000 5.830000
v -7.960622 0.035000 5.890000
v -7.955535 0.042613 5.830000
v -7.955535 0.042613 5.890000
v -7.949498 0.049497 5.830000
v -7.949498 0.049497 5.890000
v -7.942614 0.055535 5.830000
v -7.942614 0.055535 5.890000
v -7.935000 0.060622 5.830000
v -7.935000 0.060622 5.890000
v -7.926788 0.064672 5.830000
v -7.926788 0.064672 5.890000
v -7.918118 0.067615 5.830000
v -7.918118 0.067615 5.890000
v -7.909137 0.069401 5.830000
v -7.909137 0.069401 5.890000
v -7.900000 0.000000 5.965000
v -7.900000 0.014632 5.963559
v -7.900000 0.041668 5.952360
v -7.900000 0.053033 5.943033
v -7.900000 0.069291 5.918701
v -7.900000 0.075000 5.890000
v -7.897146 0.014351 5.963559
v -7.894401 0.028150 5.959291
v -7.891871 0.040867 5.952360
v -7.889654 0.052014 5.943033
v -7.887834 0.061162 5.931668
v -7.886482 0.067960 5.918701
v -7.885650 0.072145 5.904632
v -7.885368 0.073559 5.890000
v -7.894401 0.013518 5.963559
v -7.889017 0.026517 5.959291
v -7.884055 0.038496 5.952360
v -7.879705 0.048996 5.943033
v -7.876136 0.057613 5.931668
v -7.873484 0.064016 5.918701
v -7.871850 0.067960 5.904632
v -7.871299 0.069291 5.890000
v -7.891871 0.012166 5.963559
v -7.884055 0.023864 5.959291
v -7.876851 0.034645 5.952360
v -7.870536 0.044095 5.943033
v -7.865355 0.051851 5.931668
v -7.861504 0.057613 5.918701
v -7.859133 0.061162 5.904632
v -7.858332 0.062360 5.890000
v -7.889654 0.010346 5.963559
v -7.879705 0.020295 5.959291
v -7.870536 0.029464 5.952360
v -7.862500 0.037500 5.943033
v -7.855905 0.044095 5.931668
v -7.851004 0.048996 5.918701
v -7.847986 0.052014 5.904632
v -7.846967 0.053033 5.890000
v -7.887834 0.008129 5.963559
v -7.876136 0.015946 5.959291
v -7.865355 0.023149 5.952360
v -7.855905 0.029464 5.943033
v -7.848149 0.034645 5.931668
v -7.842387 0.038496 5.918701
v -7.838838 0.040867 5.904632
v -7.837640 0.041668 5.890000
v -7.886482 0.005599 5.963559
v -7.873484 0.010983 5.959291
v -7.861504 0.015946 5.952360
v -7.851004 0.020295 5.943033
v -7.842387 0.023864 5.931668
v -7.835984 0.026516 5.918701
v -7.832040 0.028150 5.904632
v -7.830709 0.028701 5.890000
v -7.885650 0.002855 5.963559
v -7.871850 0.005599 5.959291
v -7.859133 0.008129 5.952360
v -7.847986 0.010346 5.943033
v -7.838838 0.012166 5.931668
v -7.832041 0.013518 5.918701
v -7.827855 0.014351 5.904632
v -7.826441 0.014632 5.890000
v -7.885368 -0.000000 5.963559
v -7.871299 -0.000000 5.959291
v -7.858332 -0.000000 5.952360
v -7.846967 -0.000000 5.943033
v -7.837640 -0.000000 5.931668
v -7.830709 -0.000000 5.918701
v -7.826441 -0.000000 5.904632
v -7.825000 -0.000000 5.890000
v -7.885650 -0.002855 5.963559
v -7.871850 -0.005599 5.959291
v -7.859133 -0.008129 5.952360
v -7.847986 -0.010346 5.943033
v -7.838838 -0.012166 5.931668
v -7.832041 -0.013518 5.918701
v -7.827855 -0.014351 5.904632
v -7.826441 -0.014632 5.890000
v -7.886482 -0.005599 5.963559
v -7.873484 -0.010983 5.959291
v -7.861504 -0.015946 5.952360
v -7.851004 -0.020295 5.943033
v -7.842387 -0.023864 5.931668
v -7.835984 -0.026516 5.918701
v -7.832040 -0.028150 5.904632
v -7.830709 -0.028701 5.890000
v -7.887834 -0.008129 5.963559
v -7.876136 -0.015946 5.959291
v -7.865355 -0.023149 5.952360
v -7.855905 -0.029464 5.943033
v -7.848149 -0.034645 5.931668
v -7.842387 -0.038496 5.918701
v -7.838838 -0.040867 5.904632
v -7.837640 -0.041668 5.890000
v -7.889654 -0.010346 5.963559
v -7.879705 -0.020295 5.959291
v -7.870536 -0.029464 5.952360
v -7.862500 -0.037500 5.943033
v -7.855905 -0.044095 5.931668
v -7.851004 -0.048996 5.918701
v -7.847986 -0.052014 5.904632
v -7.846967 -0.053033 5.890000
v -7.891871 -0.012166 5.963559
v -7.884055 -0.023864 5.959291
v -7.876851 -0.034645 5.952360
v -7.870536 -0.044095 5.943033
v -7.865355 -0.051851 5.931668
v -7.861504 -0.057613 5.918701
v -7.859133 -0.061162 5.904632
v -7.858332 -0.062360 5.890000
v -7.894401 -0.013518 5.963559
v -7.889017 -0.026516 5.959291
v -7.884055 -0.038496 5.952360
v -7.879705 -0.048996 5.943033
v -7.876136 -0.057613 5.931668
v -7.873484 -0.064016 5.918701
v -7.871850 -0.067960 5.904632
v -7.871299 -0.069291 5.890000
v -7.897146 -0.014351 5.963559
v -7.894401 -0.028150 5.959291
v -7.891871 -0.040867 5.952360
v -7.889654 -0.052014 5.943033
v -7.887834 -0.061162 5.931668
v -7.886482 -0.067960 5.918701
v -7.885650 -0.072145 5.904632
v -7.885368 -0.073559 5.890000
v -7.900000 -0.014632 5.963559
v -7.900000 -0.028701 5.959291
v -7.900000 -0.041668 5.952360
v -7.900000 -0.053033 5.943033
v -7.900000 -0.062360 5.931668
v -7.900000 -0.069291 5.918701
v -7.900000 -0.073559 5.904632
v -7.900000 -0.075000 5.890000
v -7.902854 -0.014351 5.963559
v -7.905600 -0.028150 5.959291
v -7.908129 -0.040867 5.952360
v -7.910347 -0.052014 5.943033
v -7.912166 -0.061162 5.931668
v -7.913518 -0.067960 5.918701
v -7.914351 -0.072145 5.904632
v -7.914632 -0.073559 5.890000
v -7.905600 -0.013518 5.963559
v -7.910984 -0.026516 5.959291
v -7.915946 -0.038496 5.952360
v -7.920295 -0.048996 5.943033
v -7.923864 -0.057613 5.931668
v -7.926517 -0.064016 5.918701
v -7.928150 -0.067960 5.904632
v -7.928701 -0.069291 5.890000
v -7.908129 -0.012166 5.963559
v -7.915946 -0.023864 5.959291
v -7.923150 -0.034645 5.952360
v -7.929464 -0.044095 5.943033
v -7.934646 -0.051851 5.931668
v -7.938496 -0.057613 5.918701
v -7.940867 -0.061162 5.904632
v -7.941668 -0.062360 5.890000
v -7.910347 -0.010346 5.963559
v -7.920295 -0.020295 5.959291
v -7.929464 -0.029464 5.952360
v -7.937500 -0.037500 5.943033
v -7.944096 -0.044095 5.931668
v -7.948996 -0.048996 5.918701
v -7.952014 -0.052014 5.904632
v -7.953033 -0.053033 5.890000
v -7.912166 -0.008129 5.963559
v -7.923864 -0.015946 5.959291
v -7.934646 -0.023149 5.952360
v -7.944096 -0.029464 5.943033
v -7.951851 -0.034645 5.931668
v -7.957613 -0.038496 5.918701
v -7.961162 -0.040867 5.904632
v -7.962360 -0.041668 5.890000
v -7.913518 -0.005599 5.963559
v -7.926517 -0.010983 5.959291
v -7.938496 -0.015946 5.952360
v -7.948996 -0.020295 5.943033
v -7.957613 -0.023864 5.931668
v -7.964016 -0.026516 5.918701
v -7.967959 -0.028150 5.904632
v -7.969291 -0.028701 5.890000
v -7.914351 -0.002855 5.963559
v -7.928150 -0.005599 5.959291
v -7.940867 -0.008129 5.952360
v -7.952014 -0.010346 5.943033
v -7.961162 -0.012166 5.931668
v -7.967959 -0.013518 5.918701
v -7.972146 -0.014351 5.904632
v -7.973559 -0.014632 5.890000
v -7.914632 0.000000 5.963559
v -7.928701 0.000000 5.959291
v -7.941668 0.000000 5.952360
v -7.953033 0.000000 5.943033
v -7.962360 0.000000 5.931668
v -7.969291 0.000000 5.918701
v -7.973559 0.000000 5.904632
v -7.975000 0.000000 5.890000
v -7.914351 0.002855 5.963559
v -7.928150 0.005599 5.959291
v -7.940867 0.008129 5.952360
v -7.952014 0.010346 5.943033
v -7.961162 0.012166 5.931668
v -7.967959 0.013518 5.918701
v -7.972146 0.014351 5.904632
v -7.973559 0.014632 5.890000
v -7.913518 0.005599 5.963559
v -7.926517 0.010983 5.959291
v -7.938496 0.015946 5.952360
v -7.948996 0.020295 5.943033
v -7.957613 0.023864 5.931668
v -7.964016 0.026516 5.918701
v -7.967959 0.028150 5.904632
v -7.969291 0.028701 5.890000
v -7.912166 0.008129 5.963559
v -7.923864 0.015946 5.959291
v -7.934646 0.023149 5.952360
v -7.944096 0.029464 5.943033
v -7.951851 0.034645 5.931668
v -7.957613 0.038496 5.918701
v -7.961162 0.040867 5.904632
v -7.962360 0.041668 5.890000
v -7.910347 0.010346 5.963559
v -7.920295 0.020295 5.959291
v -7.929464 0.029464 5.952360
v -7.937500 0.037500 5.943033
v -7.944096 0.044095 5.931668
v -7.948996 0.048996 5.918701
v -7.952014 0.052014 5.904632
v -7.953033 0.053033 5.890000
v -7.908129 0.012166 5.963559
v -7.915946 0.023864 5.959291
v -7.923150 0.034645 5.952360
v -7.929463 0.044095 5.943033
v -7.934646 0.051851 5.931668
v -7.938496 0.057613 5.918701
v -7.940867 0.061162 5.904632
v -7.941668 0.062360 5.890000
v -7.905600 0.013518 5.963559
v -7.910984 0.026516 5.959291
v -7.915946 0.038496 5.952360
v -7.920295 0.048996 5.943033
v -7.923864 0.057613 5.931668
v -7.926517 0.064016 5.918701
v -7.928150 0.067960 5.904632
v -7.928701 0.069291 5.890000
v -7.902854 0.014351 5.963559
v -7.905600 0.028150 5.959291
v -7.908129 0.040867 5.952360
v -7.910347 0.052014 5.943033
v -7.912166 0.061162 5.931668
v -7.913518 0.067959 5.918701
v -7.914351 0.072145 5.904632
v -7.914632 0.073559 5.890000
v -7.900000 0.028701 5.959291
v -7.900000 0.062360 5.931668
v -7.900000 0.073559 5.904632
v -7.900000 0.075000 5.890000
v -7.885368 0.073559 5.890000
v -7.871299 0.069291 5.890000
v -7.858332 0.062360 5.890000
v -7.846967 0.053033 5.890000
v -7.837640 0.041668 5.890000
v -7.830709 0.028701 5.890000
v -7.826441 0.014632 5.890000
v -7.825000 -0.000000 5.890000
v -7.826441 -0.014632 5.890000
v -7.830709 -0.028701 5.890000
v -7.837640 -0.041668 5.890000
v -7.846967 -0.053033 5.890000
v -7.858332 -0.062360 5.890000
v -7.871299 -0.069291 5.890000
v -7.885368 -0.073559 5.890000
v -7.900000 -0.075000 5.890000
v -7.914632 -0.073559 5.890000
v -7.928701 -0.069291 5.890000
v -7.941668 -0.062360 5.890000
v -7.953033 -0.053033 5.890000
v -7.962360 -0.041668 5.890000
v -7.969291 -0.028701 5.890000
v -7.973559 -0.014632 5.890000
v -7.975000 0.000000 5.890000
v -7.973559 0.014632 5.890000
v -7.969291 0.028701 5.890000
v -7.962360 0.041668 5.890000
v -7.953033 0.053033 5.890000
v -7.941668 0.062360 5.890000
v -7.928701 0.069291 5.890000
v -7.914632 0.073559 5.890000
vn 0.0654 0.9979 -0.0000
vn 0.1951 0.9808 -0.0000
vn 0.3214 0.9469 -0.0000
vn 0.4423 0.8969 -0.0000
vn 0.5556 0.8315 -0.0000
vn 0.6593 0.7518 -0.0000
vn 0.7518 0.6593 -0.0000
vn 0.8315 0.5556 -0.0000
vn 0.8969 0.4423 -0.0000
vn 0.9469 0.3214 -0.0000
vn 0.9808 0.1951 -0.0000
vn 0.9979 0.0654 -0.0000
vn 0.9979 -0.0654 -0.0000
vn 0.9808 -0.1951 -0.0000
vn 0.9469 -0.3214 -0.0000
vn 0.8969 -0.4423 -0.0000
vn 0.8315 -0.5556 -0.0000
vn 0.7518 -0.6593 -0.0000
vn 0.6593 -0.7518 -0.0000
vn 0.5556 -0.8315 -0.0000
vn 0.4423 -0.8969 -0.0000
vn 0.3214 -0.9469 -0.0000
vn 0.1951 -0.9808 -0.0000
vn 0.0654 -0.9979 -0.0000
vn -0.0654 -0.9979 -0.0000
vn -0.1951 -0.9808 -0.0000
vn -0.3214 -0.9469 -0.0000
vn -0.4423 -0.8969 -0.0000
vn -0.5556 -0.8315 -0.0000
vn -0.6593 -0.7518 -0.0000
vn -0.7518 -0.6593 -0.0000
vn -0.8315 -0.5556 -0.0000
vn -0.8969 -0.4423 -0.0000
vn -0.9469 -0.3214 -0.0000
vn -0.9808 -0.1951 -0.0000
vn -0.9979 -0.0654 -0.0000
vn -0.9979 0.0654 -0.0000
vn -0.9808 0.1951 -0.0000
vn -0.9469 0.3214 -0.0000
vn -0.8969 0.4423 -0.0000
vn -0.8315 0.5556 -0.0000
vn -0.7518 0.6593 -0.0000
vn -0.6593 0.7518 -0.0000
vn -0.5556 0.8315 -0.0000
vn -0.4423 0.8969 -0.0000
vn -0.3214 0.9469 -0.0000
vn -0.0000 -0.0000 1.0000
vn -0.1951 0.9808 -0.0000
vn -0.0654 0.9979 -0.0000
vn -0.0000 -0.0000 -1.0000
vn 0.0097 0.0980 0.9951
vn 0.0928 0.9620 -0.2568
vn 0.0286 0.2902 0.9565
vn 0.0464 0.4709 0.8810
vn 0.0624 0.6332 0.7715
vn 0.0759 0.7708 0.6326
vn 0.0865 0.8786 0.4696
vn 0.0938 0.9527 0.2890
vn 0.0975 0.9904 0.0976
vn 0.2779 0.9161 0.2890
vn 0.2889 0.9524 0.0975
vn 0.0286 0.0942 0.9951
vn 0.2882 0.9227 -0.2562
vn 0.0846 0.2790 0.9565
vn 0.1374 0.4528 0.8810
vn 0.1847 0.6088 0.7715
vn 0.2248 0.7412 0.6326
vn 0.2563 0.8448 0.4696
vn 0.2999 0.5611 0.7715
vn 0.3651 0.6831 0.6326
vn 0.4162 0.7786 0.4696
vn 0.4513 0.8443 0.2890
vn 0.4691 0.8777 0.0975
vn 0.0464 0.0869 0.9951
vn 0.4506 0.8548 -0.2575
vn 0.1374 0.2571 0.9565
vn 0.2230 0.4173 0.8810
vn 0.6314 0.7693 0.0975
vn 0.0625 0.0761 0.9951
vn 0.6028 0.7936 -0.0826
vn 0.1850 0.2254 0.9565
vn 0.3002 0.3658 0.8810
vn 0.4036 0.4918 0.7715
vn 0.4913 0.5987 0.6326
vn 0.5601 0.6825 0.4696
vn 0.6073 0.7400 0.2890
vn 0.5987 0.4913 0.6326
vn 0.6825 0.5601 0.4696
vn 0.7400 0.6073 0.2890
vn 0.7693 0.6314 0.0975
vn 0.0761 0.0625 0.9951
vn 0.7776 0.6273 -0.0438
vn 0.2254 0.1850 0.9565
vn 0.3658 0.3002 0.8810
vn 0.4918 0.4036 0.7715
vn 0.0869 0.0464 0.9951
vn 0.8757 0.4781 -0.0674
vn 0.2571 0.1374 0.9565
vn 0.4173 0.2230 0.8810
vn 0.5611 0.2999 0.7715
vn 0.6831 0.3651 0.6326
vn 0.7786 0.4162 0.4696
vn 0.8443 0.4513 0.2890
vn 0.8777 0.4691 0.0975
vn 0.7412 0.2248 0.6326
vn 0.8448 0.2563 0.4696
vn 0.9161 0.2779 0.2890
vn 0.9524 0.2889 0.0975
vn 0.0942 0.0286 0.9951
vn 0.9541 0.2780 -0.1113
vn 0.2790 0.0846 0.9565
vn 0.4528 0.1374 0.8810
vn 0.6088 0.1847 0.7715
vn 0.9876 0.0972 -0.1234
vn 0.2902 0.0286 0.9565
vn 0.4709 0.0464 0.8810
vn 0.6332 0.0624 0.7715
vn 0.7708 0.0759 0.6326
vn 0.8786 0.0865 0.4696
vn 0.9527 0.0938 0.2890
vn 0.9904 0.0976 0.0975
vn 0.0980 0.0097 0.9951
vn 0.8786 -0.0865 0.4696
vn 0.9527 -0.0938 0.2890
vn 0.9904 -0.0975 0.0975
vn 0.0980 -0.0097 0.9951
vn 0.9876 -0.0972 -0.1234
vn 0.2902 -0.0286 0.9565
vn 0.4709 -0.0464 0.8810
vn 0.6332 -0.0624 0.7715
vn 0.7708 -0.0759 0.6326
vn 0.2790 -0.0846 0.9565
vn 0.4528 -0.1374 0.8810
vn 0.6088 -0.1847 0.7715
vn 0.7412 -0.2248 0.6326
vn 0.8448 -0.2563 0.4696
vn 0.9161 -0.2779 0.2890
vn 0.9524 -0.2889 0.0975
vn 0.0942 -0.0286 0.9951
vn 0.9476 -0.2941 -0.1243
vn 0.7786 -0.4162 0.4696
vn 0.8443 -0.4513 0.2890
vn 0.8777 -0.4691 0.0975
vn 0.0869 -0.0464 0.9951
vn 0.8736 -0.4711 -0.1217
vn 0.2571 -0.1374 0.9565
vn 0.4173 -0.2230 0.8810
vn 0.5611 -0.2999 0.7715
vn 0.6831 -0.3651 0.6326
vn 0.3658 -0.3002 0.8810
vn 0.4918 -0.4036 0.7715
vn 0.5987 -0.4913 0.6326
vn 0.6825 -0.5601 0.4696
vn 0.7400 -0.6073 0.2890
vn 0.7693 -0.6314 0.0975
vn 0.0761 -0.0625 0.9951
vn 0.7854 -0.6169 -0.0509
vn 0.2254 -0.1850 0.9565
vn 0.6073 -0.7400 0.2890
vn 0.6314 -0.7693 0.0975
vn 0.0625 -0.0761 0.9951
vn 0.6306 -0.7339 -0.2523
vn 0.1850 -0.2254 0.9565
vn 0.3002 -0.3658 0.8810
vn 0.4036 -0.4918 0.7715
vn 0.4913 -0.5987 0.6326
vn 0.5601 -0.6825 0.4696
vn 0.2999 -0.5611 0.7715
vn 0.3651 -0.6831 0.6326
vn 0.4162 -0.7786 0.4696
vn 0.4513 -0.8443 0.2890
vn 0.4691 -0.8777 0.0975
vn 0.0464 -0.0869 0.9951
vn 0.4664 -0.8846 -0.0000
vn 0.1374 -0.2571 0.9565
vn 0.2230 -0.4173 0.8810
vn 0.2889 -0.9524 0.0975
vn 0.0286 -0.0942 0.9951
vn 0.2882 -0.9227 -0.2562
vn 0.0846 -0.2790 0.9565
vn 0.1374 -0.4528 0.8810
vn 0.1847 -0.6088 0.7715
vn 0.2248 -0.7412 0.6326
vn 0.2563 -0.8448 0.4696
vn 0.2779 -0.9161 0.2890
vn 0.0624 -0.6332 0.7715
vn 0.0759 -0.7708 0.6326
vn 0.0865 -0.8786 0.4696
vn 0.0938 -0.9527 0.2890
vn 0.0975 -0.9904 0.0975
vn 0.0097 -0.0980 0.9951
vn 0.0914 -0.9958 -0.0000
vn 0.0286 -0.2902 0.9565
vn 0.0464 -0.4709 0.8810
vn -0.0975 -0.9904 0.0975
vn -0.0097 -0.0980 0.9951
vn -0.1042 -0.9609 -0.2565
vn -0.0286 -0.2902 0.9565
vn -0.0464 -0.4709 0.8810
vn -0.0624 -0.6332 0.7715
vn -0.0759 -0.7708 0.6326
vn -0.0865 -0.8786 0.4696
vn -0.0938 -0.9527 0.2890
vn -0.2248 -0.7412 0.6326
vn -0.2563 -0.8448 0.4696
vn -0.2779 -0.9161 0.2890
vn -0.2889 -0.9524 0.0975
vn -0.0286 -0.0942 0.9951
vn -0.2785 -0.9600 0.0290
vn -0.0846 -0.2790 0.9565
vn -0.1374 -0.4528 0.8810
vn -0.1847 -0.6088 0.7715
vn -0.0464 -0.0869 0.9951
vn -0.4664 -0.8846 -0.0000
vn -0.1374 -0.2571 0.9565
vn -0.2230 -0.4173 0.8810
vn -0.2999 -0.5611 0.7715
vn -0.3651 -0.6831 0.6326
vn -0.4162 -0.7786 0.4696
vn -0.4513 -0.8443 0.2890
vn -0.4691 -0.8777 0.0975
vn -0.4913 -0.5987 0.6326
vn -0.5601 -0.6825 0.4696
vn -0.6073 -0.7400 0.2890
vn -0.6314 -0.7693 0.0975
vn -0.0625 -0.0761 0.9951
vn -0.6062 -0.7838 -0.1347
vn -0.1850 -0.2254 0.9565
vn -0.3002 -0.3658 0.8810
vn -0.4036 -0.4918 0.7715
vn -0.7587 -0.6493 -0.0536
vn -0.2254 -0.1850 0.9565
vn -0.3658 -0.3002 0.8810
vn -0.4918 -0.4036 0.7715
vn -0.5987 -0.4913 0.6326
vn -0.6825 -0.5601 0.4696
vn -0.7400 -0.6073 0.2890
vn -0.7693 -0.6314 0.0975
vn -0.0761 -0.0625 0.9951
vn -0.7786 -0.4162 0.4696
vn -0.8443 -0.4513 0.2890
vn -0.8777 -0.4691 0.0975
vn -0.0869 -0.0464 0.9951
vn -0.8736 -0.4711 -0.1217
vn -0.2571 -0.1374 0.9565
vn -0.4173 -0.2230 0.8810
vn -0.5611 -0.2999 0.7715
vn -0.6831 -0.3651 0.6326
vn -0.4528 -0.1374 0.8810
vn -0.6088 -0.1847 0.7715
vn -0.7412 -0.2248 0.6326
vn -0.8448 -0.2563 0.4696
vn -0.9161 -0.2779 0.2890
vn -0.9524 -0.2889 0.0975
vn -0.0942 -0.0286 0.9951
vn -0.9539 -0.2764 -0.1169
vn -0.2790 -0.0846 0.9565
vn -0.9527 -0.0938 0.2890
vn -0.9904 -0.0975 0.0975
vn -0.0980 -0.0097 0.9951
vn -0.9874 -0.0969 -0.1249
vn -0.2902 -0.0286 0.9565
vn -0.4709 -0.0464 0.8810
vn -0.6332 -0.0624 0.7715
vn -0.7708 -0.0759 0.6326
vn -0.8786 -0.0865 0.4696
vn -0.4709 0.0464 0.8810
vn -0.6332 0.0624 0.7715
vn -0.7708 0.0759 0.6326
vn -0.8786 0.0865 0.4696
vn -0.9527 0.0938 0.2890
vn -0.9904 0.0975 0.0975
vn -0.0980 0.0097 0.9951
vn -0.9876 0.0972 -0.1234
vn -0.2902 0.0286 0.9565
vn -0.9161 0.2779 0.2890
vn -0.9524 0.2889 0.0975
vn -0.0942 0.0286 0.9951
vn -0.9478 0.2959 -0.1185
vn -0.2790 0.0846 0.9565
vn -0.4528 0.1374 0.8810
vn -0.6088 0.1847 0.7715
vn -0.7412 0.2248 0.6326
vn -0.8448 0.2563 0.4696
vn -0.5611 0.2999 0.7715
vn -0.6831 0.3651 0.6326
vn -0.7786 0.4162 0.4696
vn -0.8443 0.4513 0.2890
vn -0.8777 0.4691 0.0975
vn -0.0869 0.0464 0.9951
vn -0.8655 0.4725 -0.1664
vn -0.2571 0.1374 0.9565
vn -0.4173 0.2231 0.8810
vn -0.7693 0.6314 0.0975
vn -0.0761 0.0625 0.9951
vn -0.7533 0.6541 -0.0685
vn -0.2254 0.1850 0.9565
vn -0.3658 0.3002 0.8810
vn -0.4918 0.4036 0.7715
vn -0.5987 0.4913 0.6326
vn -0.6825 0.5601 0.4696
vn -0.7400 0.6073 0.2890
vn -0.4036 0.4918 0.7715
vn -0.4913 0.5987 0.6326
vn -0.5601 0.6825 0.4696
vn -0.6073 0.7400 0.2890
vn -0.6314 0.7693 0.0975
vn -0.0625 0.0761 0.9951
vn -0.6028 0.7936 -0.0826
vn -0.1850 0.2254 0.9565
vn -0.3002 0.3658 0.8810
vn -0.4691 0.8777 0.0975
vn -0.0464 0.0869 0.9951
vn -0.4580 0.8890 -0.0012
vn -0.1374 0.2571 0.9565
vn -0.2231 0.4173 0.8810
vn -0.2999 0.5611 0.7715
vn -0.3651 0.6831 0.6326
vn -0.4162 0.7786 0.4696
vn -0.4513 0.8443 0.2890
vn -0.2248 0.7412 0.6326
vn -0.2563 0.8448 0.4696
vn -0.2779 0.9161 0.2890
vn -0.2889 0.9524 0.0975
vn -0.0286 0.0942 0.9951
vn -0.2634 0.8434 -0.4683
vn -0.0846 0.2790 0.9565
vn -0.1374 0.4528 0.8810
vn -0.1847 0.6088 0.7715
vn -0.1026 0.9888 -0.1086
vn -0.0286 0.2902 0.9565
vn -0.0464 0.4709 0.8810
vn -0.0624 0.6332 0.7715
vn -0.0759 0.7708 0.6326
vn -0.0865 0.8786 0.4696
vn -0.0938 0.9527 0.2890
vn -0.0976 0.9904 0.0976
vn -0.0097 0.0980 0.9951
vn 0.0963 0.9617 0.2567
vn 0.0975 0.9904 0.0975
vn 0.2889 0.9524 0.0976
vn 0.2785 0.9600 0.0290
vn 0.4838 0.8752 -0.0012
vn 0.2231 0.4173 0.8810
vn 0.6462 0.7521 -0.1292
vn 0.7481 0.6495 -0.1360
vn 0.8859 0.4517 -0.1052
vn 0.4173 0.2231 0.8810
vn 0.9475 0.2966 -0.1191
vn 0.9904 0.0975 0.0975
vn 0.9904 -0.0976 0.0975
vn 0.9874 -0.0969 -0.1249
vn 0.9478 -0.2959 -0.1185
vn 0.8879 -0.4501 -0.0951
vn 0.7759 -0.6175 -0.1293
vn 0.6130 -0.7789 -0.1326
vn 0.1850 -0.2254 0.9566
vn 0.4634 -0.8405 -0.2807
vn 0.1374 -0.2571 0.9566
vn 0.2855 -0.9522 0.1088
vn 0.0960 -0.9954 -0.0000
vn -0.0944 -0.9896 -0.1087
vn -0.2882 -0.9227 -0.2562
vn -0.4838 -0.8752 -0.0012
vn -0.6436 -0.7612 -0.0793
vn -0.7808 -0.6214 -0.0651
vn -0.8879 -0.4501 -0.0951
vn -0.9478 -0.2959 -0.1185
vn -0.9876 -0.0972 -0.1234
vn -0.9874 0.0969 -0.1249
vn -0.9520 0.2759 -0.1324
vn -0.8788 0.4739 -0.0557
vn -0.4173 0.2230 0.8810
vn -0.7812 0.6136 -0.1149
vn -0.6462 0.7521 -0.1292
vn -0.4918 0.8707 -0.0000
vn -0.2230 0.4173 0.8810
vn -0.2838 0.9463 -0.1546
vn -0.0996 0.9950 -0.0000
vn -0.0975 0.9904 0.0975
s 0
usemtl steel_grey
f 2//1 3//1 1//1
f 4//2 5//2 3//2
f 6//3 7//3 5//3
f 8//4 9//4 7//4
f 10//5 11//5 9//5
f 12//6 13//6 11//6
f 14//7 15//7 13//7
f 16//8 17//8 15//8
f 18//9 19//9 17//9
f 20//10 21//10 19//10
f 22//11 23//11 21//11
f 24//12 25//12 23//12
f 26//13 27//13 25//13
f 28//14 29//14 27//14
f 30//15 31//15 29//15
f 32//16 33//16 31//16
f 34//17 35//17 33//17
f 36//18 37//18 35//18
f 38//19 39//19 37//19
f 40//20 41//20 39//20
f 42//21 43//21 41//21
f 44//22 45//22 43//22
f 46//23 47//23 45//23
f 48//24 49//24 47//24
f 50//25 51//25 49//25
f 52//26 53//26 51//26
f 54//27 55//27 53//27
f 56//28 57//28 55//28
f 58//29 59//29 57//29
f 60//30 61//30 59//30
f 62//31 63//31 61//31
f 64//32 65//32 63//32
f 66//33 67//33 65//33
f 68//34 69//34 67//34
f 70//35 71//35 69//35
f 72//36 73//36 71//36
f 74//37 75//37 73//37
f 76//38 77//38 75//38
f 78//39 79//39 77//39
f 80//40 81//40 79//40
f 82//41 83//41 81//41
f 84//42 85//42 83//42
f 86//43 87//43 85//43
f 88//44 89//44 87//44
f 90//45 91//45 89//45
f 92//46 93//46 91//46
f 70//47 38//47 6//47
f 94//48 95//48 93//48
f 96//49 1//49 95//49
f 31//50 63//50 95//50
f 2//1 4//1 3//1
f 4//2 6//2 5//2
f 6//3 8//3 7//3
f 8//4 10//4 9//4
f 10//5 12//5 11//5
f 12//6 14//6 13//6
f 14//7 16//7 15//7
f 16//8 18//8 17//8
f 18//9 20//9 19//9
f 20//10 22//10 21//10
f 22//11 24//11 23//11
f 24//12 26//12 25//12
f 26//13 28//13 27//13
f 28//14 30//14 29//14
f 30//15 32//15 31//15
f 32//16 34//16 33//16
f 34//17 36//17 35//17
f 36//18 38//18 37//18
f 38//19 40//19 39//19
f 40//20 42//20 41//20
f 42//21 44//21 43//21
f 44//22 46//22 45//22
f 46//23 48//23 47//23
f 48//24 50//24 49//24
f 50//25 52//25 51//25
f 52//26 54//26 53//26
f 54//27 56//27 55//27
f 56//28 58//28 57//28
f 58//29 60//29 59//29
f 60//30 62//30 61//30
f 62//31 64//31 63//31
f 64//32 66//32 65//32
f 66//33 68//33 67//33
f 68//34 70//34 69//34
f 70//35 72//35 71//35
f 72//36 74//36 73//36
f 74//37 76//37 75//37
f 76//38 78//38 77//38
f 78//39 80//39 79//39
f 80//40 82//40 81//40
f 82//41 84//41 83//41
f 84//42 86//42 85//42
f 86//43 88//43 87//43
f 88//44 90//44 89//44
f 90//45 92//45 91//45
f 92//46 94//46 93//46
f 6//47 4//47 2//47
f 2//47 96//47 94//47
f 94//47 92//47 90//47
f 90//47 88//47 86//47
f 86//47 84//47 82//47
f 82//47 80//47 78//47
f 78//47 76//47 74//47
f 74//47 72//47 70//47
f 70//47 68//47 66//47
f 66//47 64//47 62//47
f 62//47 60//47 58//47
f 58//47 56//47 54//47
f 54//47 52//47 50//47
f 50//47 48//47 46//47
f 46//47 44//47 42//47
f 42//47 40//47 38//47
f 38//47 36//47 34//47
f 34//47 32//47 30//47
f 30//47 28//47 26//47
f 26//47 24//47 22//47
f 22//47 20//47 18//47
f 18//47 16//47 14//47
f 14//47 12//47 10//47
f 10//47 8//47 6//47
f 6//47 2//47 94//47
f 94//47 90//47 86//47
f 86//47 82//47 78//47
f 78//47 74//47 70//47
f 70//47 66//47 62//47
f 62//47 58//47 54//47
f 54//47 50//47 46//47
f 46//47 42//47 38//47
f 38//47 34//47 30//47
f 30//47 26//47 22//47
f 22//47 18//47 14//47
f 14//47 10//47 6//47
f 6//47 94//47 86//47
f 86//47 78//47 70//47
f 70//47 62//47 54//47
f 54//47 46//47 38//47
f 38//47 30//47 22//47
f 22//47 14//47 6//47
f 6//47 86//47 70//47
f 70//47 54//47 38//47
f 38//47 22//47 6//47
f 94//48 96//48 95//48
f 96//49 2//49 1//49
f 95//50 1//50 3//50
f 3//50 5//50 7//50
f 7//50 9//50 11//50
f 11//50 13//50 15//50
f 15//50 17//50 19//50
f 19//50 21//50 23//50
f 23//50 25//50 27//50
f 27//50 29//50 31//50
f 31//50 33//50 35//50
f 35//50 37//50 39//50
f 39//50 41//50 43//50
f 43//50 45//50 47//50
f 47//50 49//50 51//50
f 51//50 53//50 55//50
f 55//50 57//50 59//50
f 59//50 61//50 63//50
f 63//50 65//50 67//50
f 67//50 69//50 71//50
f 71//50 73//50 75//50
f 75//50 77//50 79//50
f 79//50 81//50 83//50
f 83//50 85//50 87//50
f 87//50 89//50 91//50
f 91//50 93//50 95//50
f 95//50 3//50 7//50
f 7//50 11//50 15//50
f 15//50 19//50 23//50
f 23//50 27//50 31//50
f 31//50 35//50 39//50
f 39//50 43//50 47//50
f 47//50 51//50 55//50
f 55//50 59//50 63//50
f 63//50 67//50 71//50
f 71//50 75//50 79//50
f 79//50 83//50 87//50
f 87//50 91//50 95//50
f 95//50 7//50 15//50
f 15//50 23//50 31//50
f 31//50 39//50 47//50
f 47//50 55//50 63//50
f 63//50 71//50 79//50
f 79//50 87//50 95//50
f 95//50 15//50 31//50
f 31//50 47//50 63//50
f 63//50 79//50 95//50
usemtl light_red
f 98//51 97//51 103//51
f 110//52 354//52 102//52
f 351//53 103//53 104//53
f 99//54 104//54 105//54
f 99//55 106//55 100//55
f 352//56 106//56 107//56
f 101//57 107//57 108//57
f 353//58 108//58 109//58
f 353//59 110//59 102//59
f 108//60 117//60 109//60
f 109//61 118//61 110//61
f 103//62 97//62 111//62
f 110//63 356//63 355//63
f 103//64 112//64 104//64
f 104//65 113//65 105//65
f 105//66 114//66 106//66
f 106//67 115//67 107//67
f 107//68 116//68 108//68
f 113//69 122//69 114//69
f 114//70 123//70 115//70
f 115//71 124//71 116//71
f 116//72 125//72 117//72
f 117//73 126//73 118//73
f 111//74 97//74 119//74
f 118//75 357//75 356//75
f 111//76 120//76 112//76
f 112//77 121//77 113//77
f 125//78 134//78 126//78
f 119//79 97//79 127//79
f 357//80 134//80 358//80
f 119//81 128//81 120//81
f 120//82 129//82 121//82
f 122//83 129//83 130//83
f 122//84 131//84 123//84
f 123//85 132//85 124//85
f 124//86 133//86 125//86
f 130//87 139//87 131//87
f 131//88 140//88 132//88
f 132//89 141//89 133//89
f 133//90 142//90 134//90
f 127//91 97//91 135//91
f 358//92 142//92 359//92
f 127//93 136//93 128//93
f 128//94 137//94 129//94
f 129//95 138//95 130//95
f 135//96 97//96 143//96
f 142//97 360//97 359//97
f 135//98 144//98 136//98
f 136//99 145//99 137//99
f 138//100 145//100 146//100
f 138//101 147//101 139//101
f 139//102 148//102 140//102
f 140//103 149//103 141//103
f 141//104 150//104 142//104
f 146//105 155//105 147//105
f 147//106 156//106 148//106
f 148//107 157//107 149//107
f 149//108 158//108 150//108
f 143//109 97//109 151//109
f 150//110 361//110 360//110
f 143//111 152//111 144//111
f 144//112 153//112 145//112
f 146//113 153//113 154//113
f 158//114 362//114 361//114
f 151//115 160//115 152//115
f 152//116 161//116 153//116
f 154//117 161//117 162//117
f 154//118 163//118 155//118
f 155//119 164//119 156//119
f 156//120 165//120 157//120
f 158//121 165//121 166//121
f 151//122 97//122 159//122
f 163//123 172//123 164//123
f 164//124 173//124 165//124
f 166//125 173//125 174//125
f 159//126 97//126 167//126
f 166//127 363//127 362//127
f 159//128 168//128 160//128
f 160//129 169//129 161//129
f 161//130 170//130 162//130
f 163//131 170//131 171//131
f 167//132 176//132 168//132
f 168//133 177//133 169//133
f 170//134 177//134 178//134
f 170//135 179//135 171//135
f 171//136 180//136 172//136
f 172//137 181//137 173//137
f 173//138 182//138 174//138
f 167//139 97//139 175//139
f 363//140 182//140 364//140
f 179//141 188//141 180//141
f 180//142 189//142 181//142
f 181//143 190//143 182//143
f 175//144 97//144 183//144
f 364//145 190//145 365//145
f 175//146 184//146 176//146
f 176//147 185//147 177//147
f 178//148 185//148 186//148
f 178//149 187//149 179//149
f 185//150 192//150 193//150
f 186//151 193//151 194//151
f 186//152 195//152 187//152
f 187//153 196//153 188//153
f 188//154 197//154 189//154
f 190//155 197//155 198//155
f 183//156 97//156 191//156
f 365//157 198//157 366//157
f 184//158 191//158 192//158
f 196//159 205//159 197//159
f 198//160 205//160 206//160
f 191//161 97//161 199//161
f 198//162 367//162 366//162
f 191//163 200//163 192//163
f 192//164 201//164 193//164
f 194//165 201//165 202//165
f 194//166 203//166 195//166
f 195//167 204//167 196//167
f 202//168 209//168 210//168
f 202//169 211//169 203//169
f 203//170 212//170 204//170
f 204//171 213//171 205//171
f 206//172 213//172 214//172
f 199//173 97//173 207//173
f 206//174 368//174 367//174
f 199//175 208//175 200//175
f 200//176 209//176 201//176
f 214//177 221//177 222//177
f 207//178 97//178 215//178
f 214//179 369//179 368//179
f 207//180 216//180 208//180
f 208//181 217//181 209//181
f 210//182 217//182 218//182
f 210//183 219//183 211//183
f 211//184 220//184 212//184
f 212//185 221//185 213//185
f 218//186 225//186 226//186
f 218//187 227//187 219//187
f 219//188 228//188 220//188
f 220//189 229//189 221//189
f 222//190 229//190 230//190
f 215//191 97//191 223//191
f 222//192 370//192 369//192
f 216//193 223//193 224//193
f 217//194 224//194 225//194
f 230//195 237//195 238//195
f 223//196 97//196 231//196
f 230//197 371//197 370//197
f 224//198 231//198 232//198
f 224//199 233//199 225//199
f 226//200 233//200 234//200
f 226//201 235//201 227//201
f 227//202 236//202 228//202
f 228//203 237//203 229//203
f 234//204 243//204 235//204
f 235//205 244//205 236//205
f 236//206 245//206 237//206
f 238//207 245//207 246//207
f 231//208 97//208 239//208
f 371//209 246//209 372//209
f 231//210 240//210 232//210
f 232//211 241//211 233//211
f 234//212 241//212 242//212
f 239//213 97//213 247//213
f 246//214 373//214 372//214
f 239//215 248//215 240//215
f 240//216 249//216 241//216
f 242//217 249//217 250//217
f 242//218 251//218 243//218
f 243//219 252//219 244//219
f 244//220 253//220 245//220
f 246//221 253//221 254//221
f 250//222 259//222 251//222
f 251//223 260//223 252//223
f 252//224 261//224 253//224
f 254//225 261//225 262//225
f 247//226 97//226 255//226
f 254//227 374//227 373//227
f 247//228 256//228 248//228
f 248//229 257//229 249//229
f 250//230 257//230 258//230
f 270//231 374//231 262//231
f 255//232 264//232 256//232
f 257//233 264//233 265//233
f 258//234 265//234 266//234
f 258//235 267//235 259//235
f 259//236 268//236 260//236
f 260//237 269//237 261//237
f 262//238 269//238 270//238
f 255//239 97//239 263//239
f 267//240 276//240 268//240
f 268//241 277//241 269//241
f 270//242 277//242 278//242
f 263//243 97//243 271//243
f 278//244 375//244 270//244
f 264//245 271//245 272//245
f 265//246 272//246 273//246
f 266//247 273//247 274//247
f 266//248 275//248 267//248
f 273//249 280//249 281//249
f 274//250 281//250 282//250
f 274//251 283//251 275//251
f 275//252 284//252 276//252
f 276//253 285//253 277//253
f 278//254 285//254 286//254
f 271//255 97//255 279//255
f 286//256 376//256 278//256
f 271//257 280//257 272//257
f 284//258 293//258 285//258
f 286//259 293//259 294//259
f 279//260 97//260 287//260
f 294//261 377//261 286//261
f 280//262 287//262 288//262
f 281//263 288//263 289//263
f 281//264 290//264 282//264
f 282//265 291//265 283//265
f 283//266 292//266 284//266
f 289//267 296//267 297//267
f 290//268 297//268 298//268
f 290//269 299//269 291//269
f 291//270 300//270 292//270
f 292//271 301//271 293//271
f 294//272 301//272 302//272
f 287//273 97//273 295//273
f 294//274 379//274 378//274
f 287//275 296//275 288//275
f 300//276 309//276 301//276
f 302//277 309//277 310//277
f 295//278 97//278 303//278
f 302//279 380//279 379//279
f 295//280 304//280 296//280
f 296//281 305//281 297//281
f 298//282 305//282 306//282
f 298//283 307//283 299//283
f 299//284 308//284 300//284
f 306//285 313//285 314//285
f 306//286 315//286 307//286
f 307//287 316//287 308//287
f 308//288 317//288 309//288
f 310//289 317//289 318//289
f 303//290 97//290 311//290
f 310//291 381//291 380//291
f 303//292 312//292 304//292
f 305//293 312//293 313//293
f 318//294 325//294 326//294
f 311//295 97//295 319//295
f 318//296 382//296 381//296
f 311//297 320//297 312//297
f 313//298 320//298 321//298
f 314//299 321//299 322//299
f 314//300 323//300 315//300
f 315//301 324//301 316//301
f 316//302 325//302 317//302
f 322//303 329//303 330//303
f 322//304 331//304 323//304
f 323//305 332//305 324//305
f 324//306 333//306 325//306
f 326//307 333//307 334//307
f 319//308 97//308 327//308
f 334//309 382//309 326//309
f 319//310 328//310 320//310
f 320//311 329//311 321//311
f 334//312 341//312 342//312
f 327//313 97//313 335//313
f 342//314 383//314 334//314
f 327//315 336//315 328//315
f 328//316 337//316 329//316
f 330//317 337//317 338//317
f 330//318 339//318 331//318
f 331//319 340//319 332//319
f 332//320 341//320 333//320
f 338//321 347//321 339//321
f 340//322 347//322 348//322
f 340//323 349//323 341//323
f 342//324 349//324 350//324
f 335//325 97//325 343//325
f 342//326 385//326 384//326
f 335//327 344//327 336//327
f 337//328 344//328 345//328
f 338//329 345//329 346//329
f 102//330 385//330 350//330
f 344//331 98//331 351//331
f 345//332 351//332 99//332
f 346//333 99//333 100//333
f 347//334 100//334 352//334
f 348//335 352//335 101//335
f 349//336 101//336 353//336
f 350//337 353//337 102//337
f 343//338 97//338 98//338
f 370//50 378//50 354//50
f 110//339 355//339 354//339
f 351//53 98//53 103//53
f 99//54 351//54 104//54
f 99//55 105//55 106//55
f 352//56 100//56 106//56
f 101//57 352//57 107//57
f 353//58 101//58 108//58
f 353//340 109//340 110//340
f 108//60 116//60 117//60
f 109//341 117//341 118//341
f 110//342 118//342 356//342
f 103//64 111//64 112//64
f 104//65 112//65 113//65
f 105//66 113//66 114//66
f 106//67 114//67 115//67
f 107//68 115//68 116//68
f 113//69 121//69 122//69
f 114//70 122//70 123//70
f 115//71 123//71 124//71
f 116//72 124//72 125//72
f 117//73 125//73 126//73
f 118//343 126//343 357//343
f 111//76 119//76 120//76
f 112//344 120//344 121//344
f 125//78 133//78 134//78
f 357//345 126//345 134//345
f 119//81 127//81 128//81
f 120//82 128//82 129//82
f 122//83 121//83 129//83
f 122//84 130//84 131//84
f 123//85 131//85 132//85
f 124//86 132//86 133//86
f 130//87 138//87 139//87
f 131//88 139//88 140//88
f 132//89 140//89 141//89
f 133//90 141//90 142//90
f 358//346 134//346 142//346
f 127//93 135//93 136//93
f 128//94 136//94 137//94
f 129//95 137//95 138//95
f 142//347 150//347 360//347
f 135//98 143//98 144//98
f 136//348 144//348 145//348
f 138//100 137//100 145//100
f 138//101 146//101 147//101
f 139//102 147//102 148//102
f 140//103 148//103 149//103
f 141//104 149//104 150//104
f 146//105 154//105 155//105
f 147//106 155//106 156//106
f 148//107 156//107 157//107
f 149//108 157//108 158//108
f 150//349 158//349 361//349
f 143//111 151//111 152//111
f 144//112 152//112 153//112
f 146//113 145//113 153//113
f 158//114 166//114 362//114
f 151//115 159//115 160//115
f 152//116 160//116 161//116
f 154//117 153//117 161//117
f 154//118 162//118 163//118
f 155//119 163//119 164//119
f 156//120 164//120 165//120
f 158//350 157//350 165//350
f 163//123 171//123 172//123
f 164//124 172//124 173//124
f 166//351 165//351 173//351
f 166//352 174//352 363//352
f 159//128 167//128 168//128
f 160//129 168//129 169//129
f 161//130 169//130 170//130
f 163//131 162//131 170//131
f 167//132 175//132 176//132
f 168//133 176//133 177//133
f 170//134 169//134 177//134
f 170//135 178//135 179//135
f 171//136 179//136 180//136
f 172//137 180//137 181//137
f 173//138 181//138 182//138
f 363//353 174//353 182//353
f 179//141 187//141 188//141
f 180//142 188//142 189//142
f 181//143 189//143 190//143
f 364//354 182//354 190//354
f 175//146 183//146 184//146
f 176//147 184//147 185//147
f 178//148 177//148 185//148
f 178//149 186//149 187//149
f 185//150 184//150 192//150
f 186//151 185//151 193//151
f 186//152 194//152 195//152
f 187//153 195//153 196//153
f 188//154 196//154 197//154
f 190//155 189//155 197//155
f 365//355 190//355 198//355
f 184//158 183//158 191//158
f 196//159 204//159 205//159
f 198//160 197//160 205//160
f 198//356 206//356 367//356
f 191//357 199//357 200//357
f 192//164 200//164 201//164
f 194//165 193//165 201//165
f 194//166 202//166 203//166
f 195//167 203//167 204//167
f 202//168 201//168 209//168
f 202//169 210//169 211//169
f 203//170 211//170 212//170
f 204//171 212//171 213//171
f 206//172 205//172 213//172
f 206//358 214//358 368//358
f 199//359 207//359 208//359
f 200//176 208//176 209//176
f 214//177 213//177 221//177
f 214//360 222//360 369//360
f 207//180 215//180 216//180
f 208//181 216//181 217//181
f 210//182 209//182 217//182
f 210//183 218//183 219//183
f 211//184 219//184 220//184
f 212//185 220//185 221//185
f 218//186 217//186 225//186
f 218//187 226//187 227//187
f 219//188 227//188 228//188
f 220//189 228//189 229//189
f 222//190 221//190 229//190
f 222//361 230//361 370//361
f 216//193 215//193 223//193
f 217//194 216//194 224//194
f 230//195 229//195 237//195
f 230//362 238//362 371//362
f 224//198 223//198 231//198
f 224//199 232//199 233//199
f 226//200 225//200 233//200
f 226//201 234//201 235//201
f 227//202 235//202 236//202
f 228//203 236//203 237//203
f 234//204 242//204 243//204
f 235//205 243//205 244//205
f 236//206 244//206 245//206
f 238//207 237//207 245//207
f 371//363 238//363 246//363
f 231//210 239//210 240//210
f 232//211 240//211 241//211
f 234//212 233//212 241//212
f 246//364 254//364 373//364
f 239//215 247//215 248//215
f 240//216 248//216 249//216
f 242//217 241//217 249//217
f 242//218 250//218 251//218
f 243//219 251//219 252//219
f 244//220 252//220 253//220
f 246//221 245//221 253//221
f 250//222 258//222 259//222
f 251//223 259//223 260//223
f 252//224 260//224 261//224
f 254//225 253//225 261//225
f 254//365 262//365 374//365
f 247//228 255//228 256//228
f 248//229 256//229 257//229
f 250//230 249//230 257//230
f 270//366 375//366 374//366
f 255//232 263//232 264//232
f 257//233 256//233 264//233
f 258//234 257//234 265//234
f 258//235 266//235 267//235
f 259//236 267//236 268//236
f 260//237 268//237 269//237
f 262//238 261//238 269//238
f 267//240 275//240 276//240
f 268//241 276//241 277//241
f 270//242 269//242 277//242
f 278//367 376//367 375//367
f 264//245 263//245 271//245
f 265//246 264//246 272//246
f 266//247 265//247 273//247
f 266//248 274//248 275//248
f 273//249 272//249 280//249
f 274//250 273//250 281//250
f 274//251 282//251 283//251
f 275//252 283//252 284//252
f 276//253 284//253 285//253
f 278//254 277//254 285//254
f 286//368 377//368 376//368
f 271//257 279//257 280//257
f 284//258 292//258 293//258
f 286//259 285//259 293//259
f 294//369 378//369 377//369
f 280//262 279//262 287//262
f 281//263 280//263 288//263
f 281//264 289//264 290//264
f 282//265 290//265 291//265
f 283//266 291//266 292//266
f 289//267 288//267 296//267
f 290//268 289//268 297//268
f 290//269 298//269 299//269
f 291//270 299//270 300//270
f 292//271 300//271 301//271
f 294//272 293//272 301//272
f 294//370 302//370 379//370
f 287//275 295//275 296//275
f 300//276 308//276 309//276
f 302//277 301//277 309//277
f 302//371 310//371 380//371
f 295//280 303//280 304//280
f 296//281 304//281 305//281
f 298//282 297//282 305//282
f 298//283 306//283 307//283
f 299//284 307//284 308//284
f 306//285 305//285 313//285
f 306//286 314//286 315//286
f 307//287 315//287 316//287
f 308//288 316//288 317//288
f 310//289 309//289 317//289
f 310//372 318//372 381//372
f 303//292 311//292 312//292
f 305//373 304//373 312//373
f 318//294 317//294 325//294
f 318//374 326//374 382//374
f 311//297 319//297 320//297
f 313//298 312//298 320//298
f 314//299 313//299 321//299
f 314//300 322//300 323//300
f 315//301 323//301 324//301
f 316//302 324//302 325//302
f 322//303 321//303 329//303
f 322//304 330//304 331//304
f 323//305 331//305 332//305
f 324//306 332//306 333//306
f 326//307 325//307 333//307
f 334//375 383//375 382//375
f 319//310 327//310 328//310
f 320//311 328//311 329//311
f 334//312 333//312 341//312
f 342//376 384//376 383//376
f 327//315 335//315 336//315
f 328//377 336//377 337//377
f 330//317 329//317 337//317
f 330//318 338//318 339//318
f 331//319 339//319 340//319
f 332//320 340//320 341//320
f 338//321 346//321 347//321
f 340//322 339//322 347//322
f 340//323 348//323 349//323
f 342//324 341//324 349//324
f 342//378 350//378 385//378
f 335//327 343//327 344//327
f 337//328 336//328 344//328
f 338//329 337//329 345//329
f 102//379 354//379 385//379
f 344//331 343//331 98//331
f 345//332 344//332 351//332
f 346//333 345//333 99//333
f 347//334 346//334 100//334
f 348//335 347//335 352//335
f 349//336 348//336 101//336
f 350//380 349//380 353//380
f 354//50 355//50 356//50
f 356//50 357//50 358//50
f 358//50 359//50 360//50
f 360//50 361//50 362//50
f 362//50 363//50 364//50
f 364//50 365//50 366//50
f 366//50 367//50 368//50
f 368//50 369//50 370//50
f 370//50 371//50 372//50
f 372//50 373//50 374//50
f 374//50 375//50 376//50
f 376//50 377//50 378//50
f 378//50 379//50 380//50
f 380//50 381//50 382//50
f 382//50 383//50 384//50
f 384//50 385//50 354//50
f 354//50 356//50 358//50
f 358//50 360//50 362//50
f 362//50 364//50 366//50
f 366//50 368//50 370//50
f 370//50 372//50 374//50
f 374//50 376//50 378//50
f 378//50 380//50 382//50
f 382//50 384//50 354//50
f 354//50 358//50 362//50
f 362//50 366//50 370//50
f 370//50 374//50 378//50
f 378//50 382//50 354//50
f 354//50 362//50 370//50
