# Blender 5.2.2 LTS
# www.blender.org
mtllib floor.mtl
o nacelle_floor
v -8.740000 -2.040000 -0.080000
v -8.740000 -2.040000 0.000000
v -8.740000 2.040000 -0.080000
v -8.740000 2.040000 0.000000
v 2.740000 -2.040000 -0.080000
v 2.740000 -2.040000 0.000000
v 2.740000 2.040000 -0.080000
v 2.740000 2.040000 0.000000
v -1.200000 -1.970000 -0.080000
v -1.200000 -1.330000 -0.080000
v -0.500000 -1.330000 -0.080000
v -0.500000 -1.970000 -0.080000
v -1.200000 -1.970000 0.000000
v -1.200000 -1.330000 0.000000
v -0.500000 -1.330000 0.000000
v -0.500000 -1.970000 0.000000
vn -1.0000 -0.0000 -0.0000
vn -0.0000 1.0000 -0.0000
vn 1.0000 -0.0000 -0.0000
vn -0.0000 -1.0000 -0.0000
vn -0.0000 -0.0000 -1.0000
vn -0.0000 -0.0000 1.0000
s 0
usemtl steel_grey
f 2//1 3//1 1//1
f 4//2 7//2 3//2
f 8//3 5//3 7//3
f 6//4 1//4 5//4
f 7//5 11//5 10//5
f 5//5 9//5 12//5
f 6//6 15//6 16//6
f 2//6 13//6 14//6
f 9//3 14//3 13//3
f 10//4 15//4 14//4
f 12//1 15//1 11//1
f 9//2 16//2 12//2
f 2//1 4//1 3//1
f 4//2 8//2 7//2
f 8//3 6//3 5//3
f 6//4 2//4 1//4
f 10//5 9//5 1//5
f 1//5 3//5 7//5
f 7//5 5//5 12//5
f 7//5 12//5 11//5
f 10//5 1//5 7//5
f 5//5 1//5 9//5
f 6//6 8//6 15//6
f 14//6 15//6 8//6
f 8//6 4//6 2//6
f 2//6 6//6 16//6
f 2//6 16//6 13//6
f 14//6 8//6 2//6
f 9//3 10//3 14//3
f 10//4 11//4 15//4
f 12//1 16//1 15//1
f 9//2 13//2 16//2
