# Blender 5.2.2 LTS
# www.blender.org
mtllib earthing_loose.mtl
o earthing_loose
v -1.979641 -3.348839 0.020000
v -1.979641 -3.348839 0.160000
v -1.910359 -3.388839 0.020000
v -1.910359 -3.388839 0.160000
v -2.029641 -3.435441 0.020000
v -2.029641 -3.435441 0.160000
v -1.960359 -3.475441 0.020000
v -1.960359 -3.475441 0.160000
v -1.660000 -2.875204 0.372000
v -1.662000 -2.878669 0.372000
v -1.658644 -2.875988 0.371897
v -1.660644 -2.879452 0.371897
v -1.657310 -2.876757 0.371591
v -1.659310 -2.880221 0.371591
v -1.656023 -2.877501 0.371087
v -1.658023 -2.880965 0.371087
v -1.654804 -2.878204 0.370392
v -1.656804 -2.881669 0.370392
v -1.653674 -2.878857 0.369520
v -1.655674 -2.882321 0.369520
v -1.652652 -2.879447 0.368485
v -1.654652 -2.882911 0.368485
v -1.651755 -2.879965 0.367305
v -1.653755 -2.883429 0.367305
v -1.651000 -2.880400 0.366000
v -1.653000 -2.883865 0.366000
v -1.650399 -2.880748 0.364592
v -1.652399 -2.884212 0.364592
v -1.649962 -2.881000 0.363106
v -1.651962 -2.884464 0.363106
v -1.649697 -2.881153 0.361566
v -1.651697 -2.884617 0.361566
v -1.649608 -2.881204 0.360000
v -1.651608 -2.884669 0.360000
v -1.649697 -2.881153 0.358434
v -1.651697 -2.884617 0.358434
v -1.649962 -2.881000 0.356894
v -1.651962 -2.884464 0.356894
v -1.650399 -2.880748 0.355408
v -1.652399 -2.884212 0.355408
v -1.651000 -2.880400 0.354000
v -1.653000 -2.883865 0.354000
v -1.651755 -2.879965 0.352695
v -1.653755 -2.883429 0.352695
v -1.652652 -2.879447 0.351515
v -1.654652 -2.882911 0.351515
v -1.653674 -2.878857 0.350480
v -1.655674 -2.882321 0.350480
v -1.654804 -2.878204 0.349608
v -1.656804 -2.881669 0.349608
v -1.656023 -2.877501 0.348913
v -1.658023 -2.880965 0.348913
v -1.657310 -2.876757 0.348409
v -1.659310 -2.880221 0.348409
v -1.658644 -2.875988 0.348103
v -1.660644 -2.879452 0.348103
v -1.660000 -2.875204 0.348000
v -1.662000 -2.878669 0.348000
v -1.661356 -2.874421 0.348103
v -1.663356 -2.877885 0.348103
v -1.662690 -2.873652 0.348409
v -1.664690 -2.877115 0.348409
v -1.663977 -2.872908 0.348913
v -1.665977 -2.876372 0.348913
v -1.665196 -2.872204 0.349608
v -1.667196 -2.875669 0.349608
v -1.666326 -2.871552 0.350480
v -1.668326 -2.875016 0.350480
v -1.667349 -2.870962 0.351515
v -1.669348 -2.874426 0.351515
v -1.668245 -2.870444 0.352695
v -1.670245 -2.873908 0.352695
v -1.669000 -2.870008 0.354000
v -1.671000 -2.873472 0.354000
v -1.669601 -2.869661 0.355408
v -1.671601 -2.873125 0.355408
v -1.670038 -2.869409 0.356894
v -1.672038 -2.872873 0.356894
v -1.670303 -2.869256 0.358434
v -1.672303 -2.872720 0.358434
v -1.670392 -2.869204 0.360000
v -1.672392 -2.872669 0.360000
v -1.670303 -2.869256 0.361566
v -1.672303 -2.872720 0.361566
v -1.670038 -2.869409 0.363106
v -1.672038 -2.872873 0.363106
v -1.669601 -2.869661 0.364592
v -1.671601 -2.873125 0.364592
v -1.669000 -2.870008 0.366000
v -1.671000 -2.873472 0.366000
v -1.668245 -2.870444 0.367305
v -1.670245 -2.873908 0.367305
v -1.667349 -2.870962 0.368485
v -1.669348 -2.874426 0.368485
v -1.666326 -2.871552 0.369520
v -1.668326 -2.875016 0.369520
v -1.665196 -2.872204 0.370392
v -1.667196 -2.875669 0.370392
v -1.663977 -2.872908 0.371087
v -1.665977 -2.876372 0.371087
v -1.662690 -2.873652 0.371591
v -1.664690 -2.877115 0.371591
v -1.661356 -2.874421 0.371897
v -1.663356 -2.877885 0.371897
v -1.809974 -2.996279 0.280967
v -1.729070 -3.215106 0.262967
v -1.804855 -2.994265 0.279498
v -1.723950 -3.213092 0.261498
v -1.801186 -2.992578 0.275484
v -1.720281 -3.211405 0.257484
v -1.799950 -2.991670 0.270000
v -1.719046 -3.210497 0.252000
v -1.801479 -2.991785 0.264516
v -1.720575 -3.210612 0.246516
v -1.805363 -2.992890 0.260502
v -1.724459 -3.211717 0.242502
v -1.810561 -2.994691 0.259033
v -1.729657 -3.213518 0.241033
v -1.815681 -2.996705 0.260502
v -1.734776 -3.215532 0.242502
v -1.819350 -2.998392 0.264516
v -1.738445 -3.217219 0.246516
v -1.820585 -2.999300 0.270000
v -1.739681 -3.218127 0.252000
v -1.819056 -2.999185 0.275484
v -1.738152 -3.218012 0.257484
v -1.815172 -2.998080 0.279498
v -1.734268 -3.216907 0.261498
v -1.729363 -3.214312 0.263000
v -1.920000 -3.325537 0.263000
v -1.726591 -3.219063 0.261526
v -1.917228 -3.330288 0.261526
v -1.724563 -3.222540 0.257500
v -1.915199 -3.333766 0.257500
v -1.723820 -3.223813 0.252000
v -1.914456 -3.335038 0.252000
v -1.724563 -3.222540 0.246500
v -1.915199 -3.333766 0.246500
v -1.726591 -3.219063 0.242474
v -1.917228 -3.330288 0.242474
v -1.729363 -3.214312 0.241000
v -1.920000 -3.325537 0.241000
v -1.732135 -3.209561 0.242474
v -1.922772 -3.320787 0.242474
v -1.734164 -3.206084 0.246500
v -1.924801 -3.317309 0.246500
v -1.734907 -3.204811 0.252000
v -1.925543 -3.316036 0.252000
v -1.734164 -3.206084 0.257500
v -1.924801 -3.317309 0.257500
v -1.732135 -3.209561 0.261526
v -1.922772 -3.320787 0.261526
v -1.923889 -3.332273 0.259778
v -1.959889 -3.394627 0.187778
v -1.918605 -3.334121 0.258736
v -1.954605 -3.396475 0.186736
v -1.913695 -3.333668 0.255889
v -1.949695 -3.396022 0.183889
v -1.910474 -3.331037 0.252000
v -1.946474 -3.393391 0.180000
v -1.909805 -3.326932 0.248111
v -1.945805 -3.389286 0.176111
v -1.911869 -3.322454 0.245264
v -1.947869 -3.384808 0.173264
v -1.916111 -3.318801 0.244222
v -1.952111 -3.381155 0.172222
v -1.921395 -3.316954 0.245264
v -1.957395 -3.379308 0.173264
v -1.926305 -3.317406 0.248111
v -1.962305 -3.379760 0.176111
v -1.929526 -3.320037 0.252000
v -1.965526 -3.382391 0.180000
v -1.930194 -3.324142 0.255889
v -1.966195 -3.386496 0.183889
v -1.928131 -3.328621 0.258736
v -1.964131 -3.390975 0.186736
v -1.956000 -3.376891 0.180000
v -1.956000 -3.376891 0.120000
v -1.961500 -3.378365 0.180000
v -1.961500 -3.378365 0.120000
v -1.965526 -3.382391 0.180000
v -1.965526 -3.382391 0.120000
v -1.967000 -3.387891 0.180000
v -1.967000 -3.387891 0.120000
v -1.965526 -3.393391 0.180000
v -1.965526 -3.393391 0.120000
v -1.961500 -3.397418 0.180000
v -1.961500 -3.397418 0.120000
v -1.956000 -3.398891 0.180000
v -1.956000 -3.398891 0.120000
v -1.950500 -3.397418 0.180000
v -1.950500 -3.397418 0.120000
v -1.946474 -3.393391 0.180000
v -1.946474 -3.393391 0.120000
v -1.945000 -3.387891 0.180000
v -1.945000 -3.387891 0.120000
v -1.946474 -3.382391 0.180000
v -1.946474 -3.382391 0.120000
v -1.950500 -3.378365 0.180000
v -1.950500 -3.378365 0.120000
vn 0.5000 0.8660 -0.0000
vn 0.8660 -0.5000 -0.0000
vn -0.5000 -0.8660 -0.0000
vn -0.8660 0.5000 -0.0000
vn -0.0000 -0.0000 -1.0000
vn -0.0000 -0.0000 1.0000
vn 0.0566 -0.0327 0.9979
vn 0.1689 -0.0975 0.9808
vn 0.2784 -0.1608 0.9469
vn 0.3831 -0.2212 0.8969
vn 0.4811 -0.2778 0.8315
vn 0.5709 -0.3297 0.7519
vn 0.6510 -0.3759 0.6594
vn 0.7201 -0.4157 0.5555
vn 0.7768 -0.4484 0.4423
vn 0.8200 -0.4734 0.3216
vn 0.8494 -0.4904 0.1952
vn 0.8641 -0.4990 0.0656
vn 0.8641 -0.4990 -0.0656
vn 0.8494 -0.4904 -0.1949
vn 0.8200 -0.4734 -0.3215
vn 0.7767 -0.4484 -0.4423
vn 0.7201 -0.4157 -0.5555
vn 0.6510 -0.3759 -0.6594
vn 0.5709 -0.3296 -0.7519
vn 0.4811 -0.2778 -0.8315
vn 0.3830 -0.2212 -0.8969
vn 0.2784 -0.1608 -0.9469
vn 0.1689 -0.0975 -0.9808
vn 0.0566 -0.0327 -0.9979
vn -0.0566 0.0327 -0.9979
vn -0.1689 0.0975 -0.9808
vn -0.2784 0.1607 -0.9469
vn -0.3829 0.2211 -0.8969
vn -0.4812 0.2779 -0.8314
vn -0.5711 0.3297 -0.7517
vn -0.6511 0.3760 -0.6593
vn -0.7201 0.4157 -0.5555
vn -0.7768 0.4484 -0.4422
vn -0.8201 0.4735 -0.3214
vn -0.8494 0.4904 -0.1953
vn -0.8642 0.4989 -0.0653
vn -0.8642 0.4989 0.0655
vn -0.8494 0.4904 0.1952
vn -0.8201 0.4734 0.3214
vn -0.7767 0.4484 0.4423
vn -0.7202 0.4158 0.5554
vn -0.6511 0.3760 0.6593
vn -0.5712 0.3297 0.7517
vn -0.4812 0.2779 0.8314
vn -0.3830 0.2211 0.8969
vn -0.2784 0.1607 0.9469
vn -0.1689 0.0975 0.9808
vn -0.0566 0.0327 0.9979
vn 0.2685 0.0201 0.9631
vn 0.6821 0.1942 0.7050
vn 0.9129 0.3163 0.2580
vn 0.8991 0.3536 -0.2581
vn 0.6444 0.2962 -0.7050
vn 0.2170 0.1594 -0.9631
vn -0.2685 -0.0201 -0.9631
vn -0.6821 -0.1942 -0.7050
vn -0.9129 -0.3163 -0.2580
vn -0.8991 -0.3536 0.2581
vn 0.3458 -0.9352 -0.0769
vn -0.6444 -0.2962 0.7050
vn -0.2170 -0.1594 0.9631
vn -0.3458 0.9352 0.0769
vn 0.1304 -0.2236 0.9659
vn 0.3564 -0.6108 0.7071
vn 0.4868 -0.8343 0.2588
vn 0.4868 -0.8343 -0.2587
vn 0.3563 -0.6107 -0.7071
vn 0.1304 -0.2236 -0.9659
vn -0.1304 0.2236 -0.9659
vn -0.3564 0.6108 -0.7070
vn -0.4868 0.8343 -0.2588
vn -0.4868 0.8343 0.2588
vn -0.8637 -0.5039 -0.0000
vn -0.3563 0.6107 0.7071
vn -0.1304 0.2235 0.9659
vn 0.8637 0.5040 -0.0000
vn -0.1174 -0.7209 0.6830
vn 0.3624 -0.7865 0.5001
vn 0.7450 -0.6415 0.1830
vn 0.9280 -0.3245 -0.1830
vn 0.8624 0.0794 -0.5000
vn 0.5657 0.4621 -0.6830
vn 0.1174 0.7209 -0.6830
vn -0.3624 0.7865 -0.5000
vn -0.7450 0.6414 -0.1830
vn -0.9280 0.3245 0.1830
vn -0.3536 -0.6124 -0.7071
vn -0.8624 -0.0795 0.5000
vn -0.5657 -0.4621 0.6830
vn 0.3535 0.6124 0.7071
vn -0.2588 0.9659 -0.0000
vn -0.7071 0.7071 -0.0000
vn -0.9659 0.2588 -0.0000
vn -0.9659 -0.2589 -0.0000
vn -0.7071 -0.7071 -0.0000
vn -0.2588 -0.9659 -0.0000
vn 0.2588 -0.9659 -0.0000
vn 0.7071 -0.7071 -0.0000
vn 0.9659 -0.2588 -0.0000
vn 0.9659 0.2589 -0.0000
vn 0.7071 0.7071 -0.0000
vn 0.2588 0.9659 -0.0000
vn 0.1690 -0.0975 0.9808
vn 0.2784 -0.1607 0.9469
vn 0.3830 -0.2211 0.8969
vn 0.4812 -0.2778 0.8314
vn 0.5711 -0.3297 0.7518
vn 0.6511 -0.3759 0.6593
vn 0.7767 -0.4485 0.4423
vn 0.8201 -0.4735 0.3213
vn 0.8494 -0.4905 0.1949
vn 0.8642 -0.4989 0.0654
vn 0.8642 -0.4989 -0.0654
vn 0.8493 -0.4904 -0.1952
vn 0.8201 -0.4735 -0.3214
vn 0.7767 -0.4485 -0.4422
vn 0.7202 -0.4158 -0.5554
vn 0.6511 -0.3759 -0.6593
vn 0.5711 -0.3297 -0.7518
vn 0.4812 -0.2778 -0.8314
vn 0.3830 -0.2211 -0.8969
vn 0.2784 -0.1607 -0.9469
vn 0.1690 -0.0976 -0.9808
vn -0.0567 0.0327 -0.9979
vn -0.1689 0.0976 -0.9808
vn -0.3831 0.2212 -0.8968
vn -0.4811 0.2777 -0.8315
vn -0.5708 0.3296 -0.7520
vn -0.6511 0.3759 -0.6594
vn -0.7767 0.4485 -0.4423
vn -0.8494 0.4904 -0.1951
vn -0.8642 0.4989 -0.0656
vn -0.8642 0.4989 0.0654
vn -0.8494 0.4904 0.1950
vn -0.8201 0.4735 0.3214
vn -0.7767 0.4484 0.4424
vn -0.7201 0.4157 0.5555
vn -0.6511 0.3759 0.6593
vn -0.5708 0.3296 0.7520
vn -0.4811 0.2777 0.8315
vn -0.3830 0.2212 0.8969
vn -0.5002 -0.8659 -0.0000
vn -0.4999 -0.8661 0.0014
vn -0.4996 -0.8662 -0.0000
vn -0.4993 -0.8664 -0.0029
vn -0.5010 -0.8655 0.0014
vn -0.4993 -0.8664 -0.0007
vn -0.4995 -0.8663 0.0004
vn -0.4995 -0.8663 -0.0004
vn -0.4994 -0.8664 0.0007
vn -0.5009 -0.8655 -0.0014
vn -0.4992 -0.8665 0.0029
vn -0.5001 -0.8660 -0.0014
vn -0.5003 -0.8659 -0.0000
vn -0.4997 -0.8662 -0.0029
vn -0.5011 -0.8654 -0.0000
vn -0.4983 -0.8670 -0.0014
vn -0.5008 -0.8655 -0.0000
vn -0.4999 -0.8661 -0.0005
vn -0.4999 -0.8661 0.0007
vn -0.5008 -0.8656 -0.0000
vn -0.4986 -0.8668 0.0014
vn -0.4996 -0.8663 0.0029
vn -0.5000 -0.8660 -0.0007
vn -0.5001 -0.8660 -0.0000
vn -0.4997 -0.8662 -0.0000
vn -0.5000 -0.8660 0.0007
vn -0.5000 -0.8661 -0.0000
vn -0.4999 -0.8661 0.0004
vn -0.4999 -0.8661 -0.0004
vn -0.5000 -0.8660 0.0001
vn -0.5000 -0.8660 -0.0002
vn -0.4999 -0.8661 -0.0000
vn -0.5001 -0.8660 0.0001
vn -0.1690 0.0976 0.9808
vn -0.0567 0.0327 0.9979
vn 0.5001 0.8660 -0.0000
vn 0.4992 0.8665 -0.0000
vn 0.4995 0.8663 -0.0000
vn 0.4993 0.8664 0.0014
vn 0.5009 0.8655 -0.0007
vn 0.4996 0.8663 -0.0000
vn 0.5010 0.8655 0.0007
vn 0.4993 0.8664 -0.0014
vn 0.4991 0.8665 -0.0000
vn 0.5002 0.8659 -0.0000
vn 0.5003 0.8659 -0.0000
vn 0.5004 0.8658 -0.0029
vn 0.5007 0.8656 0.0011
vn 0.5013 0.8653 -0.0000
vn 0.5007 0.8656 -0.0014
vn 0.5003 0.8658 0.0029
vn 0.5003 0.8658 -0.0000
vn 0.5001 0.8660 0.0004
vn 0.4999 0.8661 -0.0007
vn 0.4998 0.8661 -0.0002
vn 0.5001 0.8659 -0.0000
vn 0.5002 0.8659 0.0004
vn 0.5003 0.8659 0.0011
vn 0.4997 0.8662 -0.0000
vn 0.4999 0.8661 0.0011
vn 0.5000 0.8660 -0.0001
vn 0.4999 0.8661 -0.0000
vn -0.8991 -0.3536 0.2580
vn 0.3457 -0.9352 -0.0772
vn 0.3458 -0.9352 -0.0770
vn 0.3457 -0.9352 -0.0770
vn 0.3457 -0.9352 -0.0768
vn 0.3457 -0.9352 -0.0769
vn -0.3458 0.9352 0.0765
vn -0.3458 0.9351 0.0770
vn -0.3458 0.9351 0.0771
vn -0.3457 0.9352 0.0771
vn -0.3458 0.9352 0.0768
vn -0.3457 0.9352 0.0769
vn -0.3457 0.9352 0.0770
vn -0.3458 0.9352 0.0770
vn 0.1304 -0.2235 0.9659
vn 0.3563 -0.6107 0.7071
vn 0.4868 -0.8343 -0.2589
vn 0.3564 -0.6108 -0.7071
vn 0.1304 -0.2235 -0.9659
vn -0.1304 0.2235 -0.9659
vn -0.3563 0.6107 -0.7071
vn -0.8638 -0.5039 -0.0000
vn -0.8637 -0.5040 -0.0001
vn -0.8637 -0.5040 0.0001
vn -0.8638 -0.5039 0.0001
vn -0.8637 -0.5040 -0.0000
vn -0.3564 0.6108 0.7070
vn -0.1304 0.2236 0.9659
vn 0.8637 0.5039 0.0001
vn 0.8637 0.5040 -0.0001
vn 0.8637 0.5040 0.0001
vn 0.8638 0.5038 -0.0001
vn 0.8637 0.5039 -0.0000
vn 0.3624 -0.7866 0.4999
vn 0.7450 -0.6414 0.1830
vn 0.8624 0.0795 -0.5000
vn -0.3624 0.7866 -0.5000
vn -0.7450 0.6415 -0.1830
vn -0.3535 -0.6123 -0.7072
vn -0.3535 -0.6124 -0.7071
vn -0.8624 -0.0794 0.5000
vn -0.5656 -0.4621 0.6830
vn 0.3535 0.6123 0.7072
vn 0.3536 0.6125 0.7070
vn 0.3536 0.6123 0.7071
vn 0.3536 0.6124 0.7071
vn -0.9659 0.2589 -0.0000
vn -0.9659 -0.2588 -0.0000
vn 0.9659 -0.2589 -0.0000
vn 0.9659 0.2588 -0.0000
s 0
usemtl steel_grey
f 2//1 3//1 1//1
f 4//2 7//2 3//2
f 8//3 5//3 7//3
f 6//4 1//4 5//4
f 7//5 1//5 3//5
f 8//6 2//6 6//6
f 2//1 4//1 3//1
f 4//2 8//2 7//2
f 8//3 6//3 5//3
f 6//4 2//4 1//4
f 7//5 5//5 1//5
f 8//6 4//6 2//6
usemtl crack
f 10//7 11//7 9//7
f 12//8 13//8 11//8
f 13//9 16//9 15//9
f 15//10 18//10 17//10
f 18//11 19//11 17//11
f 20//12 21//12 19//12
f 21//13 24//13 23//13
f 23//14 26//14 25//14
f 26//15 27//15 25//15
f 28//16 29//16 27//16
f 30//17 31//17 29//17
f 32//18 33//18 31//18
f 33//19 36//19 35//19
f 36//20 37//20 35//20
f 37//21 40//21 39//21
f 39//22 42//22 41//22
f 42//23 43//23 41//23
f 44//24 45//24 43//24
f 45//25 48//25 47//25
f 48//26 49//26 47//26
f 50//27 51//27 49//27
f 52//28 53//28 51//28
f 53//29 56//29 55//29
f 55//30 58//30 57//30
f 58//31 59//31 57//31
f 60//32 61//32 59//32
f 61//33 64//33 63//33
f 63//34 66//34 65//34
f 65//35 68//35 67//35
f 67//36 70//36 69//36
f 69//37 72//37 71//37
f 72//38 73//38 71//38
f 74//39 75//39 73//39
f 76//40 77//40 75//40
f 78//41 79//41 77//41
f 80//42 81//42 79//42
f 82//43 83//43 81//43
f 83//44 86//44 85//44
f 85//45 88//45 87//45
f 87//46 90//46 89//46
f 89//47 92//47 91//47
f 92//48 93//48 91//48
f 94//49 95//49 93//49
f 96//50 97//50 95//50
f 98//51 99//51 97//51
f 100//52 101//52 99//52
f 78//3 46//3 14//3
f 101//53 104//53 103//53
f 103//54 10//54 9//54
f 39//1 71//1 103//1
f 10//7 12//7 11//7
f 12//109 14//109 13//109
f 13//110 14//110 16//110
f 15//111 16//111 18//111
f 18//112 20//112 19//112
f 20//113 22//113 21//113
f 21//114 22//114 24//114
f 23//14 24//14 26//14
f 26//115 28//115 27//115
f 28//116 30//116 29//116
f 30//117 32//117 31//117
f 32//118 34//118 33//118
f 33//119 34//119 36//119
f 36//120 38//120 37//120
f 37//121 38//121 40//121
f 39//122 40//122 42//122
f 42//123 44//123 43//123
f 44//124 46//124 45//124
f 45//125 46//125 48//125
f 48//126 50//126 49//126
f 50//127 52//127 51//127
f 52//128 54//128 53//128
f 53//129 54//129 56//129
f 55//30 56//30 58//30
f 58//130 60//130 59//130
f 60//131 62//131 61//131
f 61//33 62//33 64//33
f 63//132 64//132 66//132
f 65//133 66//133 68//133
f 67//134 68//134 70//134
f 69//135 70//135 72//135
f 72//38 74//38 73//38
f 74//136 76//136 75//136
f 76//40 78//40 77//40
f 78//137 80//137 79//137
f 80//138 82//138 81//138
f 82//139 84//139 83//139
f 83//140 84//140 86//140
f 85//141 86//141 88//141
f 87//142 88//142 90//142
f 89//143 90//143 92//143
f 92//144 94//144 93//144
f 94//145 96//145 95//145
f 96//146 98//146 97//146
f 98//147 100//147 99//147
f 100//52 102//52 101//52
f 14//148 12//148 10//148
f 10//149 104//149 102//149
f 102//150 100//150 98//150
f 98//151 96//151 94//151
f 94//152 92//152 90//152
f 90//153 88//153 86//153
f 86//154 84//154 82//154
f 82//155 80//155 78//155
f 78//156 76//156 74//156
f 74//157 72//157 70//157
f 70//158 68//158 66//158
f 66//150 64//150 62//150
f 62//159 60//159 58//159
f 58//160 56//160 54//160
f 54//161 52//161 50//161
f 50//162 48//162 46//162
f 46//163 44//163 42//163
f 42//164 40//164 38//164
f 38//165 36//165 34//165
f 34//166 32//166 30//166
f 30//167 28//167 26//167
f 26//168 24//168 22//168
f 22//162 20//162 18//162
f 18//169 16//169 14//169
f 14//170 10//170 102//170
f 102//171 98//171 94//171
f 94//172 90//172 86//172
f 86//172 82//172 78//172
f 78//172 74//172 70//172
f 70//171 66//171 62//171
f 62//173 58//173 54//173
f 54//174 50//174 46//174
f 46//175 42//175 38//175
f 38//148 34//148 30//148
f 30//176 26//176 22//176
f 22//174 18//174 14//174
f 14//3 102//3 94//3
f 94//171 86//171 78//171
f 78//177 70//177 62//177
f 62//178 54//178 46//178
f 46//179 38//179 30//179
f 30//180 22//180 14//180
f 14//3 94//3 78//3
f 78//3 62//3 46//3
f 46//3 30//3 14//3
f 101//181 102//181 104//181
f 103//182 104//182 10//182
f 103//183 9//183 11//183
f 11//183 13//183 15//183
f 15//184 17//184 19//184
f 19//185 21//185 23//185
f 23//186 25//186 27//186
f 27//187 29//187 31//187
f 31//188 33//188 35//188
f 35//189 37//189 39//189
f 39//190 41//190 43//190
f 43//185 45//185 47//185
f 47//191 49//191 51//191
f 51//183 53//183 55//183
f 55//192 57//192 59//192
f 59//192 61//192 63//192
f 63//193 65//193 67//193
f 67//194 69//194 71//194
f 71//183 73//183 75//183
f 75//195 77//195 79//195
f 79//196 81//196 83//196
f 83//197 85//197 87//197
f 87//1 89//1 91//1
f 91//198 93//198 95//198
f 95//199 97//199 99//199
f 99//193 101//193 103//193
f 103//200 11//200 15//200
f 15//201 19//201 23//201
f 23//202 27//202 31//202
f 31//183 35//183 39//183
f 39//203 43//203 47//203
f 47//204 51//204 55//204
f 55//1 59//1 63//1
f 63//205 67//205 71//205
f 71//183 75//183 79//183
f 79//206 83//206 87//206
f 87//188 91//188 95//188
f 95//207 99//207 103//207
f 103//208 15//208 23//208
f 23//1 31//1 39//1
f 39//208 47//208 55//208
f 55//1 63//1 71//1
f 71//209 79//209 87//209
f 87//208 95//208 103//208
f 103//1 23//1 39//1
f 39//1 55//1 71//1
f 71//1 87//1 103//1
usemtl copper
f 106//55 107//55 105//55
f 107//56 110//56 109//56
f 109//57 112//57 111//57
f 111//58 114//58 113//58
f 114//59 115//59 113//59
f 116//60 117//60 115//60
f 117//61 120//61 119//61
f 120//62 121//62 119//62
f 122//63 123//63 121//63
f 124//64 125//64 123//64
f 126//65 118//65 110//65
f 125//66 128//66 127//66
f 127//67 106//67 105//67
f 111//68 119//68 127//68
f 130//69 131//69 129//69
f 132//70 133//70 131//70
f 134//71 135//71 133//71
f 136//72 137//72 135//72
f 138//73 139//73 137//73
f 139//74 142//74 141//74
f 142//75 143//75 141//75
f 144//76 145//76 143//76
f 146//77 147//77 145//77
f 148//78 149//78 147//78
f 150//79 142//79 134//79
f 150//80 151//80 149//80
f 152//81 129//81 151//81
f 135//82 143//82 151//82
f 153//83 156//83 155//83
f 156//84 157//84 155//84
f 158//85 159//85 157//85
f 159//86 162//86 161//86
f 162//87 163//87 161//87
f 164//88 165//88 163//88
f 166//89 167//89 165//89
f 168//90 169//90 167//90
f 169//91 172//91 171//91
f 171//92 174//92 173//92
f 174//93 166//93 158//93
f 173//94 176//94 175//94
f 176//95 153//95 175//95
f 159//96 167//96 175//96
f 177//97 180//97 179//97
f 180//98 181//98 179//98
f 182//99 183//99 181//99
f 184//100 185//100 183//100
f 186//101 187//101 185//101
f 188//102 189//102 187//102
f 190//103 191//103 189//103
f 192//104 193//104 191//104
f 194//105 195//105 193//105
f 196//106 197//106 195//106
f 198//5 190//5 182//5
f 198//107 199//107 197//107
f 200//108 177//108 199//108
f 183//6 191//6 199//6
f 106//55 108//55 107//55
f 107//56 108//56 110//56
f 109//57 110//57 112//57
f 111//58 112//58 114//58
f 114//59 116//59 115//59
f 116//60 118//60 117//60
f 117//61 118//61 120//61
f 120//62 122//62 121//62
f 122//63 124//63 123//63
f 124//210 126//210 125//210
f 110//211 108//211 106//211
f 106//212 128//212 126//212
f 126//213 124//213 122//213
f 122//214 120//214 118//214
f 118//65 116//65 114//65
f 114//215 112//215 110//215
f 110//215 106//215 126//215
f 126//215 122//215 118//215
f 118//212 114//212 110//212
f 125//66 126//66 128//66
f 127//67 128//67 106//67
f 127//216 105//216 107//216
f 107//217 109//217 111//217
f 111//218 113//218 115//218
f 115//219 117//219 119//219
f 119//220 121//220 123//220
f 123//221 125//221 127//221
f 127//222 107//222 111//222
f 111//221 115//221 119//221
f 119//223 123//223 127//223
f 130//224 132//224 131//224
f 132//225 134//225 133//225
f 134//71 136//71 135//71
f 136//226 138//226 137//226
f 138//227 140//227 139//227
f 139//228 140//228 142//228
f 142//229 144//229 143//229
f 144//230 146//230 145//230
f 146//77 148//77 147//77
f 148//78 150//78 149//78
f 134//231 132//231 130//231
f 130//232 152//232 150//232
f 150//79 148//79 146//79
f 146//233 144//233 142//233
f 142//234 140//234 138//234
f 138//235 136//235 134//235
f 134//79 130//79 150//79
f 150//235 146//235 142//235
f 142//79 138//79 134//79
f 150//236 152//236 151//236
f 152//237 130//237 129//237
f 151//238 129//238 131//238
f 131//82 133//82 135//82
f 135//82 137//82 139//82
f 139//239 141//239 143//239
f 143//240 145//240 147//240
f 147//241 149//241 151//241
f 151//242 131//242 135//242
f 135//242 139//242 143//242
f 143//82 147//82 151//82
f 153//83 154//83 156//83
f 156//243 158//243 157//243
f 158//244 160//244 159//244
f 159//86 160//86 162//86
f 162//245 164//245 163//245
f 164//88 166//88 165//88
f 166//89 168//89 167//89
f 168//246 170//246 169//246
f 169//247 170//247 172//247
f 171//92 172//92 174//92
f 158//248 156//248 154//248
f 154//248 176//248 174//248
f 174//249 172//249 170//249
f 170//93 168//93 166//93
f 166//93 164//93 162//93
f 162//93 160//93 158//93
f 158//93 154//93 174//93
f 174//249 170//249 166//249
f 166//93 162//93 158//93
f 173//250 174//250 176//250
f 176//251 154//251 153//251
f 175//252 153//252 155//252
f 155//253 157//253 159//253
f 159//254 161//254 163//254
f 163//255 165//255 167//255
f 167//96 169//96 171//96
f 171//254 173//254 175//254
f 175//255 155//255 159//255
f 159//255 163//255 167//255
f 167//255 171//255 175//255
f 177//97 178//97 180//97
f 180//98 182//98 181//98
f 182//256 184//256 183//256
f 184//257 186//257 185//257
f 186//101 188//101 187//101
f 188//102 190//102 189//102
f 190//103 192//103 191//103
f 192//104 194//104 193//104
f 194//258 196//258 195//258
f 196//259 198//259 197//259
f 182//5 180//5 178//5
f 178//5 200//5 198//5
f 198//5 196//5 194//5
f 194//5 192//5 190//5
f 190//5 188//5 186//5
f 186//5 184//5 182//5
f 182//5 178//5 198//5
f 198//5 194//5 190//5
f 190//5 186//5 182//5
f 198//107 200//107 199//107
f 200//108 178//108 177//108
f 199//6 177//6 179//6
f 179//6 181//6 183//6
f 183//6 185//6 187//6
f 187//6 189//6 191//6
f 191//6 193//6 195//6
f 195//6 197//6 199//6
f 199//6 179//6 183//6
f 183//6 187//6 191//6
f 191//6 195//6 199//6
