# Blender 5.2.2 LTS
# www.blender.org
mtllib earthing_ok.mtl
o earthing_ok
v -1.979641 -3.348839 0.020000
v -1.979641 -3.348839 0.160000
v -1.910359 -3.388839 0.020000
v -1.910359 -3.388839 0.160000
v -2.029641 -3.435441 0.020000
v -2.029641 -3.435441 0.160000
v -1.960359 -3.475441 0.020000
v -1.960359 -3.475441 0.160000
v -1.665000 -2.883865 0.378000
v -1.675000 -2.901185 0.378000
v -1.651500 -2.891659 0.369000
v -1.661500 -2.908979 0.369000
v -1.651500 -2.891659 0.351000
v -1.661500 -2.908979 0.351000
v -1.665000 -2.883865 0.342000
v -1.675000 -2.901185 0.342000
v -1.678500 -2.876070 0.351000
v -1.688500 -2.893391 0.351000
v -1.678500 -2.876070 0.369000
v -1.688500 -2.893391 0.369000
v -1.671408 -2.894964 0.362003
v -1.681408 -2.912284 0.254003
v -1.665920 -2.896459 0.361735
v -1.675920 -2.913779 0.253735
v -1.660454 -2.895044 0.361001
v -1.670454 -2.912364 0.253001
v -1.656474 -2.891097 0.360000
v -1.666474 -2.908417 0.252000
v -1.655046 -2.885677 0.358999
v -1.665046 -2.902997 0.250998
v -1.656553 -2.880235 0.358265
v -1.666553 -2.897555 0.250265
v -1.660592 -2.876230 0.357997
v -1.670592 -2.893550 0.249997
v -1.666080 -2.874735 0.358265
v -1.676080 -2.892055 0.250265
v -1.671546 -2.876150 0.358999
v -1.681546 -2.893471 0.250998
v -1.675526 -2.880097 0.360000
v -1.685526 -2.897417 0.252000
v -1.676954 -2.885517 0.361001
v -1.686954 -2.902838 0.253001
v -1.675447 -2.890959 0.361735
v -1.685447 -2.908279 0.253735
v -1.676000 -2.902917 0.263000
v -1.920000 -3.325537 0.263000
v -1.671237 -2.905667 0.261526
v -1.915237 -3.328287 0.261526
v -1.667750 -2.907680 0.257500
v -1.911750 -3.330301 0.257500
v -1.666474 -2.908417 0.252000
v -1.910474 -3.331038 0.252000
v -1.667750 -2.907680 0.246500
v -1.911750 -3.330301 0.246500
v -1.671237 -2.905667 0.242474
v -1.915237 -3.328287 0.242474
v -1.676000 -2.902917 0.241000
v -1.920000 -3.325537 0.241000
v -1.680763 -2.900167 0.242474
v -1.924763 -3.322788 0.242474
v -1.684250 -2.898154 0.246500
v -1.928250 -3.320774 0.246500
v -1.685526 -2.897417 0.252000
v -1.929526 -3.320037 0.252000
v -1.684250 -2.898154 0.257500
v -1.928250 -3.320774 0.257500
v -1.680763 -2.900167 0.261526
v -1.924763 -3.322788 0.261526
v -1.923889 -3.332273 0.259778
v -1.959889 -3.394627 0.187778
v -1.918605 -3.334121 0.258736
v -1.954605 -3.396475 0.186736
v -1.913695 -3.333668 0.255889
v -1.949695 -3.396022 0.183889
v -1.910474 -3.331037 0.252000
v -1.946474 -3.393391 0.180000
v -1.909805 -3.326932 0.248111
v -1.945805 -3.389286 0.176111
v -1.911869 -3.322454 0.245264
v -1.947869 -3.384808 0.173264
v -1.916111 -3.318801 0.244222
v -1.952111 -3.381155 0.172222
v -1.921395 -3.316954 0.245264
v -1.957395 -3.379308 0.173264
v -1.926305 -3.317406 0.248111
v -1.962305 -3.379760 0.176111
v -1.929526 -3.320037 0.252000
v -1.965526 -3.382391 0.180000
v -1.930194 -3.324142 0.255889
v -1.966195 -3.386496 0.183889
v -1.928131 -3.328621 0.258736
v -1.964131 -3.390975 0.186736
v -1.956000 -3.376891 0.180000
v -1.956000 -3.376891 0.120000
v -1.961500 -3.378365 0.180000
v -1.961500 -3.378365 0.120000
v -1.965526 -3.382391 0.180000
v -1.965526 -3.382391 0.120000
v -1.967000 -3.387891 0.180000
v -1.967000 -3.387891 0.120000
v -1.965526 -3.393391 0.180000
v -1.965526 -3.393391 0.120000
v -1.961500 -3.397418 0.180000
v -1.961500 -3.397418 0.120000
v -1.956000 -3.398891 0.180000
v -1.956000 -3.398891 0.120000
v -1.950500 -3.397418 0.180000
v -1.950500 -3.397418 0.120000
v -1.946474 -3.393391 0.180000
v -1.946474 -3.393391 0.120000
v -1.945000 -3.387891 0.180000
v -1.945000 -3.387891 0.120000
v -1.946474 -3.382391 0.180000
v -1.946474 -3.382391 0.120000
v -1.950500 -3.378365 0.180000
v -1.950500 -3.378365 0.120000
vn 0.5000 0.8660 -0.0000
vn 0.8660 -0.5000 -0.0000
vn -0.5000 -0.8660 -0.0000
vn -0.8660 0.5000 -0.0000
vn -0.0000 -0.0000 -1.0000
vn -0.0000 -0.0000 1.0000
vn 0.4330 -0.2500 0.8660
vn 0.4330 -0.2500 -0.8660
vn -0.4330 0.2500 -0.8660
vn -0.4330 0.2500 0.8660
vn -0.2507 -0.9520 0.1759
vn 0.2647 -0.9557 0.1288
vn 0.7093 -0.7034 0.0471
vn 0.9638 -0.2626 -0.0471
vn 0.9600 0.2485 -0.1288
vn 0.6990 0.6931 -0.1759
vn 0.2507 0.9519 -0.1759
vn -0.2647 0.9557 -0.1288
vn -0.7093 0.7033 -0.0471
vn -0.9637 0.2626 0.0471
vn -0.0910 -0.1577 -0.9833
vn -0.9600 -0.2486 0.1288
vn -0.6990 -0.6931 0.1759
vn 0.0910 0.1577 0.9833
vn 0.2241 -0.1294 0.9659
vn 0.6124 -0.3535 0.7071
vn 0.8365 -0.4830 0.2589
vn 0.8365 -0.4830 -0.2588
vn 0.6124 -0.3536 -0.7071
vn 0.2241 -0.1294 -0.9659
vn -0.2242 0.1294 -0.9659
vn -0.6124 0.3536 -0.7071
vn -0.8365 0.4830 -0.2588
vn -0.8365 0.4830 0.2588
vn -0.6124 0.3536 0.7071
vn -0.2242 0.1294 0.9659
vn -0.1174 -0.7209 0.6830
vn 0.3624 -0.7865 0.5001
vn 0.7450 -0.6415 0.1830
vn 0.9280 -0.3245 -0.1830
vn 0.8624 0.0794 -0.5000
vn 0.5657 0.4621 -0.6830
vn 0.1174 0.7209 -0.6830
vn -0.3624 0.7865 -0.5000
vn -0.7450 0.6414 -0.1830
vn -0.9280 0.3245 0.1830
vn -0.3536 -0.6124 -0.7071
vn -0.8624 -0.0795 0.5000
vn -0.5657 -0.4621 0.6830
vn 0.3535 0.6124 0.7071
vn -0.2588 0.9659 -0.0000
vn -0.7071 0.7071 -0.0000
vn -0.9659 0.2588 -0.0000
vn -0.9659 -0.2589 -0.0000
vn -0.7071 -0.7071 -0.0000
vn -0.2588 -0.9659 -0.0000
vn 0.2588 -0.9659 -0.0000
vn 0.7071 -0.7071 -0.0000
vn 0.9659 -0.2588 -0.0000
vn 0.9659 0.2589 -0.0000
vn 0.7071 0.7071 -0.0000
vn 0.2588 0.9659 -0.0000
vn -0.2507 -0.9519 0.1759
vn 0.7093 -0.7033 0.0471
vn 0.9600 0.2486 -0.1288
vn -0.7093 0.7034 -0.0471
vn -0.9638 0.2626 0.0471
vn -0.0911 -0.1577 -0.9833
vn -0.9600 -0.2486 0.1287
vn 0.0911 0.1577 0.9833
vn 0.6124 -0.3536 0.7071
vn 0.8365 -0.4830 0.2588
vn 0.6124 -0.3535 -0.7071
vn -0.2241 0.1294 -0.9659
vn -0.8365 0.4830 0.2589
vn -0.5000 -0.8660 0.0002
vn -0.5001 -0.8660 -0.0000
vn -0.5000 -0.8660 -0.0001
vn -0.2241 0.1294 0.9659
vn 0.3624 -0.7866 0.4999
vn 0.7450 -0.6414 0.1830
vn 0.8624 0.0795 -0.5000
vn -0.3624 0.7866 -0.5000
vn -0.7450 0.6415 -0.1830
vn -0.3535 -0.6123 -0.7072
vn -0.3535 -0.6124 -0.7071
vn -0.8624 -0.0794 0.5000
vn -0.5656 -0.4621 0.6830
vn 0.3535 0.6123 0.7072
vn 0.3536 0.6125 0.7070
vn 0.3536 0.6123 0.7071
vn 0.3536 0.6124 0.7071
vn -0.9659 0.2589 -0.0000
vn -0.9659 -0.2588 -0.0000
vn 0.9659 -0.2589 -0.0000
vn 0.9659 0.2588 -0.0000
s 0
usemtl steel_grey
f 2//1 3//1 1//1
f 4//2 7//2 3//2
f 8//3 5//3 7//3
f 6//4 1//4 5//4
f 7//5 1//5 3//5
f 8//6 2//6 6//6
f 2//1 4//1 3//1
f 4//2 8//2 7//2
f 8//3 6//3 5//3
f 6//4 2//4 1//4
f 7//5 5//5 1//5
f 8//6 4//6 2//6
usemtl bolt_black
f 10//7 11//7 9//7
f 12//2 13//2 11//2
f 13//8 16//8 15//8
f 16//9 17//9 15//9
f 10//3 18//3 14//3
f 18//4 19//4 17//4
f 20//10 9//10 19//10
f 11//1 15//1 19//1
f 10//7 12//7 11//7
f 12//2 14//2 13//2
f 13//8 14//8 16//8
f 16//9 18//9 17//9
f 14//3 12//3 10//3
f 10//3 20//3 18//3
f 18//3 16//3 14//3
f 18//4 20//4 19//4
f 20//10 10//10 9//10
f 19//1 9//1 11//1
f 11//1 13//1 15//1
f 15//1 17//1 19//1
usemtl copper
f 21//11 24//11 23//11
f 24//12 25//12 23//12
f 26//13 27//13 25//13
f 28//14 29//14 27//14
f 29//15 32//15 31//15
f 31//16 34//16 33//16
f 34//17 35//17 33//17
f 35//18 38//18 37//18
f 37//19 40//19 39//19
f 39//20 42//20 41//20
f 42//21 34//21 26//21
f 42//22 43//22 41//22
f 44//23 21//23 43//23
f 27//24 35//24 43//24
f 45//25 48//25 47//25
f 47//26 50//26 49//26
f 50//27 51//27 49//27
f 52//28 53//28 51//28
f 53//29 56//29 55//29
f 56//30 57//30 55//30
f 58//31 59//31 57//31
f 60//32 61//32 59//32
f 61//33 64//33 63//33
f 64//34 65//34 63//34
f 66//3 58//3 50//3
f 66//35 67//35 65//35
f 67//36 46//36 45//36
f 51//1 59//1 67//1
f 69//37 72//37 71//37
f 72//38 73//38 71//38
f 74//39 75//39 73//39
f 75//40 78//40 77//40
f 78//41 79//41 77//41
f 80//42 81//42 79//42
f 82//43 83//43 81//43
f 84//44 85//44 83//44
f 85//45 88//45 87//45
f 87//46 90//46 89//46
f 90//47 82//47 74//47
f 89//48 92//48 91//48
f 92//49 69//49 91//49
f 75//50 83//50 91//50
f 93//51 96//51 95//51
f 96//52 97//52 95//52
f 98//53 99//53 97//53
f 100//54 101//54 99//54
f 102//55 103//55 101//55
f 104//56 105//56 103//56
f 106//57 107//57 105//57
f 108//58 109//58 107//58
f 110//59 111//59 109//59
f 112//60 113//60 111//60
f 114//5 106//5 98//5
f 114//61 115//61 113//61
f 116//62 93//62 115//62
f 99//6 107//6 115//6
f 21//63 22//63 24//63
f 24//12 26//12 25//12
f 26//64 28//64 27//64
f 28//14 30//14 29//14
f 29//65 30//65 32//65
f 31//16 32//16 34//16
f 34//17 36//17 35//17
f 35//18 36//18 38//18
f 37//66 38//66 40//66
f 39//67 40//67 42//67
f 26//21 24//21 22//21
f 22//21 44//21 42//21
f 42//21 40//21 38//21
f 38//21 36//21 34//21
f 34//68 32//68 30//68
f 30//21 28//21 26//21
f 26//21 22//21 42//21
f 42//21 38//21 34//21
f 34//68 30//68 26//68
f 42//69 44//69 43//69
f 44//23 22//23 21//23
f 43//24 21//24 23//24
f 23//24 25//24 27//24
f 27//24 29//24 31//24
f 31//24 33//24 35//24
f 35//70 37//70 39//70
f 39//70 41//70 43//70
f 43//24 23//24 27//24
f 27//24 31//24 35//24
f 35//24 39//24 43//24
f 45//25 46//25 48//25
f 47//71 48//71 50//71
f 50//72 52//72 51//72
f 52//28 54//28 53//28
f 53//73 54//73 56//73
f 56//30 58//30 57//30
f 58//74 60//74 59//74
f 60//32 62//32 61//32
f 61//33 62//33 64//33
f 64//75 66//75 65//75
f 50//76 48//76 46//76
f 46//3 68//3 66//3
f 66//77 64//77 62//77
f 62//3 60//3 58//3
f 58//78 56//78 54//78
f 54//3 52//3 50//3
f 50//3 46//3 66//3
f 66//3 62//3 58//3
f 58//3 54//3 50//3
f 66//35 68//35 67//35
f 67//79 68//79 46//79
f 67//1 45//1 47//1
f 47//1 49//1 51//1
f 51//1 53//1 55//1
f 55//1 57//1 59//1
f 59//1 61//1 63//1
f 63//1 65//1 67//1
f 67//1 47//1 51//1
f 51//1 55//1 59//1
f 59//1 63//1 67//1
f 69//37 70//37 72//37
f 72//80 74//80 73//80
f 74//81 76//81 75//81
f 75//40 76//40 78//40
f 78//82 80//82 79//82
f 80//42 82//42 81//42
f 82//43 84//43 83//43
f 84//83 86//83 85//83
f 85//84 86//84 88//84
f 87//46 88//46 90//46
f 74//85 72//85 70//85
f 70//85 92//85 90//85
f 90//86 88//86 86//86
f 86//47 84//47 82//47
f 82//47 80//47 78//47
f 78//47 76//47 74//47
f 74//47 70//47 90//47
f 90//86 86//86 82//86
f 82//47 78//47 74//47
f 89//87 90//87 92//87
f 92//88 70//88 69//88
f 91//89 69//89 71//89
f 71//90 73//90 75//90
f 75//91 77//91 79//91
f 79//92 81//92 83//92
f 83//50 85//50 87//50
f 87//91 89//91 91//91
f 91//92 71//92 75//92
f 75//92 79//92 83//92
f 83//92 87//92 91//92
f 93//51 94//51 96//51
f 96//52 98//52 97//52
f 98//93 100//93 99//93
f 100//94 102//94 101//94
f 102//55 104//55 103//55
f 104//56 106//56 105//56
f 106//57 108//57 107//57
f 108//58 110//58 109//58
f 110//95 112//95 111//95
f 112//96 114//96 113//96
f 98//5 96//5 94//5
f 94//5 116//5 114//5
f 114//5 112//5 110//5
f 110//5 108//5 106//5
f 106//5 104//5 102//5
f 102//5 100//5 98//5
f 98//5 94//5 114//5
f 114//5 110//5 106//5
f 106//5 102//5 98//5
f 114//61 116//61 115//61
f 116//62 94//62 93//62
f 115//6 93//6 95//6
f 95//6 97//6 99//6
f 99//6 101//6 103//6
f 103//6 105//6 107//6
f 107//6 109//6 111//6
f 111//6 113//6 115//6
f 115//6 95//6 99//6
f 99//6 103//6 107//6
f 107//6 111//6 115//6
