# Blender 5.2.2 LTS
# www.blender.org
mtllib entrance_stairs.mtl
o entrance_stairs
v -0.700000 -4.342333 0.880000
v -0.700000 -4.342333 0.960000
v -0.700000 -2.942333 0.880000
v -0.700000 -2.942333 0.960000
v 0.700000 -4.342333 0.880000
v 0.700000 -4.342333 0.960000
v 0.700000 -2.942333 0.880000
v 0.700000 -2.942333 0.960000
v -0.650000 -4.332333 -0.300000
v -0.650000 -4.332333 0.880000
v -0.670000 -4.326974 -0.300000
v -0.670000 -4.326974 0.880000
v -0.684641 -4.312333 -0.300000
v -0.684641 -4.312333 0.880000
v -0.690000 -4.292333 -0.300000
v -0.690000 -4.292333 0.880000
v -0.684641 -4.272333 -0.300000
v -0.684641 -4.272333 0.880000
v -0.670000 -4.257692 -0.300000
v -0.670000 -4.257692 0.880000
v -0.650000 -4.252333 -0.300000
v -0.650000 -4.252333 0.880000
v -0.630000 -4.257692 -0.300000
v -0.630000 -4.257692 0.880000
v -0.615359 -4.272333 -0.300000
v -0.615359 -4.272333 0.880000
v -0.610000 -4.292333 -0.300000
v -0.610000 -4.292333 0.880000
v -0.615359 -4.312333 -0.300000
v -0.615359 -4.312333 0.880000
v -0.630000 -4.326974 -0.300000
v -0.630000 -4.326974 0.880000
v -0.650000 -3.082333 -0.300000
v -0.650000 -3.082333 0.880000
v -0.670000 -3.076974 -0.300000
v -0.670000 -3.076974 0.880000
v -0.684641 -3.062333 -0.300000
v -0.684641 -3.062333 0.880000
v -0.690000 -3.042333 -0.300000
v -0.690000 -3.042333 0.880000
v -0.684641 -3.022333 -0.300000
v -0.684641 -3.022333 0.880000
v -0.670000 -3.007692 -0.300000
v -0.670000 -3.007692 0.880000
v -0.650000 -3.002333 -0.300000
v -0.650000 -3.002333 0.880000
v -0.630000 -3.007692 -0.300000
v -0.630000 -3.007692 0.880000
v -0.615359 -3.022333 -0.300000
v -0.615359 -3.022333 0.880000
v -0.610000 -3.042333 -0.300000
v -0.610000 -3.042333 0.880000
v -0.615359 -3.062333 -0.300000
v -0.615359 -3.062333 0.880000
v -0.630000 -3.076974 -0.300000
v -0.630000 -3.076974 0.880000
v 0.650000 -4.332333 -0.300000
v 0.650000 -4.332333 0.880000
v 0.630000 -4.326974 -0.300000
v 0.630000 -4.326974 0.880000
v 0.615359 -4.312333 -0.300000
v 0.615359 -4.312333 0.880000
v 0.610000 -4.292333 -0.300000
v 0.610000 -4.292333 0.880000
v 0.615359 -4.272333 -0.300000
v 0.615359 -4.272333 0.880000
v 0.630000 -4.257692 -0.300000
v 0.630000 -4.257692 0.880000
v 0.650000 -4.252333 -0.300000
v 0.650000 -4.252333 0.880000
v 0.670000 -4.257692 -0.300000
v 0.670000 -4.257692 0.880000
v 0.684641 -4.272333 -0.300000
v 0.684641 -4.272333 0.880000
v 0.690000 -4.292333 -0.300000
v 0.690000 -4.292333 0.880000
v 0.684641 -4.312333 -0.300000
v 0.684641 -4.312333 0.880000
v 0.670000 -4.326974 -0.300000
v 0.670000 -4.326974 0.880000
v 0.650000 -3.082333 -0.300000
v 0.650000 -3.082333 0.880000
v 0.630000 -3.076974 -0.300000
v 0.630000 -3.076974 0.880000
v 0.615359 -3.062333 -0.300000
v 0.615359 -3.062333 0.880000
v 0.610000 -3.042333 -0.300000
v 0.610000 -3.042333 0.880000
v 0.615359 -3.022333 -0.300000
v 0.615359 -3.022333 0.880000
v 0.630000 -3.007692 -0.300000
v 0.630000 -3.007692 0.880000
v 0.650000 -3.002333 -0.300000
v 0.650000 -3.002333 0.880000
v 0.670000 -3.007692 -0.300000
v 0.670000 -3.007692 0.880000
v 0.684641 -3.022333 -0.300000
v 0.684641 -3.022333 0.880000
v 0.690000 -3.042333 -0.300000
v 0.690000 -3.042333 0.880000
v 0.684641 -3.062333 -0.300000
v 0.684641 -3.062333 0.880000
v 0.670000 -3.076974 -0.300000
v 0.670000 -3.076974 0.880000
v -0.600000 -6.022333 -0.160000
v -0.600000 -6.022333 -0.120000
v -0.600000 -5.742333 -0.160000
v -0.600000 -5.742333 -0.120000
v 0.600000 -6.022333 -0.160000
v 0.600000 -6.022333 -0.120000
v 0.600000 -5.742333 -0.160000
v 0.600000 -5.742333 -0.120000
v -0.600000 -5.742333 0.020000
v -0.600000 -5.742333 0.060000
v -0.600000 -5.462334 0.020000
v -0.600000 -5.462334 0.060000
v 0.600000 -5.742333 0.020000
v 0.600000 -5.742333 0.060000
v 0.600000 -5.462334 0.020000
v 0.600000 -5.462334 0.060000
v -0.600000 -5.462333 0.200000
v -0.600000 -5.462333 0.240000
v -0.600000 -5.182333 0.200000
v -0.600000 -5.182333 0.240000
v 0.600000 -5.462333 0.200000
v 0.600000 -5.462333 0.240000
v 0.600000 -5.182333 0.200000
v 0.600000 -5.182333 0.240000
v -0.600000 -5.182333 0.380000
v -0.600000 -5.182333 0.420000
v -0.600000 -4.902333 0.380000
v -0.600000 -4.902333 0.420000
v 0.600000 -5.182333 0.380000
v 0.600000 -5.182333 0.420000
v 0.600000 -4.902333 0.380000
v 0.600000 -4.902333 0.420000
v -0.600000 -4.902333 0.560000
v -0.600000 -4.902333 0.600000
v -0.600000 -4.622334 0.560000
v -0.600000 -4.622334 0.600000
v 0.600000 -4.902333 0.560000
v 0.600000 -4.902333 0.600000
v 0.600000 -4.622334 0.560000
v 0.600000 -4.622334 0.600000
v -0.600000 -4.622333 0.740000
v -0.600000 -4.622333 0.780000
v -0.600000 -4.342333 0.740000
v -0.600000 -4.342333 0.780000
v 0.600000 -4.622333 0.740000
v 0.600000 -4.622333 0.780000
v 0.600000 -4.342333 0.740000
v 0.600000 -4.342333 0.780000
v -0.620000 -6.039379 -0.225313
v -0.620000 -4.359379 0.934687
v -0.635000 -6.037095 -0.228620
v -0.635000 -4.357095 0.931379
v -0.645981 -6.030856 -0.237657
v -0.645981 -4.350856 0.922343
v -0.650000 -6.022333 -0.250000
v -0.650000 -4.342333 0.910000
v -0.645981 -6.013810 -0.262343
v -0.645981 -4.333810 0.897657
v -0.635000 -6.007571 -0.271379
v -0.635000 -4.327571 0.888620
v -0.620000 -6.005287 -0.274687
v -0.620000 -4.325287 0.885313
v -0.605000 -6.007571 -0.271379
v -0.605000 -4.327571 0.888620
v -0.594019 -6.013810 -0.262343
v -0.594019 -4.333810 0.897657
v -0.590000 -6.022333 -0.250000
v -0.590000 -4.342333 0.910000
v -0.594019 -6.030856 -0.237657
v -0.594019 -4.350856 0.922343
v -0.605000 -6.037095 -0.228620
v -0.605000 -4.357095 0.931379
v -0.620000 -6.035533 0.717600
v -0.620000 -4.355533 1.977600
v -0.631000 -6.033764 0.715242
v -0.631000 -4.353765 1.975242
v -0.639053 -6.028933 0.708800
v -0.639053 -4.348933 1.968800
v -0.642000 -6.022333 0.700000
v -0.642000 -4.342333 1.960000
v -0.639053 -6.015733 0.691200
v -0.639053 -4.335733 1.951200
v -0.631000 -6.010901 0.684758
v -0.631000 -4.330902 1.944758
v -0.620000 -6.009133 0.682400
v -0.620000 -4.329133 1.942400
v -0.609000 -6.010901 0.684758
v -0.609000 -4.330902 1.944758
v -0.600947 -6.015733 0.691200
v -0.600947 -4.335733 1.951200
v -0.598000 -6.022333 0.700000
v -0.598000 -4.342333 1.960000
v -0.600947 -6.028933 0.708800
v -0.600947 -4.348933 1.968800
v -0.609000 -6.033764 0.715242
v -0.609000 -4.353765 1.975242
v -0.620000 -4.342333 1.982000
v -0.620000 -2.992333 1.982000
v -0.631000 -4.342333 1.979053
v -0.631000 -2.992333 1.979053
v -0.639053 -4.342333 1.971000
v -0.639053 -2.992333 1.971000
v -0.642000 -4.342333 1.960000
v -0.642000 -2.992333 1.960000
v -0.639053 -4.342333 1.949000
v -0.639053 -2.992333 1.949000
v -0.631000 -4.342333 1.940948
v -0.631000 -2.992333 1.940948
v -0.620000 -4.342333 1.938000
v -0.620000 -2.992333 1.938000
v -0.609000 -4.342333 1.940948
v -0.609000 -2.992333 1.940948
v -0.600947 -4.342333 1.949000
v -0.600947 -2.992333 1.949000
v -0.598000 -4.342333 1.960000
v -0.598000 -2.992333 1.960000
v -0.600947 -4.342333 1.971000
v -0.600947 -2.992333 1.971000
v -0.609000 -4.342333 1.979053
v -0.609000 -2.992333 1.979053
v -0.620000 -6.042333 -0.300000
v -0.620000 -6.042333 0.700000
v -0.630000 -6.039654 -0.300000
v -0.630000 -6.039654 0.700000
v -0.637321 -6.032333 -0.300000
v -0.637321 -6.032333 0.700000
v -0.640000 -6.022333 -0.300000
v -0.640000 -6.022333 0.700000
v -0.637321 -6.012333 -0.300000
v -0.637321 -6.012333 0.700000
v -0.630000 -6.005013 -0.300000
v -0.630000 -6.005013 0.700000
v -0.620000 -6.002333 -0.300000
v -0.620000 -6.002333 0.700000
v -0.610000 -6.005013 -0.300000
v -0.610000 -6.005013 0.700000
v -0.602679 -6.012333 -0.300000
v -0.602679 -6.012333 0.700000
v -0.600000 -6.022333 -0.300000
v -0.600000 -6.022333 0.700000
v -0.602679 -6.032333 -0.300000
v -0.602679 -6.032333 0.700000
v -0.610000 -6.039654 -0.300000
v -0.610000 -6.039654 0.700000
v -0.620000 -4.362333 0.960000
v -0.620000 -4.362333 1.960000
v -0.630000 -4.359654 0.960000
v -0.630000 -4.359654 1.960000
v -0.637321 -4.352334 0.960000
v -0.637321 -4.352334 1.960000
v -0.640000 -4.342333 0.960000
v -0.640000 -4.342333 1.960000
v -0.637321 -4.332333 0.960000
v -0.637321 -4.332333 1.960000
v -0.630000 -4.325013 0.960000
v -0.630000 -4.325013 1.960000
v -0.620000 -4.322333 0.960000
v -0.620000 -4.322333 1.960000
v -0.610000 -4.325013 0.960000
v -0.610000 -4.325013 1.960000
v -0.602679 -4.332333 0.960000
v -0.602679 -4.332333 1.960000
v -0.600000 -4.342333 0.960000
v -0.600000 -4.342333 1.960000
v -0.602679 -4.352334 0.960000
v -0.602679 -4.352334 1.960000
v -0.610000 -4.359654 0.960000
v -0.610000 -4.359654 1.960000
v -0.620000 -3.012333 0.960000
v -0.620000 -3.012333 1.960000
v -0.630000 -3.009654 0.960000
v -0.630000 -3.009654 1.960000
v -0.637321 -3.002333 0.960000
v -0.637321 -3.002333 1.960000
v -0.640000 -2.992333 0.960000
v -0.640000 -2.992333 1.960000
v -0.637321 -2.982333 0.960000
v -0.637321 -2.982333 1.960000
v -0.630000 -2.975013 0.960000
v -0.630000 -2.975013 1.960000
v -0.620000 -2.972333 0.960000
v -0.620000 -2.972333 1.960000
v -0.610000 -2.975013 0.960000
v -0.610000 -2.975013 1.960000
v -0.602679 -2.982333 0.960000
v -0.602679 -2.982333 1.960000
v -0.600000 -2.992333 0.960000
v -0.600000 -2.992333 1.960000
v -0.602679 -3.002333 0.960000
v -0.602679 -3.002333 1.960000
v -0.610000 -3.009654 0.960000
v -0.610000 -3.009654 1.960000
v 0.620000 -6.039379 -0.225313
v 0.620000 -4.359379 0.934687
v 0.605000 -6.037095 -0.228620
v 0.605000 -4.357095 0.931379
v 0.594019 -6.030856 -0.237657
v 0.594019 -4.350856 0.922343
v 0.590000 -6.022333 -0.250000
v 0.590000 -4.342333 0.910000
v 0.594019 -6.013810 -0.262343
v 0.594019 -4.333810 0.897657
v 0.605000 -6.007571 -0.271379
v 0.605000 -4.327571 0.888620
v 0.620000 -6.005287 -0.274687
v 0.620000 -4.325287 0.885313
v 0.635000 -6.007571 -0.271379
v 0.635000 -4.327571 0.888620
v 0.645981 -6.013810 -0.262343
v 0.645981 -4.333810 0.897657
v 0.650000 -6.022333 -0.250000
v 0.650000 -4.342333 0.910000
v 0.645981 -6.030856 -0.237657
v 0.645981 -4.350856 0.922343
v 0.635000 -6.037095 -0.228620
v 0.635000 -4.357095 0.931379
v 0.620000 -6.035533 0.717600
v 0.620000 -4.355533 1.977600
v 0.609000 -6.033764 0.715242
v 0.609000 -4.353765 1.975242
v 0.600947 -6.028933 0.708800
v 0.600947 -4.348933 1.968800
v 0.598000 -6.022333 0.700000
v 0.598000 -4.342333 1.960000
v 0.600947 -6.015733 0.691200
v 0.600947 -4.335733 1.951200
v 0.609000 -6.010901 0.684758
v 0.609000 -4.330902 1.944758
v 0.620000 -6.009133 0.682400
v 0.620000 -4.329133 1.942400
v 0.631000 -6.010901 0.684758
v 0.631000 -4.330902 1.944758
v 0.639053 -6.015733 0.691200
v 0.639053 -4.335733 1.951200
v 0.642000 -6.022333 0.700000
v 0.642000 -4.342333 1.960000
v 0.639053 -6.028933 0.708800
v 0.639053 -4.348933 1.968800
v 0.631000 -6.033764 0.715242
v 0.631000 -4.353765 1.975242
v 0.620000 -4.342333 1.982000
v 0.620000 -2.992333 1.982000
v 0.609000 -4.342333 1.979053
v 0.609000 -2.992333 1.979053
v 0.600947 -4.342333 1.971000
v 0.600947 -2.992333 1.971000
v 0.598000 -4.342333 1.960000
v 0.598000 -2.992333 1.960000
v 0.600947 -4.342333 1.949000
v 0.600947 -2.992333 1.949000
v 0.609000 -4.342333 1.940948
v 0.609000 -2.992333 1.940948
v 0.620000 -4.342333 1.938000
v 0.620000 -2.992333 1.938000
v 0.631000 -4.342333 1.940948
v 0.631000 -2.992333 1.940948
v 0.639053 -4.342333 1.949000
v 0.639053 -2.992333 1.949000
v 0.642000 -4.342333 1.960000
v 0.642000 -2.992333 1.960000
v 0.639053 -4.342333 1.971000
v 0.639053 -2.992333 1.971000
v 0.631000 -4.342333 1.979053
v 0.631000 -2.992333 1.979053
v 0.620000 -6.042333 -0.300000
v 0.620000 -6.042333 0.700000
v 0.610000 -6.039654 -0.300000
v 0.610000 -6.039654 0.700000
v 0.602679 -6.032333 -0.300000
v 0.602679 -6.032333 0.700000
v 0.600000 -6.022333 -0.300000
v 0.600000 -6.022333 0.700000
v 0.602679 -6.012333 -0.300000
v 0.602679 -6.012333 0.700000
v 0.610000 -6.005013 -0.300000
v 0.610000 -6.005013 0.700000
v 0.620000 -6.002333 -0.300000
v 0.620000 -6.002333 0.700000
v 0.630000 -6.005013 -0.300000
v 0.630000 -6.005013 0.700000
v 0.637321 -6.012333 -0.300000
v 0.637321 -6.012333 0.700000
v 0.640000 -6.022333 -0.300000
v 0.640000 -6.022333 0.700000
v 0.637321 -6.032333 -0.300000
v 0.637321 -6.032333 0.700000
v 0.630000 -6.039654 -0.300000
v 0.630000 -6.039654 0.700000
v 0.620000 -4.362333 0.960000
v 0.620000 -4.362333 1.960000
v 0.610000 -4.359654 0.960000
v 0.610000 -4.359654 1.960000
v 0.602679 -4.352334 0.960000
v 0.602679 -4.352334 1.960000
v 0.600000 -4.342333 0.960000
v 0.600000 -4.342333 1.960000
v 0.602679 -4.332333 0.960000
v 0.602679 -4.332333 1.960000
v 0.610000 -4.325013 0.960000
v 0.610000 -4.325013 1.960000
v 0.620000 -4.322333 0.960000
v 0.620000 -4.322333 1.960000
v 0.630000 -4.325013 0.960000
v 0.630000 -4.325013 1.960000
v 0.637321 -4.332333 0.960000
v 0.637321 -4.332333 1.960000
v 0.640000 -4.342333 0.960000
v 0.640000 -4.342333 1.960000
v 0.637321 -4.352334 0.960000
v 0.637321 -4.352334 1.960000
v 0.630000 -4.359654 0.960000
v 0.630000 -4.359654 1.960000
v 0.620000 -3.012333 0.960000
v 0.620000 -3.012333 1.960000
v 0.610000 -3.009654 0.960000
v 0.610000 -3.009654 1.960000
v 0.602679 -3.002333 0.960000
v 0.602679 -3.002333 1.960000
v 0.600000 -2.992333 0.960000
v 0.600000 -2.992333 1.960000
v 0.602679 -2.982333 0.960000
v 0.602679 -2.982333 1.960000
v 0.610000 -2.975013 0.960000
v 0.610000 -2.975013 1.960000
v 0.620000 -2.972333 0.960000
v 0.620000 -2.972333 1.960000
v 0.630000 -2.975013 0.960000
v 0.630000 -2.975013 1.960000
v 0.637321 -2.982333 0.960000
v 0.637321 -2.982333 1.960000
v 0.640000 -2.992333 0.960000
v 0.640000 -2.992333 1.960000
v 0.637321 -3.002333 0.960000
v 0.637321 -3.002333 1.960000
v 0.630000 -3.009654 0.960000
v 0.630000 -3.009654 1.960000
vn -1.0000 -0.0000 -0.0000
vn -0.0000 1.0000 -0.0000
vn 1.0000 -0.0000 -0.0000
vn -0.0000 -1.0000 -0.0000
vn -0.0000 -0.0000 -1.0000
vn -0.0000 -0.0000 1.0000
vn -0.2588 -0.9659 -0.0000
vn -0.7071 -0.7071 -0.0000
vn -0.9659 -0.2588 -0.0000
vn -0.9659 0.2588 -0.0000
vn -0.7071 0.7071 -0.0000
vn -0.2588 0.9659 -0.0000
vn 0.2588 0.9659 -0.0000
vn 0.7071 0.7071 -0.0000
vn 0.9659 0.2588 -0.0000
vn 0.9659 -0.2588 -0.0000
vn 0.7071 -0.7071 -0.0000
vn 0.2588 -0.9659 -0.0000
vn -0.2588 -0.5488 0.7949
vn -0.7071 -0.4018 0.5819
vn -0.9659 -0.1471 0.2130
vn -0.9659 0.1471 -0.2130
vn -0.7071 0.4018 -0.5819
vn -0.2588 0.5488 -0.7949
vn 0.2588 0.5488 -0.7949
vn 0.7071 0.4018 -0.5819
vn 0.9659 0.1471 -0.2130
vn 0.9659 -0.1471 0.2130
vn -0.0000 0.8229 0.5682
vn 0.7071 -0.4018 0.5819
vn 0.2588 -0.5488 0.7949
vn -0.0000 -0.8229 -0.5682
vn -0.2588 -0.5796 0.7727
vn -0.7071 -0.4243 0.5657
vn -0.9659 -0.1553 0.2071
vn -0.9659 0.1553 -0.2071
vn -0.7071 0.4243 -0.5657
vn -0.2588 0.5796 -0.7727
vn 0.2588 0.5796 -0.7727
vn 0.7071 0.4243 -0.5657
vn 0.9659 0.1553 -0.2071
vn 0.9659 -0.1553 0.2071
vn -0.0000 0.8000 0.6000
vn 0.7071 -0.4243 0.5657
vn 0.2588 -0.5796 0.7727
vn -0.0000 -0.8000 -0.6000
vn -0.2588 -0.0000 0.9659
vn -0.7071 -0.0000 0.7071
vn -0.9659 -0.0000 0.2588
vn -0.9659 -0.0000 -0.2588
vn -0.7071 -0.0000 -0.7071
vn -0.2588 -0.0000 -0.9659
vn 0.2588 -0.0000 -0.9659
vn 0.7071 -0.0000 -0.7071
vn 0.9659 -0.0000 -0.2588
vn 0.9659 -0.0000 0.2588
vn 0.7071 -0.0000 0.7071
vn 0.2588 -0.0000 0.9659
vn -0.0000 0.8229 0.5681
vn -0.0000 -0.8228 -0.5683
vn -0.0001 -0.8000 -0.6000
vn 0.0001 -0.8000 -0.6001
s 0
usemtl steel_grey
f 2//1 3//1 1//1
f 4//2 7//2 3//2
f 8//3 5//3 7//3
f 6//4 1//4 5//4
f 7//5 1//5 3//5
f 4//6 6//6 8//6
f 10//7 11//7 9//7
f 12//8 13//8 11//8
f 14//9 15//9 13//9
f 16//10 17//10 15//10
f 18//11 19//11 17//11
f 20//12 21//12 19//12
f 22//13 23//13 21//13
f 24//14 25//14 23//14
f 26//15 27//15 25//15
f 28//16 29//16 27//16
f 30//6 22//6 14//6
f 30//17 31//17 29//17
f 32//18 9//18 31//18
f 15//5 23//5 31//5
f 34//7 35//7 33//7
f 36//8 37//8 35//8
f 38//9 39//9 37//9
f 40//10 41//10 39//10
f 42//11 43//11 41//11
f 44//12 45//12 43//12
f 46//13 47//13 45//13
f 48//14 49//14 47//14
f 50//15 51//15 49//15
f 52//16 53//16 51//16
f 54//6 46//6 38//6
f 54//17 55//17 53//17
f 56//18 33//18 55//18
f 39//5 47//5 55//5
f 58//7 59//7 57//7
f 60//8 61//8 59//8
f 62//9 63//9 61//9
f 64//10 65//10 63//10
f 66//11 67//11 65//11
f 68//12 69//12 67//12
f 70//13 71//13 69//13
f 72//14 73//14 71//14
f 74//15 75//15 73//15
f 76//16 77//16 75//16
f 78//6 70//6 62//6
f 78//17 79//17 77//17
f 80//18 57//18 79//18
f 63//5 71//5 79//5
f 82//7 83//7 81//7
f 84//8 85//8 83//8
f 86//9 87//9 85//9
f 88//10 89//10 87//10
f 90//11 91//11 89//11
f 92//12 93//12 91//12
f 94//13 95//13 93//13
f 96//14 97//14 95//14
f 98//15 99//15 97//15
f 100//16 101//16 99//16
f 102//6 94//6 86//6
f 102//17 103//17 101//17
f 104//18 81//18 103//18
f 87//5 95//5 103//5
f 106//1 107//1 105//1
f 108//2 111//2 107//2
f 112//3 109//3 111//3
f 110//4 105//4 109//4
f 111//5 105//5 107//5
f 108//6 110//6 112//6
f 114//1 115//1 113//1
f 116//2 119//2 115//2
f 120//3 117//3 119//3
f 118//4 113//4 117//4
f 119//5 113//5 115//5
f 116//6 118//6 120//6
f 122//1 123//1 121//1
f 124//2 127//2 123//2
f 128//3 125//3 127//3
f 126//4 121//4 125//4
f 127//5 121//5 123//5
f 124//6 126//6 128//6
f 130//1 131//1 129//1
f 132//2 135//2 131//2
f 136//3 133//3 135//3
f 134//4 129//4 133//4
f 135//5 129//5 131//5
f 132//6 134//6 136//6
f 138//1 139//1 137//1
f 140//2 143//2 139//2
f 144//3 141//3 143//3
f 142//4 137//4 141//4
f 143//5 137//5 139//5
f 140//6 142//6 144//6
f 146//1 147//1 145//1
f 148//2 151//2 147//2
f 152//3 149//3 151//3
f 150//4 145//4 149//4
f 151//5 145//5 147//5
f 148//6 150//6 152//6
f 154//19 155//19 153//19
f 156//20 157//20 155//20
f 158//21 159//21 157//21
f 159//22 162//22 161//22
f 161//23 164//23 163//23
f 164//24 165//24 163//24
f 165//25 168//25 167//25
f 167//26 170//26 169//26
f 170//27 171//27 169//27
f 171//28 174//28 173//28
f 174//29 166//29 158//29
f 174//30 175//30 173//30
f 176//31 153//31 175//31
f 159//32 167//32 175//32
f 297//19 300//19 299//19
f 300//20 301//20 299//20
f 301//21 304//21 303//21
f 303//22 306//22 305//22
f 306//23 307//23 305//23
f 308//24 309//24 307//24
f 309//25 312//25 311//25
f 311//26 314//26 313//26
f 314//27 315//27 313//27
f 316//28 317//28 315//28
f 318//29 310//29 302//29
f 318//30 319//30 317//30
f 320//31 297//31 319//31
f 303//32 311//32 319//32
f 2//1 4//1 3//1
f 4//2 8//2 7//2
f 8//3 6//3 5//3
f 6//4 2//4 1//4
f 7//5 5//5 1//5
f 4//6 2//6 6//6
f 10//7 12//7 11//7
f 12//8 14//8 13//8
f 14//9 16//9 15//9
f 16//10 18//10 17//10
f 18//11 20//11 19//11
f 20//12 22//12 21//12
f 22//13 24//13 23//13
f 24//14 26//14 25//14
f 26//15 28//15 27//15
f 28//16 30//16 29//16
f 14//6 12//6 10//6
f 10//6 32//6 30//6
f 30//6 28//6 26//6
f 26//6 24//6 22//6
f 22//6 20//6 18//6
f 18//6 16//6 14//6
f 14//6 10//6 30//6
f 30//6 26//6 22//6
f 22//6 18//6 14//6
f 30//17 32//17 31//17
f 32//18 10//18 9//18
f 31//5 9//5 11//5
f 11//5 13//5 15//5
f 15//5 17//5 19//5
f 19//5 21//5 23//5
f 23//5 25//5 27//5
f 27//5 29//5 31//5
f 31//5 11//5 15//5
f 15//5 19//5 23//5
f 23//5 27//5 31//5
f 34//7 36//7 35//7
f 36//8 38//8 37//8
f 38//9 40//9 39//9
f 40//10 42//10 41//10
f 42//11 44//11 43//11
f 44//12 46//12 45//12
f 46//13 48//13 47//13
f 48//14 50//14 49//14
f 50//15 52//15 51//15
f 52//16 54//16 53//16
f 38//6 36//6 34//6
f 34//6 56//6 54//6
f 54//6 52//6 50//6
f 50//6 48//6 46//6
f 46//6 44//6 42//6
f 42//6 40//6 38//6
f 38//6 34//6 54//6
f 54//6 50//6 46//6
f 46//6 42//6 38//6
f 54//17 56//17 55//17
f 56//18 34//18 33//18
f 55//5 33//5 35//5
f 35//5 37//5 39//5
f 39//5 41//5 43//5
f 43//5 45//5 47//5
f 47//5 49//5 51//5
f 51//5 53//5 55//5
f 55//5 35//5 39//5
f 39//5 43//5 47//5
f 47//5 51//5 55//5
f 58//7 60//7 59//7
f 60//8 62//8 61//8
f 62//9 64//9 63//9
f 64//10 66//10 65//10
f 66//11 68//11 67//11
f 68//12 70//12 69//12
f 70//13 72//13 71//13
f 72//14 74//14 73//14
f 74//15 76//15 75//15
f 76//16 78//16 77//16
f 62//6 60//6 58//6
f 58//6 80//6 78//6
f 78//6 76//6 74//6
f 74//6 72//6 70//6
f 70//6 68//6 66//6
f 66//6 64//6 62//6
f 62//6 58//6 78//6
f 78//6 74//6 70//6
f 70//6 66//6 62//6
f 78//17 80//17 79//17
f 80//18 58//18 57//18
f 79//5 57//5 59//5
f 59//5 61//5 63//5
f 63//5 65//5 67//5
f 67//5 69//5 71//5
f 71//5 73//5 75//5
f 75//5 77//5 79//5
f 79//5 59//5 63//5
f 63//5 67//5 71//5
f 71//5 75//5 79//5
f 82//7 84//7 83//7
f 84//8 86//8 85//8
f 86//9 88//9 87//9
f 88//10 90//10 89//10
f 90//11 92//11 91//11
f 92//12 94//12 93//12
f 94//13 96//13 95//13
f 96//14 98//14 97//14
f 98//15 100//15 99//15
f 100//16 102//16 101//16
f 86//6 84//6 82//6
f 82//6 104//6 102//6
f 102//6 100//6 98//6
f 98//6 96//6 94//6
f 94//6 92//6 90//6
f 90//6 88//6 86//6
f 86//6 82//6 102//6
f 102//6 98//6 94//6
f 94//6 90//6 86//6
f 102//17 104//17 103//17
f 104//18 82//18 81//18
f 103//5 81//5 83//5
f 83//5 85//5 87//5
f 87//5 89//5 91//5
f 91//5 93//5 95//5
f 95//5 97//5 99//5
f 99//5 101//5 103//5
f 103//5 83//5 87//5
f 87//5 91//5 95//5
f 95//5 99//5 103//5
f 106//1 108//1 107//1
f 108//2 112//2 111//2
f 112//3 110//3 109//3
f 110//4 106//4 105//4
f 111//5 109//5 105//5
f 108//6 106//6 110//6
f 114//1 116//1 115//1
f 116//2 120//2 119//2
f 120//3 118//3 117//3
f 118//4 114//4 113//4
f 119//5 117//5 113//5
f 116//6 114//6 118//6
f 122//1 124//1 123//1
f 124//2 128//2 127//2
f 128//3 126//3 125//3
f 126//4 122//4 121//4
f 127//5 125//5 121//5
f 124//6 122//6 126//6
f 130//1 132//1 131//1
f 132//2 136//2 135//2
f 136//3 134//3 133//3
f 134//4 130//4 129//4
f 135//5 133//5 129//5
f 132//6 130//6 134//6
f 138//1 140//1 139//1
f 140//2 144//2 143//2
f 144//3 142//3 141//3
f 142//4 138//4 137//4
f 143//5 141//5 137//5
f 140//6 138//6 142//6
f 146//1 148//1 147//1
f 148//2 152//2 151//2
f 152//3 150//3 149//3
f 150//4 146//4 145//4
f 151//5 149//5 145//5
f 148//6 146//6 150//6
f 154//19 156//19 155//19
f 156//20 158//20 157//20
f 158//21 160//21 159//21
f 159//22 160//22 162//22
f 161//23 162//23 164//23
f 164//24 166//24 165//24
f 165//25 166//25 168//25
f 167//26 168//26 170//26
f 170//27 172//27 171//27
f 171//28 172//28 174//28
f 158//59 156//59 154//59
f 154//59 176//59 174//59
f 174//29 172//29 170//29
f 170//29 168//29 166//29
f 166//29 164//29 162//29
f 162//29 160//29 158//29
f 158//29 154//29 174//29
f 174//29 170//29 166//29
f 166//29 162//29 158//29
f 174//30 176//30 175//30
f 176//31 154//31 153//31
f 175//32 153//32 155//32
f 155//32 157//32 159//32
f 159//32 161//32 163//32
f 163//60 165//60 167//60
f 167//32 169//32 171//32
f 171//32 173//32 175//32
f 175//32 155//32 159//32
f 159//32 163//32 167//32
f 167//32 171//32 175//32
f 297//19 298//19 300//19
f 300//20 302//20 301//20
f 301//21 302//21 304//21
f 303//22 304//22 306//22
f 306//23 308//23 307//23
f 308//24 310//24 309//24
f 309//25 310//25 312//25
f 311//26 312//26 314//26
f 314//27 316//27 315//27
f 316//28 318//28 317//28
f 302//59 300//59 298//59
f 298//59 320//59 318//59
f 318//29 316//29 314//29
f 314//29 312//29 310//29
f 310//29 308//29 306//29
f 306//29 304//29 302//29
f 302//29 298//29 318//29
f 318//29 314//29 310//29
f 310//29 306//29 302//29
f 318//30 320//30 319//30
f 320//31 298//31 297//31
f 319//32 297//32 299//32
f 299//32 301//32 303//32
f 303//32 305//32 307//32
f 307//60 309//60 311//60
f 311//32 313//32 315//32
f 315//32 317//32 319//32
f 319//32 299//32 303//32
f 303//32 307//32 311//32
f 311//32 315//32 319//32
usemtl pipe_steel
f 178//33 179//33 177//33
f 180//34 181//34 179//34
f 182//35 183//35 181//35
f 184//36 185//36 183//36
f 185//37 188//37 187//37
f 188//38 189//38 187//38
f 190//39 191//39 189//39
f 192//40 193//40 191//40
f 193//41 196//41 195//41
f 196//42 197//42 195//42
f 198//43 190//43 182//43
f 197//44 200//44 199//44
f 199//45 178//45 177//45
f 183//46 191//46 199//46
f 202//47 203//47 201//47
f 204//48 205//48 203//48
f 206//49 207//49 205//49
f 208//50 209//50 207//50
f 210//51 211//51 209//51
f 212//52 213//52 211//52
f 214//53 215//53 213//53
f 216//54 217//54 215//54
f 218//55 219//55 217//55
f 220//56 221//56 219//56
f 222//2 214//2 206//2
f 221//57 224//57 223//57
f 224//58 201//58 223//58
f 207//4 215//4 223//4
f 226//7 227//7 225//7
f 228//8 229//8 227//8
f 230//9 231//9 229//9
f 232//10 233//10 231//10
f 234//11 235//11 233//11
f 236//12 237//12 235//12
f 238//13 239//13 237//13
f 240//14 241//14 239//14
f 242//15 243//15 241//15
f 244//16 245//16 243//16
f 246//6 238//6 230//6
f 246//17 247//17 245//17
f 248//18 225//18 247//18
f 231//5 239//5 247//5
f 250//7 251//7 249//7
f 252//8 253//8 251//8
f 254//9 255//9 253//9
f 256//10 257//10 255//10
f 258//11 259//11 257//11
f 260//12 261//12 259//12
f 262//13 263//13 261//13
f 264//14 265//14 263//14
f 266//15 267//15 265//15
f 268//16 269//16 267//16
f 270//6 262//6 254//6
f 270//17 271//17 269//17
f 272//18 249//18 271//18
f 255//5 263//5 271//5
f 274//7 275//7 273//7
f 276//8 277//8 275//8
f 278//9 279//9 277//9
f 280//10 281//10 279//10
f 282//11 283//11 281//11
f 284//12 285//12 283//12
f 286//13 287//13 285//13
f 288//14 289//14 287//14
f 290//15 291//15 289//15
f 292//16 293//16 291//16
f 294//6 286//6 278//6
f 294//17 295//17 293//17
f 296//18 273//18 295//18
f 279//5 287//5 295//5
f 321//33 324//33 323//33
f 324//34 325//34 323//34
f 326//35 327//35 325//35
f 328//36 329//36 327//36
f 330//37 331//37 329//37
f 331//38 334//38 333//38
f 333//39 336//39 335//39
f 335//40 338//40 337//40
f 337//41 340//41 339//41
f 339//42 342//42 341//42
f 342//43 334//43 326//43
f 342//44 343//44 341//44
f 343//45 322//45 321//45
f 327//46 335//46 343//46
f 346//47 347//47 345//47
f 347//48 350//48 349//48
f 350//49 351//49 349//49
f 352//50 353//50 351//50
f 354//51 355//51 353//51
f 356//52 357//52 355//52
f 358//53 359//53 357//53
f 360//54 361//54 359//54
f 362//55 363//55 361//55
f 364//56 365//56 363//56
f 366//2 358//2 350//2
f 365//57 368//57 367//57
f 368//58 345//58 367//58
f 351//4 359//4 367//4
f 370//7 371//7 369//7
f 372//8 373//8 371//8
f 374//9 375//9 373//9
f 376//10 377//10 375//10
f 378//11 379//11 377//11
f 380//12 381//12 379//12
f 382//13 383//13 381//13
f 384//14 385//14 383//14
f 386//15 387//15 385//15
f 388//16 389//16 387//16
f 390//6 382//6 374//6
f 390//17 391//17 389//17
f 392//18 369//18 391//18
f 375//5 383//5 391//5
f 394//7 395//7 393//7
f 396//8 397//8 395//8
f 398//9 399//9 397//9
f 400//10 401//10 399//10
f 402//11 403//11 401//11
f 404//12 405//12 403//12
f 406//13 407//13 405//13
f 408//14 409//14 407//14
f 410//15 411//15 409//15
f 412//16 413//16 411//16
f 414//6 406//6 398//6
f 414//17 415//17 413//17
f 416//18 393//18 415//18
f 399//5 407//5 415//5
f 418//7 419//7 417//7
f 420//8 421//8 419//8
f 422//9 423//9 421//9
f 424//10 425//10 423//10
f 426//11 427//11 425//11
f 428//12 429//12 427//12
f 430//13 431//13 429//13
f 432//14 433//14 431//14
f 434//15 435//15 433//15
f 436//16 437//16 435//16
f 438//6 430//6 422//6
f 438//17 439//17 437//17
f 440//18 417//18 439//18
f 423//5 431//5 439//5
f 178//33 180//33 179//33
f 180//34 182//34 181//34
f 182//35 184//35 183//35
f 184//36 186//36 185//36
f 185//37 186//37 188//37
f 188//38 190//38 189//38
f 190//39 192//39 191//39
f 192//40 194//40 193//40
f 193//41 194//41 196//41
f 196//42 198//42 197//42
f 182//43 180//43 178//43
f 178//43 200//43 198//43
f 198//43 196//43 194//43
f 194//43 192//43 190//43
f 190//43 188//43 186//43
f 186//43 184//43 182//43
f 182//43 178//43 198//43
f 198//43 194//43 190//43
f 190//43 186//43 182//43
f 197//44 198//44 200//44
f 199//45 200//45 178//45
f 199//46 177//46 179//46
f 179//46 181//46 183//46
f 183//61 185//61 187//61
f 187//46 189//46 191//46
f 191//62 193//62 195//62
f 195//46 197//46 199//46
f 199//46 179//46 183//46
f 183//46 187//46 191//46
f 191//46 195//46 199//46
f 202//47 204//47 203//47
f 204//48 206//48 205//48
f 206//49 208//49 207//49
f 208//50 210//50 209//50
f 210//51 212//51 211//51
f 212//52 214//52 213//52
f 214//53 216//53 215//53
f 216//54 218//54 217//54
f 218//55 220//55 219//55
f 220//56 222//56 221//56
f 206//2 204//2 202//2
f 202//2 224//2 222//2
f 222//2 220//2 218//2
f 218//2 216//2 214//2
f 214//2 212//2 210//2
f 210//2 208//2 206//2
f 206//2 202//2 222//2
f 222//2 218//2 214//2
f 214//2 210//2 206//2
f 221//57 222//57 224//57
f 224//58 202//58 201//58
f 223//4 201//4 203//4
f 203//4 205//4 207//4
f 207//4 209//4 211//4
f 211//4 213//4 215//4
f 215//4 217//4 219//4
f 219//4 221//4 223//4
f 223//4 203//4 207//4
f 207//4 211//4 215//4
f 215//4 219//4 223//4
f 226//7 228//7 227//7
f 228//8 230//8 229//8
f 230//9 232//9 231//9
f 232//10 234//10 233//10
f 234//11 236//11 235//11
f 236//12 238//12 237//12
f 238//13 240//13 239//13
f 240//14 242//14 241//14
f 242//15 244//15 243//15
f 244//16 246//16 245//16
f 230//6 228//6 226//6
f 226//6 248//6 246//6
f 246//6 244//6 242//6
f 242//6 240//6 238//6
f 238//6 236//6 234//6
f 234//6 232//6 230//6
f 230//6 226//6 246//6
f 246//6 242//6 238//6
f 238//6 234//6 230//6
f 246//17 248//17 247//17
f 248//18 226//18 225//18
f 247//5 225//5 227//5
f 227//5 229//5 231//5
f 231//5 233//5 235//5
f 235//5 237//5 239//5
f 239//5 241//5 243//5
f 243//5 245//5 247//5
f 247//5 227//5 231//5
f 231//5 235//5 239//5
f 239//5 243//5 247//5
f 250//7 252//7 251//7
f 252//8 254//8 253//8
f 254//9 256//9 255//9
f 256//10 258//10 257//10
f 258//11 260//11 259//11
f 260//12 262//12 261//12
f 262//13 264//13 263//13
f 264//14 266//14 265//14
f 266//15 268//15 267//15
f 268//16 270//16 269//16
f 254//6 252//6 250//6
f 250//6 272//6 270//6
f 270//6 268//6 266//6
f 266//6 264//6 262//6
f 262//6 260//6 258//6
f 258//6 256//6 254//6
f 254//6 250//6 270//6
f 270//6 266//6 262//6
f 262//6 258//6 254//6
f 270//17 272//17 271//17
f 272//18 250//18 249//18
f 271//5 249//5 251//5
f 251//5 253//5 255//5
f 255//5 257//5 259//5
f 259//5 261//5 263//5
f 263//5 265//5 267//5
f 267//5 269//5 271//5
f 271//5 251//5 255//5
f 255//5 259//5 263//5
f 263//5 267//5 271//5
f 274//7 276//7 275//7
f 276//8 278//8 277//8
f 278//9 280//9 279//9
f 280//10 282//10 281//10
f 282//11 284//11 283//11
f 284//12 286//12 285//12
f 286//13 288//13 287//13
f 288//14 290//14 289//14
f 290//15 292//15 291//15
f 292//16 294//16 293//16
f 278//6 276//6 274//6
f 274//6 296//6 294//6
f 294//6 292//6 290//6
f 290//6 288//6 286//6
f 286//6 284//6 282//6
f 282//6 280//6 278//6
f 278//6 274//6 294//6
f 294//6 290//6 286//6
f 286//6 282//6 278//6
f 294//17 296//17 295//17
f 296//18 274//18 273//18
f 295//5 273//5 275//5
f 275//5 277//5 279//5
f 279//5 281//5 283//5
f 283//5 285//5 287//5
f 287//5 289//5 291//5
f 291//5 293//5 295//5
f 295//5 275//5 279//5
f 279//5 283//5 287//5
f 287//5 291//5 295//5
f 321//33 322//33 324//33
f 324//34 326//34 325//34
f 326//35 328//35 327//35
f 328//36 330//36 329//36
f 330//37 332//37 331//37
f 331//38 332//38 334//38
f 333//39 334//39 336//39
f 335//40 336//40 338//40
f 337//41 338//41 340//41
f 339//42 340//42 342//42
f 326//43 324//43 322//43
f 322//43 344//43 342//43
f 342//43 340//43 338//43
f 338//43 336//43 334//43
f 334//43 332//43 330//43
f 330//43 328//43 326//43
f 326//43 322//43 342//43
f 342//43 338//43 334//43
f 334//43 330//43 326//43
f 342//44 344//44 343//44
f 343//45 344//45 322//45
f 343//46 321//46 323//46
f 323//46 325//46 327//46
f 327//61 329//61 331//61
f 331//46 333//46 335//46
f 335//62 337//62 339//62
f 339//46 341//46 343//46
f 343//46 323//46 327//46
f 327//46 331//46 335//46
f 335//46 339//46 343//46
f 346//47 348//47 347//47
f 347//48 348//48 350//48
f 350//49 352//49 351//49
f 352//50 354//50 353//50
f 354//51 356//51 355//51
f 356//52 358//52 357//52
f 358//53 360//53 359//53
f 360//54 362//54 361//54
f 362//55 364//55 363//55
f 364//56 366//56 365//56
f 350//2 348//2 346//2
f 346//2 368//2 366//2
f 366//2 364//2 362//2
f 362//2 360//2 358//2
f 358//2 356//2 354//2
f 354//2 352//2 350//2
f 350//2 346//2 366//2
f 366//2 362//2 358//2
f 358//2 354//2 350//2
f 365//57 366//57 368//57
f 368//58 346//58 345//58
f 367//4 345//4 347//4
f 347//4 349//4 351//4
f 351//4 353//4 355//4
f 355//4 357//4 359//4
f 359//4 361//4 363//4
f 363//4 365//4 367//4
f 367//4 347//4 351//4
f 351//4 355//4 359//4
f 359//4 363//4 367//4
f 370//7 372//7 371//7
f 372//8 374//8 373//8
f 374//9 376//9 375//9
f 376//10 378//10 377//10
f 378//11 380//11 379//11
f 380//12 382//12 381//12
f 382//13 384//13 383//13
f 384//14 386//14 385//14
f 386//15 388//15 387//15
f 388//16 390//16 389//16
f 374//6 372//6 370//6
f 370//6 392//6 390//6
f 390//6 388//6 386//6
f 386//6 384//6 382//6
f 382//6 380//6 378//6
f 378//6 376//6 374//6
f 374//6 370//6 390//6
f 390//6 386//6 382//6
f 382//6 378//6 374//6
f 390//17 392//17 391//17
f 392//18 370//18 369//18
f 391//5 369//5 371//5
f 371//5 373//5 375//5
f 375//5 377//5 379//5
f 379//5 381//5 383//5
f 383//5 385//5 387//5
f 387//5 389//5 391//5
f 391//5 371//5 375//5
f 375//5 379//5 383//5
f 383//5 387//5 391//5
f 394//7 396//7 395//7
f 396//8 398//8 397//8
f 398//9 400//9 399//9
f 400//10 402//10 401//10
f 402//11 404//11 403//11
f 404//12 406//12 405//12
f 406//13 408//13 407//13
f 408//14 410//14 409//14
f 410//15 412//15 411//15
f 412//16 414//16 413//16
f 398//6 396//6 394//6
f 394//6 416//6 414//6
f 414//6 412//6 410//6
f 410//6 408//6 406//6
f 406//6 404//6 402//6
f 402//6 400//6 398//6
f 398//6 394//6 414//6
f 414//6 410//6 406//6
f 406//6 402//6 398//6
f 414//17 416//17 415//17
f 416//18 394//18 393//18
f 415//5 393//5 395//5
f 395//5 397//5 399//5
f 399//5 401//5 403//5
f 403//5 405//5 407//5
f 407//5 409//5 411//5
f 411//5 413//5 415//5
f 415//5 395//5 399//5
f 399//5 403//5 407//5
f 407//5 411//5 415//5
f 418//7 420//7 419//7
f 420//8 422//8 421//8
f 422//9 424//9 423//9
f 424//10 426//10 425//10
f 426//11 428//11 427//11
f 428//12 430//12 429//12
f 430//13 432//13 431//13
f 432//14 434//14 433//14
f 434//15 436//15 435//15
f 436//16 438//16 437//16
f 422//6 420//6 418//6
f 418//6 440//6 438//6
f 438//6 436//6 434//6
f 434//6 432//6 430//6
f 430//6 428//6 426//6
f 426//6 424//6 422//6
f 422//6 418//6 438//6
f 438//6 434//6 430//6
f 430//6 426//6 422//6
f 438//17 440//17 439//17
f 440//18 418//18 417//18
f 439//5 417//5 419//5
f 419//5 421//5 423//5
f 423//5 425//5 427//5
f 427//5 429//5 431//5
f 431//5 433//5 435//5
f 435//5 437//5 439//5
f 439//5 419//5 423//5
f 423//5 427//5 431//5
f 431//5 435//5 439//5
