# Blender 5.2.2 LTS
# www.blender.org
mtllib fault_plinth_crack.mtl
o fault_plinth_crack
v 2.765058 -2.756026 0.231819
v 2.772172 -2.748910 0.171819
v 2.749609 -2.755921 0.230000
v 2.756723 -2.748805 0.170000
v 2.749718 -2.771370 0.228181
v 2.756832 -2.764254 0.168181
v 2.765167 -2.771475 0.230000
v 2.772281 -2.764359 0.170000
v 2.771223 -2.749783 0.175441
v 2.795227 -2.725498 0.115441
v 2.756679 -2.748849 0.170000
v 2.780683 -2.724564 0.110000
v 2.757781 -2.763381 0.164559
v 2.781786 -2.739096 0.104559
v 2.772325 -2.764315 0.170000
v 2.796330 -2.740030 0.110000
v 2.782212 -2.738651 0.116404
v 2.751974 -2.769173 0.056404
v 2.796321 -2.740039 0.110000
v 2.766083 -2.770561 0.050000
v 2.794801 -2.725943 0.103596
v 2.764563 -2.756466 0.043596
v 2.780692 -2.724555 0.110000
v 2.750454 -2.755078 0.050000
v 2.722788 -2.721934 0.251000
v 2.677531 -2.668188 0.251000
v 2.715904 -2.727731 0.242000
v 2.670647 -2.673985 0.242000
v 2.722788 -2.721934 0.233000
v 2.677531 -2.668188 0.233000
v 2.729672 -2.716137 0.242000
v 2.684415 -2.662391 0.242000
v 2.655953 -2.689667 0.251000
v 2.623991 -2.622741 0.251000
v 2.647832 -2.693546 0.242000
v 2.615870 -2.626620 0.242000
v 2.655953 -2.689667 0.233000
v 2.623991 -2.622741 0.233000
v 2.664075 -2.685789 0.242000
v 2.632112 -2.618863 0.242000
v 2.630172 -2.616543 0.251000
v 2.588906 -2.558743 0.251000
v 2.622847 -2.621772 0.242000
v 2.581581 -2.563972 0.242000
v 2.630172 -2.616543 0.233000
v 2.588906 -2.558743 0.233000
v 2.637497 -2.611313 0.242000
v 2.596231 -2.553514 0.242000
v 2.552891 -2.594677 0.251000
v 2.514426 -2.534277 0.251000
v 2.545299 -2.599512 0.242000
v 2.506835 -2.539112 0.242000
v 2.552891 -2.594677 0.233000
v 2.514426 -2.534277 0.233000
v 2.560482 -2.589843 0.242000
v 2.522017 -2.529443 0.242000
v 2.503621 -2.544952 0.251000
v 2.490153 -2.459500 0.251000
v 2.494730 -2.546354 0.242000
v 2.481262 -2.460901 0.242000
v 2.503621 -2.544952 0.233000
v 2.490153 -2.459500 0.233000
v 2.512511 -2.543551 0.242000
v 2.499043 -2.458099 0.242000
v 2.484430 -2.465281 0.251000
v 2.403053 -2.447496 0.251000
v 2.482508 -2.474073 0.242000
v 2.401131 -2.456289 0.242000
v 2.484430 -2.465281 0.233000
v 2.403053 -2.447496 0.233000
v 2.486351 -2.456488 0.242000
v 2.404974 -2.438704 0.242000
vn -0.0070 0.9931 0.1169
vn -0.9931 0.0067 -0.1170
vn 0.1169 0.1170 -0.9862
vn 0.0070 -0.9931 -0.1169
vn 0.9931 -0.0067 0.1170
vn -0.1169 -0.1170 0.9862
vn -0.0709 0.9342 0.3498
vn -0.9349 0.0600 -0.3497
vn 0.3477 0.3518 -0.8691
vn 0.0709 -0.9342 -0.3498
vn 0.9349 -0.0600 0.3497
vn -0.3477 -0.3518 0.8691
vn 0.0977 -0.9061 0.4117
vn 0.9069 -0.0892 -0.4117
vn -0.4097 -0.4136 -0.8131
vn -0.0977 0.9061 -0.4117
vn -0.9070 0.0892 0.4117
vn 0.4098 0.4136 0.8130
vn -0.5409 -0.4555 0.7071
vn -0.5409 -0.4555 -0.7071
vn -0.6441 0.7649 -0.0000
vn 0.5409 0.4555 -0.7071
vn 0.5409 0.4555 0.7071
vn 0.6441 -0.7649 -0.0000
vn -0.6381 -0.3047 0.7071
vn -0.6381 -0.3047 -0.7071
vn -0.4309 0.9024 -0.0000
vn 0.6381 0.3047 -0.7071
vn 0.6381 0.3047 0.7071
vn 0.4309 -0.9024 -0.0000
vn -0.5755 -0.4109 0.7071
vn -0.5755 -0.4109 -0.7071
vn -0.5811 0.8139 -0.0000
vn 0.5755 0.4109 -0.7071
vn 0.5755 0.4109 0.7071
vn 0.5811 -0.8139 -0.0000
vn -0.5964 -0.3798 0.7071
vn -0.5964 -0.3798 -0.7071
vn -0.5371 0.8435 -0.0000
vn 0.5964 0.3798 -0.7071
vn 0.5964 0.3798 0.7071
vn 0.5372 -0.8435 -0.0000
vn -0.6985 -0.1101 0.7071
vn -0.6985 -0.1101 -0.7071
vn -0.1557 0.9878 -0.0000
vn 0.6985 0.1101 -0.7071
vn 0.6985 0.1101 0.7071
vn 0.1557 -0.9878 -0.0000
vn -0.1510 -0.6908 0.7071
vn -0.1510 -0.6908 -0.7071
vn -0.9769 0.2135 -0.0000
vn 0.1510 0.6908 -0.7071
vn 0.1510 0.6908 0.7071
vn 0.9769 -0.2135 -0.0000
vn -0.9931 0.0067 -0.1169
vn 0.0070 -0.9931 -0.1170
vn 0.9931 -0.0067 0.1169
vn -0.0709 0.9342 0.3497
vn -0.9349 0.0600 -0.3498
vn 0.0709 -0.9342 -0.3497
vn 0.9349 -0.0600 0.3498
vn -0.4097 -0.4136 -0.8130
vn -0.9069 0.0892 0.4117
vn 0.4097 0.4136 0.8130
vn 0.5371 -0.8435 -0.0000
s 0
usemtl crack
f 1//1 4//1 3//1
f 3//2 6//2 5//2
f 2//3 6//3 4//3
f 6//4 7//4 5//4
f 8//5 1//5 7//5
f 1//6 5//6 7//6
f 9//7 12//7 11//7
f 11//8 14//8 13//8
f 12//9 16//9 14//9
f 14//10 15//10 13//10
f 16//11 9//11 15//11
f 11//12 15//12 9//12
f 17//13 20//13 19//13
f 20//14 21//14 19//14
f 20//15 24//15 22//15
f 21//16 24//16 23//16
f 24//17 17//17 23//17
f 19//18 23//18 17//18
f 26//19 27//19 25//19
f 27//20 30//20 29//20
f 28//21 32//21 30//21
f 30//22 31//22 29//22
f 32//23 25//23 31//23
f 25//24 29//24 31//24
f 34//25 35//25 33//25
f 35//26 38//26 37//26
f 36//27 40//27 38//27
f 37//28 40//28 39//28
f 39//29 34//29 33//29
f 35//30 39//30 33//30
f 42//31 43//31 41//31
f 44//32 45//32 43//32
f 44//33 48//33 46//33
f 45//34 48//34 47//34
f 47//35 42//35 41//35
f 43//36 47//36 41//36
f 49//37 52//37 51//37
f 51//38 54//38 53//38
f 52//39 56//39 54//39
f 53//40 56//40 55//40
f 56//41 49//41 55//41
f 49//42 53//42 55//42
f 58//43 59//43 57//43
f 60//44 61//44 59//44
f 60//45 64//45 62//45
f 61//46 64//46 63//46
f 64//47 57//47 63//47
f 57//48 61//48 63//48
f 66//49 67//49 65//49
f 67//50 70//50 69//50
f 68//51 72//51 70//51
f 69//52 72//52 71//52
f 72//53 65//53 71//53
f 67//54 71//54 65//54
f 1//1 2//1 4//1
f 3//55 4//55 6//55
f 2//3 8//3 6//3
f 6//56 8//56 7//56
f 8//57 2//57 1//57
f 1//6 3//6 5//6
f 9//58 10//58 12//58
f 11//59 12//59 14//59
f 12//9 10//9 16//9
f 14//60 16//60 15//60
f 16//61 10//61 9//61
f 11//12 13//12 15//12
f 17//13 18//13 20//13
f 20//14 22//14 21//14
f 20//62 18//62 24//62
f 21//16 22//16 24//16
f 24//63 18//63 17//63
f 19//64 21//64 23//64
f 26//19 28//19 27//19
f 27//20 28//20 30//20
f 28//21 26//21 32//21
f 30//22 32//22 31//22
f 32//23 26//23 25//23
f 25//24 27//24 29//24
f 34//25 36//25 35//25
f 35//26 36//26 38//26
f 36//27 34//27 40//27
f 37//28 38//28 40//28
f 39//29 40//29 34//29
f 35//30 37//30 39//30
f 42//31 44//31 43//31
f 44//32 46//32 45//32
f 44//33 42//33 48//33
f 45//34 46//34 48//34
f 47//35 48//35 42//35
f 43//36 45//36 47//36
f 49//37 50//37 52//37
f 51//38 52//38 54//38
f 52//39 50//39 56//39
f 53//40 54//40 56//40
f 56//41 50//41 49//41
f 49//65 51//65 53//65
f 58//43 60//43 59//43
f 60//44 62//44 61//44
f 60//45 58//45 64//45
f 61//46 62//46 64//46
f 64//47 58//47 57//47
f 57//48 59//48 61//48
f 66//49 68//49 67//49
f 67//50 68//50 70//50
f 68//51 66//51 72//51
f 69//52 70//52 72//52
f 72//53 66//53 65//53
f 67//54 69//54 71//54
