# Blender 5.2.2 LTS
# www.blender.org
mtllib tower_door.mtl
o tower_door
v -0.836662 0.021313 0.010000
v -0.643746 0.002313 0.010000
v -0.450000 -0.004030 0.010000
v -0.256254 0.002313 0.010000
v -0.063338 0.021313 0.010000
v -0.845146 -0.043131 0.010000
v -0.647997 -0.062548 0.010000
v -0.450000 -0.069030 0.010000
v -0.252003 -0.062548 0.010000
v -0.054854 -0.043131 0.010000
v -0.845146 -0.043131 2.090000
v -0.647997 -0.062548 2.090000
v -0.450000 -0.069030 2.090000
v -0.252003 -0.062548 2.090000
v -0.054854 -0.043131 2.090000
v -0.836662 0.021313 2.090000
v -0.643746 0.002313 2.090000
v -0.450000 -0.004030 2.090000
v -0.256254 0.002313 2.090000
v -0.063338 0.021313 2.090000
v -0.890000 0.030119 0.010000
v -0.890000 -0.035725 0.010000
v -0.010000 0.030119 0.010000
v -0.010000 -0.035725 0.010000
v -0.890000 -0.035725 2.090000
v -0.010000 -0.035725 2.090000
v -0.890000 0.030119 2.090000
v -0.010000 0.030119 2.090000
v -0.820000 -0.124030 1.020000
v -0.820000 -0.124030 1.060000
v -0.820000 -0.069030 1.020000
v -0.820000 -0.069030 1.060000
v -0.700000 -0.124030 1.020000
v -0.700000 -0.124030 1.060000
v -0.700000 -0.069030 1.020000
v -0.700000 -0.069030 1.060000
vn -0.0000 -0.0000 -1.0000
vn -0.1629 -0.9866 -0.0000
vn -0.0980 -0.9952 -0.0000
vn -0.0327 -0.9995 -0.0000
vn 0.0327 -0.9995 -0.0000
vn 0.0980 -0.9952 -0.0000
vn 0.1629 -0.9866 -0.0000
vn -0.0000 -0.0000 1.0000
vn 0.1629 0.9866 -0.0000
vn 0.0980 0.9952 -0.0000
vn 0.0327 0.9995 -0.0000
vn -0.0327 0.9995 -0.0000
vn -0.0980 0.9952 -0.0000
vn -0.1629 0.9866 -0.0000
vn -1.0000 -0.0000 -0.0000
vn 1.0000 -0.0000 -0.0000
vn -0.0000 1.0000 -0.0000
vn -0.0000 -1.0000 -0.0000
s 0
usemtl tower_paint
f 1//1 22//1 21//1
f 1//1 7//1 6//1
f 2//1 8//1 7//1
f 4//1 8//1 3//1
f 5//1 9//1 4//1
f 24//1 5//1 23//1
f 11//2 22//2 6//2
f 7//3 11//3 6//3
f 8//4 12//4 7//4
f 9//5 13//5 8//5
f 10//6 14//6 9//6
f 15//7 24//7 26//7
f 16//8 25//8 11//8
f 12//8 16//8 11//8
f 13//8 17//8 12//8
f 13//8 19//8 18//8
f 14//8 20//8 19//8
f 20//8 26//8 28//8
f 1//9 27//9 16//9
f 17//10 1//10 16//10
f 18//11 2//11 17//11
f 19//12 3//12 18//12
f 20//13 4//13 19//13
f 5//14 28//14 23//14
f 22//15 27//15 21//15
f 23//16 26//16 24//16
f 1//1 6//1 22//1
f 1//1 2//1 7//1
f 2//1 3//1 8//1
f 4//1 9//1 8//1
f 5//1 10//1 9//1
f 24//1 10//1 5//1
f 11//2 25//2 22//2
f 7//3 12//3 11//3
f 8//4 13//4 12//4
f 9//5 14//5 13//5
f 10//6 15//6 14//6
f 15//7 10//7 24//7
f 16//8 27//8 25//8
f 12//8 17//8 16//8
f 13//8 18//8 17//8
f 13//8 14//8 19//8
f 14//8 15//8 20//8
f 20//8 15//8 26//8
f 1//9 21//9 27//9
f 17//10 2//10 1//10
f 18//11 3//11 2//11
f 19//12 4//12 3//12
f 20//13 5//13 4//13
f 5//14 20//14 28//14
f 22//15 25//15 27//15
f 23//16 28//16 26//16
usemtl bolt_black
f 30//15 31//15 29//15
f 32//17 35//17 31//17
f 36//16 33//16 35//16
f 34//18 29//18 33//18
f 35//1 29//1 31//1
f 32//8 34//8 36//8
f 30//15 32//15 31//15
f 32//17 36//17 35//17
f 36//16 34//16 33//16
f 34//18 30//18 29//18
f 35//1 33//1 29//1
f 32//8 30//8 34//8
