# Blender 5.2.2 LTS
# www.blender.org
mtllib bushing_left_cracked.mtl
o bushing_left_cracked
v -1.000000 -0.980000 -0.050000
v -0.520000 -1.121819 -0.112367
v -0.520000 -1.182288 -0.046360
v -0.520000 -1.135679 -0.110392
v -0.520000 -1.085412 0.001930
v -0.370000 -0.980000 -0.050000
v -0.520000 -1.179908 -0.032564
v -0.520000 -1.074705 -0.007089
v -1.000000 -0.980674 -0.063722
v -0.370000 -0.980674 -0.063722
v -1.000000 -0.982690 -0.077313
v -0.370000 -0.982690 -0.077313
v -1.000000 -0.986028 -0.090640
v -0.370000 -0.986028 -0.090640
v -1.000000 -0.990657 -0.103576
v -0.370000 -0.990657 -0.103576
v -1.000000 -0.996531 -0.115996
v -0.370000 -0.996531 -0.115996
v -1.000000 -1.003594 -0.127780
v -0.370000 -1.003594 -0.127780
v -1.000000 -1.011779 -0.138815
v -0.370000 -1.011779 -0.138815
v -1.000000 -1.021005 -0.148995
v -0.370000 -1.021005 -0.148995
v -1.000000 -1.031185 -0.158221
v -0.370000 -1.031185 -0.158221
v -1.000000 -1.042220 -0.166406
v -0.370000 -1.042220 -0.166406
v -1.000000 -1.054004 -0.173469
v -0.370000 -1.054004 -0.173469
v -1.000000 -1.066424 -0.179343
v -0.370000 -1.066424 -0.179343
v -1.000000 -1.079360 -0.183972
v -0.370000 -1.079360 -0.183972
v -1.000000 -1.092687 -0.187310
v -0.370000 -1.092687 -0.187310
v -1.000000 -1.106278 -0.189326
v -0.370000 -1.106278 -0.189326
v -1.000000 -1.120000 -0.190000
v -0.370000 -1.120000 -0.190000
v -1.000000 -1.133722 -0.189326
v -1.000000 -1.147313 -0.187310
v -0.370000 -1.147313 -0.187310
v -1.000000 -1.160640 -0.183972
v -0.370000 -1.160640 -0.183972
v -1.000000 -1.173576 -0.179343
v -0.370000 -1.173576 -0.179343
v -1.000000 -1.185996 -0.173469
v -0.370000 -1.185996 -0.173469
v -1.000000 -1.197780 -0.166406
v -0.370000 -1.197780 -0.166406
v -1.000000 -1.208815 -0.158221
v -0.370000 -1.208815 -0.158221
v -1.000000 -1.218995 -0.148995
v -0.370000 -1.218995 -0.148995
v -1.000000 -1.228221 -0.138815
v -0.370000 -1.228221 -0.138815
v -1.000000 -1.236406 -0.127780
v -0.370000 -1.236406 -0.127780
v -1.000000 -1.243469 -0.115996
v -0.370000 -1.243469 -0.115996
v -1.000000 -1.249343 -0.103576
v -0.370000 -1.249343 -0.103576
v -1.000000 -1.253972 -0.090640
v -0.370000 -1.253972 -0.090640
v -1.000000 -1.257310 -0.077313
v -0.370000 -1.257310 -0.077313
v -1.000000 -1.259326 -0.063722
v -0.370000 -1.259326 -0.063722
v -1.000000 -1.260000 -0.050000
v -0.370000 -1.260000 -0.050000
v -1.000000 -1.259326 -0.036278
v -0.370000 -1.259326 -0.036278
v -1.000000 -1.257310 -0.022687
v -1.000000 -1.253972 -0.009360
v -0.370000 -1.253972 -0.009360
v -1.000000 -1.249343 0.003576
v -0.370000 -1.249343 0.003576
v -1.000000 -1.243469 0.015996
v -0.370000 -1.243469 0.015996
v -1.000000 -1.236406 0.027780
v -0.370000 -1.236406 0.027780
v -1.000000 -1.228221 0.038815
v -0.370000 -1.228221 0.038815
v -1.000000 -1.218995 0.048995
v -0.370000 -1.218995 0.048995
v -1.000000 -1.208815 0.058221
v -0.370000 -1.208815 0.058221
v -1.000000 -1.197780 0.066406
v -0.370000 -1.197780 0.066406
v -1.000000 -1.185996 0.073469
v -0.370000 -1.185996 0.073469
v -1.000000 -1.173576 0.079343
v -0.370000 -1.173576 0.079343
v -1.000000 -1.160640 0.083972
v -0.370000 -1.160640 0.083972
v -1.000000 -1.147313 0.087310
v -0.370000 -1.147313 0.087310
v -1.000000 -1.133722 0.089326
v -0.370000 -1.133722 0.089326
v -1.000000 -1.120000 0.090000
v -0.370000 -1.120000 0.090000
v -1.000000 -1.106278 0.089326
v -0.370000 -1.106278 0.089326
v -1.000000 -1.092687 0.087310
v -0.370000 -1.092687 0.087310
v -1.000000 -1.079360 0.083972
v -0.370000 -1.079360 0.083972
v -1.000000 -1.066424 0.079343
v -0.370000 -1.066424 0.079343
v -1.000000 -1.054004 0.073469
v -0.370000 -1.054004 0.073469
v -1.000000 -1.042220 0.066406
v -0.370000 -1.042220 0.066406
v -1.000000 -1.031185 0.058221
v -1.000000 -1.021005 0.048995
v -0.370000 -1.021005 0.048995
v -1.000000 -1.011779 0.038815
v -0.370000 -1.011779 0.038815
v -1.000000 -1.003594 0.027780
v -0.370000 -1.003594 0.027780
v -1.000000 -0.996531 0.015996
v -0.370000 -0.996531 0.015996
v -1.000000 -0.990657 0.003576
v -0.370000 -0.990657 0.003576
v -1.000000 -0.986028 -0.009360
v -0.370000 -0.986028 -0.009360
v -1.000000 -0.982690 -0.022687
v -0.370000 -0.982690 -0.022687
v -1.000000 -0.980674 -0.036278
v -0.370000 -0.980674 -0.036278
v -0.520000 -1.035379 0.061332
v -0.370000 -1.035379 0.061332
v -0.520000 -1.031185 0.058221
v -0.370000 -1.024669 0.052315
v -0.520000 -1.024669 0.052315
v -0.370000 -1.074705 -0.007089
v -0.370000 -1.085412 0.001930
v -0.370000 -1.258862 -0.033153
v -0.520000 -1.258862 -0.033153
v -0.520000 -1.257310 -0.022687
v -0.520000 -1.256476 -0.019358
v -0.370000 -1.256476 -0.019358
v -0.370000 -1.179908 -0.032564
v -0.370000 -1.182288 -0.046360
v -0.370000 -1.132796 -0.189371
v -0.520000 -1.132796 -0.189371
v -0.520000 -1.133722 -0.189326
v -0.370000 -1.146658 -0.187407
v -0.520000 -1.146658 -0.187407
v -0.370000 -1.135679 -0.110392
v -0.370000 -1.121819 -0.112367
v -0.410000 -0.968000 -0.050000
v -0.380000 -0.968000 -0.050000
v -0.410000 -0.968732 -0.064899
v -0.380000 -0.968732 -0.064899
v -0.410000 -0.970921 -0.079654
v -0.380000 -0.970921 -0.079654
v -0.410000 -0.974545 -0.094123
v -0.380000 -0.974545 -0.094123
v -0.410000 -0.979570 -0.108168
v -0.380000 -0.979570 -0.108168
v -0.410000 -0.985948 -0.121652
v -0.380000 -0.985948 -0.121652
v -0.410000 -0.993617 -0.134447
v -0.380000 -0.993617 -0.134447
v -0.410000 -1.002502 -0.146428
v -0.380000 -1.002502 -0.146428
v -0.410000 -1.012520 -0.157480
v -0.380000 -1.012520 -0.157480
v -0.410000 -1.023572 -0.167498
v -0.380000 -1.023572 -0.167498
v -0.410000 -1.035553 -0.176383
v -0.380000 -1.035553 -0.176383
v -0.410000 -1.048348 -0.184052
v -0.380000 -1.048348 -0.184052
v -0.410000 -1.061832 -0.190430
v -0.380000 -1.061832 -0.190430
v -0.410000 -1.075877 -0.195455
v -0.380000 -1.075877 -0.195455
v -0.410000 -1.090346 -0.199079
v -0.380000 -1.090346 -0.199079
v -0.410000 -1.105101 -0.201268
v -0.380000 -1.105101 -0.201268
v -0.410000 -1.120000 -0.202000
v -0.380000 -1.120000 -0.202000
v -0.410000 -1.134899 -0.201268
v -0.380000 -1.134899 -0.201268
v -0.410000 -1.149654 -0.199079
v -0.380000 -1.149654 -0.199079
v -0.410000 -1.164123 -0.195455
v -0.380000 -1.164123 -0.195455
v -0.410000 -1.178168 -0.190430
v -0.380000 -1.178168 -0.190430
v -0.410000 -1.191652 -0.184052
v -0.380000 -1.191652 -0.184052
v -0.410000 -1.204447 -0.176383
v -0.380000 -1.204447 -0.176383
v -0.410000 -1.216428 -0.167498
v -0.380000 -1.216428 -0.167498
v -0.410000 -1.227480 -0.157480
v -0.380000 -1.227480 -0.157480
v -0.410000 -1.237498 -0.146428
v -0.380000 -1.237498 -0.146428
v -0.410000 -1.246383 -0.134447
v -0.380000 -1.246383 -0.134447
v -0.410000 -1.254052 -0.121652
v -0.380000 -1.254052 -0.121652
v -0.410000 -1.260430 -0.108168
v -0.380000 -1.260430 -0.108168
v -0.410000 -1.265455 -0.094123
v -0.380000 -1.265455 -0.094123
v -0.410000 -1.269079 -0.079654
v -0.380000 -1.269079 -0.079654
v -0.410000 -1.271268 -0.064899
v -0.380000 -1.271268 -0.064899
v -0.410000 -1.272000 -0.050000
v -0.380000 -1.272000 -0.050000
v -0.410000 -1.271268 -0.035101
v -0.380000 -1.271268 -0.035101
v -0.410000 -1.269079 -0.020346
v -0.380000 -1.269079 -0.020346
v -0.410000 -1.265455 -0.005877
v -0.380000 -1.265455 -0.005877
v -0.410000 -1.260430 0.008168
v -0.380000 -1.260430 0.008168
v -0.410000 -1.254052 0.021652
v -0.380000 -1.254052 0.021652
v -0.410000 -1.246383 0.034447
v -0.380000 -1.246383 0.034447
v -0.410000 -1.237498 0.046428
v -0.380000 -1.237498 0.046428
v -0.410000 -1.227480 0.057480
v -0.380000 -1.227480 0.057480
v -0.410000 -1.216428 0.067498
v -0.380000 -1.216428 0.067498
v -0.410000 -1.204447 0.076383
v -0.380000 -1.204447 0.076383
v -0.410000 -1.191652 0.084052
v -0.380000 -1.191652 0.084052
v -0.410000 -1.178168 0.090430
v -0.380000 -1.178168 0.090430
v -0.410000 -1.164123 0.095455
v -0.380000 -1.164123 0.095455
v -0.410000 -1.149654 0.099079
v -0.380000 -1.149654 0.099079
v -0.410000 -1.134899 0.101268
v -0.380000 -1.134899 0.101268
v -0.410000 -1.120000 0.102000
v -0.380000 -1.120000 0.102000
v -0.410000 -1.105101 0.101268
v -0.380000 -1.105101 0.101268
v -0.410000 -1.090346 0.099079
v -0.380000 -1.090346 0.099079
v -0.410000 -1.075877 0.095455
v -0.380000 -1.075877 0.095455
v -0.410000 -1.061832 0.090430
v -0.380000 -1.061832 0.090430
v -0.410000 -1.048348 0.084052
v -0.380000 -1.048348 0.084052
v -0.410000 -1.035553 0.076383
v -0.380000 -1.035553 0.076383
v -0.410000 -1.023572 0.067498
v -0.380000 -1.023572 0.067498
v -0.410000 -1.012520 0.057480
v -0.380000 -1.012520 0.057480
v -0.410000 -1.002502 0.046428
v -0.380000 -1.002502 0.046428
v -0.410000 -0.993617 0.034447
v -0.380000 -0.993617 0.034447
v -0.410000 -0.985948 0.021652
v -0.380000 -0.985948 0.021652
v -0.410000 -0.979570 0.008168
v -0.380000 -0.979570 0.008168
v -0.410000 -0.974545 -0.005877
v -0.380000 -0.974545 -0.005877
v -0.410000 -0.970921 -0.020346
v -0.380000 -0.970921 -0.020346
v -0.410000 -0.968732 -0.035101
v -0.380000 -0.968732 -0.035101
v -0.380000 -1.070251 0.070104
v -0.380000 -1.058718 0.064650
v -0.380000 -1.047776 0.058091
v -0.380000 -1.037529 0.050491
v -0.380000 -1.019509 0.032471
v -0.380000 -1.028076 0.041924
v -0.380000 -0.999896 -0.000251
v -0.380000 -1.005350 0.011282
v -0.380000 -0.992498 -0.024638
v -0.380000 -0.990000 -0.050000
v -0.380000 -0.990626 -0.037258
v -0.380000 -0.995598 -0.012263
v -0.380000 -1.011909 0.022224
v -0.380000 -1.120000 0.080000
v -0.380000 -1.132742 0.079374
v -0.380000 -1.145362 0.077502
v -0.380000 -1.157737 0.074402
v -0.380000 -1.181282 0.064650
v -0.380000 -1.169749 0.070104
v -0.380000 -1.211924 0.041924
v -0.380000 -1.202471 0.050491
v -0.380000 -1.228091 0.022224
v -0.380000 -1.240104 -0.000251
v -0.380000 -1.234650 0.011282
v -0.380000 -1.220491 0.032471
v -0.380000 -1.192224 0.058091
v -0.380000 -1.250000 -0.050000
v -0.380000 -1.249374 -0.062742
v -0.380000 -1.247502 -0.075362
v -0.380000 -1.244402 -0.087737
v -0.380000 -1.234650 -0.111282
v -0.380000 -1.240104 -0.099749
v -0.380000 -1.220491 -0.132471
v -0.380000 -1.211924 -0.141924
v -0.380000 -1.202471 -0.150491
v -0.380000 -1.192224 -0.158091
v -0.380000 -1.169749 -0.170104
v -0.380000 -1.181282 -0.164650
v -0.380000 -1.228091 -0.122224
v -0.380000 -0.999896 -0.099749
v -0.380000 -1.005350 -0.111282
v -0.380000 -1.011909 -0.122224
v -0.380000 -1.019509 -0.132471
v -0.380000 -1.037529 -0.150491
v -0.380000 -1.028076 -0.141924
v -0.380000 -1.058718 -0.164650
v -0.380000 -1.082263 -0.174402
v -0.380000 -1.070251 -0.170104
v -0.380000 -1.120000 -0.180000
v -0.380000 -1.107258 -0.179374
v -0.380000 -1.094638 -0.177502
v -0.380000 -1.047776 -0.158091
v -0.380000 -1.107258 0.079374
v -0.380000 -1.082263 0.074402
v -0.380000 -1.094638 0.077502
v -0.380000 -1.244402 -0.012263
v -0.380000 -0.990626 -0.062742
v -0.380000 -0.992498 -0.075362
v -0.380000 -1.249374 -0.037258
v -0.380000 -1.247502 -0.024638
v -0.380000 -0.995598 -0.087737
v -0.380000 -1.157737 -0.174402
v -0.380000 -1.145362 -0.177502
v -0.380000 -1.132742 -0.179374
v -0.410000 -0.990626 -0.062742
v -0.410000 -0.992498 -0.075362
v -0.410000 -0.995598 -0.087737
v -0.410000 -0.999896 -0.099749
v -0.410000 -1.011909 -0.122224
v -0.410000 -1.005350 -0.111282
v -0.410000 -1.028076 -0.141924
v -0.410000 -1.037529 -0.150491
v -0.410000 -1.047776 -0.158091
v -0.410000 -1.058718 -0.164650
v -0.410000 -1.082263 -0.174402
v -0.410000 -1.070251 -0.170104
v -0.410000 -1.019509 -0.132471
v -0.410000 -1.244402 -0.087737
v -0.410000 -1.240104 -0.099749
v -0.410000 -1.234650 -0.111282
v -0.410000 -1.228091 -0.122224
v -0.410000 -1.211924 -0.141924
v -0.410000 -1.220491 -0.132471
v -0.410000 -1.192224 -0.158091
v -0.410000 -1.169749 -0.170104
v -0.410000 -1.181282 -0.164650
v -0.410000 -1.157737 -0.174402
v -0.410000 -1.132742 -0.179374
v -0.410000 -1.145362 -0.177502
v -0.410000 -1.202471 -0.150491
v -0.410000 -1.157737 0.074402
v -0.410000 -1.169749 0.070104
v -0.410000 -1.181282 0.064650
v -0.410000 -1.192224 0.058091
v -0.410000 -1.211924 0.041924
v -0.410000 -1.202471 0.050491
v -0.410000 -1.234650 0.011282
v -0.410000 -1.228091 0.022224
v -0.410000 -1.244402 -0.012263
v -0.410000 -1.249374 -0.037258
v -0.410000 -1.247502 -0.024638
v -0.410000 -1.240104 -0.000251
v -0.410000 -1.220491 0.032471
v -0.410000 -1.107258 0.079374
v -0.410000 -1.094638 0.077502
v -0.410000 -1.082263 0.074402
v -0.410000 -1.070251 0.070104
v -0.410000 -1.047776 0.058091
v -0.410000 -1.058718 0.064650
v -0.410000 -1.019509 0.032471
v -0.410000 -1.028076 0.041924
v -0.410000 -1.005350 0.011282
v -0.410000 -0.995598 -0.012263
v -0.410000 -0.999896 -0.000251
v -0.410000 -1.011909 0.022224
v -0.410000 -1.037529 0.050491
v -0.410000 -0.990000 -0.050000
v -0.410000 -1.247502 -0.075362
v -0.410000 -1.249374 -0.062742
v -0.410000 -1.094638 -0.177502
v -0.410000 -1.120000 -0.180000
v -0.410000 -1.107258 -0.179374
v -0.410000 -1.120000 0.080000
v -0.410000 -1.145362 0.077502
v -0.410000 -1.132742 0.079374
v -0.410000 -0.992498 -0.024638
v -0.410000 -0.990626 -0.037258
v -0.410000 -1.250000 -0.050000
vn -0.0000 0.9988 -0.0491
vn -0.0000 0.9892 -0.1467
vn -0.0000 0.9700 -0.2430
vn -0.0000 0.9415 -0.3369
vn -0.0000 0.9040 -0.4276
vn -0.0000 0.8577 -0.5141
vn -0.0000 0.8032 -0.5957
vn -0.0000 0.7410 -0.6716
vn -0.0000 0.6716 -0.7410
vn -0.0000 0.5957 -0.8032
vn -0.0000 0.5141 -0.8577
vn -0.0000 0.4276 -0.9040
vn -0.0000 0.3369 -0.9415
vn -0.0000 0.2430 -0.9700
vn -0.0000 0.1467 -0.9892
vn -0.0000 0.0491 -0.9988
vn -0.0000 -0.0491 -0.9988
vn -0.0000 -0.1467 -0.9892
vn -0.0000 -0.2430 -0.9700
vn -0.0000 -0.3369 -0.9415
vn -0.0000 -0.4276 -0.9040
vn -0.0000 -0.5141 -0.8577
vn -0.0000 -0.5957 -0.8032
vn -0.0000 -0.6716 -0.7409
vn -0.0000 -0.7410 -0.6716
vn -0.0000 -0.8032 -0.5957
vn -0.0000 -0.8577 -0.5141
vn -0.0000 -0.9040 -0.4276
vn -0.0000 -0.9415 -0.3369
vn -0.0000 -0.9700 -0.2430
vn -0.0000 -0.9892 -0.1467
vn -0.0000 -0.9988 -0.0491
vn -0.0000 -0.9988 0.0491
vn -0.0000 -0.9892 0.1467
vn -0.0000 -0.9700 0.2430
vn -0.0000 -0.9415 0.3369
vn -0.0000 -0.9040 0.4276
vn -0.0000 -0.8577 0.5141
vn -0.0000 -0.8032 0.5957
vn -0.0000 -0.7410 0.6716
vn -0.0000 -0.6716 0.7410
vn -0.0000 -0.5957 0.8032
vn -0.0000 -0.5141 0.8577
vn -0.0000 -0.4276 0.9040
vn -0.0000 -0.3369 0.9415
vn -0.0000 -0.2430 0.9700
vn -0.0000 -0.1467 0.9892
vn -0.0000 -0.0491 0.9988
vn -0.0000 0.0491 0.9988
vn -0.0000 0.1467 0.9892
vn -0.0000 0.2430 0.9700
vn -0.0000 0.3369 0.9415
vn -0.0000 0.4276 0.9040
vn -0.0000 0.5141 0.8577
vn -0.0000 0.5957 0.8032
vn -0.0000 0.6716 0.7409
vn -0.0000 0.7410 0.6716
vn -0.0000 0.8032 0.5957
vn -0.0000 0.8577 0.5141
vn -0.0000 0.9040 0.4276
vn -0.0000 0.9415 0.3369
vn -0.0000 0.9700 0.2430
vn 1.0000 -0.0000 -0.0000
vn -0.0000 0.9892 0.1467
vn -0.0000 0.9988 0.0491
vn -1.0000 -0.0000 -0.0000
vn -0.0000 -0.7648 0.6442
vn -0.0000 0.7648 -0.6442
vn -0.0000 0.6442 0.7648
vn -0.0000 -0.1700 -0.9854
vn -0.0000 0.1700 0.9854
vn -0.0000 -0.9854 0.1700
vn -0.0000 0.9900 -0.1411
vn -0.0000 -0.9900 0.1411
vn -0.0000 -0.1411 -0.9900
vn -0.0000 -0.6716 -0.7410
vn -0.0000 0.6716 0.7410
vn -0.0000 0.6716 -0.7409
vn -0.0000 -0.6716 0.7409
vn 1.0000 -0.0000 -0.0001
vn 1.0000 -0.0000 0.0001
vn -1.0000 -0.0000 0.0001
vn -1.0000 -0.0000 -0.0001
vn 1.0000 -0.0000 -0.0005
s 0
usemtl rubber
f 6//1 9//1 1//1
f 10//2 11//2 9//2
f 12//3 13//3 11//3
f 14//4 15//4 13//4
f 16//5 17//5 15//5
f 18//6 19//6 17//6
f 20//7 21//7 19//7
f 22//8 23//8 21//8
f 24//9 25//9 23//9
f 26//10 27//10 25//10
f 28//11 29//11 27//11
f 30//12 31//12 29//12
f 32//13 33//13 31//13
f 34//14 35//14 33//14
f 36//15 37//15 35//15
f 38//16 39//16 37//16
f 41//17 40//17 147//17
f 42//18 148//18 150//18
f 43//19 44//19 42//19
f 45//20 46//20 44//20
f 47//21 48//21 46//21
f 49//22 50//22 48//22
f 51//23 52//23 50//23
f 53//24 54//24 52//24
f 55//25 56//25 54//25
f 57//26 58//26 56//26
f 59//27 60//27 58//27
f 61//28 62//28 60//28
f 63//29 64//29 62//29
f 65//30 66//30 64//30
f 67//31 68//31 66//31
f 69//32 70//32 68//32
f 71//33 72//33 70//33
f 140//34 72//34 139//34
f 76//35 74//35 142//35
f 76//36 77//36 75//36
f 78//37 79//37 77//37
f 80//38 81//38 79//38
f 82//39 83//39 81//39
f 84//40 85//40 83//40
f 86//41 87//41 85//41
f 88//42 89//42 87//42
f 90//43 91//43 89//43
f 92//44 93//44 91//44
f 94//45 95//45 93//45
f 96//46 97//46 95//46
f 98//47 99//47 97//47
f 100//48 101//48 99//48
f 102//49 103//49 101//49
f 104//50 105//50 103//50
f 106//51 107//51 105//51
f 108//52 109//52 107//52
f 110//53 111//53 109//53
f 112//54 113//54 111//54
f 132//55 115//55 114//55
f 136//56 117//56 115//56
f 117//57 118//57 116//57
f 119//58 120//58 118//58
f 121//59 122//59 120//59
f 123//60 124//60 122//60
f 125//61 126//61 124//61
f 127//62 128//62 126//62
f 144//63 145//63 47//63
f 129//64 130//64 128//64
f 131//65 1//65 130//65
f 66//66 97//66 128//66
f 132//63 8//63 136//63
f 136//67 137//67 135//67
f 132//68 138//68 5//68
f 5//69 137//69 8//69
f 140//63 7//63 142//63
f 142//70 144//70 143//70
f 140//71 145//71 3//71
f 7//72 145//72 144//72
f 4//63 148//63 147//63
f 4//73 149//73 150//73
f 2//74 146//74 152//74
f 4//75 152//75 151//75
f 154//1 155//1 153//1
f 156//2 157//2 155//2
f 158//3 159//3 157//3
f 160//4 161//4 159//4
f 162//5 163//5 161//5
f 164//6 165//6 163//6
f 166//7 167//7 165//7
f 168//8 169//8 167//8
f 170//9 171//9 169//9
f 172//10 173//10 171//10
f 174//11 175//11 173//11
f 176//12 177//12 175//12
f 178//13 179//13 177//13
f 180//14 181//14 179//14
f 182//15 183//15 181//15
f 184//16 185//16 183//16
f 186//17 187//17 185//17
f 188//18 189//18 187//18
f 190//19 191//19 189//19
f 192//20 193//20 191//20
f 194//21 195//21 193//21
f 196//22 197//22 195//22
f 198//23 199//23 197//23
f 200//76 201//76 199//76
f 202//25 203//25 201//25
f 204//26 205//26 203//26
f 206//27 207//27 205//27
f 208//28 209//28 207//28
f 210//29 211//29 209//29
f 212//30 213//30 211//30
f 214//31 215//31 213//31
f 216//32 217//32 215//32
f 218//33 219//33 217//33
f 220//34 221//34 219//34
f 222//35 223//35 221//35
f 224//36 225//36 223//36
f 226//37 227//37 225//37
f 228//38 229//38 227//38
f 230//39 231//39 229//39
f 232//40 233//40 231//40
f 234//41 235//41 233//41
f 236//42 237//42 235//42
f 238//43 239//43 237//43
f 240//44 241//44 239//44
f 242//45 243//45 241//45
f 244//46 245//46 243//46
f 246//47 247//47 245//47
f 248//48 249//48 247//48
f 250//49 251//49 249//49
f 252//50 253//50 251//50
f 254//51 255//51 253//51
f 256//52 257//52 255//52
f 258//53 259//53 257//53
f 260//54 261//54 259//54
f 262//55 263//55 261//55
f 264//77 265//77 263//77
f 266//57 267//57 265//57
f 268//58 269//58 267//58
f 270//59 271//59 269//59
f 272//60 273//60 271//60
f 274//61 275//61 273//61
f 276//62 277//62 275//62
f 200//63 319//63 311//63
f 270//63 293//63 288//63
f 278//64 279//64 277//64
f 280//65 153//65 279//65
f 231//66 375//66 383//66
f 167//66 351//66 357//66
f 337//33 397//33 345//33
f 338//34 345//34 346//34
f 341//35 346//35 347//35
f 320//36 347//36 348//36
f 321//37 348//37 350//37
f 322//38 350//38 349//38
f 323//39 349//39 357//39
f 325//40 357//40 351//40
f 325//41 352//41 324//41
f 324//42 353//42 332//42
f 332//43 354//43 326//43
f 326//44 356//44 328//44
f 328//45 355//45 327//45
f 327//46 400//46 331//46
f 331//47 402//47 330//47
f 330//48 401//48 329//48
f 329//49 368//49 344//49
f 344//50 369//50 343//50
f 343//51 367//51 342//51
f 342//52 365//52 317//52
f 317//53 366//53 318//53
f 318//54 364//54 316//54
f 316//55 370//55 315//55
f 315//77 362//77 314//77
f 314//57 363//57 313//57
f 313//58 361//58 319//58
f 319//59 360//59 311//59
f 311//60 359//60 312//60
f 312//61 358//61 310//61
f 310//62 398//62 309//62
f 309//64 399//64 308//64
f 308//65 408//65 307//65
f 307//1 380//1 339//1
f 339//2 381//2 340//2
f 340//3 379//3 336//3
f 336//4 382//4 303//4
f 303//5 377//5 304//5
f 304//6 378//6 302//6
f 302//7 383//7 305//7
f 305//8 375//8 300//8
f 301//9 375//9 376//9
f 306//10 376//10 374//10
f 298//11 374//11 373//11
f 299//12 373//12 372//12
f 297//13 372//13 371//13
f 296//14 371//14 404//14
f 295//15 404//15 405//15
f 294//16 405//16 403//16
f 333//17 403//17 384//17
f 335//18 384//18 385//18
f 334//19 385//19 386//19
f 281//20 386//20 387//20
f 282//21 387//21 389//21
f 283//22 389//22 388//22
f 284//23 388//23 396//23
f 286//76 396//76 391//76
f 285//25 391//25 390//25
f 293//26 390//26 395//26
f 288//27 395//27 392//27
f 287//28 392//28 394//28
f 292//29 394//29 393//29
f 289//30 393//30 406//30
f 291//31 406//31 407//31
f 290//32 407//32 397//32
f 6//1 10//1 9//1
f 10//2 12//2 11//2
f 12//3 14//3 13//3
f 14//4 16//4 15//4
f 16//5 18//5 17//5
f 18//6 20//6 19//6
f 20//7 22//7 21//7
f 22//8 24//8 23//8
f 24//78 26//78 25//78
f 26//10 28//10 27//10
f 28//11 30//11 29//11
f 30//12 32//12 31//12
f 32//13 34//13 33//13
f 34//14 36//14 35//14
f 36//15 38//15 37//15
f 38//16 40//16 39//16
f 147//17 148//17 41//17
f 41//17 39//17 40//17
f 40//17 146//17 147//17
f 149//18 43//18 42//18
f 42//18 41//18 148//18
f 150//18 149//18 42//18
f 43//19 45//19 44//19
f 45//20 47//20 46//20
f 47//21 49//21 48//21
f 49//22 51//22 50//22
f 51//23 53//23 52//23
f 53//76 55//76 54//76
f 55//25 57//25 56//25
f 57//26 59//26 58//26
f 59//27 61//27 60//27
f 61//28 63//28 62//28
f 63//29 65//29 64//29
f 65//30 67//30 66//30
f 67//31 69//31 68//31
f 69//32 71//32 70//32
f 71//33 73//33 72//33
f 140//34 141//34 74//34
f 72//34 73//34 139//34
f 140//34 74//34 72//34
f 142//35 143//35 76//35
f 76//35 75//35 74//35
f 74//35 141//35 142//35
f 76//36 78//36 77//36
f 78//37 80//37 79//37
f 80//38 82//38 81//38
f 82//39 84//39 83//39
f 84//40 86//40 85//40
f 86//79 88//79 87//79
f 88//42 90//42 89//42
f 90//43 92//43 91//43
f 92//44 94//44 93//44
f 94//45 96//45 95//45
f 96//46 98//46 97//46
f 98//47 100//47 99//47
f 100//48 102//48 101//48
f 102//49 104//49 103//49
f 104//50 106//50 105//50
f 106//51 108//51 107//51
f 108//52 110//52 109//52
f 110//53 112//53 111//53
f 112//54 114//54 113//54
f 132//55 134//55 115//55
f 115//55 113//55 114//55
f 114//55 133//55 132//55
f 136//77 135//77 117//77
f 117//77 116//77 115//77
f 115//77 134//77 136//77
f 117//57 119//57 118//57
f 119//58 121//58 120//58
f 121//59 123//59 122//59
f 123//60 125//60 124//60
f 125//61 127//61 126//61
f 127//62 129//62 128//62
f 152//63 146//63 40//63
f 40//80 38//80 36//80
f 36//81 34//81 32//81
f 32//63 30//63 28//63
f 28//63 26//63 24//63
f 24//63 22//63 20//63
f 20//63 18//63 16//63
f 16//63 14//63 12//63
f 12//63 10//63 6//63
f 6//63 131//63 129//63
f 129//63 127//63 125//63
f 125//63 123//63 121//63
f 121//63 119//63 117//63
f 117//63 135//63 137//63
f 138//63 133//63 114//63
f 121//63 117//63 137//63
f 138//63 114//63 112//63
f 125//63 121//63 137//63
f 138//63 112//63 110//63
f 129//63 125//63 137//63
f 138//63 110//63 108//63
f 6//63 129//63 137//63
f 138//63 108//63 106//63
f 12//63 6//63 137//63
f 138//63 106//63 104//63
f 16//63 12//63 137//63
f 138//63 104//63 102//63
f 16//63 137//63 138//63
f 24//63 20//63 16//63
f 32//63 28//63 24//63
f 40//63 36//63 32//63
f 152//63 40//63 32//63
f 32//63 24//63 16//63
f 138//63 102//63 100//63
f 32//63 16//63 138//63
f 152//63 32//63 138//63
f 138//63 100//63 98//63
f 98//80 96//80 94//80
f 94//63 92//63 90//63
f 90//63 88//63 86//63
f 86//63 84//63 82//63
f 82//63 80//63 78//63
f 78//63 76//63 143//63
f 78//63 143//63 144//63
f 86//63 82//63 78//63
f 94//63 90//63 86//63
f 138//63 98//63 94//63
f 151//63 152//63 138//63
f 43//63 149//63 151//63
f 47//81 45//81 43//81
f 51//63 49//63 47//63
f 55//63 53//63 51//63
f 59//63 57//63 55//63
f 63//63 61//63 59//63
f 67//63 65//63 63//63
f 71//63 69//63 67//63
f 139//63 73//63 71//63
f 145//63 139//63 71//63
f 71//63 67//63 63//63
f 63//63 59//63 55//63
f 55//63 51//63 47//63
f 47//63 43//63 151//63
f 151//63 138//63 94//63
f 94//63 86//63 78//63
f 94//63 78//63 144//63
f 47//63 151//63 94//63
f 63//63 55//63 47//63
f 145//63 71//63 63//63
f 47//63 94//63 144//63
f 145//63 63//63 47//63
f 129//64 131//64 130//64
f 131//65 6//65 1//65
f 128//66 130//66 1//66
f 1//66 9//66 11//66
f 11//66 13//66 15//66
f 15//66 17//66 19//66
f 19//66 21//66 23//66
f 23//66 25//66 27//66
f 27//66 29//66 31//66
f 31//82 33//82 35//82
f 35//83 37//83 39//83
f 39//83 41//83 42//83
f 42//82 44//82 46//82
f 46//66 48//66 50//66
f 50//66 52//66 54//66
f 54//66 56//66 58//66
f 58//66 60//66 62//66
f 62//66 64//66 66//66
f 66//66 68//66 70//66
f 70//66 72//66 74//66
f 74//66 75//66 77//66
f 77//66 79//66 81//66
f 81//66 83//66 85//66
f 85//66 87//66 89//66
f 89//66 91//66 93//66
f 93//83 95//83 97//83
f 97//82 99//82 101//82
f 101//82 103//82 105//82
f 105//83 107//83 109//83
f 109//66 111//66 113//66
f 113//66 115//66 116//66
f 116//66 118//66 120//66
f 120//66 122//66 124//66
f 124//66 126//66 128//66
f 128//66 1//66 11//66
f 11//66 15//66 19//66
f 19//66 23//66 27//66
f 27//66 31//66 35//66
f 35//66 39//66 42//66
f 42//66 46//66 50//66
f 50//66 54//66 58//66
f 58//66 62//66 66//66
f 66//66 70//66 74//66
f 74//66 77//66 81//66
f 81//66 85//66 89//66
f 89//66 93//66 97//66
f 97//66 101//66 105//66
f 105//66 109//66 113//66
f 113//66 116//66 120//66
f 120//66 124//66 128//66
f 128//66 11//66 19//66
f 19//66 27//66 35//66
f 35//66 42//66 50//66
f 50//66 58//66 66//66
f 66//66 74//66 81//66
f 81//66 89//66 97//66
f 97//66 105//66 113//66
f 113//66 120//66 128//66
f 128//66 19//66 35//66
f 35//66 50//66 66//66
f 66//66 81//66 97//66
f 97//66 113//66 128//66
f 128//66 35//66 66//66
f 136//63 134//63 132//63
f 132//63 5//63 8//63
f 136//67 8//67 137//67
f 132//68 133//68 138//68
f 5//69 138//69 137//69
f 142//63 141//63 140//63
f 140//63 3//63 7//63
f 142//70 7//70 144//70
f 140//71 139//71 145//71
f 7//72 3//72 145//72
f 147//63 2//63 4//63
f 4//63 150//63 148//63
f 4//73 151//73 149//73
f 2//74 147//74 146//74
f 4//75 2//75 152//75
f 154//1 156//1 155//1
f 156//2 158//2 157//2
f 158//3 160//3 159//3
f 160//4 162//4 161//4
f 162//5 164//5 163//5
f 164//6 166//6 165//6
f 166//7 168//7 167//7
f 168//8 170//8 169//8
f 170//9 172//9 171//9
f 172//10 174//10 173//10
f 174//11 176//11 175//11
f 176//12 178//12 177//12
f 178//13 180//13 179//13
f 180//14 182//14 181//14
f 182//15 184//15 183//15
f 184//16 186//16 185//16
f 186//17 188//17 187//17
f 188//18 190//18 189//18
f 190//19 192//19 191//19
f 192//20 194//20 193//20
f 194//21 196//21 195//21
f 196//22 198//22 197//22
f 198//23 200//23 199//23
f 200//76 202//76 201//76
f 202//25 204//25 203//25
f 204//26 206//26 205//26
f 206//27 208//27 207//27
f 208//28 210//28 209//28
f 210//29 212//29 211//29
f 212//30 214//30 213//30
f 214//31 216//31 215//31
f 216//32 218//32 217//32
f 218//33 220//33 219//33
f 220//34 222//34 221//34
f 222//35 224//35 223//35
f 224//36 226//36 225//36
f 226//37 228//37 227//37
f 228//38 230//38 229//38
f 230//39 232//39 231//39
f 232//40 234//40 233//40
f 234//41 236//41 235//41
f 236//42 238//42 237//42
f 238//43 240//43 239//43
f 240//44 242//44 241//44
f 242//45 244//45 243//45
f 244//46 246//46 245//46
f 246//47 248//47 247//47
f 248//48 250//48 249//48
f 250//49 252//49 251//49
f 252//50 254//50 253//50
f 254//51 256//51 255//51
f 256//52 258//52 257//52
f 258//53 260//53 259//53
f 260//54 262//54 261//54
f 262//55 264//55 263//55
f 264//77 266//77 265//77
f 266//57 268//57 267//57
f 268//58 270//58 269//58
f 270//59 272//59 271//59
f 272//60 274//60 273//60
f 274//61 276//61 275//61
f 276//62 278//62 277//62
f 335//63 254//63 252//63
f 252//63 250//63 248//63
f 248//63 246//63 244//63
f 244//63 242//63 240//63
f 240//63 238//63 236//63
f 236//63 234//63 232//63
f 232//63 230//63 228//63
f 228//63 226//63 224//63
f 224//63 222//63 220//63
f 220//63 218//63 216//63
f 216//63 214//63 212//63
f 212//63 210//63 208//63
f 208//63 206//63 204//63
f 204//63 202//63 200//63
f 200//63 198//63 196//63
f 196//63 194//63 192//63
f 192//63 190//63 188//63
f 188//63 186//63 184//63
f 184//63 182//63 180//63
f 180//63 178//63 176//63
f 176//63 174//63 172//63
f 172//63 170//63 168//63
f 168//63 166//63 164//63
f 164//63 162//63 160//63
f 160//63 158//63 338//63
f 160//63 338//63 341//63
f 168//63 164//63 160//63
f 176//63 172//63 168//63
f 184//63 180//63 176//63
f 192//63 188//63 184//63
f 200//63 196//63 192//63
f 208//63 204//63 200//63
f 216//63 212//63 208//63
f 224//63 220//63 216//63
f 232//63 228//63 224//63
f 240//63 236//63 232//63
f 248//63 244//63 240//63
f 335//63 252//63 248//63
f 333//63 335//63 248//63
f 248//63 240//63 232//63
f 232//63 224//63 216//63
f 216//63 208//63 200//63
f 200//63 192//63 184//63
f 184//63 176//63 168//63
f 168//63 160//63 341//63
f 168//63 341//63 320//63
f 294//63 333//63 248//63
f 295//63 294//63 248//63
f 168//63 320//63 321//63
f 168//63 321//63 322//63
f 296//63 295//63 248//63
f 297//63 296//63 248//63
f 168//63 322//63 323//63
f 168//63 323//63 325//63
f 297//63 248//63 232//63
f 299//84 297//84 232//84
f 168//63 325//63 324//63
f 168//63 324//63 332//63
f 298//63 299//63 232//63
f 306//63 298//63 232//63
f 184//63 168//63 332//63
f 184//63 332//63 326//63
f 301//63 306//63 232//63
f 300//63 301//63 232//63
f 184//63 326//63 328//63
f 184//63 328//63 327//63
f 305//63 300//63 232//63
f 302//63 305//63 232//63
f 184//63 327//63 331//63
f 184//63 331//63 330//63
f 304//63 302//63 232//63
f 303//63 304//63 232//63
f 184//63 330//63 329//63
f 184//63 329//63 344//63
f 303//63 232//63 216//63
f 336//63 303//63 216//63
f 200//63 184//63 344//63
f 200//63 344//63 343//63
f 340//63 336//63 216//63
f 339//63 340//63 216//63
f 200//63 343//63 342//63
f 200//63 342//63 317//63
f 307//63 339//63 216//63
f 308//63 307//63 216//63
f 200//63 317//63 318//63
f 200//63 318//63 316//63
f 309//63 308//63 216//63
f 310//63 309//63 216//63
f 200//63 316//63 315//63
f 200//63 315//63 314//63
f 310//63 216//63 200//63
f 312//63 310//63 200//63
f 200//63 314//63 313//63
f 200//63 313//63 319//63
f 311//63 312//63 200//63
f 337//63 338//63 158//63
f 158//63 156//63 154//63
f 154//63 280//63 278//63
f 278//63 276//63 274//63
f 274//63 272//63 270//63
f 270//63 268//63 266//63
f 266//63 264//63 262//63
f 262//63 260//63 258//63
f 258//63 256//63 254//63
f 254//63 335//63 334//63
f 254//63 334//63 281//63
f 262//63 258//63 254//63
f 270//63 266//63 262//63
f 278//63 274//63 270//63
f 158//63 154//63 278//63
f 290//63 337//63 158//63
f 291//63 290//63 158//63
f 158//63 278//63 270//63
f 270//63 262//63 254//63
f 254//63 281//63 282//63
f 254//63 282//63 283//63
f 291//63 158//63 270//63
f 289//63 291//63 270//63
f 270//63 254//63 283//63
f 270//63 283//63 284//63
f 292//63 289//63 270//63
f 287//63 292//63 270//63
f 270//63 284//63 286//63
f 270//63 286//63 285//63
f 288//63 287//63 270//63
f 270//63 285//63 293//63
f 278//64 280//64 279//64
f 280//65 154//65 153//65
f 362//66 370//66 199//66
f 199//66 201//66 203//66
f 203//66 205//66 207//66
f 207//66 209//66 211//66
f 211//66 213//66 215//66
f 215//66 217//66 219//66
f 219//66 221//66 223//66
f 223//66 225//66 227//66
f 227//66 229//66 231//66
f 231//66 233//66 235//66
f 235//66 237//66 239//66
f 239//66 241//66 243//66
f 243//66 245//66 247//66
f 247//66 249//66 251//66
f 251//66 253//66 255//66
f 255//66 257//66 259//66
f 259//66 261//66 263//66
f 263//66 396//66 388//66
f 263//66 388//66 389//66
f 255//66 259//66 263//66
f 247//66 251//66 255//66
f 239//66 243//66 247//66
f 231//66 235//66 239//66
f 223//66 227//66 231//66
f 215//66 219//66 223//66
f 207//66 211//66 215//66
f 199//66 203//66 207//66
f 363//66 362//66 199//66
f 361//66 363//66 199//66
f 199//66 207//66 215//66
f 215//66 223//66 231//66
f 231//66 239//66 247//66
f 247//66 255//66 263//66
f 263//66 389//66 387//66
f 263//66 387//66 386//66
f 361//66 199//66 215//66
f 360//66 361//66 215//66
f 247//66 263//66 386//66
f 247//66 386//66 385//66
f 359//66 360//66 215//66
f 358//66 359//66 215//66
f 247//66 385//66 384//66
f 247//66 384//66 403//66
f 398//66 358//66 215//66
f 399//66 398//66 215//66
f 247//66 403//66 405//66
f 247//66 405//66 404//66
f 408//66 399//66 215//66
f 380//66 408//66 215//66
f 247//66 404//66 371//66
f 247//66 371//66 372//66
f 380//66 215//66 231//66
f 381//66 380//66 231//66
f 231//66 247//66 372//66
f 231//66 372//66 373//66
f 379//66 381//66 231//66
f 382//66 379//66 231//66
f 231//66 373//66 374//66
f 231//66 374//66 376//66
f 377//66 382//66 231//66
f 378//66 377//66 231//66
f 231//66 376//66 375//66
f 383//66 378//66 231//66
f 391//66 396//66 263//66
f 263//66 265//66 267//66
f 267//66 269//66 271//66
f 271//66 273//66 275//66
f 275//66 277//66 279//66
f 279//66 153//66 155//66
f 155//66 157//66 159//66
f 159//66 161//66 163//66
f 163//66 165//66 167//66
f 167//66 169//66 171//66
f 171//66 173//66 175//66
f 175//66 177//66 179//66
f 179//66 181//66 183//66
f 183//66 185//66 187//66
f 187//66 189//66 191//66
f 191//66 193//66 195//66
f 195//66 197//66 199//66
f 199//66 370//66 364//66
f 199//66 364//66 366//66
f 191//66 195//66 199//66
f 183//66 187//66 191//66
f 175//66 179//66 183//66
f 167//66 171//66 175//66
f 159//66 163//66 167//66
f 279//66 155//66 159//66
f 271//66 275//66 279//66
f 263//66 267//66 271//66
f 390//66 391//66 263//66
f 395//66 390//66 263//66
f 263//66 271//66 279//66
f 279//66 159//66 167//66
f 167//66 175//66 183//66
f 183//66 191//66 199//66
f 199//66 366//66 365//66
f 199//66 365//66 367//66
f 395//66 263//66 279//66
f 392//66 395//66 279//66
f 183//66 199//66 367//66
f 183//66 367//66 369//66
f 394//66 392//66 279//66
f 393//66 394//66 279//66
f 183//66 369//66 368//66
f 183//66 368//66 401//66
f 406//66 393//66 279//66
f 407//66 406//66 279//66
f 183//66 401//66 402//66
f 183//66 402//66 400//66
f 397//66 407//66 279//66
f 345//66 397//66 279//66
f 183//66 400//66 355//66
f 183//66 355//66 356//66
f 345//66 279//66 167//66
f 346//66 345//66 167//66
f 167//66 183//66 356//66
f 167//66 356//66 354//66
f 347//66 346//66 167//66
f 348//66 347//66 167//66
f 167//66 354//66 353//66
f 167//66 353//66 352//66
f 350//66 348//66 167//66
f 349//66 350//66 167//66
f 167//66 352//66 351//66
f 357//66 349//66 167//66
f 337//33 290//33 397//33
f 338//34 337//34 345//34
f 341//35 338//35 346//35
f 320//36 341//36 347//36
f 321//37 320//37 348//37
f 322//38 321//38 350//38
f 323//39 322//39 349//39
f 325//40 323//40 357//40
f 325//41 351//41 352//41
f 324//42 352//42 353//42
f 332//43 353//43 354//43
f 326//44 354//44 356//44
f 328//45 356//45 355//45
f 327//46 355//46 400//46
f 331//47 400//47 402//47
f 330//48 402//48 401//48
f 329//49 401//49 368//49
f 344//50 368//50 369//50
f 343//51 369//51 367//51
f 342//52 367//52 365//52
f 317//53 365//53 366//53
f 318//54 366//54 364//54
f 316//55 364//55 370//55
f 315//77 370//77 362//77
f 314//57 362//57 363//57
f 313//58 363//58 361//58
f 319//59 361//59 360//59
f 311//60 360//60 359//60
f 312//61 359//61 358//61
f 310//62 358//62 398//62
f 309//64 398//64 399//64
f 308//65 399//65 408//65
f 307//1 408//1 380//1
f 339//2 380//2 381//2
f 340//3 381//3 379//3
f 336//4 379//4 382//4
f 303//5 382//5 377//5
f 304//6 377//6 378//6
f 302//7 378//7 383//7
f 305//8 383//8 375//8
f 301//9 300//9 375//9
f 306//10 301//10 376//10
f 298//11 306//11 374//11
f 299//12 298//12 373//12
f 297//13 299//13 372//13
f 296//14 297//14 371//14
f 295//15 296//15 404//15
f 294//16 295//16 405//16
f 333//17 294//17 403//17
f 335//18 333//18 384//18
f 334//19 335//19 385//19
f 281//20 334//20 386//20
f 282//21 281//21 387//21
f 283//22 282//22 389//22
f 284//23 283//23 388//23
f 286//76 284//76 396//76
f 285//25 286//25 391//25
f 293//26 285//26 390//26
f 288//27 293//27 395//27
f 287//28 288//28 392//28
f 292//29 287//29 394//29
f 289//30 292//30 393//30
f 291//31 289//31 406//31
f 290//32 291//32 407//32
