# Blender 5.2.2 LTS
# www.blender.org
mtllib fault_oil_streak.mtl
o fault_oil_streak
v 0.000000 -0.035000 -0.780000
v 0.000000 -0.035000 -0.280000
v 0.000000 0.030000 -0.780000
v 0.000000 0.030000 -0.280000
v 0.004000 -0.035000 -0.780000
v 0.004000 -0.035000 -0.280000
v 0.004000 0.030000 -0.780000
v 0.004000 0.030000 -0.280000
v -0.600000 -0.030000 -0.954000
v -0.600000 -0.030000 -0.930000
v -0.600000 0.030000 -0.954000
v -0.600000 0.030000 -0.930000
v -0.000000 -0.030000 -0.954000
v -0.000000 -0.030000 -0.930000
v -0.000000 0.030000 -0.954000
v -0.000000 0.030000 -0.930000
v -0.300000 0.000000 -0.958000
v -0.300000 0.002341 -0.958231
v -0.300000 0.006667 -0.960022
v -0.300000 0.008485 -0.961515
v -0.300000 0.011087 -0.965408
v -0.300000 0.012000 -0.970000
v -0.300000 0.011769 -0.972341
v -0.300000 0.008485 -0.978485
v -0.300000 0.006667 -0.979978
v -0.300000 0.000000 -0.982000
v -0.299543 0.002296 -0.958231
v -0.299104 0.004504 -0.958913
v -0.298699 0.006539 -0.960022
v -0.298345 0.008322 -0.961515
v -0.298053 0.009786 -0.963333
v -0.297837 0.010874 -0.965408
v -0.297704 0.011543 -0.967659
v -0.297659 0.011769 -0.970000
v -0.297704 0.011543 -0.972341
v -0.297837 0.010874 -0.974592
v -0.298053 0.009786 -0.976667
v -0.298345 0.008322 -0.978485
v -0.298699 0.006539 -0.979978
v -0.299104 0.004504 -0.981087
v -0.299543 0.002296 -0.981769
v -0.299104 0.002163 -0.958231
v -0.298243 0.004243 -0.958913
v -0.297449 0.006159 -0.960022
v -0.296753 0.007839 -0.961515
v -0.296182 0.009218 -0.963333
v -0.295757 0.010243 -0.965408
v -0.295496 0.010874 -0.967659
v -0.295408 0.011087 -0.970000
v -0.295496 0.010874 -0.972341
v -0.295757 0.010243 -0.974592
v -0.296182 0.009218 -0.976667
v -0.296753 0.007839 -0.978485
v -0.297449 0.006159 -0.979978
v -0.298243 0.004243 -0.981087
v -0.299104 0.002163 -0.981769
v -0.298699 0.001947 -0.958231
v -0.297449 0.003818 -0.958913
v -0.296296 0.005543 -0.960022
v -0.295286 0.007055 -0.961515
v -0.294457 0.008296 -0.963333
v -0.293841 0.009218 -0.965408
v -0.293461 0.009786 -0.967659
v -0.293333 0.009978 -0.970000
v -0.293461 0.009786 -0.972341
v -0.293841 0.009218 -0.974592
v -0.294457 0.008296 -0.976667
v -0.295286 0.007055 -0.978485
v -0.296296 0.005543 -0.979978
v -0.297449 0.003818 -0.981087
v -0.298699 0.001947 -0.981769
v -0.298345 0.001655 -0.958231
v -0.296753 0.003247 -0.958913
v -0.295286 0.004714 -0.960022
v -0.294000 0.006000 -0.961515
v -0.292945 0.007055 -0.963333
v -0.292161 0.007839 -0.965408
v -0.291678 0.008322 -0.967659
v -0.291515 0.008485 -0.970000
v -0.291678 0.008322 -0.972341
v -0.292161 0.007839 -0.974592
v -0.292945 0.007055 -0.976667
v -0.294000 0.006000 -0.978485
v -0.295286 0.004714 -0.979978
v -0.296753 0.003247 -0.981087
v -0.298345 0.001655 -0.981769
v -0.298053 0.001301 -0.958231
v -0.296182 0.002551 -0.958913
v -0.294457 0.003704 -0.960022
v -0.292945 0.004714 -0.961515
v -0.291704 0.005543 -0.963333
v -0.290782 0.006159 -0.965408
v -0.290214 0.006539 -0.967659
v -0.290022 0.006667 -0.970000
v -0.290214 0.006539 -0.972341
v -0.290782 0.006159 -0.974592
v -0.291704 0.005543 -0.976667
v -0.292945 0.004714 -0.978485
v -0.294457 0.003704 -0.979978
v -0.296182 0.002551 -0.981087
v -0.298053 0.001301 -0.981769
v -0.297837 0.000896 -0.958231
v -0.295757 0.001757 -0.958913
v -0.293841 0.002551 -0.960022
v -0.292161 0.003247 -0.961515
v -0.290782 0.003818 -0.963333
v -0.289757 0.004243 -0.965408
v -0.289126 0.004504 -0.967659
v -0.288913 0.004592 -0.970000
v -0.289126 0.004504 -0.972341
v -0.289757 0.004243 -0.974592
v -0.290782 0.003818 -0.976667
v -0.292161 0.003247 -0.978485
v -0.293841 0.002551 -0.979978
v -0.295757 0.001757 -0.981087
v -0.297837 0.000896 -0.981769
v -0.297704 0.000457 -0.958231
v -0.295496 0.000896 -0.958913
v -0.293461 0.001301 -0.960022
v -0.291678 0.001655 -0.961515
v -0.290214 0.001947 -0.963333
v -0.289126 0.002163 -0.965408
v -0.288457 0.002296 -0.967659
v -0.288231 0.002341 -0.970000
v -0.288457 0.002296 -0.972341
v -0.289126 0.002163 -0.974592
v -0.290214 0.001947 -0.976667
v -0.291678 0.001655 -0.978485
v -0.293461 0.001301 -0.979978
v -0.295496 0.000896 -0.981087
v -0.297704 0.000457 -0.981769
v -0.297659 -0.000000 -0.958231
v -0.295408 -0.000000 -0.958913
v -0.293333 -0.000000 -0.960022
v -0.291515 -0.000000 -0.961515
v -0.290022 -0.000000 -0.963333
v -0.288913 -0.000000 -0.965408
v -0.288231 -0.000000 -0.967659
v -0.288000 -0.000000 -0.970000
v -0.288231 -0.000000 -0.972341
v -0.288913 -0.000000 -0.974592
v -0.290022 -0.000000 -0.976667
v -0.291515 -0.000000 -0.978485
v -0.293333 -0.000000 -0.979978
v -0.295408 -0.000000 -0.981087
v -0.297659 -0.000000 -0.981769
v -0.297704 -0.000457 -0.958231
v -0.295496 -0.000896 -0.958913
v -0.293461 -0.001301 -0.960022
v -0.291678 -0.001655 -0.961515
v -0.290214 -0.001947 -0.963333
v -0.289126 -0.002163 -0.965408
v -0.288457 -0.002296 -0.967659
v -0.288231 -0.002341 -0.970000
v -0.288457 -0.002296 -0.972341
v -0.289126 -0.002163 -0.974592
v -0.290214 -0.001947 -0.976667
v -0.291678 -0.001655 -0.978485
v -0.293461 -0.001301 -0.979978
v -0.295496 -0.000896 -0.981087
v -0.297704 -0.000457 -0.981769
v -0.297837 -0.000896 -0.958231
v -0.295757 -0.001757 -0.958913
v -0.293841 -0.002551 -0.960022
v -0.292161 -0.003247 -0.961515
v -0.290782 -0.003818 -0.963333
v -0.289757 -0.004243 -0.965408
v -0.289126 -0.004504 -0.967659
v -0.288913 -0.004592 -0.970000
v -0.289126 -0.004504 -0.972341
v -0.289757 -0.004243 -0.974592
v -0.290782 -0.003818 -0.976667
v -0.292161 -0.003247 -0.978485
v -0.293841 -0.002551 -0.979978
v -0.295757 -0.001757 -0.981087
v -0.297837 -0.000896 -0.981769
v -0.298053 -0.001301 -0.958231
v -0.296182 -0.002551 -0.958913
v -0.294457 -0.003704 -0.960022
v -0.292945 -0.004714 -0.961515
v -0.291704 -0.005543 -0.963333
v -0.290782 -0.006159 -0.965408
v -0.290214 -0.006539 -0.967659
v -0.290022 -0.006667 -0.970000
v -0.290214 -0.006539 -0.972341
v -0.290782 -0.006159 -0.974592
v -0.291704 -0.005543 -0.976667
v -0.292945 -0.004714 -0.978485
v -0.294457 -0.003704 -0.979978
v -0.296182 -0.002551 -0.981087
v -0.298053 -0.001301 -0.981769
v -0.298345 -0.001655 -0.958231
v -0.296753 -0.003247 -0.958913
v -0.295286 -0.004714 -0.960022
v -0.294000 -0.006000 -0.961515
v -0.292945 -0.007055 -0.963333
v -0.292161 -0.007839 -0.965408
v -0.291678 -0.008322 -0.967659
v -0.291515 -0.008485 -0.970000
v -0.291678 -0.008322 -0.972341
v -0.292161 -0.007839 -0.974592
v -0.292945 -0.007055 -0.976667
v -0.294000 -0.006000 -0.978485
v -0.295286 -0.004714 -0.979978
v -0.296753 -0.003247 -0.981087
v -0.298345 -0.001655 -0.981769
v -0.298699 -0.001947 -0.958231
v -0.297449 -0.003818 -0.958913
v -0.296296 -0.005543 -0.960022
v -0.295286 -0.007055 -0.961515
v -0.294457 -0.008296 -0.963333
v -0.293841 -0.009218 -0.965408
v -0.293461 -0.009786 -0.967659
v -0.293333 -0.009978 -0.970000
v -0.293461 -0.009786 -0.972341
v -0.293841 -0.009218 -0.974592
v -0.294457 -0.008296 -0.976667
v -0.295286 -0.007055 -0.978485
v -0.296296 -0.005543 -0.979978
v -0.297449 -0.003818 -0.981087
v -0.298699 -0.001947 -0.981769
v -0.299104 -0.002163 -0.958231
v -0.298243 -0.004243 -0.958913
v -0.297449 -0.006159 -0.960022
v -0.296753 -0.007839 -0.961515
v -0.296182 -0.009218 -0.963333
v -0.295757 -0.010243 -0.965408
v -0.295496 -0.010874 -0.967659
v -0.295408 -0.011087 -0.970000
v -0.295496 -0.010874 -0.972341
v -0.295757 -0.010243 -0.974592
v -0.296182 -0.009218 -0.976667
v -0.296753 -0.007839 -0.978485
v -0.297449 -0.006159 -0.979978
v -0.298243 -0.004243 -0.981087
v -0.299104 -0.002163 -0.981769
v -0.299543 -0.002296 -0.958231
v -0.299104 -0.004504 -0.958913
v -0.298699 -0.006539 -0.960022
v -0.298345 -0.008322 -0.961515
v -0.298053 -0.009786 -0.963333
v -0.297837 -0.010874 -0.965408
v -0.297704 -0.011543 -0.967659
v -0.297659 -0.011769 -0.970000
v -0.297704 -0.011543 -0.972341
v -0.297837 -0.010874 -0.974592
v -0.298053 -0.009786 -0.976667
v -0.298345 -0.008322 -0.978485
v -0.298699 -0.006539 -0.979978
v -0.299104 -0.004504 -0.981087
v -0.299543 -0.002296 -0.981769
v -0.300000 -0.002341 -0.958231
v -0.300000 -0.004592 -0.958913
v -0.300000 -0.006667 -0.960022
v -0.300000 -0.008485 -0.961515
v -0.300000 -0.009978 -0.963333
v -0.300000 -0.011087 -0.965408
v -0.300000 -0.011769 -0.967659
v -0.300000 -0.012000 -0.970000
v -0.300000 -0.011769 -0.972341
v -0.300000 -0.011087 -0.974592
v -0.300000 -0.009978 -0.976667
v -0.300000 -0.008485 -0.978485
v -0.300000 -0.006667 -0.979978
v -0.300000 -0.004592 -0.981087
v -0.300000 -0.002341 -0.981769
v -0.300457 -0.002296 -0.958231
v -0.300896 -0.004504 -0.958913
v -0.301301 -0.006539 -0.960022
v -0.301655 -0.008322 -0.961515
v -0.301947 -0.009786 -0.963333
v -0.302163 -0.010874 -0.965408
v -0.302296 -0.011543 -0.967659
v -0.302341 -0.011769 -0.970000
v -0.302296 -0.011543 -0.972341
v -0.302163 -0.010874 -0.974592
v -0.301947 -0.009786 -0.976667
v -0.301655 -0.008322 -0.978485
v -0.301301 -0.006539 -0.979978
v -0.300896 -0.004504 -0.981087
v -0.300457 -0.002296 -0.981769
v -0.300896 -0.002163 -0.958231
v -0.301757 -0.004243 -0.958913
v -0.302551 -0.006159 -0.960022
v -0.303247 -0.007839 -0.961515
v -0.303818 -0.009218 -0.963333
v -0.304243 -0.010243 -0.965408
v -0.304504 -0.010874 -0.967659
v -0.304592 -0.011087 -0.970000
v -0.304504 -0.010874 -0.972341
v -0.304243 -0.010243 -0.974592
v -0.303818 -0.009218 -0.976667
v -0.303247 -0.007839 -0.978485
v -0.302551 -0.006159 -0.979978
v -0.301757 -0.004243 -0.981087
v -0.300896 -0.002163 -0.981769
v -0.301301 -0.001947 -0.958231
v -0.302551 -0.003818 -0.958913
v -0.303704 -0.005543 -0.960022
v -0.304714 -0.007055 -0.961515
v -0.305543 -0.008296 -0.963333
v -0.306159 -0.009218 -0.965408
v -0.306539 -0.009786 -0.967659
v -0.306667 -0.009978 -0.970000
v -0.306539 -0.009786 -0.972341
v -0.306159 -0.009218 -0.974592
v -0.305543 -0.008296 -0.976667
v -0.304714 -0.007055 -0.978485
v -0.303704 -0.005543 -0.979978
v -0.302551 -0.003818 -0.981087
v -0.301301 -0.001947 -0.981769
v -0.301655 -0.001655 -0.958231
v -0.303247 -0.003247 -0.958913
v -0.304714 -0.004714 -0.960022
v -0.306000 -0.006000 -0.961515
v -0.307055 -0.007055 -0.963333
v -0.307839 -0.007839 -0.965408
v -0.308322 -0.008322 -0.967659
v -0.308485 -0.008485 -0.970000
v -0.308322 -0.008322 -0.972341
v -0.307839 -0.007839 -0.974592
v -0.307055 -0.007055 -0.976667
v -0.306000 -0.006000 -0.978485
v -0.304714 -0.004714 -0.979978
v -0.303247 -0.003247 -0.981087
v -0.301655 -0.001655 -0.981769
v -0.301947 -0.001301 -0.958231
v -0.303818 -0.002551 -0.958913
v -0.305543 -0.003704 -0.960022
v -0.307055 -0.004714 -0.961515
v -0.308296 -0.005543 -0.963333
v -0.309218 -0.006159 -0.965408
v -0.309786 -0.006539 -0.967659
v -0.309978 -0.006667 -0.970000
v -0.309786 -0.006539 -0.972341
v -0.309218 -0.006159 -0.974592
v -0.308296 -0.005543 -0.976667
v -0.307055 -0.004714 -0.978485
v -0.305543 -0.003704 -0.979978
v -0.303818 -0.002551 -0.981087
v -0.301947 -0.001301 -0.981769
v -0.302163 -0.000896 -0.958231
v -0.304243 -0.001757 -0.958913
v -0.306159 -0.002551 -0.960022
v -0.307839 -0.003247 -0.961515
v -0.309218 -0.003818 -0.963333
v -0.310243 -0.004243 -0.965408
v -0.310874 -0.004504 -0.967659
v -0.311087 -0.004592 -0.970000
v -0.310874 -0.004504 -0.972341
v -0.310243 -0.004243 -0.974592
v -0.309218 -0.003818 -0.976667
v -0.307839 -0.003247 -0.978485
v -0.306159 -0.002551 -0.979978
v -0.304243 -0.001757 -0.981087
v -0.302163 -0.000896 -0.981769
v -0.302296 -0.000457 -0.958231
v -0.304504 -0.000896 -0.958913
v -0.306539 -0.001301 -0.960022
v -0.308322 -0.001655 -0.961515
v -0.309786 -0.001947 -0.963333
v -0.310874 -0.002163 -0.965408
v -0.311543 -0.002296 -0.967659
v -0.311769 -0.002341 -0.970000
v -0.311543 -0.002296 -0.972341
v -0.310874 -0.002163 -0.974592
v -0.309786 -0.001947 -0.976667
v -0.308322 -0.001655 -0.978485
v -0.306539 -0.001301 -0.979978
v -0.304504 -0.000896 -0.981087
v -0.302296 -0.000457 -0.981769
v -0.302341 0.000000 -0.958231
v -0.304592 0.000000 -0.958913
v -0.306667 0.000000 -0.960022
v -0.308485 0.000000 -0.961515
v -0.309978 0.000000 -0.963333
v -0.311087 0.000000 -0.965408
v -0.311769 0.000000 -0.967659
v -0.312000 0.000000 -0.970000
v -0.311769 0.000000 -0.972341
v -0.311087 0.000000 -0.974592
v -0.309978 0.000000 -0.976667
v -0.308485 0.000000 -0.978485
v -0.306667 0.000000 -0.979978
v -0.304592 0.000000 -0.981087
v -0.302341 0.000000 -0.981769
v -0.302296 0.000457 -0.958231
v -0.304504 0.000896 -0.958913
v -0.306539 0.001301 -0.960022
v -0.308322 0.001655 -0.961515
v -0.309786 0.001947 -0.963333
v -0.310874 0.002163 -0.965408
v -0.311543 0.002296 -0.967659
v -0.311769 0.002341 -0.970000
v -0.311543 0.002296 -0.972341
v -0.310874 0.002163 -0.974592
v -0.309786 0.001947 -0.976667
v -0.308322 0.001655 -0.978485
v -0.306539 0.001301 -0.979978
v -0.304504 0.000896 -0.981087
v -0.302296 0.000457 -0.981769
v -0.302163 0.000896 -0.958231
v -0.304243 0.001757 -0.958913
v -0.306159 0.002551 -0.960022
v -0.307839 0.003247 -0.961515
v -0.309218 0.003818 -0.963333
v -0.310243 0.004243 -0.965408
v -0.310874 0.004504 -0.967659
v -0.311087 0.004592 -0.970000
v -0.310874 0.004504 -0.972341
v -0.310243 0.004243 -0.974592
v -0.309218 0.003818 -0.976667
v -0.307839 0.003247 -0.978485
v -0.306159 0.002551 -0.979978
v -0.304243 0.001757 -0.981087
v -0.302163 0.000896 -0.981769
v -0.301947 0.001301 -0.958231
v -0.303818 0.002551 -0.958913
v -0.305543 0.003704 -0.960022
v -0.307055 0.004714 -0.961515
v -0.308296 0.005543 -0.963333
v -0.309218 0.006159 -0.965408
v -0.309786 0.006539 -0.967659
v -0.309978 0.006667 -0.970000
v -0.309786 0.006539 -0.972341
v -0.309218 0.006159 -0.974592
v -0.308296 0.005543 -0.976667
v -0.307055 0.004714 -0.978485
v -0.305543 0.003704 -0.979978
v -0.303818 0.002551 -0.981087
v -0.301947 0.001301 -0.981769
v -0.301655 0.001655 -0.958231
v -0.303247 0.003247 -0.958913
v -0.304714 0.004714 -0.960022
v -0.306000 0.006000 -0.961515
v -0.307055 0.007055 -0.963333
v -0.307839 0.007839 -0.965408
v -0.308322 0.008322 -0.967659
v -0.308485 0.008485 -0.970000
v -0.308322 0.008322 -0.972341
v -0.307839 0.007839 -0.974592
v -0.307055 0.007055 -0.976667
v -0.306000 0.006000 -0.978485
v -0.304714 0.004714 -0.979978
v -0.303247 0.003247 -0.981087
v -0.301655 0.001655 -0.981769
v -0.301301 0.001947 -0.958231
v -0.302551 0.003818 -0.958913
v -0.303704 0.005543 -0.960022
v -0.304714 0.007055 -0.961515
v -0.305543 0.008296 -0.963333
v -0.306159 0.009218 -0.965408
v -0.306539 0.009786 -0.967659
v -0.306667 0.009978 -0.970000
v -0.306539 0.009786 -0.972341
v -0.306159 0.009218 -0.974592
v -0.305543 0.008296 -0.976667
v -0.304714 0.007055 -0.978485
v -0.303704 0.005543 -0.979978
v -0.302551 0.003818 -0.981087
v -0.301301 0.001947 -0.981769
v -0.300896 0.002163 -0.958231
v -0.301757 0.004243 -0.958913
v -0.302551 0.006159 -0.960022
v -0.303247 0.007839 -0.961515
v -0.303818 0.009218 -0.963333
v -0.304243 0.010243 -0.965408
v -0.304504 0.010874 -0.967659
v -0.304592 0.011087 -0.970000
v -0.304504 0.010874 -0.972341
v -0.304243 0.010243 -0.974592
v -0.303818 0.009218 -0.976667
v -0.303247 0.007839 -0.978485
v -0.302551 0.006159 -0.979978
v -0.301757 0.004243 -0.981087
v -0.300896 0.002163 -0.981769
v -0.300457 0.002296 -0.958231
v -0.300896 0.004504 -0.958913
v -0.301301 0.006539 -0.960022
v -0.301655 0.008322 -0.961515
v -0.301947 0.009786 -0.963333
v -0.302163 0.010874 -0.965408
v -0.302296 0.011543 -0.967659
v -0.302341 0.011769 -0.970000
v -0.302296 0.011543 -0.972341
v -0.302163 0.010874 -0.974592
v -0.301947 0.009786 -0.976667
v -0.301655 0.008322 -0.978485
v -0.301301 0.006539 -0.979978
v -0.300896 0.004504 -0.981087
v -0.300457 0.002296 -0.981769
v -0.300000 0.004592 -0.958913
v -0.300000 0.009978 -0.963333
v -0.300000 0.011769 -0.967659
v -0.300000 0.011087 -0.974592
v -0.300000 0.009978 -0.976667
v -0.300000 0.004592 -0.981087
v -0.300000 0.002341 -0.981769
vn -1.0000 -0.0000 -0.0000
vn -0.0000 1.0000 -0.0000
vn 1.0000 -0.0000 -0.0000
vn -0.0000 -1.0000 -0.0000
vn -0.0000 -0.0000 -1.0000
vn -0.0000 -0.0000 1.0000
vn 0.0759 0.7708 0.6326
vn 0.0624 0.6332 -0.7715
vn 0.0865 0.8786 0.4696
vn 0.0464 0.4709 -0.8810
vn 0.0938 0.9527 0.2890
vn 0.0287 0.2902 -0.9565
vn 0.0975 0.9904 0.0976
vn 0.0095 0.0980 0.9951
vn 0.0096 0.0980 -0.9951
vn 0.0975 0.9904 -0.0975
vn 0.0286 0.2902 0.9565
vn 0.0938 0.9527 -0.2890
vn 0.0464 0.4709 0.8810
vn 0.0865 0.8786 -0.4696
vn 0.0624 0.6332 0.7715
vn 0.0759 0.7708 -0.6326
vn 0.1847 0.6088 0.7715
vn 0.2248 0.7411 -0.6326
vn 0.2248 0.7412 0.6326
vn 0.1847 0.6088 -0.7715
vn 0.2563 0.8448 0.4696
vn 0.1374 0.4528 -0.8810
vn 0.2779 0.9161 0.2890
vn 0.0846 0.2790 -0.9566
vn 0.2889 0.9524 0.0975
vn 0.0285 0.0943 0.9951
vn 0.0287 0.0943 -0.9951
vn 0.2889 0.9524 -0.0976
vn 0.0846 0.2790 0.9566
vn 0.2779 0.9161 -0.2890
vn 0.1374 0.4528 0.8810
vn 0.2563 0.8448 -0.4696
vn 0.4692 0.8777 0.0975
vn 0.0464 0.0868 0.9951
vn 0.0464 0.0868 -0.9951
vn 0.4691 0.8777 -0.0976
vn 0.1374 0.2571 0.9566
vn 0.4513 0.8443 -0.2890
vn 0.2230 0.4173 0.8810
vn 0.4162 0.7786 -0.4696
vn 0.2999 0.5611 0.7715
vn 0.3651 0.6830 -0.6326
vn 0.3651 0.6831 0.6326
vn 0.2999 0.5611 -0.7715
vn 0.4162 0.7786 0.4696
vn 0.2231 0.4173 -0.8810
vn 0.4513 0.8443 0.2890
vn 0.1375 0.2571 -0.9565
vn 0.4914 0.5987 -0.6325
vn 0.4913 0.5987 0.6326
vn 0.4036 0.4918 -0.7715
vn 0.5601 0.6825 0.4696
vn 0.3001 0.3657 -0.8810
vn 0.6073 0.7400 0.2890
vn 0.1850 0.2254 -0.9566
vn 0.6314 0.7693 0.0975
vn 0.0625 0.0761 0.9951
vn 0.0624 0.0761 -0.9951
vn 0.6314 0.7693 -0.0975
vn 0.1850 0.2254 0.9565
vn 0.6073 0.7400 -0.2890
vn 0.3001 0.3658 0.8810
vn 0.5601 0.6825 -0.4696
vn 0.4036 0.4918 0.7715
vn 0.0761 0.0625 0.9951
vn 0.0762 0.0625 -0.9951
vn 0.7693 0.6314 -0.0976
vn 0.2254 0.1850 0.9565
vn 0.7400 0.6073 -0.2890
vn 0.3657 0.3002 0.8810
vn 0.6825 0.5601 -0.4696
vn 0.4918 0.4036 0.7715
vn 0.5987 0.4913 -0.6325
vn 0.5987 0.4913 0.6326
vn 0.4918 0.4036 -0.7715
vn 0.6825 0.5601 0.4696
vn 0.3657 0.3002 -0.8810
vn 0.7400 0.6073 0.2890
vn 0.2254 0.1849 -0.9566
vn 0.7693 0.6314 0.0976
vn 0.6831 0.3651 0.6325
vn 0.5611 0.2999 -0.7715
vn 0.7786 0.4162 0.4696
vn 0.4173 0.2231 -0.8810
vn 0.8443 0.4513 0.2890
vn 0.2571 0.1375 -0.9566
vn 0.8777 0.4691 0.0975
vn 0.0868 0.0464 0.9951
vn 0.0868 0.0464 -0.9951
vn 0.8777 0.4692 -0.0975
vn 0.2572 0.1374 0.9565
vn 0.8443 0.4513 -0.2890
vn 0.4173 0.2231 0.8810
vn 0.7786 0.4162 -0.4696
vn 0.5611 0.2999 0.7715
vn 0.6831 0.3651 -0.6326
vn 0.9524 0.2889 -0.0975
vn 0.2790 0.0847 0.9565
vn 0.9161 0.2779 -0.2890
vn 0.4528 0.1373 0.8810
vn 0.8448 0.2563 -0.4696
vn 0.6088 0.1847 0.7715
vn 0.7412 0.2248 -0.6325
vn 0.7412 0.2248 0.6326
vn 0.6088 0.1847 -0.7715
vn 0.8448 0.2563 0.4696
vn 0.4528 0.1373 -0.8810
vn 0.9161 0.2779 0.2890
vn 0.2790 0.0846 -0.9566
vn 0.9524 0.2889 0.0975
vn 0.0942 0.0286 0.9951
vn 0.0942 0.0286 -0.9951
vn 0.6332 0.0624 -0.7715
vn 0.8786 0.0865 0.4696
vn 0.4709 0.0464 -0.8810
vn 0.9527 0.0938 0.2890
vn 0.2901 0.0285 -0.9566
vn 0.9904 0.0976 0.0975
vn 0.0980 0.0097 0.9951
vn 0.0980 0.0097 -0.9951
vn 0.9904 0.0975 -0.0975
vn 0.2902 0.0286 0.9566
vn 0.9527 0.0938 -0.2890
vn 0.4709 0.0464 0.8810
vn 0.8786 0.0866 -0.4696
vn 0.6331 0.0623 0.7715
vn 0.7708 0.0760 -0.6325
vn 0.7708 0.0759 0.6326
vn 0.9527 -0.0938 -0.2890
vn 0.4709 -0.0464 0.8810
vn 0.8786 -0.0865 -0.4696
vn 0.6331 -0.0623 0.7715
vn 0.7708 -0.0759 -0.6326
vn 0.7708 -0.0759 0.6326
vn 0.6332 -0.0624 -0.7715
vn 0.8786 -0.0866 0.4696
vn 0.4709 -0.0464 -0.8810
vn 0.9527 -0.0938 0.2890
vn 0.2902 -0.0286 -0.9566
vn 0.9904 -0.0976 0.0975
vn 0.0980 -0.0097 0.9951
vn 0.0980 -0.0097 -0.9951
vn 0.9904 -0.0976 -0.0976
vn 0.2902 -0.0286 0.9565
vn 0.4528 -0.1373 -0.8810
vn 0.9161 -0.2779 0.2890
vn 0.2790 -0.0846 -0.9566
vn 0.9524 -0.2889 0.0976
vn 0.0943 -0.0286 0.9951
vn 0.0943 -0.0286 -0.9951
vn 0.9524 -0.2889 -0.0975
vn 0.2790 -0.0846 0.9565
vn 0.9161 -0.2779 -0.2890
vn 0.4528 -0.1373 0.8810
vn 0.8448 -0.2563 -0.4696
vn 0.6088 -0.1847 0.7715
vn 0.7412 -0.2248 -0.6325
vn 0.7412 -0.2248 0.6326
vn 0.6088 -0.1847 -0.7715
vn 0.8449 -0.2563 0.4696
vn 0.4173 -0.2231 0.8810
vn 0.7786 -0.4161 -0.4696
vn 0.5611 -0.2999 0.7715
vn 0.6831 -0.3651 -0.6325
vn 0.6830 -0.3651 0.6326
vn 0.5611 -0.2999 -0.7715
vn 0.7786 -0.4162 0.4696
vn 0.4173 -0.2230 -0.8810
vn 0.8443 -0.4513 0.2890
vn 0.2572 -0.1375 -0.9565
vn 0.8777 -0.4691 0.0975
vn 0.0868 -0.0464 0.9951
vn 0.0868 -0.0464 -0.9951
vn 0.8777 -0.4691 -0.0975
vn 0.2571 -0.1374 0.9565
vn 0.8443 -0.4513 -0.2890
vn 0.7400 -0.6073 0.2890
vn 0.2253 -0.1850 -0.9566
vn 0.7693 -0.6314 0.0975
vn 0.0761 -0.0625 0.9951
vn 0.0761 -0.0625 -0.9951
vn 0.7693 -0.6314 -0.0975
vn 0.2254 -0.1850 0.9566
vn 0.7400 -0.6073 -0.2890
vn 0.3658 -0.3002 0.8810
vn 0.6825 -0.5601 -0.4696
vn 0.4918 -0.4036 0.7715
vn 0.5987 -0.4913 -0.6326
vn 0.5987 -0.4913 0.6326
vn 0.4918 -0.4036 -0.7715
vn 0.6825 -0.5601 0.4696
vn 0.3658 -0.3002 -0.8810
vn 0.5601 -0.6825 -0.4696
vn 0.4036 -0.4918 0.7715
vn 0.4914 -0.5987 -0.6325
vn 0.4914 -0.5987 0.6325
vn 0.4036 -0.4918 -0.7715
vn 0.5601 -0.6825 0.4696
vn 0.3002 -0.3658 -0.8810
vn 0.6073 -0.7400 0.2890
vn 0.1850 -0.2254 -0.9565
vn 0.6314 -0.7693 0.0975
vn 0.0625 -0.0761 0.9951
vn 0.0625 -0.0761 -0.9951
vn 0.6314 -0.7693 -0.0976
vn 0.1850 -0.2254 0.9566
vn 0.6073 -0.7400 -0.2890
vn 0.3002 -0.3658 0.8810
vn 0.1374 -0.2572 -0.9565
vn 0.4692 -0.8777 0.0975
vn 0.0464 -0.0868 0.9951
vn 0.0463 -0.0868 -0.9951
vn 0.4691 -0.8777 -0.0975
vn 0.1375 -0.2571 0.9565
vn 0.4513 -0.8443 -0.2890
vn 0.2230 -0.4173 0.8810
vn 0.4162 -0.7786 -0.4696
vn 0.2999 -0.5611 0.7715
vn 0.3651 -0.6830 -0.6326
vn 0.3651 -0.6830 0.6326
vn 0.2999 -0.5611 -0.7715
vn 0.4162 -0.7786 0.4696
vn 0.2230 -0.4173 -0.8810
vn 0.4513 -0.8443 0.2890
vn 0.1847 -0.6088 0.7715
vn 0.2249 -0.7411 -0.6326
vn 0.2248 -0.7412 0.6325
vn 0.1847 -0.6088 -0.7715
vn 0.2563 -0.8448 0.4696
vn 0.1373 -0.4528 -0.8810
vn 0.2779 -0.9161 0.2890
vn 0.0847 -0.2790 -0.9565
vn 0.2889 -0.9524 0.0976
vn 0.0286 -0.0943 0.9951
vn 0.0286 -0.0943 -0.9951
vn 0.2889 -0.9524 -0.0976
vn 0.0846 -0.2790 0.9566
vn 0.2779 -0.9161 -0.2890
vn 0.1374 -0.4528 0.8810
vn 0.2563 -0.8448 -0.4696
vn 0.0975 -0.9904 0.0976
vn 0.0098 -0.0980 0.9951
vn 0.0096 -0.0980 -0.9951
vn 0.0975 -0.9904 -0.0976
vn 0.0286 -0.2902 0.9565
vn 0.0938 -0.9527 -0.2890
vn 0.0464 -0.4709 0.8810
vn 0.0865 -0.8786 -0.4696
vn 0.0624 -0.6332 0.7715
vn 0.0759 -0.7708 -0.6325
vn 0.0759 -0.7708 0.6326
vn 0.0624 -0.6332 -0.7715
vn 0.0865 -0.8786 0.4696
vn 0.0464 -0.4709 -0.8810
vn 0.0938 -0.9527 0.2890
vn 0.0285 -0.2902 -0.9566
vn -0.0759 -0.7708 -0.6326
vn -0.0759 -0.7708 0.6326
vn -0.0624 -0.6332 -0.7715
vn -0.0865 -0.8786 0.4696
vn -0.0464 -0.4709 -0.8810
vn -0.0938 -0.9527 0.2890
vn -0.0286 -0.2902 -0.9565
vn -0.0975 -0.9904 0.0975
vn -0.0098 -0.0980 0.9951
vn -0.0096 -0.0980 -0.9951
vn -0.0975 -0.9904 -0.0975
vn -0.0286 -0.2902 0.9566
vn -0.0938 -0.9527 -0.2890
vn -0.0464 -0.4709 0.8810
vn -0.0865 -0.8786 -0.4696
vn -0.0624 -0.6332 0.7715
vn -0.0284 -0.0943 -0.9951
vn -0.2889 -0.9524 -0.0976
vn -0.0847 -0.2790 0.9565
vn -0.2779 -0.9161 -0.2890
vn -0.1373 -0.4528 0.8810
vn -0.2563 -0.8448 -0.4696
vn -0.1847 -0.6088 0.7715
vn -0.2248 -0.7412 -0.6326
vn -0.2248 -0.7412 0.6326
vn -0.1847 -0.6088 -0.7715
vn -0.2563 -0.8448 0.4696
vn -0.1374 -0.4528 -0.8810
vn -0.2779 -0.9161 0.2890
vn -0.0847 -0.2790 -0.9565
vn -0.2889 -0.9524 0.0975
vn -0.0285 -0.0943 0.9951
vn -0.2999 -0.5611 -0.7715
vn -0.4162 -0.7786 0.4696
vn -0.2230 -0.4173 -0.8810
vn -0.4513 -0.8443 0.2890
vn -0.1374 -0.2572 -0.9565
vn -0.4692 -0.8777 0.0976
vn -0.0465 -0.0869 0.9951
vn -0.0465 -0.0869 -0.9951
vn -0.4691 -0.8777 -0.0975
vn -0.1374 -0.2571 0.9566
vn -0.4513 -0.8443 -0.2890
vn -0.2230 -0.4173 0.8810
vn -0.4162 -0.7786 -0.4696
vn -0.2999 -0.5611 0.7715
vn -0.3651 -0.6831 -0.6326
vn -0.3651 -0.6831 0.6326
vn -0.1849 -0.2254 0.9566
vn -0.6073 -0.7400 -0.2890
vn -0.3002 -0.3658 0.8810
vn -0.5601 -0.6825 -0.4696
vn -0.4036 -0.4918 0.7715
vn -0.4914 -0.5987 -0.6326
vn -0.4913 -0.5987 0.6326
vn -0.4036 -0.4918 -0.7715
vn -0.5601 -0.6825 0.4696
vn -0.3002 -0.3657 -0.8810
vn -0.6073 -0.7400 0.2890
vn -0.1851 -0.2254 -0.9565
vn -0.6314 -0.7693 0.0975
vn -0.0624 -0.0761 0.9951
vn -0.0624 -0.0761 -0.9951
vn -0.6314 -0.7693 -0.0975
vn -0.6825 -0.5601 0.4696
vn -0.3658 -0.3002 -0.8810
vn -0.7400 -0.6073 0.2890
vn -0.2254 -0.1849 -0.9566
vn -0.7693 -0.6314 0.0976
vn -0.0761 -0.0625 0.9951
vn -0.0761 -0.0625 -0.9951
vn -0.7693 -0.6314 -0.0975
vn -0.2254 -0.1850 0.9565
vn -0.7400 -0.6073 -0.2890
vn -0.3658 -0.3002 0.8810
vn -0.6825 -0.5601 -0.4696
vn -0.4918 -0.4036 0.7715
vn -0.5987 -0.4913 -0.6326
vn -0.5987 -0.4914 0.6326
vn -0.4918 -0.4036 -0.7715
vn -0.8443 -0.4513 -0.2890
vn -0.4173 -0.2230 0.8810
vn -0.7786 -0.4162 -0.4696
vn -0.5611 -0.2999 0.7715
vn -0.6831 -0.3651 -0.6326
vn -0.6831 -0.3651 0.6326
vn -0.5611 -0.2999 -0.7715
vn -0.7786 -0.4162 0.4696
vn -0.4173 -0.2230 -0.8810
vn -0.8443 -0.4513 0.2890
vn -0.2571 -0.1375 -0.9565
vn -0.8777 -0.4691 0.0975
vn -0.0869 -0.0464 0.9951
vn -0.0868 -0.0464 -0.9951
vn -0.8777 -0.4692 -0.0975
vn -0.2571 -0.1374 0.9565
vn -0.4528 -0.1374 -0.8810
vn -0.9161 -0.2779 0.2890
vn -0.2790 -0.0846 -0.9566
vn -0.9524 -0.2889 0.0975
vn -0.0942 -0.0286 0.9951
vn -0.0942 -0.0286 -0.9951
vn -0.9524 -0.2889 -0.0975
vn -0.2790 -0.0847 0.9566
vn -0.9161 -0.2779 -0.2890
vn -0.4528 -0.1373 0.8810
vn -0.8448 -0.2563 -0.4696
vn -0.6088 -0.1847 0.7715
vn -0.7411 -0.2249 -0.6326
vn -0.7412 -0.2248 0.6326
vn -0.6088 -0.1847 -0.7715
vn -0.8448 -0.2563 0.4696
vn -0.4709 -0.0464 0.8810
vn -0.8786 -0.0865 -0.4696
vn -0.6332 -0.0624 0.7715
vn -0.7708 -0.0759 -0.6326
vn -0.7708 -0.0759 0.6326
vn -0.6332 -0.0624 -0.7715
vn -0.8786 -0.0865 0.4696
vn -0.4709 -0.0464 -0.8810
vn -0.9527 -0.0938 0.2890
vn -0.2901 -0.0286 -0.9566
vn -0.9904 -0.0976 0.0976
vn -0.0980 -0.0097 0.9951
vn -0.0980 -0.0097 -0.9951
vn -0.9904 -0.0976 -0.0975
vn -0.2902 -0.0286 0.9566
vn -0.9527 -0.0938 -0.2890
vn -0.9527 0.0938 0.2890
vn -0.2902 0.0285 -0.9566
vn -0.9904 0.0976 0.0975
vn -0.0980 0.0097 0.9951
vn -0.0980 0.0097 -0.9951
vn -0.9904 0.0976 -0.0976
vn -0.2902 0.0286 0.9565
vn -0.9527 0.0938 -0.2890
vn -0.4709 0.0464 0.8810
vn -0.8786 0.0865 -0.4696
vn -0.6332 0.0624 0.7715
vn -0.7708 0.0759 -0.6326
vn -0.7708 0.0759 0.6326
vn -0.6332 0.0624 -0.7715
vn -0.8786 0.0865 0.4696
vn -0.4709 0.0464 -0.8810
vn -0.8448 0.2563 -0.4696
vn -0.6088 0.1847 0.7715
vn -0.7412 0.2248 -0.6326
vn -0.7412 0.2248 0.6326
vn -0.6088 0.1847 -0.7715
vn -0.8448 0.2563 0.4696
vn -0.4528 0.1374 -0.8810
vn -0.9161 0.2779 0.2890
vn -0.2790 0.0846 -0.9566
vn -0.9524 0.2889 0.0976
vn -0.0942 0.0286 0.9951
vn -0.0942 0.0286 -0.9951
vn -0.9524 0.2889 -0.0975
vn -0.2790 0.0847 0.9565
vn -0.9161 0.2779 -0.2890
vn -0.4528 0.1373 0.8810
vn -0.2570 0.1375 -0.9566
vn -0.8777 0.4691 0.0976
vn -0.0868 0.0464 0.9951
vn -0.0869 0.0464 -0.9951
vn -0.8777 0.4692 -0.0975
vn -0.2572 0.1374 0.9565
vn -0.8443 0.4513 -0.2890
vn -0.4173 0.2230 0.8810
vn -0.7786 0.4161 -0.4696
vn -0.5611 0.2999 0.7715
vn -0.6831 0.3651 -0.6326
vn -0.6831 0.3651 0.6326
vn -0.5611 0.2999 -0.7715
vn -0.7786 0.4162 0.4696
vn -0.4173 0.2230 -0.8810
vn -0.8443 0.4513 0.2890
vn -0.5987 0.4913 -0.6326
vn -0.5987 0.4913 0.6326
vn -0.4918 0.4036 -0.7715
vn -0.6825 0.5601 0.4696
vn -0.3658 0.3002 -0.8810
vn -0.7400 0.6073 0.2890
vn -0.2254 0.1849 -0.9565
vn -0.7693 0.6314 0.0976
vn -0.0762 0.0625 0.9951
vn -0.0761 0.0625 -0.9951
vn -0.7693 0.6313 -0.0976
vn -0.2254 0.1850 0.9565
vn -0.7400 0.6073 -0.2890
vn -0.3658 0.3002 0.8810
vn -0.6825 0.5601 -0.4696
vn -0.4918 0.4036 0.7715
vn -0.0624 0.0761 0.9951
vn -0.0625 0.0761 -0.9951
vn -0.6314 0.7693 -0.0976
vn -0.1850 0.2254 0.9566
vn -0.6073 0.7400 -0.2890
vn -0.3002 0.3658 0.8810
vn -0.5601 0.6825 -0.4696
vn -0.4036 0.4918 0.7715
vn -0.4913 0.5987 -0.6325
vn -0.4913 0.5987 0.6326
vn -0.4036 0.4918 -0.7715
vn -0.5601 0.6825 0.4696
vn -0.3002 0.3658 -0.8810
vn -0.6073 0.7400 0.2890
vn -0.1849 0.2254 -0.9566
vn -0.6314 0.7693 0.0975
vn -0.3651 0.6831 0.6326
vn -0.2999 0.5611 -0.7715
vn -0.4162 0.7786 0.4696
vn -0.2231 0.4173 -0.8810
vn -0.4513 0.8443 0.2890
vn -0.1375 0.2572 -0.9565
vn -0.4692 0.8777 0.0976
vn -0.0464 0.0869 0.9951
vn -0.0465 0.0869 -0.9951
vn -0.4692 0.8777 -0.0975
vn -0.1374 0.2571 0.9566
vn -0.4513 0.8443 -0.2890
vn -0.2230 0.4173 0.8810
vn -0.4162 0.7786 -0.4696
vn -0.2999 0.5611 0.7715
vn -0.3651 0.6831 -0.6326
vn -0.2889 0.9524 -0.0976
vn -0.0846 0.2790 0.9566
vn -0.2779 0.9161 -0.2890
vn -0.1374 0.4528 0.8810
vn -0.2563 0.8448 -0.4696
vn -0.1847 0.6088 0.7715
vn -0.2248 0.7412 -0.6326
vn -0.2248 0.7412 0.6326
vn -0.1847 0.6088 -0.7715
vn -0.2563 0.8448 0.4696
vn -0.1374 0.4528 -0.8810
vn -0.2779 0.9161 0.2890
vn -0.0846 0.2790 -0.9566
vn -0.2889 0.9524 0.0976
vn -0.0286 0.0943 0.9951
vn -0.0284 0.0943 -0.9951
vn -0.0624 0.6332 -0.7715
vn -0.0865 0.8786 0.4696
vn -0.0464 0.4709 -0.8810
vn -0.0938 0.9527 0.2890
vn -0.0285 0.2902 -0.9566
vn -0.0976 0.9904 0.0976
vn -0.0095 0.0980 0.9951
vn -0.0098 0.0980 -0.9951
vn -0.0976 0.9904 -0.0975
vn -0.0285 0.2902 0.9566
vn -0.0938 0.9527 -0.2890
vn -0.0464 0.4709 0.8810
vn -0.0865 0.8786 -0.4696
vn -0.0624 0.6332 0.7715
vn -0.0759 0.7708 -0.6325
vn -0.0759 0.7708 0.6326
vn 0.0759 0.7708 0.6325
vn 0.0285 0.2902 -0.9566
vn 0.0975 0.9904 0.0975
vn 0.0976 0.9904 -0.0975
vn 0.0623 0.6332 0.7715
vn 0.2248 0.7412 -0.6326
vn 0.2248 0.7411 0.6326
vn 0.2889 0.9524 0.0976
vn 0.2889 0.9524 -0.0975
vn 0.0847 0.2790 0.9565
vn 0.1373 0.4528 0.8810
vn 0.4692 0.8777 0.0976
vn 0.4692 0.8777 -0.0975
vn 0.1375 0.2571 0.9565
vn 0.3651 0.6831 -0.6326
vn 0.3651 0.6830 0.6326
vn 0.2230 0.4173 -0.8810
vn 0.1374 0.2571 -0.9566
vn 0.4913 0.5987 -0.6326
vn 0.3002 0.3658 -0.8810
vn 0.6314 0.7693 0.0976
vn 0.6314 0.7693 -0.0976
vn 0.1849 0.2254 0.9566
vn 0.3003 0.3657 0.8810
vn 0.7693 0.6314 -0.0975
vn 0.2254 0.1849 0.9566
vn 0.3658 0.3002 0.8810
vn 0.5987 0.4913 -0.6326
vn 0.5987 0.4913 0.6325
vn 0.2254 0.1850 -0.9565
vn 0.6831 0.3651 0.6326
vn 0.4173 0.2230 -0.8810
vn 0.2572 0.1374 -0.9565
vn 0.8777 0.4692 0.0975
vn 0.8777 0.4691 -0.0976
vn 0.2571 0.1375 0.9566
vn 0.2790 0.0846 0.9566
vn 0.8449 0.2563 -0.4696
vn 0.7412 0.2248 -0.6326
vn 0.7412 0.2248 0.6325
vn 0.8449 0.2563 0.4696
vn 0.2790 0.0847 -0.9565
vn 0.9524 0.2889 0.0976
vn 0.6331 0.0623 -0.7715
vn 0.8786 0.0866 0.4696
vn 0.2902 0.0286 -0.9565
vn 0.9904 0.0976 0.0976
vn 0.9904 0.0976 -0.0976
vn 0.8786 0.0865 -0.4696
vn 0.6332 0.0624 0.7715
vn 0.7708 0.0759 -0.6326
vn 0.7708 0.0760 0.6326
vn 0.8786 -0.0866 -0.4696
vn 0.6332 -0.0624 0.7715
vn 0.6331 -0.0623 -0.7715
vn 0.8786 -0.0865 0.4696
vn 0.2902 -0.0286 -0.9565
vn 0.9904 -0.0976 -0.0975
vn 0.2902 -0.0286 0.9566
vn 0.2791 -0.0847 -0.9565
vn 0.9524 -0.2889 0.0975
vn 0.2790 -0.0846 0.9566
vn 0.7412 -0.2248 -0.6326
vn 0.8448 -0.2563 0.4697
vn 0.4173 -0.2230 0.8810
vn 0.7786 -0.4162 -0.4696
vn 0.6830 -0.3651 -0.6326
vn 0.6831 -0.3651 0.6326
vn 0.7786 -0.4161 0.4696
vn 0.4173 -0.2231 -0.8810
vn 0.2571 -0.1374 -0.9565
vn 0.8777 -0.4692 0.0975
vn 0.8777 -0.4692 -0.0976
vn 0.2571 -0.1375 0.9565
vn 0.2254 -0.1850 -0.9565
vn 0.7693 -0.6314 0.0976
vn 0.7693 -0.6314 -0.0976
vn 0.2253 -0.1850 0.9566
vn 0.4913 -0.5987 -0.6326
vn 0.4913 -0.5987 0.6326
vn 0.1849 -0.2254 -0.9566
vn 0.6314 -0.7693 0.0976
vn 0.6314 -0.7693 -0.0975
vn 0.1849 -0.2254 0.9566
vn 0.1374 -0.2571 -0.9566
vn 0.4691 -0.8777 0.0976
vn 0.4692 -0.8777 -0.0976
vn 0.1374 -0.2572 0.9565
vn 0.3000 -0.5611 0.7715
vn 0.3651 -0.6831 -0.6326
vn 0.3651 -0.6831 0.6326
vn 0.2248 -0.7412 -0.6326
vn 0.2249 -0.7411 0.6326
vn 0.1374 -0.4528 -0.8810
vn 0.0847 -0.2790 0.9565
vn 0.1373 -0.4528 0.8810
vn 0.0975 -0.9904 0.0975
vn 0.0975 -0.9904 -0.0975
vn 0.0286 -0.2902 0.9566
vn 0.0623 -0.6332 0.7715
vn 0.0759 -0.7708 -0.6326
vn 0.0286 -0.2902 -0.9565
vn -0.0759 -0.7708 0.6325
vn -0.0623 -0.6332 -0.7715
vn -0.0975 -0.9904 0.0976
vn -0.0976 -0.9904 -0.0975
vn -0.0285 -0.2902 0.9566
vn -0.2889 -0.9524 -0.0975
vn -0.0846 -0.2790 0.9566
vn -0.1374 -0.4528 0.8810
vn -0.0846 -0.2790 -0.9566
vn -0.2889 -0.9524 0.0976
vn -0.2231 -0.4173 -0.8810
vn -0.1374 -0.2571 -0.9566
vn -0.4691 -0.8777 0.0975
vn -0.4692 -0.8777 -0.0975
vn -0.1375 -0.2572 0.9565
vn -0.1850 -0.2254 0.9565
vn -0.4913 -0.5987 -0.6326
vn -0.4914 -0.5987 0.6326
vn -0.3002 -0.3658 -0.8810
vn -0.1849 -0.2254 -0.9566
vn -0.6314 -0.7693 -0.0976
vn -0.2254 -0.1850 -0.9565
vn -0.7693 -0.6313 0.0975
vn -0.7693 -0.6314 -0.0976
vn -0.2254 -0.1849 0.9566
vn -0.5987 -0.4914 -0.6326
vn -0.5987 -0.4913 0.6326
vn -0.2571 -0.1374 -0.9565
vn -0.8777 -0.4692 0.0975
vn -0.8777 -0.4691 -0.0975
vn -0.2571 -0.1375 0.9565
vn -0.4528 -0.1373 -0.8810
vn -0.2790 -0.0846 -0.9565
vn -0.2791 -0.0846 0.9565
vn -0.4528 -0.1374 0.8810
vn -0.6089 -0.1847 0.7715
vn -0.7412 -0.2248 -0.6326
vn -0.6331 -0.0624 -0.7715
vn -0.2902 -0.0286 -0.9565
vn -0.9904 -0.0976 0.0975
vn -0.2902 -0.0286 0.9565
vn -0.2902 0.0286 -0.9565
vn -0.9904 0.0976 0.0976
vn -0.9904 0.0976 -0.0975
vn -0.2902 0.0285 0.9566
vn -0.6331 0.0624 -0.7715
vn -0.7411 0.2248 -0.6326
vn -0.4528 0.1373 -0.8810
vn -0.9524 0.2889 0.0975
vn -0.9524 0.2889 -0.0976
vn -0.2789 0.0846 0.9566
vn -0.4528 0.1374 0.8810
vn -0.2572 0.1374 -0.9565
vn -0.8777 0.4692 0.0975
vn -0.8777 0.4692 -0.0976
vn -0.2571 0.1375 0.9565
vn -0.7786 0.4162 -0.4696
vn -0.6831 0.3651 0.6325
vn -0.5987 0.4914 -0.6326
vn -0.5987 0.4914 0.6326
vn -0.6824 0.5601 0.4696
vn -0.2254 0.1850 -0.9565
vn -0.7693 0.6313 0.0976
vn -0.7693 0.6314 -0.0976
vn -0.2254 0.1849 0.9566
vn -0.6314 0.7693 -0.0975
vn -0.4914 0.5987 -0.6326
vn -0.1850 0.2254 -0.9566
vn -0.6314 0.7693 0.0976
vn -0.2230 0.4173 -0.8810
vn -0.1374 0.2571 -0.9566
vn -0.4691 0.8777 0.0975
vn -0.4691 0.8777 -0.0976
vn -0.1375 0.2572 0.9565
vn -0.2231 0.4173 0.8810
vn -0.0847 0.2790 0.9565
vn -0.1373 0.4528 0.8810
vn -0.0847 0.2790 -0.9565
vn -0.0286 0.2902 -0.9566
vn -0.0975 0.9904 0.0976
vn -0.0975 0.9904 -0.0976
vn -0.0286 0.2902 0.9566
vn -0.0759 0.7708 -0.6326
vn -0.0759 0.7708 0.6325
s 0
usemtl oil
f 2//1 3//1 1//1
f 4//2 7//2 3//2
f 8//3 5//3 7//3
f 6//4 1//4 5//4
f 7//5 1//5 3//5
f 4//6 6//6 8//6
f 10//1 11//1 9//1
f 12//2 15//2 11//2
f 16//3 13//3 15//3
f 14//4 9//4 13//4
f 15//5 9//5 11//5
f 12//6 14//6 16//6
f 20//7 31//7 493//7
f 24//8 39//8 25//8
f 493//9 32//9 21//9
f 25//10 40//10 497//10
f 21//11 33//11 494//11
f 497//12 41//12 498//12
f 494//13 34//13 22//13
f 18//14 17//14 27//14
f 26//15 498//15 41//15
f 22//16 35//16 23//16
f 18//17 28//17 492//17
f 23//18 36//18 495//18
f 19//19 28//19 29//19
f 495//20 37//20 496//20
f 19//21 30//21 20//21
f 496//22 38//22 24//22
f 30//23 44//23 45//23
f 37//24 53//24 38//24
f 31//25 45//25 46//25
f 38//26 54//26 39//26
f 32//27 46//27 47//27
f 39//28 55//28 40//28
f 32//29 48//29 33//29
f 40//30 56//30 41//30
f 34//31 48//31 49//31
f 27//32 17//32 42//32
f 26//33 41//33 56//33
f 34//34 50//34 35//34
f 27//35 43//35 28//35
f 36//36 50//36 51//36
f 28//37 44//37 29//37
f 37//38 51//38 52//38
f 49//39 63//39 64//39
f 42//40 17//40 57//40
f 26//41 56//41 71//41
f 49//42 65//42 50//42
f 43//43 57//43 58//43
f 50//44 66//44 51//44
f 43//45 59//45 44//45
f 51//46 67//46 52//46
f 44//47 60//47 45//47
f 53//48 67//48 68//48
f 45//49 61//49 46//49
f 54//50 68//50 69//50
f 47//51 61//51 62//51
f 54//52 70//52 55//52
f 48//53 62//53 63//53
f 55//54 71//54 56//54
f 67//55 83//55 68//55
f 61//56 75//56 76//56
f 68//57 84//57 69//57
f 62//58 76//58 77//58
f 69//59 85//59 70//59
f 62//60 78//60 63//60
f 70//61 86//61 71//61
f 63//62 79//62 64//62
f 57//63 17//63 72//63
f 26//64 71//64 86//64
f 64//65 80//65 65//65
f 58//66 72//66 73//66
f 65//67 81//67 66//67
f 59//68 73//68 74//68
f 66//69 82//69 67//69
f 60//70 74//70 75//70
f 72//71 17//71 87//71
f 26//72 86//72 101//72
f 80//73 94//73 95//73
f 72//74 88//74 73//74
f 80//75 96//75 81//75
f 74//76 88//76 89//76
f 82//77 96//77 97//77
f 75//78 89//78 90//78
f 82//79 98//79 83//79
f 76//80 90//80 91//80
f 84//81 98//81 99//81
f 76//82 92//82 77//82
f 84//83 100//83 85//83
f 77//84 93//84 78//84
f 86//85 100//85 101//85
f 78//86 94//86 79//86
f 90//87 106//87 91//87
f 98//88 114//88 99//88
f 92//89 106//89 107//89
f 100//90 114//90 115//90
f 92//91 108//91 93//91
f 100//92 116//92 101//92
f 93//93 109//93 94//93
f 87//94 17//94 102//94
f 26//95 101//95 116//95
f 94//96 110//96 95//96
f 88//97 102//97 103//97
f 95//98 111//98 96//98
f 89//99 103//99 104//99
f 96//100 112//100 97//100
f 90//101 104//101 105//101
f 98//102 112//102 113//102
f 109//103 125//103 110//103
f 103//104 117//104 118//104
f 111//105 125//105 126//105
f 104//106 118//106 119//106
f 111//107 127//107 112//107
f 104//108 120//108 105//108
f 113//109 127//109 128//109
f 106//110 120//110 121//110
f 114//111 128//111 129//111
f 106//112 122//112 107//112
f 114//113 130//113 115//113
f 107//114 123//114 108//114
f 115//115 131//115 116//115
f 109//116 123//116 124//116
f 102//117 17//117 117//117
f 26//118 116//118 131//118
f 129//119 143//119 144//119
f 122//120 136//120 137//120
f 130//121 144//121 145//121
f 122//122 138//122 123//122
f 131//123 145//123 146//123
f 123//124 139//124 124//124
f 117//125 17//125 132//125
f 26//126 131//126 146//126
f 124//127 140//127 125//127
f 118//128 132//128 133//128
f 126//129 140//129 141//129
f 118//130 134//130 119//130
f 126//131 142//131 127//131
f 119//132 135//132 120//132
f 128//133 142//133 143//133
f 120//134 136//134 121//134
f 141//135 155//135 156//135
f 133//136 149//136 134//136
f 141//137 157//137 142//137
f 135//138 149//138 150//138
f 143//139 157//139 158//139
f 135//140 151//140 136//140
f 143//141 159//141 144//141
f 137//142 151//142 152//142
f 144//143 160//143 145//143
f 137//144 153//144 138//144
f 146//145 160//145 161//145
f 139//146 153//146 154//146
f 132//147 17//147 147//147
f 26//148 146//148 161//148
f 139//149 155//149 140//149
f 132//150 148//150 133//150
f 160//151 174//151 175//151
f 152//152 168//152 153//152
f 161//153 175//153 176//153
f 154//154 168//154 169//154
f 147//155 17//155 162//155
f 26//156 161//156 176//156
f 154//157 170//157 155//157
f 148//158 162//158 163//158
f 155//159 171//159 156//159
f 148//160 164//160 149//160
f 157//161 171//161 172//161
f 150//162 164//162 165//162
f 158//163 172//163 173//163
f 150//164 166//164 151//164
f 158//165 174//165 159//165
f 151//166 167//166 152//166
f 163//167 179//167 164//167
f 171//168 187//168 172//168
f 164//169 180//169 165//169
f 172//170 188//170 173//170
f 166//171 180//171 181//171
f 174//172 188//172 189//172
f 167//173 181//173 182//173
f 175//174 189//174 190//174
f 167//175 183//175 168//175
f 175//176 191//176 176//176
f 169//177 183//177 184//177
f 162//178 17//178 177//178
f 26//179 176//179 191//179
f 169//180 185//180 170//180
f 163//181 177//181 178//181
f 171//182 185//182 186//182
f 182//183 198//183 183//183
f 191//184 205//184 206//184
f 183//185 199//185 184//185
f 177//186 17//186 192//186
f 26//187 191//187 206//187
f 185//188 199//188 200//188
f 177//189 193//189 178//189
f 185//190 201//190 186//190
f 179//191 193//191 194//191
f 186//192 202//192 187//192
f 179//193 195//193 180//193
f 188//194 202//194 203//194
f 180//195 196//195 181//195
f 189//196 203//196 204//196
f 182//197 196//197 197//197
f 189//198 205//198 190//198
f 202//199 216//199 217//199
f 194//200 210//200 195//200
f 203//201 217//201 218//201
f 195//202 211//202 196//202
f 203//203 219//203 204//203
f 197//204 211//204 212//204
f 204//205 220//205 205//205
f 197//206 213//206 198//206
f 205//207 221//207 206//207
f 199//208 213//208 214//208
f 192//209 17//209 207//209
f 26//210 206//210 221//210
f 199//211 215//211 200//211
f 192//212 208//212 193//212
f 200//213 216//213 201//213
f 194//214 208//214 209//214
f 221//215 235//215 236//215
f 213//216 229//216 214//216
f 207//217 17//217 222//217
f 26//218 221//218 236//218
f 214//219 230//219 215//219
f 207//220 223//220 208//220
f 215//221 231//221 216//221
f 208//222 224//222 209//222
f 216//223 232//223 217//223
f 209//224 225//224 210//224
f 217//225 233//225 218//225
f 210//226 226//226 211//226
f 218//227 234//227 219//227
f 212//228 226//228 227//228
f 219//229 235//229 220//229
f 212//230 228//230 213//230
f 225//231 239//231 240//231
f 233//232 247//232 248//232
f 225//233 241//233 226//233
f 233//234 249//234 234//234
f 227//235 241//235 242//235
f 234//236 250//236 235//236
f 227//237 243//237 228//237
f 235//238 251//238 236//238
f 228//239 244//239 229//239
f 222//240 17//240 237//240
f 26//241 236//241 251//241
f 230//242 244//242 245//242
f 222//243 238//243 223//243
f 231//244 245//244 246//244
f 223//245 239//245 224//245
f 231//246 247//246 232//246
f 243//247 259//247 244//247
f 237//248 17//248 252//248
f 26//249 251//249 266//249
f 244//250 260//250 245//250
f 238//251 252//251 253//251
f 246//252 260//252 261//252
f 238//253 254//253 239//253
f 246//254 262//254 247//254
f 240//255 254//255 255//255
f 247//256 263//256 248//256
f 240//257 256//257 241//257
f 248//258 264//258 249//258
f 242//259 256//259 257//259
f 250//260 264//260 265//260
f 242//261 258//261 243//261
f 250//262 266//262 251//262
f 262//263 278//263 263//263
f 255//264 271//264 256//264
f 263//265 279//265 264//265
f 256//266 272//266 257//266
f 264//267 280//267 265//267
f 257//268 273//268 258//268
f 266//269 280//269 281//269
f 258//270 274//270 259//270
f 252//271 17//271 267//271
f 26//272 266//272 281//272
f 259//273 275//273 260//273
f 252//274 268//274 253//274
f 260//275 276//275 261//275
f 254//276 268//276 269//276
f 261//277 277//277 262//277
f 255//278 269//278 270//278
f 26//279 281//279 296//279
f 274//280 290//280 275//280
f 267//281 283//281 268//281
f 275//282 291//282 276//282
f 268//283 284//283 269//283
f 276//284 292//284 277//284
f 269//285 285//285 270//285
f 277//286 293//286 278//286
f 271//287 285//287 286//287
f 279//288 293//288 294//288
f 271//289 287//289 272//289
f 279//290 295//290 280//290
f 273//291 287//291 288//291
f 280//292 296//292 281//292
f 274//293 288//293 289//293
f 267//294 17//294 282//294
f 294//295 308//295 309//295
f 286//296 302//296 287//296
f 294//297 310//297 295//297
f 288//298 302//298 303//298
f 295//299 311//299 296//299
f 288//300 304//300 289//300
f 282//301 17//301 297//301
f 26//302 296//302 311//302
f 289//303 305//303 290//303
f 283//304 297//304 298//304
f 290//305 306//305 291//305
f 283//306 299//306 284//306
f 291//307 307//307 292//307
f 284//308 300//308 285//308
f 292//309 308//309 293//309
f 286//310 300//310 301//310
f 297//311 313//311 298//311
f 305//312 321//312 306//312
f 298//313 314//313 299//313
f 306//314 322//314 307//314
f 299//315 315//315 300//315
f 307//316 323//316 308//316
f 301//317 315//317 316//317
f 309//318 323//318 324//318
f 301//319 317//319 302//319
f 310//320 324//320 325//320
f 302//321 318//321 303//321
f 310//322 326//322 311//322
f 303//323 319//323 304//323
f 297//324 17//324 312//324
f 26//325 311//325 326//325
f 304//326 320//326 305//326
f 316//327 332//327 317//327
f 324//328 340//328 325//328
f 317//329 333//329 318//329
f 326//330 340//330 341//330
f 318//331 334//331 319//331
f 312//332 17//332 327//332
f 26//333 326//333 341//333
f 319//334 335//334 320//334
f 312//335 328//335 313//335
f 321//336 335//336 336//336
f 314//337 328//337 329//337
f 321//338 337//338 322//338
f 315//339 329//339 330//339
f 322//340 338//340 323//340
f 316//341 330//341 331//341
f 323//342 339//342 324//342
f 336//343 350//343 351//343
f 329//344 343//344 344//344
f 337//345 351//345 352//345
f 330//346 344//346 345//346
f 338//347 352//347 353//347
f 330//348 346//348 331//348
f 338//349 354//349 339//349
f 331//350 347//350 332//350
f 339//351 355//351 340//351
f 332//352 348//352 333//352
f 341//353 355//353 356//353
f 334//354 348//354 349//354
f 327//355 17//355 342//355
f 26//356 341//356 356//356
f 334//357 350//357 335//357
f 327//358 343//358 328//358
f 354//359 370//359 355//359
f 347//360 363//360 348//360
f 356//361 370//361 371//361
f 349//362 363//362 364//362
f 342//363 17//363 357//363
f 26//364 356//364 371//364
f 349//365 365//365 350//365
f 343//366 357//366 358//366
f 351//367 365//367 366//367
f 344//368 358//368 359//368
f 351//369 367//369 352//369
f 344//370 360//370 345//370
f 352//371 368//371 353//371
f 345//372 361//372 346//372
f 354//373 368//373 369//373
f 347//374 361//374 362//374
f 359//375 373//375 374//375
f 366//376 382//376 367//376
f 359//377 375//377 360//377
f 367//378 383//378 368//378
f 361//379 375//379 376//379
f 369//380 383//380 384//380
f 361//381 377//381 362//381
f 369//382 385//382 370//382
f 362//383 378//383 363//383
f 370//384 386//384 371//384
f 364//385 378//385 379//385
f 357//386 17//386 372//386
f 26//387 371//387 386//387
f 364//388 380//388 365//388
f 358//389 372//389 373//389
f 366//390 380//390 381//390
f 377//391 393//391 378//391
f 385//392 401//392 386//392
f 379//393 393//393 394//393
f 372//394 17//394 387//394
f 26//395 386//395 401//395
f 379//396 395//396 380//396
f 373//397 387//397 388//397
f 380//398 396//398 381//398
f 374//399 388//399 389//399
f 382//400 396//400 397//400
f 375//401 389//401 390//401
f 382//402 398//402 383//402
f 375//403 391//403 376//403
f 383//404 399//404 384//404
f 376//405 392//405 377//405
f 384//406 400//406 385//406
f 397//407 411//407 412//407
f 390//408 404//408 405//408
f 397//409 413//409 398//409
f 390//410 406//410 391//410
f 398//411 414//411 399//411
f 391//412 407//412 392//412
f 400//413 414//413 415//413
f 392//414 408//414 393//414
f 400//415 416//415 401//415
f 394//416 408//416 409//416
f 387//417 17//417 402//417
f 26//418 401//418 416//418
f 394//419 410//419 395//419
f 387//420 403//420 388//420
f 396//421 410//421 411//421
f 388//422 404//422 389//422
f 416//423 430//423 431//423
f 408//424 424//424 409//424
f 402//425 17//425 417//425
f 26//426 416//426 431//426
f 410//427 424//427 425//427
f 402//428 418//428 403//428
f 410//429 426//429 411//429
f 403//430 419//430 404//430
f 411//431 427//431 412//431
f 405//432 419//432 420//432
f 412//433 428//433 413//433
f 405//434 421//434 406//434
f 413//435 429//435 414//435
f 406//436 422//436 407//436
f 415//437 429//437 430//437
f 407//438 423//438 408//438
f 428//439 442//439 443//439
f 421//440 435//440 436//440
f 429//441 443//441 444//441
f 421//442 437//442 422//442
f 429//443 445//443 430//443
f 422//444 438//444 423//444
f 430//445 446//445 431//445
f 424//446 438//446 439//446
f 417//447 17//447 432//447
f 26//448 431//448 446//448
f 424//449 440//449 425//449
f 418//450 432//450 433//450
f 426//451 440//451 441//451
f 418//452 434//452 419//452
f 426//453 442//453 427//453
f 420//454 434//454 435//454
f 432//455 17//455 447//455
f 26//456 446//456 461//456
f 439//457 455//457 440//457
f 432//458 448//458 433//458
f 440//459 456//459 441//459
f 434//460 448//460 449//460
f 442//461 456//461 457//461
f 434//462 450//462 435//462
f 442//463 458//463 443//463
f 436//464 450//464 451//464
f 444//465 458//465 459//465
f 436//466 452//466 437//466
f 444//467 460//467 445//467
f 437//468 453//468 438//468
f 446//469 460//469 461//469
f 439//470 453//470 454//470
f 451//471 465//471 466//471
f 458//472 474//472 459//472
f 451//473 467//473 452//473
f 460//474 474//474 475//474
f 452//475 468//475 453//475
f 460//476 476//476 461//476
f 454//477 468//477 469//477
f 447//478 17//478 462//478
f 26//479 461//479 476//479
f 454//480 470//480 455//480
f 447//481 463//481 448//481
f 455//482 471//482 456//482
f 448//483 464//483 449//483
f 456//484 472//484 457//484
f 450//485 464//485 465//485
f 457//486 473//486 458//486
f 470//487 484//487 485//487
f 462//488 478//488 463//488
f 470//489 486//489 471//489
f 463//490 479//490 464//490
f 471//491 487//491 472//491
f 465//492 479//492 480//492
f 472//493 488//493 473//493
f 466//494 480//494 481//494
f 473//495 489//495 474//495
f 467//496 481//496 482//496
f 474//497 490//497 475//497
f 468//498 482//498 483//498
f 475//499 491//499 476//499
f 468//500 484//500 469//500
f 462//501 17//501 477//501
f 26//502 476//502 491//502
f 488//503 25//503 489//503
f 481//504 21//504 482//504
f 489//505 497//505 490//505
f 483//506 21//506 494//506
f 490//507 498//507 491//507
f 483//508 22//508 484//508
f 477//509 17//509 18//509
f 26//510 491//510 498//510
f 485//511 22//511 23//511
f 478//512 18//512 492//512
f 486//513 23//513 495//513
f 478//514 19//514 479//514
f 486//515 496//515 487//515
f 479//516 20//516 480//516
f 487//517 24//517 488//517
f 481//518 20//518 493//518
f 2//1 4//1 3//1
f 4//2 8//2 7//2
f 8//3 6//3 5//3
f 6//4 2//4 1//4
f 7//5 5//5 1//5
f 4//6 2//6 6//6
f 10//1 12//1 11//1
f 12//2 16//2 15//2
f 16//3 14//3 13//3
f 14//4 10//4 9//4
f 15//5 13//5 9//5
f 12//6 10//6 14//6
f 20//519 30//519 31//519
f 24//8 38//8 39//8
f 493//9 31//9 32//9
f 25//10 39//10 40//10
f 21//11 32//11 33//11
f 497//520 40//520 41//520
f 494//521 33//521 34//521
f 22//522 34//522 35//522
f 18//17 27//17 28//17
f 23//18 35//18 36//18
f 19//19 492//19 28//19
f 495//20 36//20 37//20
f 19//523 29//523 30//523
f 496//22 37//22 38//22
f 30//23 29//23 44//23
f 37//524 52//524 53//524
f 31//525 30//525 45//525
f 38//26 53//26 54//26
f 32//27 31//27 46//27
f 39//28 54//28 55//28
f 32//29 47//29 48//29
f 40//30 55//30 56//30
f 34//526 33//526 48//526
f 34//527 49//527 50//527
f 27//528 42//528 43//528
f 36//36 35//36 50//36
f 28//529 43//529 44//529
f 37//38 36//38 51//38
f 49//530 48//530 63//530
f 49//531 64//531 65//531
f 43//532 42//532 57//532
f 50//44 65//44 66//44
f 43//45 58//45 59//45
f 51//46 66//46 67//46
f 44//47 59//47 60//47
f 53//533 52//533 67//533
f 45//534 60//534 61//534
f 54//50 53//50 68//50
f 47//51 46//51 61//51
f 54//535 69//535 70//535
f 48//53 47//53 62//53
f 55//536 70//536 71//536
f 67//537 82//537 83//537
f 61//56 60//56 75//56
f 68//57 83//57 84//57
f 62//58 61//58 76//58
f 69//538 84//538 85//538
f 62//60 77//60 78//60
f 70//61 85//61 86//61
f 63//539 78//539 79//539
f 64//540 79//540 80//540
f 58//541 57//541 72//541
f 65//67 80//67 81//67
f 59//542 58//542 73//542
f 66//69 81//69 82//69
f 60//70 59//70 74//70
f 80//543 79//543 94//543
f 72//544 87//544 88//544
f 80//75 95//75 96//75
f 74//545 73//545 88//545
f 82//77 81//77 96//77
f 75//78 74//78 89//78
f 82//546 97//546 98//546
f 76//547 75//547 90//547
f 84//81 83//81 98//81
f 76//82 91//82 92//82
f 84//83 99//83 100//83
f 77//84 92//84 93//84
f 86//548 85//548 100//548
f 78//86 93//86 94//86
f 90//549 105//549 106//549
f 98//88 113//88 114//88
f 92//89 91//89 106//89
f 100//550 99//550 114//550
f 92//91 107//91 108//91
f 100//551 115//551 116//551
f 93//552 108//552 109//552
f 94//553 109//553 110//553
f 88//554 87//554 102//554
f 95//98 110//98 111//98
f 89//99 88//99 103//99
f 96//100 111//100 112//100
f 90//101 89//101 104//101
f 98//102 97//102 112//102
f 109//103 124//103 125//103
f 103//555 102//555 117//555
f 111//105 110//105 125//105
f 104//106 103//106 118//106
f 111//556 126//556 127//556
f 104//108 119//108 120//108
f 113//557 112//557 127//557
f 106//558 105//558 120//558
f 114//111 113//111 128//111
f 106//559 121//559 122//559
f 114//113 129//113 130//113
f 107//114 122//114 123//114
f 115//560 130//560 131//560
f 109//561 108//561 123//561
f 129//562 128//562 143//562
f 122//563 121//563 136//563
f 130//121 129//121 144//121
f 122//122 137//122 138//122
f 131//564 130//564 145//564
f 123//565 138//565 139//565
f 124//566 139//566 140//566
f 118//128 117//128 132//128
f 126//129 125//129 140//129
f 118//130 133//130 134//130
f 126//567 141//567 142//567
f 119//568 134//568 135//568
f 128//569 127//569 142//569
f 120//570 135//570 136//570
f 141//135 140//135 155//135
f 133//136 148//136 149//136
f 141//571 156//571 157//571
f 135//572 134//572 149//572
f 143//139 142//139 157//139
f 135//140 150//140 151//140
f 143//573 158//573 159//573
f 137//574 136//574 151//574
f 144//143 159//143 160//143
f 137//144 152//144 153//144
f 146//575 145//575 160//575
f 139//146 138//146 153//146
f 139//576 154//576 155//576
f 132//577 147//577 148//577
f 160//151 159//151 174//151
f 152//152 167//152 168//152
f 161//578 160//578 175//578
f 154//579 153//579 168//579
f 154//157 169//157 170//157
f 148//580 147//580 162//580
f 155//159 170//159 171//159
f 148//160 163//160 164//160
f 157//161 156//161 171//161
f 150//162 149//162 164//162
f 158//581 157//581 172//581
f 150//164 165//164 166//164
f 158//165 173//165 174//165
f 151//582 166//582 167//582
f 163//583 178//583 179//583
f 171//584 186//584 187//584
f 164//169 179//169 180//169
f 172//585 187//585 188//585
f 166//586 165//586 180//586
f 174//172 173//172 188//172
f 167//587 166//587 181//587
f 175//588 174//588 189//588
f 167//175 182//175 183//175
f 175//589 190//589 191//589
f 169//590 168//590 183//590
f 169//591 184//591 185//591
f 163//592 162//592 177//592
f 171//182 170//182 185//182
f 182//183 197//183 198//183
f 191//593 190//593 205//593
f 183//594 198//594 199//594
f 185//595 184//595 199//595
f 177//596 192//596 193//596
f 185//190 200//190 201//190
f 179//191 178//191 193//191
f 186//192 201//192 202//192
f 179//193 194//193 195//193
f 188//194 187//194 202//194
f 180//195 195//195 196//195
f 189//196 188//196 203//196
f 182//197 181//197 196//197
f 189//198 204//198 205//198
f 202//199 201//199 216//199
f 194//200 209//200 210//200
f 203//597 202//597 217//597
f 195//598 210//598 211//598
f 203//203 218//203 219//203
f 197//204 196//204 211//204
f 204//205 219//205 220//205
f 197//206 212//206 213//206
f 205//599 220//599 221//599
f 199//600 198//600 213//600
f 199//601 214//601 215//601
f 192//602 207//602 208//602
f 200//213 215//213 216//213
f 194//214 193//214 208//214
f 221//603 220//603 235//603
f 213//604 228//604 229//604
f 214//605 229//605 230//605
f 207//606 222//606 223//606
f 215//221 230//221 231//221
f 208//222 223//222 224//222
f 216//223 231//223 232//223
f 209//607 224//607 225//607
f 217//608 232//608 233//608
f 210//609 225//609 226//609
f 218//227 233//227 234//227
f 212//228 211//228 226//228
f 219//229 234//229 235//229
f 212//230 227//230 228//230
f 225//231 224//231 239//231
f 233//610 232//610 247//610
f 225//611 240//611 241//611
f 233//234 248//234 249//234
f 227//235 226//235 241//235
f 234//612 249//612 250//612
f 227//237 242//237 243//237
f 235//238 250//238 251//238
f 228//239 243//239 244//239
f 230//242 229//242 244//242
f 222//613 237//613 238//613
f 231//244 230//244 245//244
f 223//614 238//614 239//614
f 231//246 246//246 247//246
f 243//615 258//615 259//615
f 244//616 259//616 260//616
f 238//617 237//617 252//617
f 246//252 245//252 260//252
f 238//253 253//253 254//253
f 246//254 261//254 262//254
f 240//618 239//618 254//618
f 247//619 262//619 263//619
f 240//257 255//257 256//257
f 248//258 263//258 264//258
f 242//259 241//259 256//259
f 250//260 249//260 264//260
f 242//261 257//261 258//261
f 250//620 265//620 266//620
f 262//263 277//263 278//263
f 255//621 270//621 271//621
f 263//622 278//622 279//622
f 256//266 271//266 272//266
f 264//267 279//267 280//267
f 257//268 272//268 273//268
f 266//269 265//269 280//269
f 258//623 273//623 274//623
f 259//624 274//624 275//624
f 252//625 267//625 268//625
f 260//275 275//275 276//275
f 254//276 253//276 268//276
f 261//277 276//277 277//277
f 255//278 254//278 269//278
f 274//626 289//626 290//626
f 267//627 282//627 283//627
f 275//282 290//282 291//282
f 268//628 283//628 284//628
f 276//284 291//284 292//284
f 269//285 284//285 285//285
f 277//286 292//286 293//286
f 271//287 270//287 285//287
f 279//288 278//288 293//288
f 271//289 286//289 287//289
f 279//290 294//290 295//290
f 273//291 272//291 287//291
f 280//629 295//629 296//629
f 274//630 273//630 288//630
f 294//295 293//295 308//295
f 286//296 301//296 302//296
f 294//631 309//631 310//631
f 288//298 287//298 302//298
f 295//632 310//632 311//632
f 288//633 303//633 304//633
f 289//634 304//634 305//634
f 283//635 282//635 297//635
f 290//305 305//305 306//305
f 283//306 298//306 299//306
f 291//307 306//307 307//307
f 284//308 299//308 300//308
f 292//309 307//309 308//309
f 286//310 285//310 300//310
f 297//636 312//636 313//636
f 305//312 320//312 321//312
f 298//313 313//313 314//313
f 306//314 321//314 322//314
f 299//315 314//315 315//315
f 307//637 322//637 323//637
f 301//638 300//638 315//638
f 309//318 308//318 323//318
f 301//319 316//319 317//319
f 310//639 309//639 324//639
f 302//321 317//321 318//321
f 310//640 325//640 326//640
f 303//323 318//323 319//323
f 304//641 319//641 320//641
f 316//327 331//327 332//327
f 324//328 339//328 340//328
f 317//329 332//329 333//329
f 326//642 325//642 340//642
f 318//643 333//643 334//643
f 319//644 334//644 335//644
f 312//645 327//645 328//645
f 321//336 320//336 335//336
f 314//337 313//337 328//337
f 321//338 336//338 337//338
f 315//339 314//339 329//339
f 322//646 337//646 338//646
f 316//647 315//647 330//647
f 323//342 338//342 339//342
f 336//343 335//343 350//343
f 329//344 328//344 343//344
f 337//345 336//345 351//345
f 330//346 329//346 344//346
f 338//347 337//347 352//347
f 330//348 345//348 346//348
f 338//349 353//349 354//349
f 331//350 346//350 347//350
f 339//351 354//351 355//351
f 332//352 347//352 348//352
f 341//648 340//648 355//648
f 334//649 333//649 348//649
f 334//650 349//650 350//650
f 327//651 342//651 343//651
f 354//652 369//652 370//652
f 347//360 362//360 363//360
f 356//653 355//653 370//653
f 349//362 348//362 363//362
f 349//365 364//365 365//365
f 343//654 342//654 357//654
f 351//367 350//367 365//367
f 344//655 343//655 358//655
f 351//369 366//369 367//369
f 344//656 359//656 360//656
f 352//657 367//657 368//657
f 345//372 360//372 361//372
f 354//373 353//373 368//373
f 347//374 346//374 361//374
f 359//375 358//375 373//375
f 366//376 381//376 382//376
f 359//377 374//377 375//377
f 367//378 382//378 383//378
f 361//379 360//379 375//379
f 369//658 368//658 383//658
f 361//381 376//381 377//381
f 369//382 384//382 385//382
f 362//383 377//383 378//383
f 370//659 385//659 386//659
f 364//660 363//660 378//660
f 364//388 379//388 380//388
f 358//661 357//661 372//661
f 366//390 365//390 380//390
f 377//391 392//391 393//391
f 385//662 400//662 401//662
f 379//663 378//663 393//663
f 379//664 394//664 395//664
f 373//665 372//665 387//665
f 380//398 395//398 396//398
f 374//399 373//399 388//399
f 382//400 381//400 396//400
f 375//401 374//401 389//401
f 382//402 397//402 398//402
f 375//403 390//403 391//403
f 383//666 398//666 399//666
f 376//405 391//405 392//405
f 384//406 399//406 400//406
f 397//407 396//407 411//407
f 390//408 389//408 404//408
f 397//667 412//667 413//667
f 390//410 405//410 406//410
f 398//411 413//411 414//411
f 391//412 406//412 407//412
f 400//668 399//668 414//668
f 392//414 407//414 408//414
f 400//415 415//415 416//415
f 394//669 393//669 408//669
f 394//670 409//670 410//670
f 387//671 402//671 403//671
f 396//421 395//421 410//421
f 388//672 403//672 404//672
f 416//673 415//673 430//673
f 408//674 423//674 424//674
f 410//675 409//675 424//675
f 402//676 417//676 418//676
f 410//429 425//429 426//429
f 403//430 418//430 419//430
f 411//677 426//677 427//677
f 405//432 404//432 419//432
f 412//433 427//433 428//433
f 405//678 420//678 421//678
f 413//435 428//435 429//435
f 406//436 421//436 422//436
f 415//437 414//437 429//437
f 407//438 422//438 423//438
f 428//679 427//679 442//679
f 421//680 420//680 435//680
f 429//441 428//441 443//441
f 421//681 436//681 437//681
f 429//443 444//443 445//443
f 422//444 437//444 438//444
f 430//682 445//682 446//682
f 424//683 423//683 438//683
f 424//684 439//684 440//684
f 418//685 417//685 432//685
f 426//451 425//451 440//451
f 418//452 433//452 434//452
f 426//453 441//453 442//453
f 420//454 419//454 434//454
f 439//686 454//686 455//686
f 432//458 447//458 448//458
f 440//459 455//459 456//459
f 434//460 433//460 448//460
f 442//461 441//461 456//461
f 434//462 449//462 450//462
f 442//687 457//687 458//687
f 436//464 435//464 450//464
f 444//465 443//465 458//465
f 436//466 451//466 452//466
f 444//467 459//467 460//467
f 437//468 452//468 453//468
f 446//688 445//688 460//688
f 439//689 438//689 453//689
f 451//471 450//471 465//471
f 458//472 473//472 474//472
f 451//473 466//473 467//473
f 460//690 459//690 474//690
f 452//475 467//475 468//475
f 460//691 475//691 476//691
f 454//692 453//692 468//692
f 454//693 469//693 470//693
f 447//694 462//694 463//694
f 455//482 470//482 471//482
f 448//695 463//695 464//695
f 456//484 471//484 472//484
f 450//485 449//485 464//485
f 457//486 472//486 473//486
f 470//487 469//487 484//487
f 462//696 477//696 478//696
f 470//489 485//489 486//489
f 463//697 478//697 479//697
f 471//491 486//491 487//491
f 465//492 464//492 479//492
f 472//493 487//493 488//493
f 466//494 465//494 480//494
f 473//495 488//495 489//495
f 467//496 466//496 481//496
f 474//497 489//497 490//497
f 468//498 467//498 482//498
f 475//698 490//698 491//698
f 468//500 483//500 484//500
f 488//503 24//503 25//503
f 481//504 493//504 21//504
f 489//505 25//505 497//505
f 483//506 482//506 21//506
f 490//699 497//699 498//699
f 483//700 494//700 22//700
f 485//701 484//701 22//701
f 478//702 477//702 18//702
f 486//513 485//513 23//513
f 478//514 492//514 19//514
f 486//515 495//515 496//515
f 479//516 19//516 20//516
f 487//703 496//703 24//703
f 481//704 480//704 20//704
