# Blender 5.2.2 LTS
# www.blender.org
mtllib cabinet_controller_door.mtl
o cabinet_controller_door
v 0.000000 0.000000 0.120000
v 0.000000 0.000000 1.980000
v 0.000000 0.830000 0.120000
v 0.000000 0.830000 1.980000
v 0.025000 0.000000 0.120000
v 0.025000 0.000000 1.980000
v 0.025000 0.830000 0.120000
v 0.025000 0.830000 1.980000
v 0.025000 0.735000 1.000000
v 0.025000 0.735000 1.200000
v 0.025000 0.765000 1.000000
v 0.025000 0.765000 1.200000
v 0.060000 0.735000 1.000000
v 0.060000 0.735000 1.200000
v 0.060000 0.765000 1.000000
v 0.060000 0.765000 1.200000
v 0.025000 0.100000 1.550000
v 0.025000 0.100000 1.700000
v 0.025000 0.400000 1.550000
v 0.025000 0.400000 1.700000
v 0.028000 0.100000 1.550000
v 0.028000 0.100000 1.700000
v 0.028000 0.400000 1.550000
v 0.028000 0.400000 1.700000
v 0.025000 0.490000 1.300000
v 0.025000 0.490000 1.420000
v 0.025000 0.610000 1.300000
v 0.025000 0.610000 1.420000
v 0.030000 0.490000 1.300000
v 0.030000 0.490000 1.420000
v 0.030000 0.610000 1.300000
v 0.030000 0.610000 1.420000
v 0.030000 0.585000 1.360000
v 0.070000 0.585000 1.360000
v 0.030000 0.584701 1.355432
v 0.070000 0.584701 1.355432
v 0.030000 0.583807 1.350941
v 0.070000 0.583807 1.350941
v 0.030000 0.582336 1.346606
v 0.070000 0.582336 1.346606
v 0.030000 0.580311 1.342500
v 0.070000 0.580311 1.342500
v 0.030000 0.577767 1.338693
v 0.070000 0.577767 1.338693
v 0.030000 0.574749 1.335251
v 0.070000 0.574749 1.335251
v 0.030000 0.571307 1.332233
v 0.070000 0.571307 1.332233
v 0.030000 0.567500 1.329689
v 0.070000 0.567500 1.329689
v 0.030000 0.563394 1.327664
v 0.070000 0.563394 1.327664
v 0.030000 0.559059 1.326193
v 0.070000 0.559059 1.326193
v 0.030000 0.554568 1.325300
v 0.070000 0.554568 1.325300
v 0.030000 0.550000 1.325000
v 0.070000 0.550000 1.325000
v 0.030000 0.545432 1.325300
v 0.070000 0.545432 1.325300
v 0.030000 0.540941 1.326193
v 0.070000 0.540941 1.326193
v 0.030000 0.536606 1.327664
v 0.070000 0.536606 1.327664
v 0.030000 0.532500 1.329689
v 0.070000 0.532500 1.329689
v 0.030000 0.528693 1.332233
v 0.070000 0.528693 1.332233
v 0.030000 0.525251 1.335251
v 0.070000 0.525251 1.335251
v 0.030000 0.522233 1.338693
v 0.070000 0.522233 1.338693
v 0.030000 0.519689 1.342500
v 0.070000 0.519689 1.342500
v 0.030000 0.517664 1.346606
v 0.070000 0.517664 1.346606
v 0.030000 0.516193 1.350941
v 0.070000 0.516193 1.350941
v 0.030000 0.515299 1.355432
v 0.070000 0.515299 1.355432
v 0.030000 0.515000 1.360000
v 0.070000 0.515000 1.360000
v 0.030000 0.515299 1.364568
v 0.070000 0.515299 1.364568
v 0.030000 0.516193 1.369059
v 0.070000 0.516193 1.369059
v 0.030000 0.517664 1.373394
v 0.070000 0.517664 1.373394
v 0.030000 0.519689 1.377500
v 0.070000 0.519689 1.377500
v 0.030000 0.522233 1.381307
v 0.070000 0.522233 1.381307
v 0.030000 0.525251 1.384749
v 0.070000 0.525251 1.384749
v 0.030000 0.528693 1.387767
v 0.070000 0.528693 1.387767
v 0.030000 0.532500 1.390311
v 0.070000 0.532500 1.390311
v 0.030000 0.536606 1.392336
v 0.070000 0.536606 1.392336
v 0.030000 0.540941 1.393807
v 0.070000 0.540941 1.393807
v 0.030000 0.545432 1.394701
v 0.070000 0.545432 1.394701
v 0.030000 0.550000 1.395000
v 0.070000 0.550000 1.395000
v 0.030000 0.554568 1.394701
v 0.070000 0.554568 1.394701
v 0.030000 0.559059 1.393807
v 0.070000 0.559059 1.393807
v 0.030000 0.563394 1.392336
v 0.070000 0.563394 1.392336
v 0.030000 0.567500 1.390311
v 0.070000 0.567500 1.390311
v 0.030000 0.571307 1.387767
v 0.070000 0.571307 1.387767
v 0.030000 0.574749 1.384749
v 0.070000 0.574749 1.384749
v 0.030000 0.577767 1.381307
v 0.070000 0.577767 1.381307
v 0.030000 0.580311 1.377500
v 0.070000 0.580311 1.377500
v 0.030000 0.582336 1.373394
v 0.070000 0.582336 1.373394
v 0.030000 0.583807 1.369059
v 0.070000 0.583807 1.369059
v 0.030000 0.584701 1.364568
v 0.070000 0.584701 1.364568
vn -1.0000 -0.0000 -0.0000
vn -0.0000 1.0000 -0.0000
vn 1.0000 -0.0000 -0.0000
vn -0.0000 -1.0000 -0.0000
vn -0.0000 -0.0000 -1.0000
vn -0.0000 -0.0000 1.0000
vn -0.0000 0.9979 -0.0654
vn -0.0000 0.9808 -0.1951
vn -0.0000 0.9469 -0.3214
vn -0.0000 0.8969 -0.4423
vn -0.0000 0.8315 -0.5556
vn -0.0000 0.7518 -0.6593
vn -0.0000 0.6593 -0.7518
vn -0.0000 0.5556 -0.8315
vn -0.0000 0.4423 -0.8969
vn -0.0000 0.3214 -0.9469
vn -0.0000 0.1951 -0.9808
vn -0.0000 0.0654 -0.9979
vn -0.0000 -0.0654 -0.9979
vn -0.0000 -0.1951 -0.9808
vn -0.0000 -0.3214 -0.9469
vn -0.0000 -0.4423 -0.8969
vn -0.0000 -0.5556 -0.8315
vn -0.0000 -0.6593 -0.7518
vn -0.0000 -0.7518 -0.6593
vn -0.0000 -0.8315 -0.5556
vn -0.0000 -0.8969 -0.4423
vn -0.0000 -0.9469 -0.3214
vn -0.0000 -0.9808 -0.1951
vn -0.0000 -0.9979 -0.0654
vn -0.0000 -0.9979 0.0654
vn -0.0000 -0.9808 0.1951
vn -0.0000 -0.9469 0.3214
vn -0.0000 -0.8969 0.4423
vn -0.0000 -0.8315 0.5556
vn -0.0000 -0.7518 0.6593
vn -0.0000 -0.6593 0.7518
vn -0.0000 -0.5556 0.8315
vn -0.0000 -0.4423 0.8969
vn -0.0000 -0.3214 0.9469
vn -0.0000 -0.1951 0.9808
vn -0.0000 -0.0654 0.9979
vn -0.0000 0.0654 0.9979
vn -0.0000 0.1951 0.9808
vn -0.0000 0.3214 0.9469
vn -0.0000 0.4423 0.8969
vn -0.0000 0.5556 0.8315
vn -0.0000 0.6593 0.7518
vn -0.0000 0.7518 0.6593
vn -0.0000 0.8315 0.5556
vn -0.0000 0.8969 0.4423
vn -0.0000 0.9469 0.3214
vn -0.0000 0.9808 0.1951
vn -0.0000 0.9979 0.0654
s 0
usemtl cabinet_grey
f 2//1 3//1 1//1
f 4//2 7//2 3//2
f 8//3 5//3 7//3
f 6//4 1//4 5//4
f 7//5 1//5 3//5
f 4//6 6//6 8//6
f 2//1 4//1 3//1
f 4//2 8//2 7//2
f 8//3 6//3 5//3
f 6//4 2//4 1//4
f 7//5 5//5 1//5
f 4//6 2//6 6//6
usemtl bolt_black
f 10//1 11//1 9//1
f 12//2 15//2 11//2
f 16//3 13//3 15//3
f 14//4 9//4 13//4
f 15//5 9//5 11//5
f 12//6 14//6 16//6
f 10//1 12//1 11//1
f 12//2 16//2 15//2
f 16//3 14//3 13//3
f 14//4 10//4 9//4
f 15//5 13//5 9//5
f 12//6 10//6 14//6
usemtl bottle_white
f 18//1 19//1 17//1
f 20//2 23//2 19//2
f 24//3 21//3 23//3
f 22//4 17//4 21//4
f 23//5 17//5 19//5
f 20//6 22//6 24//6
f 18//1 20//1 19//1
f 20//2 24//2 23//2
f 24//3 22//3 21//3
f 22//4 18//4 17//4
f 23//5 21//5 17//5
f 20//6 18//6 22//6
usemtl hatch_yellow
f 26//1 27//1 25//1
f 28//2 31//2 27//2
f 32//3 29//3 31//3
f 30//4 25//4 29//4
f 31//5 25//5 27//5
f 28//6 30//6 32//6
f 26//1 28//1 27//1
f 28//2 32//2 31//2
f 32//3 30//3 29//3
f 30//4 26//4 25//4
f 31//5 29//5 25//5
f 28//6 26//6 30//6
usemtl alarm_red
f 34//7 35//7 33//7
f 36//8 37//8 35//8
f 38//9 39//9 37//9
f 40//10 41//10 39//10
f 41//11 44//11 43//11
f 44//12 45//12 43//12
f 46//13 47//13 45//13
f 48//14 49//14 47//14
f 50//15 51//15 49//15
f 52//16 53//16 51//16
f 54//17 55//17 53//17
f 56//18 57//18 55//18
f 58//19 59//19 57//19
f 60//20 61//20 59//20
f 62//21 63//21 61//21
f 64//22 65//22 63//22
f 66//23 67//23 65//23
f 68//24 69//24 67//24
f 70//25 71//25 69//25
f 72//26 73//26 71//26
f 74//27 75//27 73//27
f 76//28 77//28 75//28
f 78//29 79//29 77//29
f 80//30 81//30 79//30
f 82//31 83//31 81//31
f 84//32 85//32 83//32
f 86//33 87//33 85//33
f 88//34 89//34 87//34
f 90//35 91//35 89//35
f 92//36 93//36 91//36
f 94//37 95//37 93//37
f 96//38 97//38 95//38
f 98//39 99//39 97//39
f 100//40 101//40 99//40
f 102//41 103//41 101//41
f 104//42 105//42 103//42
f 106//43 107//43 105//43
f 108//44 109//44 107//44
f 110//45 111//45 109//45
f 112//46 113//46 111//46
f 114//47 115//47 113//47
f 116//48 117//48 115//48
f 118//49 119//49 117//49
f 119//50 122//50 121//50
f 122//51 123//51 121//51
f 124//52 125//52 123//52
f 102//3 70//3 38//3
f 126//53 127//53 125//53
f 128//54 33//54 127//54
f 63//1 95//1 127//1
f 34//7 36//7 35//7
f 36//8 38//8 37//8
f 38//9 40//9 39//9
f 40//10 42//10 41//10
f 41//11 42//11 44//11
f 44//12 46//12 45//12
f 46//13 48//13 47//13
f 48//14 50//14 49//14
f 50//15 52//15 51//15
f 52//16 54//16 53//16
f 54//17 56//17 55//17
f 56//18 58//18 57//18
f 58//19 60//19 59//19
f 60//20 62//20 61//20
f 62//21 64//21 63//21
f 64//22 66//22 65//22
f 66//23 68//23 67//23
f 68//24 70//24 69//24
f 70//25 72//25 71//25
f 72//26 74//26 73//26
f 74//27 76//27 75//27
f 76//28 78//28 77//28
f 78//29 80//29 79//29
f 80//30 82//30 81//30
f 82//31 84//31 83//31
f 84//32 86//32 85//32
f 86//33 88//33 87//33
f 88//34 90//34 89//34
f 90//35 92//35 91//35
f 92//36 94//36 93//36
f 94//37 96//37 95//37
f 96//38 98//38 97//38
f 98//39 100//39 99//39
f 100//40 102//40 101//40
f 102//41 104//41 103//41
f 104//42 106//42 105//42
f 106//43 108//43 107//43
f 108//44 110//44 109//44
f 110//45 112//45 111//45
f 112//46 114//46 113//46
f 114//47 116//47 115//47
f 116//48 118//48 117//48
f 118//49 120//49 119//49
f 119//50 120//50 122//50
f 122//51 124//51 123//51
f 124//52 126//52 125//52
f 38//3 36//3 34//3
f 34//3 128//3 126//3
f 126//3 124//3 122//3
f 122//3 120//3 118//3
f 118//3 116//3 114//3
f 114//3 112//3 110//3
f 110//3 108//3 106//3
f 106//3 104//3 102//3
f 102//3 100//3 98//3
f 98//3 96//3 94//3
f 94//3 92//3 90//3
f 90//3 88//3 86//3
f 86//3 84//3 82//3
f 82//3 80//3 78//3
f 78//3 76//3 74//3
f 74//3 72//3 70//3
f 70//3 68//3 66//3
f 66//3 64//3 62//3
f 62//3 60//3 58//3
f 58//3 56//3 54//3
f 54//3 52//3 50//3
f 50//3 48//3 46//3
f 46//3 44//3 42//3
f 42//3 40//3 38//3
f 38//3 34//3 126//3
f 126//3 122//3 118//3
f 118//3 114//3 110//3
f 110//3 106//3 102//3
f 102//3 98//3 94//3
f 94//3 90//3 86//3
f 86//3 82//3 78//3
f 78//3 74//3 70//3
f 70//3 66//3 62//3
f 62//3 58//3 54//3
f 54//3 50//3 46//3
f 46//3 42//3 38//3
f 38//3 126//3 118//3
f 118//3 110//3 102//3
f 102//3 94//3 86//3
f 86//3 78//3 70//3
f 70//3 62//3 54//3
f 54//3 46//3 38//3
f 38//3 118//3 102//3
f 102//3 86//3 70//3
f 70//3 54//3 38//3
f 126//53 128//53 127//53
f 128//54 34//54 33//54
f 127//1 33//1 35//1
f 35//1 37//1 39//1
f 39//1 41//1 43//1
f 43//1 45//1 47//1
f 47//1 49//1 51//1
f 51//1 53//1 55//1
f 55//1 57//1 59//1
f 59//1 61//1 63//1
f 63//1 65//1 67//1
f 67//1 69//1 71//1
f 71//1 73//1 75//1
f 75//1 77//1 79//1
f 79//1 81//1 83//1
f 83//1 85//1 87//1
f 87//1 89//1 91//1
f 91//1 93//1 95//1
f 95//1 97//1 99//1
f 99//1 101//1 103//1
f 103//1 105//1 107//1
f 107//1 109//1 111//1
f 111//1 113//1 115//1
f 115//1 117//1 119//1
f 119//1 121//1 123//1
f 123//1 125//1 127//1
f 127//1 35//1 39//1
f 39//1 43//1 47//1
f 47//1 51//1 55//1
f 55//1 59//1 63//1
f 63//1 67//1 71//1
f 71//1 75//1 79//1
f 79//1 83//1 87//1
f 87//1 91//1 95//1
f 95//1 99//1 103//1
f 103//1 107//1 111//1
f 111//1 115//1 119//1
f 119//1 123//1 127//1
f 127//1 39//1 47//1
f 47//1 55//1 63//1
f 63//1 71//1 79//1
f 79//1 87//1 95//1
f 95//1 103//1 111//1
f 111//1 119//1 127//1
f 127//1 47//1 63//1
f 63//1 79//1 95//1
f 95//1 111//1 127//1
