# Blender 5.2.2 LTS
# www.blender.org
mtllib technician.mtl
o technician
v -0.100000 -0.070000 0.050000
v -0.100000 -0.070000 0.880000
v -0.126788 -0.064672 0.050000
v -0.126788 -0.064672 0.880000
v -0.149497 -0.049497 0.050000
v -0.149497 -0.049497 0.880000
v -0.164672 -0.026788 0.050000
v -0.164672 -0.026788 0.880000
v -0.170000 -0.000000 0.050000
v -0.170000 -0.000000 0.880000
v -0.164672 0.026788 0.050000
v -0.164672 0.026788 0.880000
v -0.149497 0.049497 0.050000
v -0.149497 0.049497 0.880000
v -0.126788 0.064672 0.050000
v -0.126788 0.064672 0.880000
v -0.100000 0.070000 0.050000
v -0.100000 0.070000 0.880000
v -0.073212 0.064672 0.050000
v -0.073212 0.064672 0.880000
v -0.050503 0.049497 0.050000
v -0.050503 0.049497 0.880000
v -0.035328 0.026788 0.050000
v -0.035328 0.026788 0.880000
v -0.030000 0.000000 0.050000
v -0.030000 0.000000 0.880000
v -0.035328 -0.026788 0.050000
v -0.035328 -0.026788 0.880000
v -0.050503 -0.049497 0.050000
v -0.050503 -0.049497 0.880000
v -0.073212 -0.064672 0.050000
v -0.073212 -0.064672 0.880000
v -0.160000 -0.060000 0.000000
v -0.160000 -0.060000 0.080000
v -0.160000 0.140000 0.000000
v -0.160000 0.140000 0.080000
v -0.040000 -0.060000 0.000000
v -0.040000 -0.060000 0.080000
v -0.040000 0.140000 0.000000
v -0.040000 0.140000 0.080000
v -0.224005 0.048060 1.433198
v -0.234005 0.168060 0.993198
v -0.248382 0.039545 1.431430
v -0.258382 0.159545 0.991430
v -0.265154 0.020434 1.426599
v -0.275154 0.140434 0.986599
v -0.269827 -0.004152 1.420000
v -0.279827 0.115848 0.980000
v -0.261149 -0.027626 1.413401
v -0.271149 0.092374 0.973401
v -0.241445 -0.043697 1.408570
v -0.251445 0.076303 0.968570
v -0.215995 -0.048060 1.406802
v -0.225995 0.071940 0.966802
v -0.191618 -0.039545 1.408570
v -0.201618 0.080455 0.968570
v -0.174846 -0.020434 1.413401
v -0.184846 0.099566 0.973401
v -0.170173 0.004152 1.420000
v -0.180173 0.124152 0.980000
v -0.178851 0.027626 1.426599
v -0.188851 0.147626 0.986599
v -0.198555 0.043697 1.431430
v -0.208555 0.163697 0.991430
v 0.100000 -0.070000 0.050000
v 0.100000 -0.070000 0.880000
v 0.073212 -0.064672 0.050000
v 0.073212 -0.064672 0.880000
v 0.050503 -0.049497 0.050000
v 0.050503 -0.049497 0.880000
v 0.035328 -0.026788 0.050000
v 0.035328 -0.026788 0.880000
v 0.030000 -0.000000 0.050000
v 0.030000 -0.000000 0.880000
v 0.035328 0.026788 0.050000
v 0.035328 0.026788 0.880000
v 0.050503 0.049497 0.050000
v 0.050503 0.049497 0.880000
v 0.073212 0.064672 0.050000
v 0.073212 0.064672 0.880000
v 0.100000 0.070000 0.050000
v 0.100000 0.070000 0.880000
v 0.126788 0.064672 0.050000
v 0.126788 0.064672 0.880000
v 0.149497 0.049497 0.050000
v 0.149497 0.049497 0.880000
v 0.164672 0.026788 0.050000
v 0.164672 0.026788 0.880000
v 0.170000 0.000000 0.050000
v 0.170000 0.000000 0.880000
v 0.164672 -0.026788 0.050000
v 0.164672 -0.026788 0.880000
v 0.149497 -0.049497 0.050000
v 0.149497 -0.049497 0.880000
v 0.126788 -0.064672 0.050000
v 0.126788 -0.064672 0.880000
v 0.040000 -0.060000 0.000000
v 0.040000 -0.060000 0.080000
v 0.040000 0.140000 0.000000
v 0.040000 0.140000 0.080000
v 0.160000 -0.060000 0.000000
v 0.160000 -0.060000 0.080000
v 0.160000 0.140000 0.000000
v 0.160000 0.140000 0.080000
v 0.224005 0.048060 1.433198
v 0.234005 0.168060 0.993198
v 0.198555 0.043697 1.431430
v 0.208555 0.163697 0.991430
v 0.178851 0.027626 1.426599
v 0.188851 0.147626 0.986599
v 0.170173 0.004152 1.420000
v 0.180173 0.124152 0.980000
v 0.174846 -0.020434 1.413401
v 0.184846 0.099566 0.973401
v 0.191618 -0.039545 1.408570
v 0.201618 0.080455 0.968570
v 0.215995 -0.048060 1.406802
v 0.225995 0.071940 0.966802
v 0.241445 -0.043697 1.408570
v 0.251445 0.076303 0.968570
v 0.261149 -0.027626 1.413401
v 0.271149 0.092374 0.973401
v 0.269827 -0.004152 1.420000
v 0.279827 0.115848 0.980000
v 0.265154 0.020434 1.426599
v 0.275154 0.140434 0.986599
v 0.248382 0.039545 1.431430
v 0.258382 0.159545 0.991430
v -0.190000 -0.110000 0.850000
v -0.190000 -0.110000 1.480000
v -0.190000 0.110000 0.850000
v -0.190000 0.110000 1.480000
v 0.190000 -0.110000 0.850000
v 0.190000 -0.110000 1.480000
v 0.190000 0.110000 0.850000
v 0.190000 0.110000 1.480000
v -0.200000 -0.115000 1.050000
v -0.200000 -0.115000 1.100000
v -0.200000 0.115000 1.050000
v -0.200000 0.115000 1.100000
v 0.200000 -0.115000 1.050000
v 0.200000 -0.115000 1.100000
v 0.200000 0.115000 1.050000
v 0.200000 0.115000 1.100000
v 0.000000 0.000000 1.710000
v 0.000000 0.021460 1.707886
v 0.000000 0.061113 1.691462
v 0.000000 0.077782 1.677782
v 0.000000 0.101627 1.642095
v 0.000000 0.110000 1.600000
v 0.000000 0.107886 1.578540
v 0.000000 0.091462 1.538887
v 0.000000 0.061113 1.508538
v 0.000000 0.000000 1.490000
v 0.004187 0.021048 1.707886
v 0.008212 0.041286 1.701627
v 0.011923 0.059938 1.691462
v 0.015174 0.076287 1.677782
v 0.017843 0.089704 1.661113
v 0.019826 0.099674 1.642095
v 0.021048 0.105813 1.621460
v 0.021460 0.107886 1.600000
v 0.021048 0.105813 1.578540
v 0.019826 0.099674 1.557905
v 0.017843 0.089704 1.538887
v 0.015174 0.076287 1.522218
v 0.011923 0.059938 1.508538
v 0.008212 0.041286 1.498373
v 0.004187 0.021048 1.492114
v 0.008212 0.019826 1.707886
v 0.016109 0.038891 1.701627
v 0.023387 0.056461 1.691462
v 0.029766 0.071861 1.677782
v 0.035001 0.084500 1.661113
v 0.038891 0.093891 1.642095
v 0.041286 0.099674 1.621460
v 0.042095 0.101627 1.600000
v 0.041286 0.099674 1.578540
v 0.038891 0.093891 1.557905
v 0.035001 0.084500 1.538887
v 0.029766 0.071861 1.522218
v 0.023387 0.056461 1.508538
v 0.016109 0.038891 1.498373
v 0.008212 0.019826 1.492114
v 0.011923 0.017843 1.707886
v 0.023387 0.035001 1.701627
v 0.033952 0.050813 1.691462
v 0.043213 0.064673 1.677782
v 0.050813 0.076048 1.661113
v 0.056461 0.084500 1.642095
v 0.059938 0.089704 1.621460
v 0.061113 0.091462 1.600000
v 0.059938 0.089704 1.578540
v 0.056461 0.084500 1.557905
v 0.050813 0.076048 1.538887
v 0.043213 0.064673 1.522218
v 0.033952 0.050813 1.508538
v 0.023387 0.035001 1.498373
v 0.011923 0.017843 1.492114
v 0.015174 0.015174 1.707886
v 0.029766 0.029766 1.701627
v 0.043213 0.043213 1.691462
v 0.055000 0.055000 1.677782
v 0.064673 0.064673 1.661113
v 0.071861 0.071861 1.642095
v 0.076287 0.076287 1.621460
v 0.077782 0.077782 1.600000
v 0.076287 0.076287 1.578540
v 0.071861 0.071861 1.557905
v 0.064673 0.064673 1.538887
v 0.055000 0.055000 1.522218
v 0.043213 0.043213 1.508538
v 0.029766 0.029766 1.498373
v 0.015174 0.015174 1.492114
v 0.017843 0.011922 1.707886
v 0.035001 0.023387 1.701627
v 0.050813 0.033952 1.691462
v 0.064673 0.043213 1.677782
v 0.076048 0.050813 1.661113
v 0.084500 0.056461 1.642095
v 0.089704 0.059938 1.621460
v 0.091462 0.061113 1.600000
v 0.089704 0.059938 1.578540
v 0.084500 0.056461 1.557905
v 0.076048 0.050813 1.538887
v 0.064673 0.043213 1.522218
v 0.050813 0.033952 1.508538
v 0.035001 0.023387 1.498373
v 0.017843 0.011922 1.492114
v 0.019826 0.008212 1.707886
v 0.038891 0.016109 1.701627
v 0.056461 0.023387 1.691462
v 0.071861 0.029766 1.677782
v 0.084500 0.035001 1.661113
v 0.093891 0.038891 1.642095
v 0.099674 0.041286 1.621460
v 0.101627 0.042095 1.600000
v 0.099674 0.041286 1.578540
v 0.093891 0.038891 1.557905
v 0.084500 0.035001 1.538887
v 0.071861 0.029766 1.522218
v 0.056461 0.023387 1.508538
v 0.038891 0.016109 1.498373
v 0.019826 0.008212 1.492114
v 0.021048 0.004187 1.707886
v 0.041286 0.008212 1.701627
v 0.059938 0.011922 1.691462
v 0.076287 0.015174 1.677782
v 0.089704 0.017843 1.661113
v 0.099674 0.019826 1.642095
v 0.105813 0.021048 1.621460
v 0.107886 0.021460 1.600000
v 0.105813 0.021048 1.578540
v 0.099674 0.019826 1.557905
v 0.089704 0.017843 1.538887
v 0.076287 0.015174 1.522218
v 0.059938 0.011922 1.508538
v 0.041286 0.008212 1.498373
v 0.021048 0.004187 1.492114
v 0.021460 -0.000000 1.707886
v 0.042095 -0.000000 1.701627
v 0.061113 -0.000000 1.691462
v 0.077782 -0.000000 1.677782
v 0.091462 -0.000000 1.661113
v 0.101627 -0.000000 1.642095
v 0.107886 -0.000000 1.621460
v 0.110000 -0.000000 1.600000
v 0.107886 -0.000000 1.578540
v 0.101627 -0.000000 1.557905
v 0.091462 -0.000000 1.538887
v 0.077782 -0.000000 1.522218
v 0.061113 -0.000000 1.508538
v 0.042095 -0.000000 1.498373
v 0.021460 -0.000000 1.492114
v 0.021048 -0.004187 1.707886
v 0.041286 -0.008212 1.701627
v 0.059938 -0.011923 1.691462
v 0.076287 -0.015174 1.677782
v 0.089704 -0.017843 1.661113
v 0.099674 -0.019826 1.642095
v 0.105813 -0.021048 1.621460
v 0.107886 -0.021460 1.600000
v 0.105813 -0.021048 1.578540
v 0.099674 -0.019826 1.557905
v 0.089704 -0.017843 1.538887
v 0.076287 -0.015174 1.522218
v 0.059938 -0.011923 1.508538
v 0.041286 -0.008212 1.498373
v 0.021048 -0.004187 1.492114
v 0.019826 -0.008212 1.707886
v 0.038891 -0.016109 1.701627
v 0.056461 -0.023387 1.691462
v 0.071861 -0.029766 1.677782
v 0.084500 -0.035001 1.661113
v 0.093891 -0.038891 1.642095
v 0.099674 -0.041286 1.621460
v 0.101627 -0.042095 1.600000
v 0.099674 -0.041286 1.578540
v 0.093891 -0.038891 1.557905
v 0.084500 -0.035001 1.538887
v 0.071861 -0.029766 1.522218
v 0.056461 -0.023387 1.508538
v 0.038891 -0.016109 1.498373
v 0.019826 -0.008212 1.492114
v 0.017843 -0.011922 1.707886
v 0.035001 -0.023387 1.701627
v 0.050813 -0.033952 1.691462
v 0.064673 -0.043213 1.677782
v 0.076048 -0.050813 1.661113
v 0.084500 -0.056461 1.642095
v 0.089704 -0.059938 1.621460
v 0.091462 -0.061113 1.600000
v 0.089704 -0.059938 1.578540
v 0.084500 -0.056461 1.557905
v 0.076048 -0.050813 1.538887
v 0.064673 -0.043213 1.522218
v 0.050813 -0.033952 1.508538
v 0.035001 -0.023387 1.498373
v 0.017843 -0.011922 1.492114
v 0.015174 -0.015174 1.707886
v 0.029766 -0.029766 1.701627
v 0.043213 -0.043213 1.691462
v 0.055000 -0.055000 1.677782
v 0.064673 -0.064673 1.661113
v 0.071861 -0.071861 1.642095
v 0.076287 -0.076287 1.621460
v 0.077782 -0.077782 1.600000
v 0.076287 -0.076287 1.578540
v 0.071861 -0.071861 1.557905
v 0.064673 -0.064673 1.538887
v 0.055000 -0.055000 1.522218
v 0.043213 -0.043213 1.508538
v 0.029766 -0.029766 1.498373
v 0.015174 -0.015174 1.492114
v 0.011922 -0.017843 1.707886
v 0.023387 -0.035001 1.701627
v 0.033952 -0.050813 1.691462
v 0.043213 -0.064673 1.677782
v 0.050813 -0.076048 1.661113
v 0.056461 -0.084500 1.642095
v 0.059938 -0.089704 1.621460
v 0.061113 -0.091462 1.600000
v 0.059938 -0.089704 1.578540
v 0.056461 -0.084500 1.557905
v 0.050813 -0.076048 1.538887
v 0.043213 -0.064673 1.522218
v 0.033952 -0.050813 1.508538
v 0.023387 -0.035001 1.498373
v 0.011922 -0.017843 1.492114
v 0.008212 -0.019826 1.707886
v 0.016109 -0.038891 1.701627
v 0.023387 -0.056461 1.691462
v 0.029766 -0.071861 1.677782
v 0.035001 -0.084500 1.661113
v 0.038891 -0.093891 1.642095
v 0.041286 -0.099674 1.621460
v 0.042095 -0.101627 1.600000
v 0.041286 -0.099674 1.578540
v 0.038891 -0.093891 1.557905
v 0.035001 -0.084500 1.538887
v 0.029766 -0.071861 1.522218
v 0.023387 -0.056461 1.508538
v 0.016109 -0.038891 1.498373
v 0.008212 -0.019826 1.492114
v 0.004187 -0.021048 1.707886
v 0.008212 -0.041286 1.701627
v 0.011922 -0.059938 1.691462
v 0.015174 -0.076287 1.677782
v 0.017843 -0.089704 1.661113
v 0.019826 -0.099674 1.642095
v 0.021048 -0.105813 1.621460
v 0.021460 -0.107886 1.600000
v 0.021048 -0.105813 1.578540
v 0.019826 -0.099674 1.557905
v 0.017843 -0.089704 1.538887
v 0.015174 -0.076287 1.522218
v 0.011922 -0.059938 1.508538
v 0.008212 -0.041286 1.498373
v 0.004187 -0.021048 1.492114
v -0.000000 -0.021460 1.707886
v -0.000000 -0.042095 1.701627
v -0.000000 -0.061113 1.691462
v -0.000000 -0.077782 1.677782
v -0.000000 -0.091462 1.661113
v -0.000000 -0.101627 1.642095
v -0.000000 -0.107886 1.621460
v -0.000000 -0.110000 1.600000
v -0.000000 -0.107886 1.578540
v -0.000000 -0.101627 1.557905
v -0.000000 -0.091462 1.538887
v -0.000000 -0.077782 1.522218
v -0.000000 -0.061113 1.508538
v -0.000000 -0.042095 1.498373
v -0.000000 -0.021460 1.492114
v -0.004187 -0.021048 1.707886
v -0.008212 -0.041286 1.701627
v -0.011923 -0.059938 1.691462
v -0.015174 -0.076287 1.677782
v -0.017843 -0.089704 1.661113
v -0.019826 -0.099674 1.642095
v -0.021048 -0.105813 1.621460
v -0.021460 -0.107886 1.600000
v -0.021048 -0.105813 1.578540
v -0.019826 -0.099674 1.557905
v -0.017843 -0.089704 1.538887
v -0.015174 -0.076287 1.522218
v -0.011923 -0.059938 1.508538
v -0.008212 -0.041286 1.498373
v -0.004187 -0.021048 1.492114
v -0.008212 -0.019826 1.707886
v -0.016109 -0.038891 1.701627
v -0.023387 -0.056461 1.691462
v -0.029766 -0.071861 1.677782
v -0.035001 -0.084499 1.661113
v -0.038891 -0.093891 1.642095
v -0.041286 -0.099674 1.621460
v -0.042095 -0.101627 1.600000
v -0.041286 -0.099674 1.578540
v -0.038891 -0.093891 1.557905
v -0.035001 -0.084499 1.538887
v -0.029766 -0.071861 1.522218
v -0.023387 -0.056461 1.508538
v -0.016109 -0.038891 1.498373
v -0.008212 -0.019826 1.492114
v -0.011922 -0.017843 1.707886
v -0.023387 -0.035001 1.701627
v -0.033952 -0.050813 1.691462
v -0.043213 -0.064673 1.677782
v -0.050813 -0.076048 1.661113
v -0.056461 -0.084500 1.642095
v -0.059938 -0.089704 1.621460
v -0.061113 -0.091462 1.600000
v -0.059938 -0.089704 1.578540
v -0.056461 -0.084500 1.557905
v -0.050813 -0.076048 1.538887
v -0.043213 -0.064673 1.522218
v -0.033952 -0.050813 1.508538
v -0.023387 -0.035001 1.498373
v -0.011922 -0.017843 1.492114
v -0.015174 -0.015174 1.707886
v -0.029766 -0.029766 1.701627
v -0.043213 -0.043213 1.691462
v -0.055000 -0.055000 1.677782
v -0.064673 -0.064673 1.661113
v -0.071861 -0.071861 1.642095
v -0.076287 -0.076287 1.621460
v -0.077782 -0.077782 1.600000
v -0.076287 -0.076287 1.578540
v -0.071861 -0.071861 1.557905
v -0.064673 -0.064673 1.538887
v -0.055000 -0.055000 1.522218
v -0.043213 -0.043213 1.508538
v -0.029766 -0.029766 1.498373
v -0.015174 -0.015174 1.492114
v -0.017843 -0.011922 1.707886
v -0.035001 -0.023387 1.701627
v -0.050813 -0.033952 1.691462
v -0.064673 -0.043213 1.677782
v -0.076048 -0.050813 1.661113
v -0.084500 -0.056461 1.642095
v -0.089704 -0.059938 1.621460
v -0.091462 -0.061113 1.600000
v -0.089704 -0.059938 1.578540
v -0.084500 -0.056461 1.557905
v -0.076048 -0.050813 1.538887
v -0.064673 -0.043213 1.522218
v -0.050813 -0.033952 1.508538
v -0.035001 -0.023387 1.498373
v -0.017843 -0.011922 1.492114
v -0.019826 -0.008212 1.707886
v -0.038891 -0.016109 1.701627
v -0.056461 -0.023387 1.691462
v -0.071861 -0.029766 1.677782
v -0.084499 -0.035001 1.661113
v -0.093891 -0.038891 1.642095
v -0.099674 -0.041286 1.621460
v -0.101627 -0.042095 1.600000
v -0.099674 -0.041286 1.578540
v -0.093891 -0.038891 1.557905
v -0.084499 -0.035001 1.538887
v -0.071861 -0.029766 1.522218
v -0.056461 -0.023387 1.508538
v -0.038891 -0.016109 1.498373
v -0.019826 -0.008212 1.492114
v -0.021048 -0.004187 1.707886
v -0.041286 -0.008212 1.701627
v -0.059938 -0.011922 1.691462
v -0.076287 -0.015174 1.677782
v -0.089704 -0.017843 1.661113
v -0.099674 -0.019826 1.642095
v -0.105813 -0.021048 1.621460
v -0.107886 -0.021460 1.600000
v -0.105813 -0.021048 1.578540
v -0.099674 -0.019826 1.557905
v -0.089704 -0.017843 1.538887
v -0.076287 -0.015174 1.522218
v -0.059938 -0.011922 1.508538
v -0.041286 -0.008212 1.498373
v -0.021048 -0.004187 1.492114
v -0.021460 0.000000 1.707886
v -0.042095 0.000000 1.701627
v -0.061113 0.000000 1.691462
v -0.077782 0.000000 1.677782
v -0.091462 0.000000 1.661113
v -0.101627 0.000000 1.642095
v -0.107886 0.000000 1.621460
v -0.110000 0.000000 1.600000
v -0.107886 0.000000 1.578540
v -0.101627 0.000000 1.557905
v -0.091462 0.000000 1.538887
v -0.077782 0.000000 1.522218
v -0.061113 0.000000 1.508538
v -0.042095 0.000000 1.498373
v -0.021460 0.000000 1.492114
v -0.021048 0.004187 1.707886
v -0.041286 0.008212 1.701627
v -0.059938 0.011923 1.691462
v -0.076287 0.015174 1.677782
v -0.089704 0.017843 1.661113
v -0.099674 0.019826 1.642095
v -0.105813 0.021048 1.621460
v -0.107886 0.021460 1.600000
v -0.105813 0.021048 1.578540
v -0.099674 0.019826 1.557905
v -0.089704 0.017843 1.538887
v -0.076287 0.015174 1.522218
v -0.059938 0.011923 1.508538
v -0.041286 0.008212 1.498373
v -0.021048 0.004187 1.492114
v -0.019826 0.008212 1.707886
v -0.038891 0.016109 1.701627
v -0.056461 0.023387 1.691462
v -0.071861 0.029766 1.677782
v -0.084499 0.035001 1.661113
v -0.093891 0.038891 1.642095
v -0.099674 0.041286 1.621460
v -0.101627 0.042095 1.600000
v -0.099674 0.041286 1.578540
v -0.093891 0.038891 1.557905
v -0.084499 0.035001 1.538887
v -0.071861 0.029766 1.522218
v -0.056461 0.023387 1.508538
v -0.038891 0.016109 1.498373
v -0.019826 0.008212 1.492114
v -0.017843 0.011922 1.707886
v -0.035001 0.023387 1.701627
v -0.050813 0.033952 1.691462
v -0.064673 0.043213 1.677782
v -0.076048 0.050813 1.661113
v -0.084499 0.056461 1.642095
v -0.089704 0.059938 1.621460
v -0.091462 0.061113 1.600000
v -0.089704 0.059938 1.578540
v -0.084499 0.056461 1.557905
v -0.076048 0.050813 1.538887
v -0.064673 0.043213 1.522218
v -0.050813 0.033952 1.508538
v -0.035001 0.023387 1.498373
v -0.017843 0.011922 1.492114
v -0.015174 0.015174 1.707886
v -0.029766 0.029766 1.701627
v -0.043213 0.043213 1.691462
v -0.055000 0.055000 1.677782
v -0.064673 0.064673 1.661113
v -0.071861 0.071861 1.642095
v -0.076287 0.076287 1.621460
v -0.077782 0.077782 1.600000
v -0.076287 0.076287 1.578540
v -0.071861 0.071861 1.557905
v -0.064673 0.064673 1.538887
v -0.055000 0.055000 1.522218
v -0.043213 0.043213 1.508538
v -0.029766 0.029766 1.498373
v -0.015174 0.015174 1.492114
v -0.011922 0.017843 1.707886
v -0.023387 0.035001 1.701627
v -0.033952 0.050813 1.691462
v -0.043213 0.064673 1.677782
v -0.050813 0.076048 1.661113
v -0.056461 0.084500 1.642095
v -0.059938 0.089704 1.621460
v -0.061113 0.091462 1.600000
v -0.059938 0.089704 1.578540
v -0.056461 0.084500 1.557905
v -0.050813 0.076048 1.538887
v -0.043213 0.064673 1.522218
v -0.033952 0.050813 1.508538
v -0.023387 0.035001 1.498373
v -0.011922 0.017843 1.492114
v -0.008212 0.019826 1.707886
v -0.016109 0.038891 1.701627
v -0.023387 0.056461 1.691462
v -0.029766 0.071861 1.677782
v -0.035001 0.084499 1.661113
v -0.038891 0.093891 1.642095
v -0.041286 0.099674 1.621460
v -0.042095 0.101627 1.600000
v -0.041286 0.099674 1.578540
v -0.038891 0.093891 1.557905
v -0.035001 0.084499 1.538887
v -0.029766 0.071861 1.522218
v -0.023387 0.056461 1.508538
v -0.016109 0.038891 1.498373
v -0.008212 0.019826 1.492114
v -0.004187 0.021048 1.707886
v -0.008212 0.041286 1.701627
v -0.011922 0.059938 1.691462
v -0.015174 0.076287 1.677782
v -0.017843 0.089704 1.661113
v -0.019826 0.099674 1.642095
v -0.021048 0.105813 1.621460
v -0.021460 0.107886 1.600000
v -0.021048 0.105813 1.578540
v -0.019826 0.099674 1.557905
v -0.017843 0.089704 1.538887
v -0.015174 0.076287 1.522218
v -0.011922 0.059938 1.508538
v -0.008212 0.041286 1.498373
v -0.004187 0.021048 1.492114
v 0.000000 0.042095 1.701627
v 0.000000 0.091462 1.661113
v 0.000000 0.107886 1.621460
v 0.000000 0.101627 1.557905
v 0.000000 0.077782 1.522218
v 0.000000 0.042095 1.498373
v 0.000000 0.021460 1.492114
v 0.000000 0.010000 1.785000
v 0.000000 0.079446 1.763934
v 0.000000 0.113934 1.729446
v 0.000000 0.132598 1.684386
v 0.000000 0.135000 1.660000
v 0.004758 0.033918 1.782598
v 0.009332 0.056916 1.775485
v 0.013548 0.078112 1.763934
v 0.017244 0.096690 1.748388
v 0.020276 0.111937 1.729446
v 0.022530 0.123266 1.707835
v 0.023918 0.130242 1.684386
v 0.024386 0.132598 1.660000
v 0.009332 0.032530 1.782598
v 0.018306 0.054194 1.775485
v 0.026576 0.074160 1.763934
v 0.033825 0.091660 1.748388
v 0.039774 0.106022 1.729446
v 0.044194 0.116694 1.707835
v 0.046916 0.123266 1.684386
v 0.047835 0.125485 1.660000
v 0.013548 0.030276 1.782598
v 0.026576 0.049774 1.775485
v 0.038582 0.067742 1.763934
v 0.049106 0.083492 1.748388
v 0.057742 0.096418 1.729446
v 0.064160 0.106022 1.707835
v 0.068112 0.111937 1.684386
v 0.069446 0.113934 1.660000
v 0.017244 0.027244 1.782598
v 0.033825 0.043825 1.775485
v 0.049106 0.059106 1.763934
v 0.062500 0.072500 1.748388
v 0.073492 0.083492 1.729446
v 0.081660 0.091660 1.707835
v 0.086690 0.096690 1.684386
v 0.088388 0.098388 1.660000
v 0.020276 0.023548 1.782598
v 0.039774 0.036576 1.775485
v 0.057742 0.048582 1.763934
v 0.073492 0.059106 1.748388
v 0.086418 0.067742 1.729446
v 0.096022 0.074160 1.707835
v 0.101937 0.078112 1.684386
v 0.103934 0.079446 1.660000
v 0.022530 0.019332 1.782598
v 0.044194 0.028306 1.775485
v 0.064160 0.036576 1.763934
v 0.081660 0.043825 1.748388
v 0.096022 0.049774 1.729446
v 0.106694 0.054194 1.707835
v 0.113266 0.056916 1.684386
v 0.115485 0.057835 1.660000
v 0.023918 0.014758 1.782598
v 0.046916 0.019332 1.775485
v 0.068112 0.023548 1.763934
v 0.086690 0.027244 1.748388
v 0.101937 0.030276 1.729446
v 0.113266 0.032530 1.707835
v 0.120242 0.033918 1.684386
v 0.122598 0.034386 1.660000
v 0.024386 0.010000 1.782598
v 0.047835 0.010000 1.775485
v 0.069446 0.010000 1.763934
v 0.088388 0.010000 1.748388
v 0.103934 0.010000 1.729446
v 0.115485 0.010000 1.707835
v 0.122598 0.010000 1.684386
v 0.125000 0.010000 1.660000
v 0.023918 0.005242 1.782598
v 0.046916 0.000668 1.775485
v 0.068112 -0.003548 1.763934
v 0.086690 -0.007244 1.748388
v 0.101937 -0.010276 1.729446
v 0.113266 -0.012530 1.707835
v 0.120242 -0.013918 1.684386
v 0.122598 -0.014386 1.660000
v 0.022530 0.000668 1.782598
v 0.044194 -0.008306 1.775485
v 0.064160 -0.016576 1.763934
v 0.081660 -0.023825 1.748388
v 0.096022 -0.029774 1.729446
v 0.106694 -0.034194 1.707835
v 0.113266 -0.036916 1.684386
v 0.115485 -0.037835 1.660000
v 0.020276 -0.003548 1.782598
v 0.039774 -0.016576 1.775485
v 0.057742 -0.028582 1.763934
v 0.073492 -0.039106 1.748388
v 0.086418 -0.047742 1.729446
v 0.096022 -0.054160 1.707835
v 0.101937 -0.058112 1.684386
v 0.103934 -0.059446 1.660000
v 0.017244 -0.007244 1.782598
v 0.033825 -0.023825 1.775485
v 0.049106 -0.039106 1.763934
v 0.062500 -0.052500 1.748388
v 0.073492 -0.063492 1.729446
v 0.081660 -0.071660 1.707835
v 0.086690 -0.076690 1.684386
v 0.088388 -0.078388 1.660000
v 0.013548 -0.010276 1.782598
v 0.026576 -0.029774 1.775485
v 0.038582 -0.047742 1.763934
v 0.049106 -0.063492 1.748388
v 0.057742 -0.076418 1.729446
v 0.064160 -0.086022 1.707835
v 0.068112 -0.091937 1.684386
v 0.069446 -0.093934 1.660000
v 0.009332 -0.012530 1.782598
v 0.018306 -0.034194 1.775485
v 0.026576 -0.054160 1.763934
v 0.033825 -0.071660 1.748388
v 0.039774 -0.086022 1.729446
v 0.044194 -0.096694 1.707835
v 0.046916 -0.103266 1.684386
v 0.047835 -0.105485 1.660000
v 0.004758 -0.013918 1.782598
v 0.009332 -0.036916 1.775485
v 0.013548 -0.058112 1.763934
v 0.017244 -0.076690 1.748388
v 0.020276 -0.091937 1.729446
v 0.022530 -0.103266 1.707835
v 0.023918 -0.110242 1.684386
v 0.024386 -0.112598 1.660000
v -0.000000 -0.014386 1.782598
v -0.000000 -0.037835 1.775485
v -0.000000 -0.059446 1.763934
v -0.000000 -0.078388 1.748388
v -0.000000 -0.093934 1.729446
v 0.000000 -0.105485 1.707835
v -0.000000 -0.112598 1.684386
v -0.000000 -0.115000 1.660000
v -0.004758 -0.013918 1.782598
v -0.009332 -0.036916 1.775485
v -0.013548 -0.058112 1.763934
v -0.017244 -0.076690 1.748388
v -0.020276 -0.091937 1.729446
v -0.022530 -0.103266 1.707835
v -0.023918 -0.110242 1.684386
v -0.024386 -0.112598 1.660000
v -0.009332 -0.012530 1.782598
v -0.018306 -0.034194 1.775485
v -0.026576 -0.054160 1.763934
v -0.033825 -0.071660 1.748388
v -0.039774 -0.086022 1.729446
v -0.044194 -0.096694 1.707835
v -0.046916 -0.103266 1.684386
v -0.047835 -0.105485 1.660000
v -0.013548 -0.010276 1.782598
v -0.026576 -0.029774 1.775485
v -0.038582 -0.047742 1.763934
v -0.049106 -0.063492 1.748388
v -0.057742 -0.076418 1.729446
v -0.064160 -0.086022 1.707835
v -0.068112 -0.091937 1.684386
v -0.069446 -0.093934 1.660000
v -0.017244 -0.007244 1.782598
v -0.033825 -0.023825 1.775485
v -0.049106 -0.039106 1.763934
v -0.062500 -0.052500 1.748388
v -0.073492 -0.063492 1.729446
v -0.081660 -0.071660 1.707835
v -0.086690 -0.076690 1.684386
v -0.088388 -0.078388 1.660000
v -0.020276 -0.003548 1.782598
v -0.039774 -0.016576 1.775485
v -0.057742 -0.028582 1.763934
v -0.073492 -0.039106 1.748388
v -0.086418 -0.047742 1.729446
v -0.096022 -0.054160 1.707835
v -0.101937 -0.058112 1.684386
v -0.103934 -0.059446 1.660000
v -0.022530 0.000668 1.782598
v -0.044194 -0.008306 1.775485
v -0.064160 -0.016576 1.763934
v -0.081660 -0.023825 1.748388
v -0.096022 -0.029774 1.729446
v -0.106694 -0.034194 1.707835
v -0.113266 -0.036916 1.684386
v -0.115485 -0.037835 1.660000
v -0.023918 0.005242 1.782598
v -0.046916 0.000668 1.775485
v -0.068112 -0.003548 1.763934
v -0.086690 -0.007244 1.748388
v -0.101937 -0.010276 1.729446
v -0.113266 -0.012530 1.707835
v -0.120242 -0.013918 1.684386
v -0.122598 -0.014386 1.660000
v -0.024386 0.010000 1.782598
v -0.047835 0.010000 1.775485
v -0.069446 0.010000 1.763934
v -0.088388 0.010000 1.748388
v -0.103934 0.010000 1.729446
v -0.115485 0.010000 1.707835
v -0.122598 0.010000 1.684386
v -0.125000 0.010000 1.660000
v -0.023918 0.014758 1.782598
v -0.046916 0.019332 1.775485
v -0.068112 0.023548 1.763934
v -0.086690 0.027244 1.748388
v -0.101937 0.030276 1.729446
v -0.113266 0.032530 1.707835
v -0.120242 0.033918 1.684386
v -0.122598 0.034386 1.660000
v -0.022530 0.019332 1.782598
v -0.044194 0.028306 1.775485
v -0.064160 0.036576 1.763934
v -0.081660 0.043825 1.748388
v -0.096022 0.049774 1.729446
v -0.106694 0.054194 1.707835
v -0.113266 0.056916 1.684386
v -0.115485 0.057835 1.660000
v -0.020276 0.023548 1.782598
v -0.039774 0.036576 1.775485
v -0.057742 0.048582 1.763934
v -0.073492 0.059106 1.748388
v -0.086418 0.067742 1.729446
v -0.096022 0.074160 1.707835
v -0.101937 0.078112 1.684386
v -0.103934 0.079446 1.660000
v -0.017244 0.027244 1.782598
v -0.033825 0.043825 1.775485
v -0.049106 0.059106 1.763934
v -0.062500 0.072500 1.748388
v -0.073492 0.083492 1.729446
v -0.081660 0.091660 1.707835
v -0.086690 0.096690 1.684386
v -0.088388 0.098388 1.660000
v -0.013548 0.030276 1.782598
v -0.026576 0.049774 1.775485
v -0.038582 0.067742 1.763934
v -0.049106 0.083492 1.748388
v -0.057742 0.096418 1.729446
v -0.064160 0.106022 1.707835
v -0.068112 0.111937 1.684386
v -0.069446 0.113934 1.660000
v -0.009332 0.032530 1.782598
v -0.018306 0.054194 1.775485
v -0.026576 0.074160 1.763934
v -0.033825 0.091660 1.748388
v -0.039774 0.106022 1.729446
v -0.044194 0.116694 1.707835
v -0.046916 0.123266 1.684386
v -0.047835 0.125485 1.660000
v -0.004758 0.033918 1.782598
v -0.009332 0.056916 1.775485
v -0.013548 0.078112 1.763934
v -0.017244 0.096690 1.748388
v -0.020276 0.111937 1.729446
v -0.022530 0.123266 1.707835
v -0.023918 0.130242 1.684386
v -0.024386 0.132598 1.660000
v 0.000000 0.034386 1.782598
v 0.000000 0.057835 1.775485
v 0.000000 0.098388 1.748388
v 0.000000 0.125485 1.707835
vn -0.1951 -0.9808 -0.0000
vn -0.5556 -0.8315 -0.0000
vn -0.8315 -0.5556 -0.0000
vn -0.9808 -0.1951 -0.0000
vn -0.9808 0.1951 -0.0000
vn -0.8315 0.5556 -0.0000
vn -0.5556 0.8315 -0.0000
vn -0.1951 0.9808 -0.0000
vn 0.1951 0.9808 -0.0000
vn 0.5556 0.8315 -0.0000
vn 0.8315 0.5556 -0.0000
vn 0.9808 0.1951 -0.0000
vn 0.9808 -0.1951 -0.0000
vn 0.8315 -0.5556 -0.0000
vn -0.0000 -0.0000 1.0000
vn 0.5556 -0.8315 -0.0000
vn 0.1951 -0.9808 -0.0000
vn -0.0000 -0.0000 -1.0000
vn -1.0000 -0.0000 -0.0000
vn -0.0000 1.0000 -0.0000
vn 1.0000 -0.0000 -0.0000
vn -0.0000 -1.0000 -0.0000
vn -0.3353 0.9070 0.2550
vn -0.7613 0.6209 0.1867
vn -0.9833 0.1686 0.0683
vn -0.9419 -0.3290 -0.0683
vn -0.6480 -0.7384 -0.1867
vn -0.1806 -0.9499 -0.2550
vn 0.3353 -0.9070 -0.2550
vn 0.7613 -0.6209 -0.1867
vn 0.9833 -0.1686 -0.0683
vn 0.9419 0.3290 0.0683
vn -0.0219 0.2631 -0.9645
vn 0.6480 0.7384 0.1867
vn 0.1806 0.9499 0.2550
vn 0.0219 -0.2631 0.9645
vn -0.1806 0.9499 0.2550
vn -0.6480 0.7384 0.1867
vn -0.9419 0.3290 0.0683
vn -0.9833 -0.1686 -0.0683
vn -0.7613 -0.6209 -0.1867
vn -0.3353 -0.9070 -0.2550
vn 0.1806 -0.9499 -0.2550
vn 0.6480 -0.7384 -0.1867
vn 0.9419 -0.3290 -0.0683
vn 0.9833 0.1686 0.0683
vn 0.0219 0.2631 -0.9645
vn 0.7613 0.6209 0.1867
vn 0.3353 0.9070 0.2550
vn -0.0219 -0.2631 0.9645
vn 0.0286 0.2902 0.9565
vn 0.0938 0.9527 -0.2890
vn 0.0464 0.4709 0.8810
vn 0.0865 0.8786 -0.4696
vn 0.0624 0.6332 0.7715
vn 0.0759 0.7708 -0.6326
vn 0.0759 0.7708 0.6326
vn 0.0624 0.6332 -0.7715
vn 0.0865 0.8786 0.4696
vn 0.0464 0.4709 -0.8810
vn 0.0938 0.9527 0.2890
vn 0.0285 0.2902 -0.9566
vn 0.0975 0.9904 0.0976
vn 0.0097 0.0980 0.9951
vn 0.0096 0.0980 -0.9951
vn 0.0976 0.9904 -0.0976
vn 0.2889 0.9524 0.0975
vn 0.0286 0.0942 0.9951
vn 0.0286 0.0942 -0.9951
vn 0.2889 0.9524 -0.0976
vn 0.0846 0.2790 0.9565
vn 0.2779 0.9161 -0.2890
vn 0.1373 0.4528 0.8810
vn 0.2563 0.8448 -0.4696
vn 0.1847 0.6088 0.7715
vn 0.2248 0.7412 -0.6326
vn 0.2248 0.7412 0.6326
vn 0.1847 0.6088 -0.7715
vn 0.2563 0.8448 0.4696
vn 0.1373 0.4528 -0.8810
vn 0.2779 0.9161 0.2890
vn 0.0847 0.2790 -0.9565
vn 0.3651 0.6831 -0.6326
vn 0.3651 0.6831 0.6326
vn 0.2999 0.5611 -0.7715
vn 0.4162 0.7786 0.4696
vn 0.2230 0.4173 -0.8810
vn 0.4513 0.8443 0.2890
vn 0.1374 0.2571 -0.9566
vn 0.4691 0.8777 0.0976
vn 0.0465 0.0869 0.9951
vn 0.0464 0.0869 -0.9951
vn 0.4691 0.8777 -0.0975
vn 0.1374 0.2571 0.9565
vn 0.4513 0.8443 -0.2890
vn 0.2230 0.4173 0.8810
vn 0.4162 0.7786 -0.4696
vn 0.2999 0.5611 0.7715
vn 0.0625 0.0761 -0.9951
vn 0.6314 0.7693 -0.0975
vn 0.1850 0.2254 0.9565
vn 0.6073 0.7400 -0.2890
vn 0.3002 0.3658 0.8810
vn 0.5601 0.6825 -0.4696
vn 0.4036 0.4918 0.7715
vn 0.4913 0.5987 -0.6326
vn 0.4913 0.5987 0.6326
vn 0.4036 0.4918 -0.7715
vn 0.5601 0.6825 0.4696
vn 0.3002 0.3658 -0.8810
vn 0.6073 0.7400 0.2890
vn 0.1850 0.2254 -0.9566
vn 0.6314 0.7693 0.0975
vn 0.0624 0.0761 0.9951
vn 0.4918 0.4036 -0.7715
vn 0.6825 0.5601 0.4696
vn 0.3658 0.3002 -0.8810
vn 0.7400 0.6073 0.2890
vn 0.2254 0.1850 -0.9565
vn 0.7693 0.6314 0.0976
vn 0.0762 0.0625 0.9951
vn 0.0761 0.0625 -0.9951
vn 0.7693 0.6314 -0.0975
vn 0.2254 0.1850 0.9565
vn 0.7400 0.6073 -0.2890
vn 0.3658 0.3002 0.8810
vn 0.6825 0.5601 -0.4696
vn 0.4918 0.4036 0.7715
vn 0.5987 0.4913 -0.6326
vn 0.5987 0.4913 0.6326
vn 0.2571 0.1374 0.9565
vn 0.8443 0.4513 -0.2890
vn 0.4173 0.2230 0.8810
vn 0.7786 0.4162 -0.4696
vn 0.5611 0.2999 0.7715
vn 0.6831 0.3651 -0.6326
vn 0.6831 0.3651 0.6326
vn 0.5611 0.2999 -0.7715
vn 0.7786 0.4162 0.4696
vn 0.4173 0.2230 -0.8810
vn 0.8443 0.4513 0.2890
vn 0.2572 0.1374 -0.9565
vn 0.8777 0.4692 0.0976
vn 0.0868 0.0464 0.9951
vn 0.0869 0.0464 -0.9951
vn 0.8777 0.4691 -0.0975
vn 0.8448 0.2563 0.4696
vn 0.4528 0.1374 -0.8810
vn 0.9161 0.2779 0.2890
vn 0.2790 0.0846 -0.9566
vn 0.9524 0.2889 0.0976
vn 0.0943 0.0286 0.9951
vn 0.0942 0.0286 -0.9951
vn 0.9524 0.2889 -0.0975
vn 0.2790 0.0846 0.9565
vn 0.9161 0.2779 -0.2890
vn 0.4528 0.1374 0.8810
vn 0.8449 0.2563 -0.4696
vn 0.6088 0.1847 0.7715
vn 0.7412 0.2248 -0.6326
vn 0.7412 0.2248 0.6326
vn 0.6088 0.1847 -0.7715
vn 0.9527 0.0938 -0.2890
vn 0.4709 0.0464 0.8810
vn 0.8786 0.0865 -0.4696
vn 0.6332 0.0624 0.7715
vn 0.7708 0.0759 -0.6326
vn 0.7708 0.0759 0.6326
vn 0.6332 0.0624 -0.7715
vn 0.8786 0.0865 0.4696
vn 0.4709 0.0464 -0.8810
vn 0.9527 0.0938 0.2890
vn 0.2902 0.0286 -0.9566
vn 0.9904 0.0976 0.0976
vn 0.0980 0.0097 0.9951
vn 0.0980 0.0097 -0.9951
vn 0.9904 0.0975 -0.0975
vn 0.2902 0.0286 0.9566
vn 0.4709 -0.0464 -0.8810
vn 0.9527 -0.0938 0.2890
vn 0.2902 -0.0286 -0.9566
vn 0.9904 -0.0976 0.0975
vn 0.0980 -0.0097 0.9951
vn 0.0980 -0.0097 -0.9951
vn 0.9904 -0.0975 -0.0975
vn 0.2902 -0.0286 0.9565
vn 0.9527 -0.0938 -0.2890
vn 0.4709 -0.0464 0.8810
vn 0.8786 -0.0865 -0.4696
vn 0.6332 -0.0624 0.7715
vn 0.7708 -0.0759 -0.6326
vn 0.7708 -0.0759 0.6326
vn 0.6332 -0.0624 -0.7715
vn 0.8786 -0.0865 0.4696
vn 0.4528 -0.1374 0.8810
vn 0.8449 -0.2563 -0.4696
vn 0.6088 -0.1847 0.7715
vn 0.7412 -0.2248 -0.6326
vn 0.7412 -0.2248 0.6326
vn 0.6088 -0.1847 -0.7715
vn 0.8448 -0.2563 0.4696
vn 0.4528 -0.1374 -0.8810
vn 0.9161 -0.2779 0.2890
vn 0.2790 -0.0846 -0.9565
vn 0.9524 -0.2889 0.0975
vn 0.0942 -0.0286 0.9951
vn 0.0942 -0.0286 -0.9951
vn 0.9524 -0.2889 -0.0975
vn 0.2790 -0.0846 0.9566
vn 0.9161 -0.2779 -0.2890
vn 0.8443 -0.4513 0.2890
vn 0.2571 -0.1374 -0.9566
vn 0.8777 -0.4692 0.0975
vn 0.0869 -0.0464 0.9951
vn 0.0869 -0.0464 -0.9951
vn 0.8777 -0.4691 -0.0975
vn 0.2571 -0.1374 0.9565
vn 0.8443 -0.4513 -0.2890
vn 0.4173 -0.2230 0.8810
vn 0.7786 -0.4162 -0.4696
vn 0.5611 -0.2999 0.7715
vn 0.6831 -0.3651 -0.6326
vn 0.6831 -0.3651 0.6326
vn 0.5611 -0.2999 -0.7715
vn 0.7786 -0.4162 0.4696
vn 0.4173 -0.2230 -0.8810
vn 0.6825 -0.5601 -0.4696
vn 0.4918 -0.4036 0.7715
vn 0.5987 -0.4913 -0.6326
vn 0.5987 -0.4913 0.6326
vn 0.4918 -0.4036 -0.7715
vn 0.6825 -0.5601 0.4696
vn 0.3658 -0.3002 -0.8810
vn 0.7400 -0.6073 0.2890
vn 0.2254 -0.1850 -0.9565
vn 0.7693 -0.6314 0.0975
vn 0.0761 -0.0625 0.9951
vn 0.0761 -0.0625 -0.9951
vn 0.7693 -0.6314 -0.0975
vn 0.2254 -0.1850 0.9565
vn 0.7400 -0.6073 -0.2890
vn 0.3658 -0.3002 0.8810
vn 0.1850 -0.2254 -0.9566
vn 0.6314 -0.7693 0.0976
vn 0.0625 -0.0761 0.9951
vn 0.0625 -0.0761 -0.9951
vn 0.6314 -0.7693 -0.0975
vn 0.1850 -0.2254 0.9566
vn 0.6073 -0.7400 -0.2890
vn 0.3002 -0.3658 0.8810
vn 0.5601 -0.6825 -0.4696
vn 0.4036 -0.4918 0.7715
vn 0.4913 -0.5987 -0.6326
vn 0.4913 -0.5987 0.6326
vn 0.4036 -0.4918 -0.7715
vn 0.5601 -0.6825 0.4696
vn 0.3002 -0.3658 -0.8810
vn 0.6073 -0.7400 0.2890
vn 0.3651 -0.6831 -0.6326
vn 0.3651 -0.6831 0.6326
vn 0.2999 -0.5611 -0.7715
vn 0.4162 -0.7786 0.4696
vn 0.2230 -0.4173 -0.8810
vn 0.4513 -0.8443 0.2890
vn 0.1374 -0.2571 -0.9566
vn 0.4691 -0.8777 0.0976
vn 0.0464 -0.0869 0.9951
vn 0.0464 -0.0869 -0.9951
vn 0.4691 -0.8777 -0.0975
vn 0.1375 -0.2571 0.9565
vn 0.4513 -0.8443 -0.2890
vn 0.2230 -0.4173 0.8810
vn 0.4162 -0.7786 -0.4696
vn 0.2999 -0.5611 0.7715
vn 0.0286 -0.0942 0.9951
vn 0.0286 -0.0942 -0.9951
vn 0.2889 -0.9524 -0.0975
vn 0.0846 -0.2790 0.9565
vn 0.2779 -0.9161 -0.2890
vn 0.1374 -0.4528 0.8810
vn 0.2563 -0.8448 -0.4696
vn 0.1847 -0.6088 0.7715
vn 0.2248 -0.7412 -0.6326
vn 0.2248 -0.7412 0.6326
vn 0.1847 -0.6088 -0.7715
vn 0.2563 -0.8448 0.4696
vn 0.1374 -0.4528 -0.8810
vn 0.2779 -0.9161 0.2890
vn 0.0847 -0.2790 -0.9565
vn 0.2889 -0.9524 0.0976
vn 0.0759 -0.7708 0.6326
vn 0.0624 -0.6332 -0.7715
vn 0.0865 -0.8786 0.4696
vn 0.0464 -0.4709 -0.8810
vn 0.0938 -0.9527 0.2890
vn 0.0286 -0.2902 -0.9565
vn 0.0975 -0.9904 0.0975
vn 0.0097 -0.0980 0.9951
vn 0.0096 -0.0980 -0.9951
vn 0.0975 -0.9904 -0.0975
vn 0.0286 -0.2902 0.9565
vn 0.0938 -0.9527 -0.2890
vn 0.0464 -0.4709 0.8810
vn 0.0865 -0.8786 -0.4696
vn 0.0624 -0.6332 0.7715
vn 0.0759 -0.7708 -0.6326
vn -0.0976 -0.9904 -0.0975
vn -0.0286 -0.2902 0.9565
vn -0.0938 -0.9527 -0.2890
vn -0.0464 -0.4709 0.8810
vn -0.0865 -0.8786 -0.4696
vn -0.0624 -0.6332 0.7715
vn -0.0759 -0.7708 -0.6326
vn -0.0759 -0.7708 0.6326
vn -0.0624 -0.6332 -0.7715
vn -0.0865 -0.8786 0.4696
vn -0.0464 -0.4709 -0.8810
vn -0.0938 -0.9527 0.2890
vn -0.0286 -0.2902 -0.9565
vn -0.0975 -0.9904 0.0976
vn -0.0097 -0.0980 0.9951
vn -0.0096 -0.0980 -0.9951
vn -0.1847 -0.6088 -0.7715
vn -0.2563 -0.8448 0.4696
vn -0.1374 -0.4528 -0.8810
vn -0.2779 -0.9161 0.2890
vn -0.0846 -0.2790 -0.9565
vn -0.2889 -0.9524 0.0975
vn -0.0286 -0.0942 0.9951
vn -0.0286 -0.0942 -0.9951
vn -0.2889 -0.9524 -0.0975
vn -0.0846 -0.2790 0.9565
vn -0.2779 -0.9161 -0.2890
vn -0.1374 -0.4528 0.8810
vn -0.2563 -0.8448 -0.4696
vn -0.1847 -0.6088 0.7715
vn -0.2248 -0.7412 -0.6326
vn -0.2248 -0.7412 0.6326
vn -0.1374 -0.2571 0.9566
vn -0.4513 -0.8443 -0.2890
vn -0.2230 -0.4173 0.8810
vn -0.4162 -0.7786 -0.4696
vn -0.2999 -0.5611 0.7715
vn -0.3651 -0.6831 -0.6326
vn -0.3651 -0.6831 0.6326
vn -0.2999 -0.5611 -0.7715
vn -0.4162 -0.7786 0.4696
vn -0.2230 -0.4173 -0.8810
vn -0.4513 -0.8443 0.2890
vn -0.1374 -0.2571 -0.9566
vn -0.4691 -0.8777 0.0975
vn -0.0464 -0.0869 0.9951
vn -0.0464 -0.0869 -0.9951
vn -0.4692 -0.8777 -0.0975
vn -0.5601 -0.6825 0.4696
vn -0.3002 -0.3658 -0.8810
vn -0.6073 -0.7400 0.2890
vn -0.1850 -0.2254 -0.9566
vn -0.6314 -0.7693 0.0975
vn -0.0624 -0.0761 0.9951
vn -0.0625 -0.0761 -0.9951
vn -0.6314 -0.7693 -0.0975
vn -0.1850 -0.2254 0.9566
vn -0.6073 -0.7400 -0.2890
vn -0.3002 -0.3658 0.8810
vn -0.5601 -0.6825 -0.4696
vn -0.4036 -0.4918 0.7715
vn -0.4913 -0.5987 -0.6326
vn -0.4913 -0.5987 0.6326
vn -0.4036 -0.4918 -0.7715
vn -0.7400 -0.6073 -0.2890
vn -0.3658 -0.3002 0.8810
vn -0.6825 -0.5601 -0.4696
vn -0.4918 -0.4036 0.7715
vn -0.5987 -0.4913 -0.6326
vn -0.5987 -0.4913 0.6326
vn -0.4918 -0.4036 -0.7715
vn -0.6825 -0.5601 0.4696
vn -0.3658 -0.3002 -0.8810
vn -0.7400 -0.6073 0.2890
vn -0.2254 -0.1850 -0.9565
vn -0.7693 -0.6314 0.0976
vn -0.0762 -0.0625 0.9951
vn -0.0762 -0.0625 -0.9951
vn -0.7693 -0.6314 -0.0975
vn -0.2254 -0.1850 0.9565
vn -0.4173 -0.2230 -0.8810
vn -0.8443 -0.4513 0.2890
vn -0.2572 -0.1374 -0.9565
vn -0.8777 -0.4692 0.0975
vn -0.0869 -0.0464 0.9951
vn -0.0868 -0.0464 -0.9951
vn -0.8777 -0.4691 -0.0975
vn -0.2572 -0.1374 0.9565
vn -0.8443 -0.4513 -0.2890
vn -0.4173 -0.2230 0.8810
vn -0.7786 -0.4162 -0.4696
vn -0.5611 -0.2999 0.7715
vn -0.6831 -0.3651 -0.6326
vn -0.6831 -0.3651 0.6326
vn -0.5611 -0.2999 -0.7715
vn -0.7786 -0.4162 0.4696
vn -0.8448 -0.2563 -0.4696
vn -0.6088 -0.1847 0.7715
vn -0.7412 -0.2248 -0.6326
vn -0.7412 -0.2248 0.6326
vn -0.6088 -0.1847 -0.7715
vn -0.8448 -0.2563 0.4696
vn -0.4528 -0.1374 -0.8810
vn -0.9161 -0.2779 0.2890
vn -0.2790 -0.0846 -0.9565
vn -0.9524 -0.2889 0.0976
vn -0.0942 -0.0286 0.9951
vn -0.0942 -0.0286 -0.9951
vn -0.9524 -0.2889 -0.0975
vn -0.2790 -0.0846 0.9565
vn -0.9161 -0.2779 -0.2890
vn -0.4528 -0.1374 0.8810
vn -0.2902 -0.0286 -0.9566
vn -0.9904 -0.0976 0.0976
vn -0.0980 -0.0097 0.9951
vn -0.0980 -0.0097 -0.9951
vn -0.9904 -0.0975 -0.0975
vn -0.2902 -0.0286 0.9565
vn -0.9527 -0.0938 -0.2890
vn -0.4709 -0.0464 0.8810
vn -0.8786 -0.0865 -0.4696
vn -0.6332 -0.0624 0.7715
vn -0.7708 -0.0759 -0.6326
vn -0.7708 -0.0759 0.6326
vn -0.6331 -0.0624 -0.7715
vn -0.8786 -0.0865 0.4696
vn -0.4709 -0.0464 -0.8810
vn -0.9527 -0.0938 0.2890
vn -0.6332 0.0624 0.7715
vn -0.7708 0.0759 -0.6326
vn -0.7708 0.0759 0.6326
vn -0.6332 0.0624 -0.7715
vn -0.8786 0.0865 0.4696
vn -0.4709 0.0464 -0.8810
vn -0.9527 0.0938 0.2890
vn -0.2902 0.0286 -0.9565
vn -0.9904 0.0976 0.0976
vn -0.0980 0.0097 0.9951
vn -0.0980 0.0097 -0.9951
vn -0.9904 0.0975 -0.0975
vn -0.2902 0.0286 0.9566
vn -0.9527 0.0938 -0.2890
vn -0.4709 0.0464 0.8810
vn -0.8786 0.0865 -0.4696
vn -0.9524 0.2889 0.0976
vn -0.0942 0.0286 0.9951
vn -0.0942 0.0286 -0.9951
vn -0.9524 0.2889 -0.0975
vn -0.2790 0.0846 0.9565
vn -0.9161 0.2779 -0.2890
vn -0.4528 0.1374 0.8810
vn -0.8449 0.2563 -0.4696
vn -0.6088 0.1847 0.7715
vn -0.7412 0.2248 -0.6326
vn -0.7412 0.2248 0.6326
vn -0.6088 0.1847 -0.7715
vn -0.8449 0.2563 0.4696
vn -0.4528 0.1374 -0.8810
vn -0.9161 0.2779 0.2890
vn -0.2790 0.0846 -0.9565
vn -0.6831 0.3651 -0.6326
vn -0.6831 0.3651 0.6326
vn -0.5611 0.2999 -0.7715
vn -0.7786 0.4162 0.4696
vn -0.4173 0.2230 -0.8810
vn -0.8443 0.4513 0.2890
vn -0.2571 0.1374 -0.9565
vn -0.8777 0.4692 0.0976
vn -0.0869 0.0464 0.9951
vn -0.0868 0.0464 -0.9951
vn -0.8777 0.4691 -0.0975
vn -0.2572 0.1374 0.9565
vn -0.8443 0.4513 -0.2890
vn -0.4173 0.2231 0.8810
vn -0.7786 0.4162 -0.4696
vn -0.5611 0.2999 0.7715
vn -0.0761 0.0625 0.9951
vn -0.0761 0.0625 -0.9951
vn -0.7693 0.6314 -0.0976
vn -0.2254 0.1850 0.9565
vn -0.7400 0.6073 -0.2890
vn -0.3658 0.3002 0.8810
vn -0.6825 0.5601 -0.4696
vn -0.4918 0.4036 0.7715
vn -0.5987 0.4913 -0.6326
vn -0.5987 0.4913 0.6326
vn -0.4918 0.4036 -0.7715
vn -0.6825 0.5601 0.4696
vn -0.3658 0.3002 -0.8810
vn -0.7400 0.6073 0.2890
vn -0.2254 0.1850 -0.9565
vn -0.7693 0.6314 0.0976
vn -0.4913 0.5987 0.6326
vn -0.4036 0.4918 -0.7715
vn -0.5601 0.6825 0.4696
vn -0.3002 0.3658 -0.8810
vn -0.6073 0.7400 0.2890
vn -0.1850 0.2254 -0.9565
vn -0.6314 0.7693 0.0976
vn -0.0625 0.0761 0.9951
vn -0.0625 0.0761 -0.9951
vn -0.6314 0.7693 -0.0976
vn -0.1850 0.2254 0.9565
vn -0.6073 0.7400 -0.2890
vn -0.3002 0.3658 0.8810
vn -0.5601 0.6825 -0.4696
vn -0.4036 0.4918 0.7715
vn -0.4913 0.5987 -0.6326
vn -0.4691 0.8777 -0.0976
vn -0.1375 0.2571 0.9565
vn -0.4513 0.8443 -0.2890
vn -0.2231 0.4173 0.8810
vn -0.4162 0.7786 -0.4696
vn -0.2999 0.5611 0.7715
vn -0.3651 0.6831 -0.6326
vn -0.3651 0.6831 0.6326
vn -0.2999 0.5611 -0.7715
vn -0.4162 0.7786 0.4696
vn -0.2230 0.4173 -0.8810
vn -0.4513 0.8443 0.2890
vn -0.1374 0.2571 -0.9566
vn -0.4691 0.8777 0.0976
vn -0.0464 0.0869 0.9951
vn -0.0464 0.0869 -0.9951
vn -0.1847 0.6088 -0.7715
vn -0.2563 0.8448 0.4696
vn -0.1374 0.4528 -0.8810
vn -0.2779 0.9161 0.2890
vn -0.0846 0.2790 -0.9565
vn -0.2889 0.9524 0.0976
vn -0.0286 0.0942 0.9951
vn -0.0286 0.0942 -0.9951
vn -0.2889 0.9524 -0.0976
vn -0.0846 0.2790 0.9566
vn -0.2779 0.9161 -0.2890
vn -0.1373 0.4528 0.8810
vn -0.2563 0.8448 -0.4696
vn -0.1847 0.6088 0.7715
vn -0.2248 0.7412 -0.6326
vn -0.2248 0.7412 0.6326
vn -0.0938 0.9527 -0.2890
vn -0.0464 0.4709 0.8810
vn -0.0865 0.8786 -0.4696
vn -0.0624 0.6332 0.7715
vn -0.0759 0.7708 -0.6326
vn -0.0759 0.7708 0.6326
vn -0.0624 0.6332 -0.7715
vn -0.0865 0.8786 0.4696
vn -0.0464 0.4709 -0.8810
vn -0.0938 0.9527 0.2890
vn -0.0286 0.2902 -0.9565
vn -0.0976 0.9904 0.0976
vn -0.0096 0.0980 0.9951
vn -0.0097 0.0980 -0.9951
vn -0.0976 0.9904 -0.0976
vn -0.0286 0.2902 0.9565
vn 0.0975 0.9904 0.0975
vn 0.0096 0.0980 0.9951
vn 0.2889 0.9524 0.0976
vn 0.1374 0.4528 0.8810
vn 0.1375 0.2571 0.9565
vn 0.4691 0.8777 0.0975
vn 0.0464 0.0869 0.9951
vn 0.0625 0.0761 0.9951
vn 0.7693 0.6314 0.0975
vn 0.0761 0.0625 0.9951
vn 0.9524 0.2889 0.0975
vn 0.0942 0.0286 0.9951
vn 0.2790 0.0846 0.9566
vn 0.9904 0.0976 0.0975
vn 0.0943 -0.0286 0.9951
vn 0.2790 -0.0846 0.9565
vn 0.8777 -0.4691 0.0975
vn 0.0868 -0.0464 0.9951
vn 0.2572 -0.1374 0.9565
vn 0.2254 -0.1850 0.9566
vn 0.6314 -0.7693 0.0975
vn 0.2231 -0.4173 0.8810
vn 0.4691 -0.8777 0.0975
vn 0.2889 -0.9524 0.0975
vn 0.0847 -0.2790 0.9565
vn 0.0096 -0.0980 0.9951
vn -0.0975 -0.9904 0.0975
vn -0.0096 -0.0980 0.9951
vn -0.4692 -0.8777 0.0975
vn -0.0465 -0.0869 0.9951
vn -0.1374 -0.2571 0.9565
vn -0.1850 -0.2254 0.9565
vn -0.7693 -0.6314 0.0975
vn -0.0761 -0.0625 0.9951
vn -0.8777 -0.4691 0.0975
vn -0.0868 -0.0464 0.9951
vn -0.2571 -0.1374 0.9565
vn -0.4173 -0.2231 0.8810
vn -0.9524 -0.2889 0.0975
vn -0.9904 -0.0976 0.0975
vn -0.2902 -0.0286 0.9566
vn -0.9904 0.0975 0.0975
vn -0.8448 0.2563 0.4696
vn -0.9524 0.2889 0.0975
vn -0.2790 0.0846 0.9566
vn -0.2571 0.1374 0.9565
vn -0.8777 0.4692 0.0975
vn -0.0868 0.0464 0.9951
vn -0.7693 0.6314 0.0975
vn -0.6314 0.7693 0.0975
vn -0.4691 0.8777 0.0975
vn -0.1374 0.4528 0.8810
vn -0.2889 0.9524 0.0975
vn -0.0976 0.9904 0.0975
vn -0.0219 0.2630 -0.9645
vn 0.0220 -0.2631 0.9645
vn 0.0219 0.2630 -0.9645
vn -0.0220 -0.2631 0.9645
vn 0.0286 0.2902 -0.9565
vn 0.0975 0.9904 -0.0975
vn 0.2889 0.9524 -0.0975
vn 0.1374 0.4528 -0.8810
vn 0.0846 0.2790 -0.9565
vn 0.2231 0.4173 -0.8810
vn 0.1375 0.2571 -0.9565
vn 0.4692 0.8777 -0.0976
vn 0.1374 0.2571 0.9566
vn 0.2231 0.4173 0.8810
vn 0.1850 0.2254 0.9566
vn 0.1850 0.2254 -0.9565
vn 0.2254 0.1850 -0.9566
vn 0.7693 0.6314 -0.0976
vn 0.2254 0.1850 0.9566
vn 0.2572 0.1374 0.9565
vn 0.2571 0.1374 -0.9565
vn 0.8777 0.4691 0.0975
vn 0.8777 0.4692 -0.0976
vn 0.8449 0.2563 0.4696
vn 0.2790 0.0846 -0.9565
vn 0.9524 0.2889 -0.0976
vn 0.8448 0.2563 -0.4696
vn 0.2902 0.0286 -0.9565
vn 0.9904 0.0975 0.0975
vn 0.9904 0.0976 -0.0975
vn 0.2902 0.0286 0.9565
vn 0.2902 -0.0286 -0.9565
vn 0.9904 -0.0975 0.0975
vn 0.2902 -0.0286 0.9566
vn 0.8448 -0.2563 -0.4696
vn 0.8449 -0.2563 0.4696
vn 0.2790 -0.0846 -0.9566
vn 0.2571 -0.1374 -0.9565
vn 0.2571 -0.1374 0.9566
vn 0.3657 -0.3002 0.8810
vn 0.1850 -0.2254 -0.9565
vn 0.6314 -0.7693 -0.0976
vn 0.1850 -0.2254 0.9565
vn 0.4914 -0.5987 0.6326
vn 0.2231 -0.4173 -0.8810
vn 0.1375 -0.2571 -0.9565
vn 0.4692 -0.8777 0.0975
vn 0.4691 -0.8777 -0.0976
vn 0.1374 -0.2571 0.9566
vn 0.2889 -0.9524 -0.0976
vn 0.0846 -0.2790 -0.9565
vn 0.0976 -0.9904 0.0975
vn 0.0285 -0.2902 0.9565
vn 0.0623 -0.6332 0.7715
vn -0.0975 -0.9904 -0.0976
vn -0.0285 -0.2902 0.9565
vn -0.0976 -0.9904 0.0975
vn -0.1375 -0.2571 0.9565
vn -0.2231 -0.4173 0.8810
vn -0.2231 -0.4173 -0.8810
vn -0.1375 -0.2571 -0.9565
vn -0.4691 -0.8777 -0.0976
vn -0.1850 -0.2254 -0.9565
vn -0.4914 -0.5987 0.6326
vn -0.2254 -0.1850 -0.9566
vn -0.2254 -0.1850 0.9566
vn -0.2571 -0.1374 -0.9565
vn -0.8777 -0.4692 -0.0976
vn -0.2571 -0.1374 0.9566
vn -0.9524 -0.2889 -0.0976
vn -0.2902 -0.0286 -0.9565
vn -0.6332 -0.0624 -0.7715
vn -0.2902 0.0286 0.9565
vn -0.9524 0.2889 -0.0976
vn -0.8448 0.2563 -0.4696
vn -0.4173 0.2231 -0.8810
vn -0.8777 0.4691 0.0975
vn -0.8777 0.4692 -0.0976
vn -0.2571 0.1374 0.9566
vn -0.4173 0.2230 0.8810
vn -0.1850 0.2254 0.9566
vn -0.4691 0.8777 -0.0975
vn -0.1374 0.2571 0.9566
vn -0.2230 0.4173 0.8810
vn -0.2231 0.4173 -0.8810
vn -0.1375 0.2571 -0.9565
vn -0.0847 0.2790 -0.9565
vn -0.0846 0.2790 0.9565
vn -0.0976 0.9904 -0.0975
vn 0.0976 0.9904 0.0976
vn 0.0846 0.2790 0.9566
vn 0.1849 0.2254 0.9566
vn 0.2571 0.1374 0.9566
vn 0.4173 -0.2231 0.8810
vn 0.1373 -0.4528 0.8810
vn 0.0285 -0.2902 0.9566
vn -0.0286 -0.2902 0.9566
vn -0.1849 -0.2254 0.9566
vn -0.8449 -0.2563 0.4696
vn -0.9904 -0.0975 0.0975
vn -0.9904 0.0976 0.0975
vn -0.2254 0.1850 0.9566
vn -0.1849 0.2254 0.9566
vn -0.1374 0.2571 0.9565
vn -0.0286 0.2902 0.9566
vn -0.0001 -0.0000 -1.0000
vn 0.0001 -0.0000 -1.0000
s 0
usemtl alarm_red
f 2//1 3//1 1//1
f 4//2 5//2 3//2
f 6//3 7//3 5//3
f 8//4 9//4 7//4
f 10//5 11//5 9//5
f 12//6 13//6 11//6
f 14//7 15//7 13//7
f 16//8 17//8 15//8
f 18//9 19//9 17//9
f 20//10 21//10 19//10
f 22//11 23//11 21//11
f 24//12 25//12 23//12
f 26//13 27//13 25//13
f 28//14 29//14 27//14
f 22//15 14//15 6//15
f 30//16 31//16 29//16
f 32//17 1//17 31//17
f 15//18 23//18 31//18
f 42//23 43//23 41//23
f 44//24 45//24 43//24
f 46//25 47//25 45//25
f 47//26 50//26 49//26
f 50//27 51//27 49//27
f 51//28 54//28 53//28
f 53//29 56//29 55//29
f 56//30 57//30 55//30
f 57//31 60//31 59//31
f 60//32 61//32 59//32
f 62//33 54//33 46//33
f 61//34 64//34 63//34
f 64//35 41//35 63//35
f 47//36 55//36 63//36
f 66//1 67//1 65//1
f 68//2 69//2 67//2
f 70//3 71//3 69//3
f 72//4 73//4 71//4
f 74//5 75//5 73//5
f 76//6 77//6 75//6
f 78//7 79//7 77//7
f 80//8 81//8 79//8
f 82//9 83//9 81//9
f 84//10 85//10 83//10
f 86//11 87//11 85//11
f 88//12 89//12 87//12
f 90//13 91//13 89//13
f 92//14 93//14 91//14
f 86//15 78//15 70//15
f 94//16 95//16 93//16
f 96//17 65//17 95//17
f 79//18 87//18 95//18
f 106//37 107//37 105//37
f 108//38 109//38 107//38
f 110//39 111//39 109//39
f 112//40 113//40 111//40
f 113//41 116//41 115//41
f 116//42 117//42 115//42
f 118//43 119//43 117//43
f 120//44 121//44 119//44
f 122//45 123//45 121//45
f 123//46 126//46 125//46
f 126//47 118//47 110//47
f 126//48 127//48 125//48
f 128//49 105//49 127//49
f 111//50 119//50 127//50
f 130//19 131//19 129//19
f 132//20 135//20 131//20
f 136//21 133//21 135//21
f 134//22 129//22 133//22
f 135//18 129//18 131//18
f 132//15 134//15 136//15
f 2//1 4//1 3//1
f 4//2 6//2 5//2
f 6//3 8//3 7//3
f 8//4 10//4 9//4
f 10//5 12//5 11//5
f 12//6 14//6 13//6
f 14//7 16//7 15//7
f 16//8 18//8 17//8
f 18//9 20//9 19//9
f 20//10 22//10 21//10
f 22//11 24//11 23//11
f 24//12 26//12 25//12
f 26//13 28//13 27//13
f 28//14 30//14 29//14
f 6//15 4//15 2//15
f 2//15 32//15 30//15
f 30//15 28//15 26//15
f 26//15 24//15 22//15
f 22//15 20//15 18//15
f 18//15 16//15 14//15
f 14//15 12//15 10//15
f 10//15 8//15 6//15
f 6//15 2//15 30//15
f 30//15 26//15 22//15
f 22//15 18//15 14//15
f 14//15 10//15 6//15
f 6//15 30//15 22//15
f 30//16 32//16 31//16
f 32//17 2//17 1//17
f 31//18 1//18 3//18
f 3//18 5//18 7//18
f 7//18 9//18 11//18
f 11//18 13//18 15//18
f 15//18 17//18 19//18
f 19//18 21//18 23//18
f 23//18 25//18 27//18
f 27//18 29//18 31//18
f 31//18 3//18 7//18
f 7//18 11//18 15//18
f 15//18 19//18 23//18
f 23//18 27//18 31//18
f 31//18 7//18 15//18
f 42//23 44//23 43//23
f 44//24 46//24 45//24
f 46//25 48//25 47//25
f 47//26 48//26 50//26
f 50//27 52//27 51//27
f 51//28 52//28 54//28
f 53//29 54//29 56//29
f 56//30 58//30 57//30
f 57//31 58//31 60//31
f 60//32 62//32 61//32
f 46//33 44//33 42//33
f 42//617 64//617 62//617
f 62//33 60//33 58//33
f 58//33 56//33 54//33
f 54//33 52//33 50//33
f 50//33 48//33 46//33
f 46//33 42//33 62//33
f 62//33 58//33 54//33
f 54//33 50//33 46//33
f 61//34 62//34 64//34
f 64//35 42//35 41//35
f 63//36 41//36 43//36
f 43//618 45//618 47//618
f 47//36 49//36 51//36
f 51//36 53//36 55//36
f 55//36 57//36 59//36
f 59//36 61//36 63//36
f 63//36 43//36 47//36
f 47//36 51//36 55//36
f 55//36 59//36 63//36
f 66//1 68//1 67//1
f 68//2 70//2 69//2
f 70//3 72//3 71//3
f 72//4 74//4 73//4
f 74//5 76//5 75//5
f 76//6 78//6 77//6
f 78//7 80//7 79//7
f 80//8 82//8 81//8
f 82//9 84//9 83//9
f 84//10 86//10 85//10
f 86//11 88//11 87//11
f 88//12 90//12 89//12
f 90//13 92//13 91//13
f 92//14 94//14 93//14
f 70//15 68//15 66//15
f 66//15 96//15 94//15
f 94//15 92//15 90//15
f 90//15 88//15 86//15
f 86//15 84//15 82//15
f 82//15 80//15 78//15
f 78//15 76//15 74//15
f 74//15 72//15 70//15
f 70//15 66//15 94//15
f 94//15 90//15 86//15
f 86//15 82//15 78//15
f 78//15 74//15 70//15
f 70//15 94//15 86//15
f 94//16 96//16 95//16
f 96//17 66//17 65//17
f 95//18 65//18 67//18
f 67//18 69//18 71//18
f 71//18 73//18 75//18
f 75//18 77//18 79//18
f 79//18 81//18 83//18
f 83//18 85//18 87//18
f 87//18 89//18 91//18
f 91//18 93//18 95//18
f 95//18 67//18 71//18
f 71//18 75//18 79//18
f 79//18 83//18 87//18
f 87//18 91//18 95//18
f 95//18 71//18 79//18
f 106//37 108//37 107//37
f 108//38 110//38 109//38
f 110//39 112//39 111//39
f 112//40 114//40 113//40
f 113//41 114//41 116//41
f 116//42 118//42 117//42
f 118//43 120//43 119//43
f 120//44 122//44 121//44
f 122//45 124//45 123//45
f 123//46 124//46 126//46
f 110//619 108//619 106//619
f 106//47 128//47 126//47
f 126//47 124//47 122//47
f 122//47 120//47 118//47
f 118//47 116//47 114//47
f 114//47 112//47 110//47
f 110//47 106//47 126//47
f 126//47 122//47 118//47
f 118//47 114//47 110//47
f 126//48 128//48 127//48
f 128//49 106//49 105//49
f 127//50 105//50 107//50
f 107//50 109//50 111//50
f 111//50 113//50 115//50
f 115//50 117//50 119//50
f 119//50 121//50 123//50
f 123//620 125//620 127//620
f 127//50 107//50 111//50
f 111//50 115//50 119//50
f 119//50 123//50 127//50
f 130//19 132//19 131//19
f 132//20 136//20 135//20
f 136//21 134//21 133//21
f 134//22 130//22 129//22
f 135//18 133//18 129//18
f 132//15 130//15 134//15
usemtl bolt_black
f 34//19 35//19 33//19
f 36//20 39//20 35//20
f 40//21 37//21 39//21
f 38//22 33//22 37//22
f 39//18 33//18 35//18
f 36//15 38//15 40//15
f 98//19 99//19 97//19
f 100//20 103//20 99//20
f 104//21 101//21 103//21
f 102//22 97//22 101//22
f 103//18 97//18 99//18
f 100//15 102//15 104//15
f 138//19 139//19 137//19
f 140//20 143//20 139//20
f 144//21 141//21 143//21
f 142//22 137//22 141//22
f 143//18 137//18 139//18
f 140//15 142//15 144//15
f 34//19 36//19 35//19
f 36//20 40//20 39//20
f 40//21 38//21 37//21
f 38//22 34//22 33//22
f 39//18 37//18 33//18
f 36//15 34//15 38//15
f 98//19 100//19 99//19
f 100//20 104//20 103//20
f 104//21 102//21 101//21
f 102//22 98//22 97//22
f 103//18 101//18 97//18
f 100//15 98//15 102//15
f 138//19 140//19 139//19
f 140//20 144//20 143//20
f 144//21 142//21 141//21
f 142//22 138//22 137//22
f 143//18 141//18 137//18
f 140//15 138//15 142//15
usemtl bottle_white
f 620//51 155//51 156//51
f 623//52 163//52 164//52
f 147//53 156//53 157//53
f 623//54 165//54 152//54
f 147//55 158//55 148//55
f 152//56 166//56 624//56
f 621//57 158//57 159//57
f 624//58 167//58 153//58
f 149//59 159//59 160//59
f 153//60 168//60 625//60
f 622//61 160//61 161//61
f 625//62 169//62 626//62
f 622//63 162//63 150//63
f 146//64 145//64 155//64
f 154//65 626//65 169//65
f 151//66 162//66 163//66
f 161//67 177//67 162//67
f 155//68 145//68 170//68
f 154//69 169//69 184//69
f 162//70 178//70 163//70
f 155//71 171//71 156//71
f 163//72 179//72 164//72
f 156//73 172//73 157//73
f 164//74 180//74 165//74
f 157//75 173//75 158//75
f 166//76 180//76 181//76
f 158//77 174//77 159//77
f 167//78 181//78 182//78
f 159//79 175//79 160//79
f 167//80 183//80 168//80
f 160//81 176//81 161//81
f 169//82 183//82 184//82
f 181//83 195//83 196//83
f 173//84 189//84 174//84
f 182//85 196//85 197//85
f 174//86 190//86 175//86
f 183//87 197//87 198//87
f 175//88 191//88 176//88
f 184//89 198//89 199//89
f 177//90 191//90 192//90
f 170//91 145//91 185//91
f 154//92 184//92 199//92
f 177//93 193//93 178//93
f 170//94 186//94 171//94
f 179//95 193//95 194//95
f 171//96 187//96 172//96
f 179//97 195//97 180//97
f 172//98 188//98 173//98
f 154//99 199//99 214//99
f 192//100 208//100 193//100
f 185//101 201//101 186//101
f 194//102 208//102 209//102
f 186//103 202//103 187//103
f 195//104 209//104 210//104
f 187//105 203//105 188//105
f 195//106 211//106 196//106
f 188//107 204//107 189//107
f 196//108 212//108 197//108
f 189//109 205//109 190//109
f 198//110 212//110 213//110
f 190//111 206//111 191//111
f 199//112 213//112 214//112
f 192//113 206//113 207//113
f 185//114 145//114 200//114
f 211//115 227//115 212//115
f 204//116 220//116 205//116
f 213//117 227//117 228//117
f 205//118 221//118 206//118
f 213//119 229//119 214//119
f 207//120 221//120 222//120
f 200//121 145//121 215//121
f 154//122 214//122 229//122
f 207//123 223//123 208//123
f 200//124 216//124 201//124
f 209//125 223//125 224//125
f 201//126 217//126 202//126
f 210//127 224//127 225//127
f 202//128 218//128 203//128
f 211//129 225//129 226//129
f 204//130 218//130 219//130
f 215//131 231//131 216//131
f 223//132 239//132 224//132
f 217//133 231//133 232//133
f 225//134 239//134 240//134
f 218//135 232//135 233//135
f 225//136 241//136 226//136
f 218//137 234//137 219//137
f 226//138 242//138 227//138
f 219//139 235//139 220//139
f 228//140 242//140 243//140
f 220//141 236//141 221//141
f 229//142 243//142 244//142
f 221//143 237//143 222//143
f 215//144 145//144 230//144
f 154//145 229//145 244//145
f 222//146 238//146 223//146
f 234//147 250//147 235//147
f 243//148 257//148 258//148
f 235//149 251//149 236//149
f 243//150 259//150 244//150
f 236//151 252//151 237//151
f 230//152 145//152 245//152
f 154//153 244//153 259//153
f 237//154 253//154 238//154
f 230//155 246//155 231//155
f 238//156 254//156 239//156
f 232//157 246//157 247//157
f 240//158 254//158 255//158
f 232//159 248//159 233//159
f 241//160 255//160 256//160
f 233//161 249//161 234//161
f 241//162 257//162 242//162
f 253//163 269//163 254//163
f 246//164 262//164 247//164
f 254//165 270//165 255//165
f 247//166 263//166 248//166
f 256//167 270//167 271//167
f 248//168 264//168 249//168
f 256//169 272//169 257//169
f 249//170 265//170 250//170
f 258//171 272//171 273//171
f 250//172 266//172 251//172
f 258//173 274//173 259//173
f 251//174 267//174 252//174
f 245//175 145//175 260//175
f 154//176 259//176 274//176
f 252//177 268//177 253//177
f 245//178 261//178 246//178
f 273//179 287//179 288//179
f 265//180 281//180 266//180
f 273//181 289//181 274//181
f 266//182 282//182 267//182
f 260//183 145//183 275//183
f 154//184 274//184 289//184
f 267//185 283//185 268//185
f 260//186 276//186 261//186
f 268//187 284//187 269//187
f 262//188 276//188 277//188
f 270//189 284//189 285//189
f 263//190 277//190 278//190
f 270//191 286//191 271//191
f 263//192 279//192 264//192
f 271//193 287//193 272//193
f 264//194 280//194 265//194
f 276//195 292//195 277//195
f 285//196 299//196 300//196
f 278//197 292//197 293//197
f 285//198 301//198 286//198
f 278//199 294//199 279//199
f 286//200 302//200 287//200
f 279//201 295//201 280//201
f 288//202 302//202 303//202
f 280//203 296//203 281//203
f 288//204 304//204 289//204
f 282//205 296//205 297//205
f 275//206 145//206 290//206
f 154//207 289//207 304//207
f 282//208 298//208 283//208
f 275//209 291//209 276//209
f 283//210 299//210 284//210
f 295//211 311//211 296//211
f 304//212 318//212 319//212
f 296//213 312//213 297//213
f 290//214 145//214 305//214
f 154//215 304//215 319//215
f 297//216 313//216 298//216
f 290//217 306//217 291//217
f 299//218 313//218 314//218
f 291//219 307//219 292//219
f 300//220 314//220 315//220
f 293//221 307//221 308//221
f 301//222 315//222 316//222
f 293//223 309//223 294//223
f 301//224 317//224 302//224
f 294//225 310//225 295//225
f 302//226 318//226 303//226
f 315//227 329//227 330//227
f 308//228 322//228 323//228
f 315//229 331//229 316//229
f 308//230 324//230 309//230
f 316//231 332//231 317//231
f 309//232 325//232 310//232
f 317//233 333//233 318//233
f 310//234 326//234 311//234
f 318//235 334//235 319//235
f 312//236 326//236 327//236
f 305//237 145//237 320//237
f 154//238 319//238 334//238
f 312//239 328//239 313//239
f 305//240 321//240 306//240
f 313//241 329//241 314//241
f 306//242 322//242 307//242
f 333//243 349//243 334//243
f 327//244 341//244 342//244
f 320//245 145//245 335//245
f 154//246 334//246 349//246
f 327//247 343//247 328//247
f 320//248 336//248 321//248
f 328//249 344//249 329//249
f 321//250 337//250 322//250
f 330//251 344//251 345//251
f 322//252 338//252 323//252
f 330//253 346//253 331//253
f 324//254 338//254 339//254
f 331//255 347//255 332//255
f 324//256 340//256 325//256
f 333//257 347//257 348//257
f 325//258 341//258 326//258
f 345//259 361//259 346//259
f 339//260 353//260 354//260
f 346//261 362//261 347//261
f 339//262 355//262 340//262
f 348//263 362//263 363//263
f 340//264 356//264 341//264
f 348//265 364//265 349//265
f 342//266 356//266 357//266
f 335//267 145//267 350//267
f 154//268 349//268 364//268
f 342//269 358//269 343//269
f 335//270 351//270 336//270
f 343//271 359//271 344//271
f 336//272 352//272 337//272
f 345//273 359//273 360//273
f 338//274 352//274 353//274
f 350//275 145//275 365//275
f 154//276 364//276 379//276
f 357//277 373//277 358//277
f 350//278 366//278 351//278
f 358//279 374//279 359//279
f 352//280 366//280 367//280
f 360//281 374//281 375//281
f 352//282 368//282 353//282
f 360//283 376//283 361//283
f 354//284 368//284 369//284
f 361//285 377//285 362//285
f 354//286 370//286 355//286
f 362//287 378//287 363//287
f 356//288 370//288 371//288
f 363//289 379//289 364//289
f 356//290 372//290 357//290
f 368//291 384//291 369//291
f 376//292 392//292 377//292
f 369//293 385//293 370//293
f 378//294 392//294 393//294
f 371//295 385//295 386//295
f 378//296 394//296 379//296
f 371//297 387//297 372//297
f 365//298 145//298 380//298
f 154//299 379//299 394//299
f 372//300 388//300 373//300
f 365//301 381//301 366//301
f 373//302 389//302 374//302
f 366//303 382//303 367//303
f 375//304 389//304 390//304
f 367//305 383//305 368//305
f 376//306 390//306 391//306
f 387//307 403//307 388//307
f 380//308 396//308 381//308
f 388//309 404//309 389//309
f 381//310 397//310 382//310
f 390//311 404//311 405//311
f 383//312 397//312 398//312
f 390//313 406//313 391//313
f 383//314 399//314 384//314
f 391//315 407//315 392//315
f 384//316 400//316 385//316
f 393//317 407//317 408//317
f 385//318 401//318 386//318
f 393//319 409//319 394//319
f 387//320 401//320 402//320
f 380//321 145//321 395//321
f 154//322 394//322 409//322
f 406//323 422//323 407//323
f 399//324 415//324 400//324
f 408//325 422//325 423//325
f 400//326 416//326 401//326
f 409//327 423//327 424//327
f 401//328 417//328 402//328
f 395//329 145//329 410//329
f 154//330 409//330 424//330
f 402//331 418//331 403//331
f 395//332 411//332 396//332
f 403//333 419//333 404//333
f 396//334 412//334 397//334
f 405//335 419//335 420//335
f 398//336 412//336 413//336
f 406//337 420//337 421//337
f 398//338 414//338 399//338
f 410//339 426//339 411//339
f 418//340 434//340 419//340
f 411//341 427//341 412//341
f 420//342 434//342 435//342
f 412//343 428//343 413//343
f 421//344 435//344 436//344
f 413//345 429//345 414//345
f 421//346 437//346 422//346
f 414//347 430//347 415//347
f 423//348 437//348 438//348
f 415//349 431//349 416//349
f 423//350 439//350 424//350
f 417//351 431//351 432//351
f 410//352 145//352 425//352
f 154//353 424//353 439//353
f 417//354 433//354 418//354
f 429//355 445//355 430//355
f 438//356 452//356 453//356
f 430//357 446//357 431//357
f 438//358 454//358 439//358
f 431//359 447//359 432//359
f 425//360 145//360 440//360
f 154//361 439//361 454//361
f 432//362 448//362 433//362
f 425//363 441//363 426//363
f 434//364 448//364 449//364
f 426//365 442//365 427//365
f 435//366 449//366 450//366
f 428//367 442//367 443//367
f 435//368 451//368 436//368
f 429//369 443//369 444//369
f 436//370 452//370 437//370
f 449//371 463//371 464//371
f 441//372 457//372 442//372
f 450//373 464//373 465//373
f 442//374 458//374 443//374
f 450//375 466//375 451//375
f 444//376 458//376 459//376
f 451//377 467//377 452//377
f 444//378 460//378 445//378
f 453//379 467//379 468//379
f 445//380 461//380 446//380
f 453//381 469//381 454//381
f 446//382 462//382 447//382
f 440//383 145//383 455//383
f 154//384 454//384 469//384
f 447//385 463//385 448//385
f 440//386 456//386 441//386
f 468//387 482//387 483//387
f 460//388 476//388 461//388
f 469//389 483//389 484//389
f 461//390 477//390 462//390
f 455//391 145//391 470//391
f 154//392 469//392 484//392
f 462//393 478//393 463//393
f 455//394 471//394 456//394
f 464//395 478//395 479//395
f 456//396 472//396 457//396
f 465//397 479//397 480//397
f 457//398 473//398 458//398
f 465//399 481//399 466//399
f 459//400 473//400 474//400
f 466//401 482//401 467//401
f 459//402 475//402 460//402
f 480//403 494//403 495//403
f 472//404 488//404 473//404
f 480//405 496//405 481//405
f 474//406 488//406 489//406
f 481//407 497//407 482//407
f 474//408 490//408 475//408
f 482//409 498//409 483//409
f 475//410 491//410 476//410
f 483//411 499//411 484//411
f 476//412 492//412 477//412
f 470//413 145//413 485//413
f 154//414 484//414 499//414
f 477//415 493//415 478//415
f 470//416 486//416 471//416
f 479//417 493//417 494//417
f 471//418 487//418 472//418
f 498//419 514//419 499//419
f 492//420 506//420 507//420
f 485//421 145//421 500//421
f 154//422 499//422 514//422
f 492//423 508//423 493//423
f 486//424 500//424 501//424
f 494//425 508//425 509//425
f 486//426 502//426 487//426
f 494//427 510//427 495//427
f 487//428 503//428 488//428
f 495//429 511//429 496//429
f 488//430 504//430 489//430
f 497//431 511//431 512//431
f 490//432 504//432 505//432
f 497//433 513//433 498//433
f 490//434 506//434 491//434
f 502//435 518//435 503//435
f 510//436 526//436 511//436
f 504//437 518//437 519//437
f 511//438 527//438 512//438
f 504//439 520//439 505//439
f 513//440 527//440 528//440
f 505//441 521//441 506//441
f 514//442 528//442 529//442
f 507//443 521//443 522//443
f 500//444 145//444 515//444
f 154//445 514//445 529//445
f 507//446 523//446 508//446
f 500//447 516//447 501//447
f 509//448 523//448 524//448
f 501//449 517//449 502//449
f 509//450 525//450 510//450
f 522//451 536//451 537//451
f 515//452 145//452 530//452
f 154//453 529//453 544//453
f 522//454 538//454 523//454
f 515//455 531//455 516//455
f 524//456 538//456 539//456
f 516//457 532//457 517//457
f 524//458 540//458 525//458
f 517//459 533//459 518//459
f 525//460 541//460 526//460
f 519//461 533//461 534//461
f 527//462 541//462 542//462
f 520//463 534//463 535//463
f 528//464 542//464 543//464
f 520//465 536//465 521//465
f 528//466 544//466 529//466
f 540//467 556//467 541//467
f 534//468 548//468 549//468
f 542//469 556//469 557//469
f 535//470 549//470 550//470
f 543//471 557//471 558//471
f 535//472 551//472 536//472
f 543//473 559//473 544//473
f 536//474 552//474 537//474
f 530//475 145//475 545//475
f 154//476 544//476 559//476
f 537//477 553//477 538//477
f 530//478 546//478 531//478
f 539//479 553//479 554//479
f 531//480 547//480 532//480
f 539//481 555//481 540//481
f 532//482 548//482 533//482
f 545//483 145//483 560//483
f 154//484 559//484 574//484
f 552//485 568//485 553//485
f 545//486 561//486 546//486
f 554//487 568//487 569//487
f 546//488 562//488 547//488
f 554//489 570//489 555//489
f 547//490 563//490 548//490
f 555//491 571//491 556//491
f 549//492 563//492 564//492
f 557//493 571//493 572//493
f 550//494 564//494 565//494
f 557//495 573//495 558//495
f 550//496 566//496 551//496
f 558//497 574//497 559//497
f 551//498 567//498 552//498
f 563//499 579//499 564//499
f 572//500 586//500 587//500
f 565//501 579//501 580//501
f 572//502 588//502 573//502
f 565//503 581//503 566//503
f 573//504 589//504 574//504
f 567//505 581//505 582//505
f 560//506 145//506 575//506
f 154//507 574//507 589//507
f 567//508 583//508 568//508
f 560//509 576//509 561//509
f 569//510 583//510 584//510
f 561//511 577//511 562//511
f 569//512 585//512 570//512
f 562//513 578//513 563//513
f 570//514 586//514 571//514
f 582//515 598//515 583//515
f 575//516 591//516 576//516
f 584//517 598//517 599//517
f 576//518 592//518 577//518
f 584//519 600//519 585//519
f 577//520 593//520 578//520
f 585//521 601//521 586//521
f 579//522 593//522 594//522
f 587//523 601//523 602//523
f 579//524 595//524 580//524
f 587//525 603//525 588//525
f 580//526 596//526 581//526
f 588//527 604//527 589//527
f 582//528 596//528 597//528
f 575//529 145//529 590//529
f 154//530 589//530 604//530
f 602//531 616//531 617//531
f 594//532 610//532 595//532
f 602//533 618//533 603//533
f 595//534 611//534 596//534
f 604//535 618//535 619//535
f 597//536 611//536 612//536
f 590//537 145//537 605//537
f 154//538 604//538 619//538
f 597//539 613//539 598//539
f 590//540 606//540 591//540
f 599//541 613//541 614//541
f 591//542 607//542 592//542
f 599//543 615//543 600//543
f 592//544 608//544 593//544
f 600//545 616//545 601//545
f 593//546 609//546 594//546
f 614//547 151//547 623//547
f 607//548 620//548 147//548
f 614//549 152//549 615//549
f 608//550 147//550 148//550
f 615//551 624//551 616//551
f 609//552 148//552 621//552
f 616//553 153//553 617//553
f 610//554 621//554 149//554
f 617//555 625//555 618//555
f 610//556 622//556 611//556
f 618//557 626//557 619//557
f 611//558 150//558 612//558
f 605//559 145//559 146//559
f 154//560 619//560 626//560
f 612//561 151//561 613//561
f 605//562 620//562 606//562
f 620//51 146//51 155//51
f 623//52 151//52 163//52
f 147//53 620//53 156//53
f 623//54 164//54 165//54
f 147//55 157//55 158//55
f 152//56 165//56 166//56
f 621//57 148//57 158//57
f 624//58 166//58 167//58
f 149//59 621//59 159//59
f 153//60 167//60 168//60
f 622//61 149//61 160//61
f 625//621 168//621 169//621
f 622//563 161//563 162//563
f 151//622 150//622 162//622
f 161//67 176//67 177//67
f 162//623 177//623 178//623
f 155//71 170//71 171//71
f 163//72 178//72 179//72
f 156//566 171//566 172//566
f 164//74 179//74 180//74
f 157//75 172//75 173//75
f 166//76 165//76 180//76
f 158//77 173//77 174//77
f 167//78 166//78 181//78
f 159//79 174//79 175//79
f 167//624 182//624 183//624
f 160//81 175//81 176//81
f 169//625 168//625 183//625
f 181//83 180//83 195//83
f 173//84 188//84 189//84
f 182//85 181//85 196//85
f 174//86 189//86 190//86
f 183//626 182//626 197//626
f 175//88 190//88 191//88
f 184//627 183//627 198//627
f 177//568 176//568 191//568
f 177//628 192//628 193//628
f 170//629 185//629 186//629
f 179//95 178//95 193//95
f 171//630 186//630 187//630
f 179//97 194//97 195//97
f 172//98 187//98 188//98
f 192//100 207//100 208//100
f 185//631 200//631 201//631
f 194//102 193//102 208//102
f 186//103 201//103 202//103
f 195//104 194//104 209//104
f 187//105 202//105 203//105
f 195//106 210//106 211//106
f 188//107 203//107 204//107
f 196//108 211//108 212//108
f 189//109 204//109 205//109
f 198//110 197//110 212//110
f 190//111 205//111 206//111
f 199//632 198//632 213//632
f 192//113 191//113 206//113
f 211//115 226//115 227//115
f 204//116 219//116 220//116
f 213//117 212//117 227//117
f 205//118 220//118 221//118
f 213//633 228//633 229//633
f 207//571 206//571 221//571
f 207//634 222//634 223//634
f 200//635 215//635 216//635
f 209//125 208//125 223//125
f 201//126 216//126 217//126
f 210//127 209//127 224//127
f 202//128 217//128 218//128
f 211//129 210//129 225//129
f 204//130 203//130 218//130
f 215//636 230//636 231//636
f 223//132 238//132 239//132
f 217//133 216//133 231//133
f 225//134 224//134 239//134
f 218//135 217//135 232//135
f 225//136 240//136 241//136
f 218//137 233//137 234//137
f 226//138 241//138 242//138
f 219//139 234//139 235//139
f 228//140 227//140 242//140
f 220//141 235//141 236//141
f 229//637 228//637 243//637
f 221//638 236//638 237//638
f 222//639 237//639 238//639
f 234//640 249//640 250//640
f 243//148 242//148 257//148
f 235//149 250//149 251//149
f 243//641 258//641 259//641
f 236//573 251//573 252//573
f 237//642 252//642 253//642
f 230//155 245//155 246//155
f 238//156 253//156 254//156
f 232//157 231//157 246//157
f 240//643 239//643 254//643
f 232//159 247//159 248//159
f 241//160 240//160 255//160
f 233//161 248//161 249//161
f 241//162 256//162 257//162
f 253//163 268//163 269//163
f 246//164 261//164 262//164
f 254//165 269//165 270//165
f 247//166 262//166 263//166
f 256//167 255//167 270//167
f 248//168 263//168 264//168
f 256//169 271//169 272//169
f 249//170 264//170 265//170
f 258//171 257//171 272//171
f 250//172 265//172 266//172
f 258//644 273//644 274//644
f 251//645 266//645 267//645
f 252//646 267//646 268//646
f 245//647 260//647 261//647
f 273//179 272//179 287//179
f 265//180 280//180 281//180
f 273//648 288//648 289//648
f 266//649 281//649 282//649
f 267//185 282//185 283//185
f 260//650 275//650 276//650
f 268//187 283//187 284//187
f 262//188 261//188 276//188
f 270//189 269//189 284//189
f 263//190 262//190 277//190
f 270//191 285//191 286//191
f 263//192 278//192 279//192
f 271//193 286//193 287//193
f 264//194 279//194 280//194
f 276//195 291//195 292//195
f 285//651 284//651 299//651
f 278//197 277//197 292//197
f 285//198 300//198 301//198
f 278//199 293//199 294//199
f 286//200 301//200 302//200
f 279//652 294//652 295//652
f 288//202 287//202 302//202
f 280//203 295//203 296//203
f 288//653 303//653 304//653
f 282//205 281//205 296//205
f 282//208 297//208 298//208
f 275//578 290//578 291//578
f 283//210 298//210 299//210
f 295//211 310//211 311//211
f 304//654 303//654 318//654
f 296//579 311//579 312//579
f 297//216 312//216 313//216
f 290//655 305//655 306//655
f 299//218 298//218 313//218
f 291//219 306//219 307//219
f 300//220 299//220 314//220
f 293//221 292//221 307//221
f 301//222 300//222 315//222
f 293//223 308//223 309//223
f 301//224 316//224 317//224
f 294//225 309//225 310//225
f 302//226 317//226 318//226
f 315//227 314//227 329//227
f 308//228 307//228 322//228
f 315//229 330//229 331//229
f 308//230 323//230 324//230
f 316//231 331//231 332//231
f 309//232 324//232 325//232
f 317//233 332//233 333//233
f 310//234 325//234 326//234
f 318//235 333//235 334//235
f 312//236 311//236 326//236
f 312//239 327//239 328//239
f 305//240 320//240 321//240
f 313//241 328//241 329//241
f 306//656 321//656 322//656
f 333//657 348//657 349//657
f 327//583 326//583 341//583
f 327//658 342//658 343//658
f 320//659 335//659 336//659
f 328//249 343//249 344//249
f 321//250 336//250 337//250
f 330//251 329//251 344//251
f 322//252 337//252 338//252
f 330//253 345//253 346//253
f 324//660 323//660 338//660
f 331//255 346//255 347//255
f 324//256 339//256 340//256
f 333//257 332//257 347//257
f 325//258 340//258 341//258
f 345//259 360//259 361//259
f 339//260 338//260 353//260
f 346//261 361//261 362//261
f 339//262 354//262 355//262
f 348//661 347//661 362//661
f 340//264 355//264 356//264
f 348//662 363//662 364//662
f 342//663 341//663 356//663
f 342//664 357//664 358//664
f 335//665 350//665 351//665
f 343//271 358//271 359//271
f 336//584 351//584 352//584
f 345//273 344//273 359//273
f 338//274 337//274 352//274
f 357//666 372//666 373//666
f 350//278 365//278 366//278
f 358//279 373//279 374//279
f 352//280 351//280 366//280
f 360//281 359//281 374//281
f 352//282 367//282 368//282
f 360//283 375//283 376//283
f 354//284 353//284 368//284
f 361//285 376//285 377//285
f 354//286 369//286 370//286
f 362//287 377//287 378//287
f 356//288 355//288 370//288
f 363//667 378//667 379//667
f 356//586 371//586 372//586
f 368//291 383//291 384//291
f 376//292 391//292 392//292
f 369//293 384//293 385//293
f 378//294 377//294 392//294
f 371//295 370//295 385//295
f 378//296 393//296 394//296
f 371//668 386//668 387//668
f 372//300 387//300 388//300
f 365//669 380//669 381//669
f 373//302 388//302 389//302
f 366//303 381//303 382//303
f 375//304 374//304 389//304
f 367//670 382//670 383//670
f 376//306 375//306 390//306
f 387//671 402//671 403//671
f 380//672 395//672 396//672
f 388//309 403//309 404//309
f 381//310 396//310 397//310
f 390//311 389//311 404//311
f 383//312 382//312 397//312
f 390//313 405//313 406//313
f 383//314 398//314 399//314
f 391//315 406//315 407//315
f 384//316 399//316 400//316
f 393//317 392//317 407//317
f 385//318 400//318 401//318
f 393//319 408//319 409//319
f 387//673 386//673 401//673
f 406//323 421//323 422//323
f 399//324 414//324 415//324
f 408//325 407//325 422//325
f 400//326 415//326 416//326
f 409//327 408//327 423//327
f 401//328 416//328 417//328
f 402//331 417//331 418//331
f 395//332 410//332 411//332
f 403//333 418//333 419//333
f 396//334 411//334 412//334
f 405//335 404//335 419//335
f 398//336 397//336 412//336
f 406//337 405//337 420//337
f 398//338 413//338 414//338
f 410//674 425//674 426//674
f 418//340 433//340 434//340
f 411//675 426//675 427//675
f 420//342 419//342 434//342
f 412//343 427//343 428//343
f 421//344 420//344 435//344
f 413//345 428//345 429//345
f 421//346 436//346 437//346
f 414//347 429//347 430//347
f 423//676 422//676 437//676
f 415//349 430//349 431//349
f 423//677 438//677 439//677
f 417//351 416//351 431//351
f 417//678 432//678 433//678
f 429//355 444//355 445//355
f 438//356 437//356 452//356
f 430//357 445//357 446//357
f 438//679 453//679 454//679
f 431//359 446//359 447//359
f 432//362 447//362 448//362
f 425//594 440//594 441//594
f 434//364 433//364 448//364
f 426//365 441//365 442//365
f 435//366 434//366 449//366
f 428//367 427//367 442//367
f 435//368 450//368 451//368
f 429//680 428//680 443//680
f 436//370 451//370 452//370
f 449//371 448//371 463//371
f 441//372 456//372 457//372
f 450//373 449//373 464//373
f 442//374 457//374 458//374
f 450//375 465//375 466//375
f 444//376 443//376 458//376
f 451//377 466//377 467//377
f 444//378 459//378 460//378
f 453//379 452//379 467//379
f 445//380 460//380 461//380
f 453//681 468//681 469//681
f 446//595 461//595 462//595
f 447//385 462//385 463//385
f 440//682 455//682 456//682
f 468//387 467//387 482//387
f 460//388 475//388 476//388
f 469//683 468//683 483//683
f 461//597 476//597 477//597
f 462//684 477//684 478//684
f 455//685 470//685 471//685
f 464//395 463//395 478//395
f 456//396 471//396 472//396
f 465//397 464//397 479//397
f 457//398 472//398 473//398
f 465//399 480//399 481//399
f 459//400 458//400 473//400
f 466//401 481//401 482//401
f 459//402 474//402 475//402
f 480//403 479//403 494//403
f 472//404 487//404 488//404
f 480//405 495//405 496//405
f 474//406 473//406 488//406
f 481//407 496//407 497//407
f 474//408 489//408 490//408
f 482//409 497//409 498//409
f 475//410 490//410 491//410
f 483//411 498//411 499//411
f 476//601 491//601 492//601
f 477//686 492//686 493//686
f 470//416 485//416 486//416
f 479//417 478//417 493//417
f 471//418 486//418 487//418
f 498//687 513//687 514//687
f 492//420 491//420 506//420
f 492//423 507//423 508//423
f 486//603 485//603 500//603
f 494//425 493//425 508//425
f 486//426 501//426 502//426
f 494//427 509//427 510//427
f 487//428 502//428 503//428
f 495//429 510//429 511//429
f 488//430 503//430 504//430
f 497//688 496//688 511//688
f 490//432 489//432 504//432
f 497//433 512//433 513//433
f 490//434 505//434 506//434
f 502//435 517//435 518//435
f 510//436 525//436 526//436
f 504//437 503//437 518//437
f 511//438 526//438 527//438
f 504//439 519//439 520//439
f 513//440 512//440 527//440
f 505//441 520//441 521//441
f 514//442 513//442 528//442
f 507//443 506//443 521//443
f 507//446 522//446 523//446
f 500//689 515//689 516//689
f 509//448 508//448 523//448
f 501//449 516//449 517//449
f 509//450 524//450 525//450
f 522//606 521//606 536//606
f 522//690 537//690 538//690
f 515//607 530//607 531//607
f 524//456 523//456 538//456
f 516//457 531//457 532//457
f 524//691 539//691 540//691
f 517//459 532//459 533//459
f 525//460 540//460 541//460
f 519//461 518//461 533//461
f 527//462 526//462 541//462
f 520//605 519//605 534//605
f 528//464 527//464 542//464
f 520//465 535//465 536//465
f 528//466 543//466 544//466
f 540//467 555//467 556//467
f 534//468 533//468 548//468
f 542//469 541//469 556//469
f 535//470 534//470 549//470
f 543//692 542//692 557//692
f 535//472 550//472 551//472
f 543//473 558//473 559//473
f 536//693 551//693 552//693
f 537//694 552//694 553//694
f 530//695 545//695 546//695
f 539//479 538//479 553//479
f 531//696 546//696 547//696
f 539//481 554//481 555//481
f 532//482 547//482 548//482
f 552//485 567//485 568//485
f 545//486 560//486 561//486
f 554//487 553//487 568//487
f 546//488 561//488 562//488
f 554//489 569//489 570//489
f 547//490 562//490 563//490
f 555//491 570//491 571//491
f 549//492 548//492 563//492
f 557//493 556//493 571//493
f 550//494 549//494 564//494
f 557//495 572//495 573//495
f 550//496 565//496 566//496
f 558//497 573//497 574//497
f 551//498 566//498 567//498
f 563//499 578//499 579//499
f 572//500 571//500 586//500
f 565//501 564//501 579//501
f 572//502 587//502 588//502
f 565//503 580//503 581//503
f 573//504 588//504 589//504
f 567//505 566//505 581//505
f 567//508 582//508 583//508
f 560//697 575//697 576//697
f 569//510 568//510 583//510
f 561//511 576//511 577//511
f 569//512 584//512 585//512
f 562//513 577//513 578//513
f 570//514 585//514 586//514
f 582//698 597//698 598//698
f 575//699 590//699 591//699
f 584//517 583//517 598//517
f 576//700 591//700 592//700
f 584//519 599//519 600//519
f 577//520 592//520 593//520
f 585//521 600//521 601//521
f 579//522 578//522 593//522
f 587//523 586//523 601//523
f 579//524 594//524 595//524
f 587//701 602//701 603//701
f 580//526 595//526 596//526
f 588//702 603//702 604//702
f 582//528 581//528 596//528
f 602//531 601//531 616//531
f 594//532 609//532 610//532
f 602//533 617//533 618//533
f 595//534 610//534 611//534
f 604//703 603//703 618//703
f 597//536 596//536 611//536
f 597//539 612//539 613//539
f 590//704 605//704 606//704
f 599//541 598//541 613//541
f 591//614 606//614 607//614
f 599//543 614//543 615//543
f 592//544 607//544 608//544
f 600//545 615//545 616//545
f 593//546 608//546 609//546
f 614//547 613//547 151//547
f 607//548 606//548 620//548
f 614//549 623//549 152//549
f 608//550 607//550 147//550
f 615//551 152//551 624//551
f 609//552 608//552 148//552
f 616//553 624//553 153//553
f 610//554 609//554 621//554
f 617//555 153//555 625//555
f 610//556 149//556 622//556
f 618//557 625//557 626//557
f 611//558 622//558 150//558
f 612//705 150//705 151//705
f 605//562 146//562 620//562
usemtl hatch_yellow
f 883//61 638//61 630//61
f 630//563 639//563 631//563
f 880//564 627//564 632//564
f 881//51 632//51 633//51
f 628//53 633//53 634//53
f 882//55 634//55 635//55
f 882//57 636//57 629//57
f 883//59 636//59 637//59
f 636//79 645//79 637//79
f 637//81 646//81 638//81
f 638//565 647//565 639//565
f 632//68 627//68 640//68
f 632//71 641//71 633//71
f 633//566 642//566 634//566
f 634//75 643//75 635//75
f 635//77 644//77 636//77
f 640//567 649//567 641//567
f 642//96 649//96 650//96
f 642//98 651//98 643//98
f 643//84 652//84 644//84
f 644//86 653//86 645//86
f 646//88 653//88 654//88
f 646//568 655//568 647//568
f 640//569 627//569 648//569
f 652//109 661//109 653//109
f 654//111 661//111 662//111
f 655//113 662//113 663//113
f 648//570 627//570 656//570
f 648//101 657//101 649//101
f 649//103 658//103 650//103
f 650//105 659//105 651//105
f 651//107 660//107 652//107
f 657//126 666//126 658//126
f 658//128 667//128 659//128
f 660//130 667//130 668//130
f 660//116 669//116 661//116
f 662//118 669//118 670//118
f 663//571 670//571 671//571
f 656//572 627//572 664//572
f 656//124 665//124 657//124
f 670//141 677//141 678//141
f 671//143 678//143 679//143
f 664//144 627//144 672//144
f 664//131 673//131 665//131
f 665//133 674//133 666//133
f 666//135 675//135 667//135
f 668//137 675//137 676//137
f 668//139 677//139 669//139
f 673//157 682//157 674//157
f 674//159 683//159 675//159
f 676//161 683//161 684//161
f 676//147 685//147 677//147
f 678//149 685//149 686//149
f 679//573 686//573 687//573
f 672//574 627//574 680//574
f 673//575 680//575 681//575
f 686//172 693//172 694//172
f 687//576 694//576 695//576
f 680//175 627//175 688//175
f 680//178 689//178 681//178
f 681//164 690//164 682//164
f 682//166 691//166 683//166
f 684//168 691//168 692//168
f 684//170 693//170 685//170
f 690//190 699//190 691//190
f 692//192 699//192 700//192
f 692//194 701//194 693//194
f 694//180 701//180 702//180
f 695//182 702//182 703//182
f 688//183 627//183 696//183
f 689//186 696//186 697//186
f 689//188 698//188 690//188
f 703//205 710//205 711//205
f 696//577 627//577 704//577
f 696//578 705//578 697//578
f 697//195 706//195 698//195
f 698//197 707//197 699//197
f 700//199 707//199 708//199
f 700//201 709//201 701//201
f 702//203 709//203 710//203
f 708//223 715//223 716//223
f 708//225 717//225 709//225
f 710//211 717//211 718//211
f 711//579 718//579 719//579
f 704//580 627//580 712//580
f 704//581 713//581 705//581
f 705//219 714//219 706//219
f 706//221 715//221 707//221
f 712//237 627//237 720//237
f 712//582 721//582 713//582
f 714//242 721//242 722//242
f 714//228 723//228 715//228
f 716//230 723//230 724//230
f 716//232 725//232 717//232
f 718//234 725//234 726//234
f 719//236 726//236 727//236
f 724//254 731//254 732//254
f 724//256 733//256 725//256
f 726//258 733//258 734//258
f 727//583 734//583 735//583
f 720//245 627//245 728//245
f 720//248 729//248 721//248
f 721//250 730//250 722//250
f 722//252 731//252 723//252
f 728//270 737//270 729//270
f 729//584 738//584 730//584
f 730//274 739//274 731//274
f 732//260 739//260 740//260
f 732//262 741//262 733//262
f 734//264 741//264 742//264
f 735//585 742//585 743//585
f 728//267 627//267 736//267
f 740//286 749//286 741//286
f 742//288 749//288 750//288
f 743//586 750//586 751//586
f 736//275 627//275 744//275
f 736//587 745//587 737//587
f 737//280 746//280 738//280
f 738//282 747//282 739//282
f 740//284 747//284 748//284
f 745//301 752//301 753//301
f 745//303 754//303 746//303
f 746//305 755//305 747//305
f 747//291 756//291 748//291
f 748//293 757//293 749//293
f 750//295 757//295 758//295
f 751//297 758//297 759//297
f 744//588 627//588 752//588
f 756//316 765//316 757//316
f 758//318 765//318 766//318
f 759//589 766//589 767//589
f 752//590 627//590 760//590
f 752//308 761//308 753//308
f 754//310 761//310 762//310
f 754//312 763//312 755//312
f 756//314 763//314 764//314
f 761//334 770//334 762//334
f 762//336 771//336 763//336
f 764//338 771//338 772//338
f 764//324 773//324 765//324
f 766//326 773//326 774//326
f 767//328 774//328 775//328
f 760//329 627//329 768//329
f 761//332 768//332 769//332
f 774//349 781//349 782//349
f 775//591 782//591 783//591
f 768//592 627//592 776//592
f 768//593 777//593 769//593
f 769//341 778//341 770//341
f 770//343 779//343 771//343
f 772//345 779//345 780//345
f 772//347 781//347 773//347
f 778//367 787//367 779//367
f 779//369 788//369 780//369
f 780//355 789//355 781//355
f 782//357 789//357 790//357
f 783//359 790//359 791//359
f 776//360 627//360 784//360
f 776//594 785//594 777//594
f 777//365 786//365 778//365
f 791//595 798//595 799//595
f 784//596 627//596 792//596
f 784//386 793//386 785//386
f 785//372 794//372 786//372
f 786//374 795//374 787//374
f 788//376 795//376 796//376
f 788//378 797//378 789//378
f 790//380 797//380 798//380
f 794//398 803//398 795//398
f 796//400 803//400 804//400
f 796//402 805//402 797//402
f 798//388 805//388 806//388
f 799//597 806//597 807//597
f 792//598 627//598 800//598
f 792//599 801//599 793//599
f 793//600 802//600 794//600
f 807//601 814//601 815//601
f 800//413 627//413 808//413
f 800//416 809//416 801//416
f 802//418 809//418 810//418
f 802//404 811//404 803//404
f 804//406 811//406 812//406
f 804//408 813//408 805//408
f 806//410 813//410 814//410
f 812//430 819//430 820//430
f 812//432 821//432 813//432
f 814//434 821//434 822//434
f 815//602 822//602 823//602
f 808//421 627//421 816//421
f 808//603 817//603 809//603
f 810//426 817//426 818//426
f 810//428 819//428 811//428
f 816//444 627//444 824//444
f 816//447 825//447 817//447
f 818//449 825//449 826//449
f 818//435 827//435 819//435
f 820//437 827//437 828//437
f 820//439 829//439 821//439
f 822//441 829//441 830//441
f 823//604 830//604 831//604
f 828//461 835//461 836//461
f 828//605 837//605 829//605
f 830//465 837//465 838//465
f 831//606 838//606 839//606
f 824//452 627//452 832//452
f 824//607 833//607 825//607
f 826//457 833//457 834//457
f 826//459 835//459 827//459
f 832//608 841//608 833//608
f 834//480 841//480 842//480
f 834//482 843//482 835//482
f 836//468 843//468 844//468
f 836//470 845//470 837//470
f 838//472 845//472 846//472
f 839//609 846//609 847//609
f 832//610 627//610 840//610
f 844//494 853//494 845//494
f 846//496 853//496 854//496
f 847//611 854//611 855//611
f 840//483 627//483 848//483
f 840//486 849//486 841//486
f 842//488 849//488 850//488
f 842//490 851//490 843//490
f 844//492 851//492 852//492
f 850//511 857//511 858//511
f 850//513 859//513 851//513
f 852//499 859//499 860//499
f 852//501 861//501 853//501
f 854//503 861//503 862//503
f 855//612 862//612 863//612
f 848//506 627//506 856//506
f 848//509 857//509 849//509
f 862//526 869//526 870//526
f 863//613 870//613 871//613
f 856//529 627//529 864//529
f 857//516 864//516 865//516
f 857//518 866//518 858//518
f 858//520 867//520 859//520
f 860//522 867//522 868//522
f 860//524 869//524 861//524
f 866//614 873//614 874//614
f 866//544 875//544 867//544
f 868//546 875//546 876//546
f 868//532 877//532 869//532
f 870//534 877//534 878//534
f 871//615 878//615 879//615
f 864//537 627//537 872//537
f 864//540 873//540 865//540
f 878//556 883//556 630//556
f 879//616 630//616 631//616
f 872//559 627//559 880//559
f 872//562 881//562 873//562
f 873//548 628//548 874//548
f 874//550 882//550 875//550
f 876//552 882//552 629//552
f 877//554 629//554 883//554
f 663//18 727//18 791//18
f 883//61 637//61 638//61
f 630//706 638//706 639//706
f 881//51 880//51 632//51
f 628//53 881//53 633//53
f 882//55 628//55 634//55
f 882//57 635//57 636//57
f 883//59 629//59 636//59
f 636//79 644//79 645//79
f 637//81 645//81 646//81
f 638//67 646//67 647//67
f 632//707 640//707 641//707
f 633//73 641//73 642//73
f 634//75 642//75 643//75
f 635//77 643//77 644//77
f 640//629 648//629 649//629
f 642//96 641//96 649//96
f 642//98 650//98 651//98
f 643//84 651//84 652//84
f 644//86 652//86 653//86
f 646//88 645//88 653//88
f 646//568 654//568 655//568
f 652//109 660//109 661//109
f 654//111 653//111 661//111
f 655//113 654//113 662//113
f 648//708 656//708 657//708
f 649//103 657//103 658//103
f 650//105 658//105 659//105
f 651//107 659//107 660//107
f 657//126 665//126 666//126
f 658//128 666//128 667//128
f 660//130 659//130 667//130
f 660//116 668//116 669//116
f 662//118 661//118 669//118
f 663//120 662//120 670//120
f 656//635 664//635 665//635
f 670//141 669//141 677//141
f 671//638 670//638 678//638
f 664//709 672//709 673//709
f 665//133 673//133 674//133
f 666//135 674//135 675//135
f 668//137 667//137 675//137
f 668//139 676//139 677//139
f 673//157 681//157 682//157
f 674//159 682//159 683//159
f 676//161 675//161 683//161
f 676//147 684//147 685//147
f 678//149 677//149 685//149
f 679//573 678//573 686//573
f 673//155 672//155 680//155
f 686//172 685//172 693//172
f 687//645 686//645 694//645
f 680//178 688//178 689//178
f 681//164 689//164 690//164
f 682//166 690//166 691//166
f 684//168 683//168 691//168
f 684//170 692//170 693//170
f 690//190 698//190 699//190
f 692//192 691//192 699//192
f 692//194 700//194 701//194
f 694//180 693//180 701//180
f 695//649 694//649 702//649
f 689//650 688//650 696//650
f 689//188 697//188 698//188
f 703//205 702//205 710//205
f 696//209 704//209 705//209
f 697//195 705//195 706//195
f 698//197 706//197 707//197
f 700//199 699//199 707//199
f 700//201 708//201 709//201
f 702//203 701//203 709//203
f 708//223 707//223 715//223
f 708//225 716//225 717//225
f 710//211 709//211 717//211
f 711//213 710//213 718//213
f 704//655 712//655 713//655
f 705//710 713//710 714//710
f 706//221 714//221 715//221
f 712//240 720//240 721//240
f 714//242 713//242 721//242
f 714//228 722//228 723//228
f 716//230 715//230 723//230
f 716//232 724//232 725//232
f 718//234 717//234 725//234
f 719//236 718//236 726//236
f 724//254 723//254 731//254
f 724//256 732//256 733//256
f 726//258 725//258 733//258
f 727//583 726//583 734//583
f 720//659 728//659 729//659
f 721//250 729//250 730//250
f 722//252 730//252 731//252
f 728//665 736//665 737//665
f 729//584 737//584 738//584
f 730//274 738//274 739//274
f 732//260 731//260 739//260
f 732//262 740//262 741//262
f 734//264 733//264 741//264
f 735//663 734//663 742//663
f 740//286 748//286 749//286
f 742//288 741//288 749//288
f 743//586 742//586 750//586
f 736//278 744//278 745//278
f 737//711 745//711 746//711
f 738//282 746//282 747//282
f 740//284 739//284 747//284
f 745//712 744//712 752//712
f 745//303 753//303 754//303
f 746//305 754//305 755//305
f 747//291 755//291 756//291
f 748//293 756//293 757//293
f 750//295 749//295 757//295
f 751//668 750//668 758//668
f 756//316 764//316 765//316
f 758//318 757//318 765//318
f 759//673 758//673 766//673
f 752//713 760//713 761//713
f 754//310 753//310 761//310
f 754//312 762//312 763//312
f 756//314 755//314 763//314
f 761//334 769//334 770//334
f 762//336 770//336 771//336
f 764//338 763//338 771//338
f 764//324 772//324 773//324
f 766//326 765//326 773//326
f 767//328 766//328 774//328
f 761//332 760//332 768//332
f 774//349 773//349 781//349
f 775//351 774//351 782//351
f 768//339 776//339 777//339
f 769//341 777//341 778//341
f 770//343 778//343 779//343
f 772//345 771//345 779//345
f 772//347 780//347 781//347
f 778//367 786//367 787//367
f 779//369 787//369 788//369
f 780//355 788//355 789//355
f 782//357 781//357 789//357
f 783//359 782//359 790//359
f 776//714 784//714 785//714
f 777//365 785//365 786//365
f 791//595 790//595 798//595
f 784//682 792//682 793//682
f 785//372 793//372 794//372
f 786//374 794//374 795//374
f 788//376 787//376 795//376
f 788//378 796//378 797//378
f 790//380 789//380 797//380
f 794//398 802//398 803//398
f 796//400 795//400 803//400
f 796//402 804//402 805//402
f 798//388 797//388 805//388
f 799//597 798//597 806//597
f 792//685 800//685 801//685
f 793//396 801//396 802//396
f 807//601 806//601 814//601
f 800//416 808//416 809//416
f 802//418 801//418 809//418
f 802//404 810//404 811//404
f 804//406 803//406 811//406
f 804//715 812//715 813//715
f 806//410 805//410 813//410
f 812//430 811//430 819//430
f 812//432 820//432 821//432
f 814//434 813//434 821//434
f 815//716 814//716 822//716
f 808//424 816//424 817//424
f 810//426 809//426 817//426
f 810//428 818//428 819//428
f 816//689 824//689 825//689
f 818//449 817//449 825//449
f 818//435 826//435 827//435
f 820//437 819//437 827//437
f 820//439 828//439 829//439
f 822//441 821//441 829//441
f 823//717 822//717 830//717
f 828//461 827//461 835//461
f 828//463 836//463 837//463
f 830//465 829//465 837//465
f 831//606 830//606 838//606
f 824//455 832//455 833//455
f 826//457 825//457 833//457
f 826//459 834//459 835//459
f 832//695 840//695 841//695
f 834//480 833//480 841//480
f 834//482 842//482 843//482
f 836//468 835//468 843//468
f 836//470 844//470 845//470
f 838//472 837//472 845//472
f 839//693 838//693 846//693
f 844//494 852//494 853//494
f 846//496 845//496 853//496
f 847//611 846//611 854//611
f 840//718 848//718 849//718
f 842//488 841//488 849//488
f 842//490 850//490 851//490
f 844//492 843//492 851//492
f 850//511 849//511 857//511
f 850//513 858//513 859//513
f 852//499 851//499 859//499
f 852//501 860//501 861//501
f 854//503 853//503 861//503
f 855//612 854//612 862//612
f 848//719 856//719 857//719
f 862//526 861//526 869//526
f 863//613 862//613 870//613
f 857//720 856//720 864//720
f 857//700 865//700 866//700
f 858//520 866//520 867//520
f 860//522 859//522 867//522
f 860//524 868//524 869//524
f 866//542 865//542 873//542
f 866//544 874//544 875//544
f 868//546 867//546 875//546
f 868//532 876//532 877//532
f 870//534 869//534 877//534
f 871//615 870//615 878//615
f 864//704 872//704 873//704
f 878//556 877//556 883//556
f 879//616 878//616 630//616
f 872//721 880//721 881//721
f 873//548 881//548 628//548
f 874//550 628//550 882//550
f 876//552 875//552 882//552
f 877//554 876//554 629//554
f 791//18 799//18 807//18
f 807//18 815//18 823//18
f 823//722 831//722 839//722
f 839//723 847//723 855//723
f 855//18 863//18 871//18
f 871//18 879//18 631//18
f 631//18 639//18 647//18
f 647//18 655//18 663//18
f 663//18 671//18 679//18
f 679//18 687//18 695//18
f 695//18 703//18 711//18
f 711//722 719//722 727//722
f 727//18 735//18 743//18
f 743//18 751//18 759//18
f 759//18 767//18 775//18
f 775//18 783//18 791//18
f 791//18 807//18 823//18
f 823//18 839//18 855//18
f 855//18 871//18 631//18
f 631//18 647//18 663//18
f 663//18 679//18 695//18
f 695//18 711//18 727//18
f 727//18 743//18 759//18
f 759//18 775//18 791//18
f 791//18 823//18 855//18
f 855//18 631//18 663//18
f 663//18 695//18 727//18
f 727//18 759//18 791//18
f 791//18 855//18 663//18
