# Blender 5.2.2 LTS
# www.blender.org
mtllib transformer.mtl
o transformer
v -9.500000 -0.750000 0.000000
v -9.500000 -0.750000 0.150000
v -9.500000 0.750000 0.000000
v -9.500000 0.750000 0.150000
v -8.150000 -0.750000 0.000000
v -8.150000 -0.750000 0.150000
v -8.150000 0.750000 0.000000
v -8.150000 0.750000 0.150000
v -9.075000 -0.700000 0.150000
v -9.075000 -0.700000 0.400000
v -9.075000 0.700000 0.150000
v -9.075000 0.700000 0.400000
v -8.575000 -0.700000 0.150000
v -8.575000 -0.700000 0.400000
v -8.575000 0.700000 0.150000
v -8.575000 0.700000 0.400000
v -9.075000 -0.700000 1.750000
v -9.075000 -0.700000 2.000000
v -9.075000 0.700000 1.750000
v -9.075000 0.700000 2.000000
v -8.575000 -0.700000 1.750000
v -8.575000 -0.700000 2.000000
v -8.575000 0.700000 1.750000
v -8.575000 0.700000 2.000000
v -8.825000 -0.260000 0.400000
v -8.825000 -0.260000 1.750000
v -8.793674 -0.262053 0.400000
v -8.793674 -0.262053 1.750000
v -8.762883 -0.268178 0.400000
v -8.762883 -0.268178 1.750000
v -8.733156 -0.278269 0.400000
v -8.733156 -0.278269 1.750000
v -8.705000 -0.292154 0.400000
v -8.705000 -0.292154 1.750000
v -8.678897 -0.309595 0.400000
v -8.678897 -0.309595 1.750000
v -8.655294 -0.330294 0.400000
v -8.655294 -0.330294 1.750000
v -8.634595 -0.353897 0.400000
v -8.634595 -0.353897 1.750000
v -8.617154 -0.380000 0.400000
v -8.617154 -0.380000 1.750000
v -8.603269 -0.408156 0.400000
v -8.603269 -0.408156 1.750000
v -8.593178 -0.437883 0.400000
v -8.593178 -0.437883 1.750000
v -8.587053 -0.468674 0.400000
v -8.587053 -0.468674 1.750000
v -8.585000 -0.500000 0.400000
v -8.585000 -0.500000 1.750000
v -8.587053 -0.531326 0.400000
v -8.587053 -0.531326 1.750000
v -8.593178 -0.562117 0.400000
v -8.593178 -0.562117 1.750000
v -8.603269 -0.591844 0.400000
v -8.603269 -0.591844 1.750000
v -8.617154 -0.620000 0.400000
v -8.617154 -0.620000 1.750000
v -8.634595 -0.646103 0.400000
v -8.634595 -0.646103 1.750000
v -8.655294 -0.669706 0.400000
v -8.655294 -0.669706 1.750000
v -8.678897 -0.690405 0.400000
v -8.678897 -0.690405 1.750000
v -8.705000 -0.707846 0.400000
v -8.705000 -0.707846 1.750000
v -8.733156 -0.721731 0.400000
v -8.733156 -0.721731 1.750000
v -8.762883 -0.731822 0.400000
v -8.762883 -0.731822 1.750000
v -8.793674 -0.737947 0.400000
v -8.793674 -0.737947 1.750000
v -8.825000 -0.740000 0.400000
v -8.825000 -0.740000 1.750000
v -8.856326 -0.737947 0.400000
v -8.856326 -0.737947 1.750000
v -8.887116 -0.731822 0.400000
v -8.887116 -0.731822 1.750000
v -8.916843 -0.721731 0.400000
v -8.916843 -0.721731 1.750000
v -8.945000 -0.707846 0.400000
v -8.945000 -0.707846 1.750000
v -8.971103 -0.690405 0.400000
v -8.971103 -0.690405 1.750000
v -8.994705 -0.669706 0.400000
v -8.994705 -0.669706 1.750000
v -9.015405 -0.646103 0.400000
v -9.015405 -0.646103 1.750000
v -9.032845 -0.620000 0.400000
v -9.032845 -0.620000 1.750000
v -9.046731 -0.591844 0.400000
v -9.046731 -0.591844 1.750000
v -9.056822 -0.562117 0.400000
v -9.056822 -0.562117 1.750000
v -9.062946 -0.531326 0.400000
v -9.062946 -0.531326 1.750000
v -9.065000 -0.500000 0.400000
v -9.065000 -0.500000 1.750000
v -9.062946 -0.468674 0.400000
v -9.062946 -0.468674 1.750000
v -9.056822 -0.437883 0.400000
v -9.056822 -0.437883 1.750000
v -9.046731 -0.408156 0.400000
v -9.046731 -0.408156 1.750000
v -9.032845 -0.380000 0.400000
v -9.032845 -0.380000 1.750000
v -9.015405 -0.353897 0.400000
v -9.015405 -0.353897 1.750000
v -8.994705 -0.330294 0.400000
v -8.994705 -0.330294 1.750000
v -8.971103 -0.309595 0.400000
v -8.971103 -0.309595 1.750000
v -8.945000 -0.292154 0.400000
v -8.945000 -0.292154 1.750000
v -8.916843 -0.278269 0.400000
v -8.916843 -0.278269 1.750000
v -8.887116 -0.268178 0.400000
v -8.887116 -0.268178 1.750000
v -8.856326 -0.262053 0.400000
v -8.856326 -0.262053 1.750000
v -8.625000 -0.470000 2.000000
v -8.625000 -0.470000 2.200000
v -8.621084 -0.470257 2.000000
v -8.621084 -0.470257 2.200000
v -8.617235 -0.471022 2.000000
v -8.617235 -0.471022 2.200000
v -8.613520 -0.472284 2.000000
v -8.613520 -0.472284 2.200000
v -8.610000 -0.474019 2.000000
v -8.610000 -0.474019 2.200000
v -8.606737 -0.476199 2.000000
v -8.606737 -0.476199 2.200000
v -8.603786 -0.478787 2.000000
v -8.603786 -0.478787 2.200000
v -8.601199 -0.481737 2.000000
v -8.601199 -0.481737 2.200000
v -8.599019 -0.485000 2.000000
v -8.599019 -0.485000 2.200000
v -8.597283 -0.488519 2.000000
v -8.597283 -0.488519 2.200000
v -8.596023 -0.492235 2.000000
v -8.596023 -0.492235 2.200000
v -8.595257 -0.496084 2.000000
v -8.595257 -0.496084 2.200000
v -8.595000 -0.500000 2.000000
v -8.595000 -0.500000 2.200000
v -8.595257 -0.503916 2.000000
v -8.595257 -0.503916 2.200000
v -8.596023 -0.507765 2.000000
v -8.596023 -0.507765 2.200000
v -8.597283 -0.511481 2.000000
v -8.597283 -0.511481 2.200000
v -8.599019 -0.515000 2.000000
v -8.599019 -0.515000 2.200000
v -8.601199 -0.518263 2.000000
v -8.601199 -0.518263 2.200000
v -8.603786 -0.521213 2.000000
v -8.603786 -0.521213 2.200000
v -8.606737 -0.523801 2.000000
v -8.606737 -0.523801 2.200000
v -8.610000 -0.525981 2.000000
v -8.610000 -0.525981 2.200000
v -8.613520 -0.527716 2.000000
v -8.613520 -0.527716 2.200000
v -8.617235 -0.528978 2.000000
v -8.617235 -0.528978 2.200000
v -8.621084 -0.529743 2.000000
v -8.621084 -0.529743 2.200000
v -8.625000 -0.530000 2.000000
v -8.625000 -0.530000 2.200000
v -8.628916 -0.529743 2.000000
v -8.628916 -0.529743 2.200000
v -8.632765 -0.528978 2.000000
v -8.632765 -0.528978 2.200000
v -8.636480 -0.527716 2.000000
v -8.636480 -0.527716 2.200000
v -8.640000 -0.525981 2.000000
v -8.640000 -0.525981 2.200000
v -8.643263 -0.523801 2.000000
v -8.643263 -0.523801 2.200000
v -8.646214 -0.521213 2.000000
v -8.646214 -0.521213 2.200000
v -8.648801 -0.518263 2.000000
v -8.648801 -0.518263 2.200000
v -8.650981 -0.515000 2.000000
v -8.650981 -0.515000 2.200000
v -8.652717 -0.511481 2.000000
v -8.652717 -0.511481 2.200000
v -8.653977 -0.507765 2.000000
v -8.653977 -0.507765 2.200000
v -8.654743 -0.503916 2.000000
v -8.654743 -0.503916 2.200000
v -8.655000 -0.500000 2.000000
v -8.655000 -0.500000 2.200000
v -8.654743 -0.496084 2.000000
v -8.654743 -0.496084 2.200000
v -8.653977 -0.492235 2.000000
v -8.653977 -0.492235 2.200000
v -8.652717 -0.488519 2.000000
v -8.652717 -0.488519 2.200000
v -8.650981 -0.485000 2.000000
v -8.650981 -0.485000 2.200000
v -8.648801 -0.481737 2.000000
v -8.648801 -0.481737 2.200000
v -8.646214 -0.478787 2.000000
v -8.646214 -0.478787 2.200000
v -8.643263 -0.476199 2.000000
v -8.643263 -0.476199 2.200000
v -8.640000 -0.474019 2.000000
v -8.640000 -0.474019 2.200000
v -8.636480 -0.472284 2.000000
v -8.636480 -0.472284 2.200000
v -8.632765 -0.471022 2.000000
v -8.632765 -0.471022 2.200000
v -8.628916 -0.470257 2.000000
v -8.628916 -0.470257 2.200000
v -8.825000 0.240000 0.400000
v -8.825000 0.240000 1.750000
v -8.793674 0.237947 0.400000
v -8.793674 0.237947 1.750000
v -8.762883 0.231822 0.400000
v -8.762883 0.231822 1.750000
v -8.733156 0.221731 0.400000
v -8.733156 0.221731 1.750000
v -8.705000 0.207846 0.400000
v -8.705000 0.207846 1.750000
v -8.678897 0.190405 0.400000
v -8.678897 0.190405 1.750000
v -8.655294 0.169706 0.400000
v -8.655294 0.169706 1.750000
v -8.634595 0.146103 0.400000
v -8.634595 0.146103 1.750000
v -8.617154 0.120000 0.400000
v -8.617154 0.120000 1.750000
v -8.603269 0.091844 0.400000
v -8.603269 0.091844 1.750000
v -8.593178 0.062117 0.400000
v -8.593178 0.062117 1.750000
v -8.587053 0.031326 0.400000
v -8.587053 0.031326 1.750000
v -8.585000 0.000000 0.400000
v -8.585000 0.000000 1.750000
v -8.587053 -0.031326 0.400000
v -8.587053 -0.031326 1.750000
v -8.593178 -0.062117 0.400000
v -8.593178 -0.062117 1.750000
v -8.603269 -0.091844 0.400000
v -8.603269 -0.091844 1.750000
v -8.617154 -0.120000 0.400000
v -8.617154 -0.120000 1.750000
v -8.634595 -0.146103 0.400000
v -8.634595 -0.146103 1.750000
v -8.655294 -0.169706 0.400000
v -8.655294 -0.169706 1.750000
v -8.678897 -0.190405 0.400000
v -8.678897 -0.190405 1.750000
v -8.705000 -0.207846 0.400000
v -8.705000 -0.207846 1.750000
v -8.733156 -0.221731 0.400000
v -8.733156 -0.221731 1.750000
v -8.762883 -0.231822 0.400000
v -8.762883 -0.231822 1.750000
v -8.793674 -0.237947 0.400000
v -8.793674 -0.237947 1.750000
v -8.825000 -0.240000 0.400000
v -8.825000 -0.240000 1.750000
v -8.856326 -0.237947 0.400000
v -8.856326 -0.237947 1.750000
v -8.887116 -0.231822 0.400000
v -8.887116 -0.231822 1.750000
v -8.916843 -0.221731 0.400000
v -8.916843 -0.221731 1.750000
v -8.945000 -0.207846 0.400000
v -8.945000 -0.207846 1.750000
v -8.971103 -0.190405 0.400000
v -8.971103 -0.190405 1.750000
v -8.994705 -0.169706 0.400000
v -8.994705 -0.169706 1.750000
v -9.015405 -0.146103 0.400000
v -9.015405 -0.146103 1.750000
v -9.032845 -0.120000 0.400000
v -9.032845 -0.120000 1.750000
v -9.046731 -0.091844 0.400000
v -9.046731 -0.091844 1.750000
v -9.056822 -0.062117 0.400000
v -9.056822 -0.062117 1.750000
v -9.062946 -0.031326 0.400000
v -9.062946 -0.031326 1.750000
v -9.065000 0.000000 0.400000
v -9.065000 0.000000 1.750000
v -9.062946 0.031326 0.400000
v -9.062946 0.031326 1.750000
v -9.056822 0.062117 0.400000
v -9.056822 0.062117 1.750000
v -9.046731 0.091844 0.400000
v -9.046731 0.091844 1.750000
v -9.032845 0.120000 0.400000
v -9.032845 0.120000 1.750000
v -9.015405 0.146103 0.400000
v -9.015405 0.146103 1.750000
v -8.994705 0.169706 0.400000
v -8.994705 0.169706 1.750000
v -8.971103 0.190405 0.400000
v -8.971103 0.190405 1.750000
v -8.945000 0.207846 0.400000
v -8.945000 0.207846 1.750000
v -8.916843 0.221731 0.400000
v -8.916843 0.221731 1.750000
v -8.887116 0.231822 0.400000
v -8.887116 0.231822 1.750000
v -8.856326 0.237947 0.400000
v -8.856326 0.237947 1.750000
v -8.625000 0.030000 2.000000
v -8.625000 0.030000 2.200000
v -8.621084 0.029743 2.000000
v -8.621084 0.029743 2.200000
v -8.617235 0.028978 2.000000
v -8.617235 0.028978 2.200000
v -8.613520 0.027716 2.000000
v -8.613520 0.027716 2.200000
v -8.610000 0.025981 2.000000
v -8.610000 0.025981 2.200000
v -8.606737 0.023801 2.000000
v -8.606737 0.023801 2.200000
v -8.603786 0.021213 2.000000
v -8.603786 0.021213 2.200000
v -8.601199 0.018263 2.000000
v -8.601199 0.018263 2.200000
v -8.599019 0.015000 2.000000
v -8.599019 0.015000 2.200000
v -8.597283 0.011481 2.000000
v -8.597283 0.011481 2.200000
v -8.596023 0.007765 2.000000
v -8.596023 0.007765 2.200000
v -8.595257 0.003916 2.000000
v -8.595257 0.003916 2.200000
v -8.595000 0.000000 2.000000
v -8.595000 0.000000 2.200000
v -8.595257 -0.003916 2.000000
v -8.595257 -0.003916 2.200000
v -8.596023 -0.007765 2.000000
v -8.596023 -0.007765 2.200000
v -8.597283 -0.011481 2.000000
v -8.597283 -0.011481 2.200000
v -8.599019 -0.015000 2.000000
v -8.599019 -0.015000 2.200000
v -8.601199 -0.018263 2.000000
v -8.601199 -0.018263 2.200000
v -8.603786 -0.021213 2.000000
v -8.603786 -0.021213 2.200000
v -8.606737 -0.023801 2.000000
v -8.606737 -0.023801 2.200000
v -8.610000 -0.025981 2.000000
v -8.610000 -0.025981 2.200000
v -8.613520 -0.027716 2.000000
v -8.613520 -0.027716 2.200000
v -8.617235 -0.028978 2.000000
v -8.617235 -0.028978 2.200000
v -8.621084 -0.029743 2.000000
v -8.621084 -0.029743 2.200000
v -8.625000 -0.030000 2.000000
v -8.625000 -0.030000 2.200000
v -8.628916 -0.029743 2.000000
v -8.628916 -0.029743 2.200000
v -8.632765 -0.028978 2.000000
v -8.632765 -0.028978 2.200000
v -8.636480 -0.027716 2.000000
v -8.636480 -0.027716 2.200000
v -8.640000 -0.025981 2.000000
v -8.640000 -0.025981 2.200000
v -8.643263 -0.023801 2.000000
v -8.643263 -0.023801 2.200000
v -8.646214 -0.021213 2.000000
v -8.646214 -0.021213 2.200000
v -8.648801 -0.018263 2.000000
v -8.648801 -0.018263 2.200000
v -8.650981 -0.015000 2.000000
v -8.650981 -0.015000 2.200000
v -8.652717 -0.011481 2.000000
v -8.652717 -0.011481 2.200000
v -8.653977 -0.007765 2.000000
v -8.653977 -0.007765 2.200000
v -8.654743 -0.003916 2.000000
v -8.654743 -0.003916 2.200000
v -8.655000 0.000000 2.000000
v -8.655000 0.000000 2.200000
v -8.654743 0.003916 2.000000
v -8.654743 0.003916 2.200000
v -8.653977 0.007765 2.000000
v -8.653977 0.007765 2.200000
v -8.652717 0.011481 2.000000
v -8.652717 0.011481 2.200000
v -8.650981 0.015000 2.000000
v -8.650981 0.015000 2.200000
v -8.648801 0.018263 2.000000
v -8.648801 0.018263 2.200000
v -8.646214 0.021213 2.000000
v -8.646214 0.021213 2.200000
v -8.643263 0.023801 2.000000
v -8.643263 0.023801 2.200000
v -8.640000 0.025981 2.000000
v -8.640000 0.025981 2.200000
v -8.636480 0.027716 2.000000
v -8.636480 0.027716 2.200000
v -8.632765 0.028978 2.000000
v -8.632765 0.028978 2.200000
v -8.628916 0.029743 2.000000
v -8.628916 0.029743 2.200000
v -8.825000 0.740000 0.400000
v -8.825000 0.740000 1.750000
v -8.793674 0.737947 0.400000
v -8.793674 0.737947 1.750000
v -8.762883 0.731822 0.400000
v -8.762883 0.731822 1.750000
v -8.733156 0.721731 0.400000
v -8.733156 0.721731 1.750000
v -8.705000 0.707846 0.400000
v -8.705000 0.707846 1.750000
v -8.678897 0.690405 0.400000
v -8.678897 0.690405 1.750000
v -8.655294 0.669706 0.400000
v -8.655294 0.669706 1.750000
v -8.634595 0.646103 0.400000
v -8.634595 0.646103 1.750000
v -8.617154 0.620000 0.400000
v -8.617154 0.620000 1.750000
v -8.603269 0.591844 0.400000
v -8.603269 0.591844 1.750000
v -8.593178 0.562117 0.400000
v -8.593178 0.562117 1.750000
v -8.587053 0.531326 0.400000
v -8.587053 0.531326 1.750000
v -8.585000 0.500000 0.400000
v -8.585000 0.500000 1.750000
v -8.587053 0.468674 0.400000
v -8.587053 0.468674 1.750000
v -8.593178 0.437883 0.400000
v -8.593178 0.437883 1.750000
v -8.603269 0.408156 0.400000
v -8.603269 0.408156 1.750000
v -8.617154 0.380000 0.400000
v -8.617154 0.380000 1.750000
v -8.634595 0.353897 0.400000
v -8.634595 0.353897 1.750000
v -8.655294 0.330294 0.400000
v -8.655294 0.330294 1.750000
v -8.678897 0.309595 0.400000
v -8.678897 0.309595 1.750000
v -8.705000 0.292154 0.400000
v -8.705000 0.292154 1.750000
v -8.733156 0.278269 0.400000
v -8.733156 0.278269 1.750000
v -8.762883 0.268178 0.400000
v -8.762883 0.268178 1.750000
v -8.793674 0.262053 0.400000
v -8.793674 0.262053 1.750000
v -8.825000 0.260000 0.400000
v -8.825000 0.260000 1.750000
v -8.856326 0.262053 0.400000
v -8.856326 0.262053 1.750000
v -8.887116 0.268178 0.400000
v -8.887116 0.268178 1.750000
v -8.916843 0.278269 0.400000
v -8.916843 0.278269 1.750000
v -8.945000 0.292154 0.400000
v -8.945000 0.292154 1.750000
v -8.971103 0.309595 0.400000
v -8.971103 0.309595 1.750000
v -8.994705 0.330294 0.400000
v -8.994705 0.330294 1.750000
v -9.015405 0.353897 0.400000
v -9.015405 0.353897 1.750000
v -9.032845 0.380000 0.400000
v -9.032845 0.380000 1.750000
v -9.046731 0.408156 0.400000
v -9.046731 0.408156 1.750000
v -9.056822 0.437883 0.400000
v -9.056822 0.437883 1.750000
v -9.062946 0.468674 0.400000
v -9.062946 0.468674 1.750000
v -9.065000 0.500000 0.400000
v -9.065000 0.500000 1.750000
v -9.062946 0.531326 0.400000
v -9.062946 0.531326 1.750000
v -9.056822 0.562117 0.400000
v -9.056822 0.562117 1.750000
v -9.046731 0.591844 0.400000
v -9.046731 0.591844 1.750000
v -9.032845 0.620000 0.400000
v -9.032845 0.620000 1.750000
v -9.015405 0.646103 0.400000
v -9.015405 0.646103 1.750000
v -8.994705 0.669706 0.400000
v -8.994705 0.669706 1.750000
v -8.971103 0.690405 0.400000
v -8.971103 0.690405 1.750000
v -8.945000 0.707846 0.400000
v -8.945000 0.707846 1.750000
v -8.916843 0.721731 0.400000
v -8.916843 0.721731 1.750000
v -8.887116 0.731822 0.400000
v -8.887116 0.731822 1.750000
v -8.856326 0.737947 0.400000
v -8.856326 0.737947 1.750000
v -8.625000 0.530000 2.000000
v -8.625000 0.530000 2.200000
v -8.621084 0.529743 2.000000
v -8.621084 0.529743 2.200000
v -8.617235 0.528978 2.000000
v -8.617235 0.528978 2.200000
v -8.613520 0.527716 2.000000
v -8.613520 0.527716 2.200000
v -8.610000 0.525981 2.000000
v -8.610000 0.525981 2.200000
v -8.606737 0.523801 2.000000
v -8.606737 0.523801 2.200000
v -8.603786 0.521213 2.000000
v -8.603786 0.521213 2.200000
v -8.601199 0.518263 2.000000
v -8.601199 0.518263 2.200000
v -8.599019 0.515000 2.000000
v -8.599019 0.515000 2.200000
v -8.597283 0.511481 2.000000
v -8.597283 0.511481 2.200000
v -8.596023 0.507765 2.000000
v -8.596023 0.507765 2.200000
v -8.595257 0.503916 2.000000
v -8.595257 0.503916 2.200000
v -8.595000 0.500000 2.000000
v -8.595000 0.500000 2.200000
v -8.595257 0.496084 2.000000
v -8.595257 0.496084 2.200000
v -8.596023 0.492235 2.000000
v -8.596023 0.492235 2.200000
v -8.597283 0.488519 2.000000
v -8.597283 0.488519 2.200000
v -8.599019 0.485000 2.000000
v -8.599019 0.485000 2.200000
v -8.601199 0.481737 2.000000
v -8.601199 0.481737 2.200000
v -8.603786 0.478787 2.000000
v -8.603786 0.478787 2.200000
v -8.606737 0.476199 2.000000
v -8.606737 0.476199 2.200000
v -8.610000 0.474019 2.000000
v -8.610000 0.474019 2.200000
v -8.613520 0.472284 2.000000
v -8.613520 0.472284 2.200000
v -8.617235 0.471022 2.000000
v -8.617235 0.471022 2.200000
v -8.621084 0.470257 2.000000
v -8.621084 0.470257 2.200000
v -8.625000 0.470000 2.000000
v -8.625000 0.470000 2.200000
v -8.628916 0.470257 2.000000
v -8.628916 0.470257 2.200000
v -8.632765 0.471022 2.000000
v -8.632765 0.471022 2.200000
v -8.636480 0.472284 2.000000
v -8.636480 0.472284 2.200000
v -8.640000 0.474019 2.000000
v -8.640000 0.474019 2.200000
v -8.643263 0.476199 2.000000
v -8.643263 0.476199 2.200000
v -8.646214 0.478787 2.000000
v -8.646214 0.478787 2.200000
v -8.648801 0.481737 2.000000
v -8.648801 0.481737 2.200000
v -8.650981 0.485000 2.000000
v -8.650981 0.485000 2.200000
v -8.652717 0.488519 2.000000
v -8.652717 0.488519 2.200000
v -8.653977 0.492235 2.000000
v -8.653977 0.492235 2.200000
v -8.654743 0.496084 2.000000
v -8.654743 0.496084 2.200000
v -8.655000 0.500000 2.000000
v -8.655000 0.500000 2.200000
v -8.654743 0.503916 2.000000
v -8.654743 0.503916 2.200000
v -8.653977 0.507765 2.000000
v -8.653977 0.507765 2.200000
v -8.652717 0.511481 2.000000
v -8.652717 0.511481 2.200000
v -8.650981 0.515000 2.000000
v -8.650981 0.515000 2.200000
v -8.648801 0.518263 2.000000
v -8.648801 0.518263 2.200000
v -8.646214 0.521213 2.000000
v -8.646214 0.521213 2.200000
v -8.643263 0.523801 2.000000
v -8.643263 0.523801 2.200000
v -8.640000 0.525981 2.000000
v -8.640000 0.525981 2.200000
v -8.636480 0.527716 2.000000
v -8.636480 0.527716 2.200000
v -8.632765 0.528978 2.000000
v -8.632765 0.528978 2.200000
v -8.628916 0.529743 2.000000
v -8.628916 0.529743 2.200000
v -9.650000 -0.908000 0.000000
v -9.650000 -0.908000 2.300000
v -9.656928 -0.904000 0.000000
v -9.656928 -0.904000 2.300000
v -9.656928 -0.896000 0.000000
v -9.656928 -0.896000 2.300000
v -9.650000 -0.892000 0.000000
v -9.650000 -0.892000 2.300000
v -9.643071 -0.896000 0.000000
v -9.643071 -0.896000 2.300000
v -9.643071 -0.904000 0.000000
v -9.643071 -0.904000 2.300000
v -9.443750 -0.908000 0.000000
v -9.443750 -0.908000 2.300000
v -9.450679 -0.904000 0.000000
v -9.450679 -0.904000 2.300000
v -9.450679 -0.896000 0.000000
v -9.450679 -0.896000 2.300000
v -9.443750 -0.892000 0.000000
v -9.443750 -0.892000 2.300000
v -9.436822 -0.896000 0.000000
v -9.436822 -0.896000 2.300000
v -9.436822 -0.904000 0.000000
v -9.436822 -0.904000 2.300000
v -9.237500 -0.908000 0.000000
v -9.237500 -0.908000 2.300000
v -9.244429 -0.904000 0.000000
v -9.244429 -0.904000 2.300000
v -9.244429 -0.896000 0.000000
v -9.244429 -0.896000 2.300000
v -9.237500 -0.892000 0.000000
v -9.237500 -0.892000 2.300000
v -9.230572 -0.896000 0.000000
v -9.230572 -0.896000 2.300000
v -9.230572 -0.904000 0.000000
v -9.230572 -0.904000 2.300000
v -9.031250 -0.908000 0.000000
v -9.031250 -0.908000 2.300000
v -9.038178 -0.904000 0.000000
v -9.038178 -0.904000 2.300000
v -9.038178 -0.896000 0.000000
v -9.038178 -0.896000 2.300000
v -9.031250 -0.892000 0.000000
v -9.031250 -0.892000 2.300000
v -9.024322 -0.896000 0.000000
v -9.024322 -0.896000 2.300000
v -9.024322 -0.904000 0.000000
v -9.024322 -0.904000 2.300000
v -8.825000 -0.908000 0.000000
v -8.825000 -0.908000 2.300000
v -8.831928 -0.904000 0.000000
v -8.831928 -0.904000 2.300000
v -8.831928 -0.896000 0.000000
v -8.831928 -0.896000 2.300000
v -8.825000 -0.892000 0.000000
v -8.825000 -0.892000 2.300000
v -8.818071 -0.896000 0.000000
v -8.818071 -0.896000 2.300000
v -8.818071 -0.904000 0.000000
v -8.818071 -0.904000 2.300000
v -8.618750 -0.908000 0.000000
v -8.618750 -0.908000 2.300000
v -8.625678 -0.904000 0.000000
v -8.625678 -0.904000 2.300000
v -8.625678 -0.896000 0.000000
v -8.625678 -0.896000 2.300000
v -8.618750 -0.892000 0.000000
v -8.618750 -0.892000 2.300000
v -8.611821 -0.896000 0.000000
v -8.611821 -0.896000 2.300000
v -8.611821 -0.904000 0.000000
v -8.611821 -0.904000 2.300000
v -8.412500 -0.908000 0.000000
v -8.412500 -0.908000 2.300000
v -8.419429 -0.904000 0.000000
v -8.419429 -0.904000 2.300000
v -8.419429 -0.896000 0.000000
v -8.419429 -0.896000 2.300000
v -8.412500 -0.892000 0.000000
v -8.412500 -0.892000 2.300000
v -8.405572 -0.896000 0.000000
v -8.405572 -0.896000 2.300000
v -8.405572 -0.904000 0.000000
v -8.405572 -0.904000 2.300000
v -8.206250 -0.908000 0.000000
v -8.206250 -0.908000 2.300000
v -8.213179 -0.904000 0.000000
v -8.213179 -0.904000 2.300000
v -8.213179 -0.896000 0.000000
v -8.213179 -0.896000 2.300000
v -8.206250 -0.892000 0.000000
v -8.206250 -0.892000 2.300000
v -8.199322 -0.896000 0.000000
v -8.199322 -0.896000 2.300000
v -8.199322 -0.904000 0.000000
v -8.199322 -0.904000 2.300000
v -8.000000 -0.908000 0.000000
v -8.000000 -0.908000 2.300000
v -8.006928 -0.904000 0.000000
v -8.006928 -0.904000 2.300000
v -8.006928 -0.896000 0.000000
v -8.006928 -0.896000 2.300000
v -8.000000 -0.892000 0.000000
v -8.000000 -0.892000 2.300000
v -7.993072 -0.896000 0.000000
v -7.993072 -0.896000 2.300000
v -7.993072 -0.904000 0.000000
v -7.993072 -0.904000 2.300000
v -9.650000 -0.900000 0.065000
v -8.000000 -0.900000 0.065000
v -9.650000 -0.887010 0.057500
v -8.000000 -0.887010 0.057500
v -9.650000 -0.887010 0.042500
v -8.000000 -0.887010 0.042500
v -9.650000 -0.900000 0.035000
v -8.000000 -0.900000 0.035000
v -9.650000 -0.912990 0.042500
v -8.000000 -0.912990 0.042500
v -9.650000 -0.912990 0.057500
v -8.000000 -0.912990 0.057500
v -9.650000 -0.900000 1.165000
v -8.000000 -0.900000 1.165000
v -9.650000 -0.887010 1.157500
v -8.000000 -0.887010 1.157500
v -9.650000 -0.887010 1.142500
v -8.000000 -0.887010 1.142500
v -9.650000 -0.900000 1.135000
v -8.000000 -0.900000 1.135000
v -9.650000 -0.912990 1.142500
v -8.000000 -0.912990 1.142500
v -9.650000 -0.912990 1.157500
v -8.000000 -0.912990 1.157500
v -9.650000 -0.900000 2.315000
v -8.000000 -0.900000 2.315000
v -9.650000 -0.887010 2.307500
v -8.000000 -0.887010 2.307500
v -9.650000 -0.887010 2.292500
v -8.000000 -0.887010 2.292500
v -9.650000 -0.900000 2.285000
v -8.000000 -0.900000 2.285000
v -9.650000 -0.912990 2.292500
v -8.000000 -0.912990 2.292500
v -9.650000 -0.912990 2.307500
v -8.000000 -0.912990 2.307500
v -9.650000 0.892000 0.000000
v -9.650000 0.892000 2.300000
v -9.656928 0.896000 0.000000
v -9.656928 0.896000 2.300000
v -9.656928 0.904000 0.000000
v -9.656928 0.904000 2.300000
v -9.650000 0.908000 0.000000
v -9.650000 0.908000 2.300000
v -9.643071 0.904000 0.000000
v -9.643071 0.904000 2.300000
v -9.643071 0.896000 0.000000
v -9.643071 0.896000 2.300000
v -9.443750 0.892000 0.000000
v -9.443750 0.892000 2.300000
v -9.450679 0.896000 0.000000
v -9.450679 0.896000 2.300000
v -9.450679 0.904000 0.000000
v -9.450679 0.904000 2.300000
v -9.443750 0.908000 0.000000
v -9.443750 0.908000 2.300000
v -9.436822 0.904000 0.000000
v -9.436822 0.904000 2.300000
v -9.436822 0.896000 0.000000
v -9.436822 0.896000 2.300000
v -9.237500 0.892000 0.000000
v -9.237500 0.892000 2.300000
v -9.244429 0.896000 0.000000
v -9.244429 0.896000 2.300000
v -9.244429 0.904000 0.000000
v -9.244429 0.904000 2.300000
v -9.237500 0.908000 0.000000
v -9.237500 0.908000 2.300000
v -9.230572 0.904000 0.000000
v -9.230572 0.904000 2.300000
v -9.230572 0.896000 0.000000
v -9.230572 0.896000 2.300000
v -9.031250 0.892000 0.000000
v -9.031250 0.892000 2.300000
v -9.038178 0.896000 0.000000
v -9.038178 0.896000 2.300000
v -9.038178 0.904000 0.000000
v -9.038178 0.904000 2.300000
v -9.031250 0.908000 0.000000
v -9.031250 0.908000 2.300000
v -9.024322 0.904000 0.000000
v -9.024322 0.904000 2.300000
v -9.024322 0.896000 0.000000
v -9.024322 0.896000 2.300000
v -8.825000 0.892000 0.000000
v -8.825000 0.892000 2.300000
v -8.831928 0.896000 0.000000
v -8.831928 0.896000 2.300000
v -8.831928 0.904000 0.000000
v -8.831928 0.904000 2.300000
v -8.825000 0.908000 0.000000
v -8.825000 0.908000 2.300000
v -8.818071 0.904000 0.000000
v -8.818071 0.904000 2.300000
v -8.818071 0.896000 0.000000
v -8.818071 0.896000 2.300000
v -8.618750 0.892000 0.000000
v -8.618750 0.892000 2.300000
v -8.625678 0.896000 0.000000
v -8.625678 0.896000 2.300000
v -8.625678 0.904000 0.000000
v -8.625678 0.904000 2.300000
v -8.618750 0.908000 0.000000
v -8.618750 0.908000 2.300000
v -8.611821 0.904000 0.000000
v -8.611821 0.904000 2.300000
v -8.611821 0.896000 0.000000
v -8.611821 0.896000 2.300000
v -8.412500 0.892000 0.000000
v -8.412500 0.892000 2.300000
v -8.419429 0.896000 0.000000
v -8.419429 0.896000 2.300000
v -8.419429 0.904000 0.000000
v -8.419429 0.904000 2.300000
v -8.412500 0.908000 0.000000
v -8.412500 0.908000 2.300000
v -8.405572 0.904000 0.000000
v -8.405572 0.904000 2.300000
v -8.405572 0.896000 0.000000
v -8.405572 0.896000 2.300000
v -8.206250 0.892000 0.000000
v -8.206250 0.892000 2.300000
v -8.213179 0.896000 0.000000
v -8.213179 0.896000 2.300000
v -8.213179 0.904000 0.000000
v -8.213179 0.904000 2.300000
v -8.206250 0.908000 0.000000
v -8.206250 0.908000 2.300000
v -8.199322 0.904000 0.000000
v -8.199322 0.904000 2.300000
v -8.199322 0.896000 0.000000
v -8.199322 0.896000 2.300000
v -8.000000 0.892000 0.000000
v -8.000000 0.892000 2.300000
v -8.006928 0.896000 0.000000
v -8.006928 0.896000 2.300000
v -8.006928 0.904000 0.000000
v -8.006928 0.904000 2.300000
v -8.000000 0.908000 0.000000
v -8.000000 0.908000 2.300000
v -7.993072 0.904000 0.000000
v -7.993072 0.904000 2.300000
v -7.993072 0.896000 0.000000
v -7.993072 0.896000 2.300000
v -9.650000 0.900000 0.065000
v -8.000000 0.900000 0.065000
v -9.650000 0.912990 0.057500
v -8.000000 0.912990 0.057500
v -9.650000 0.912990 0.042500
v -8.000000 0.912990 0.042500
v -9.650000 0.900000 0.035000
v -8.000000 0.900000 0.035000
v -9.650000 0.887010 0.042500
v -8.000000 0.887010 0.042500
v -9.650000 0.887010 0.057500
v -8.000000 0.887010 0.057500
v -9.650000 0.900000 1.165000
v -8.000000 0.900000 1.165000
v -9.650000 0.912990 1.157500
v -8.000000 0.912990 1.157500
v -9.650000 0.912990 1.142500
v -8.000000 0.912990 1.142500
v -9.650000 0.900000 1.135000
v -8.000000 0.900000 1.135000
v -9.650000 0.887010 1.142500
v -8.000000 0.887010 1.142500
v -9.650000 0.887010 1.157500
v -8.000000 0.887010 1.157500
v -9.650000 0.900000 2.315000
v -8.000000 0.900000 2.315000
v -9.650000 0.912990 2.307500
v -8.000000 0.912990 2.307500
v -9.650000 0.912990 2.292500
v -8.000000 0.912990 2.292500
v -9.650000 0.900000 2.285000
v -8.000000 0.900000 2.285000
v -9.650000 0.887010 2.292500
v -8.000000 0.887010 2.292500
v -9.650000 0.887010 2.307500
v -8.000000 0.887010 2.307500
v -9.650000 -0.908000 0.000000
v -9.650000 -0.908000 2.300000
v -9.656928 -0.904000 0.000000
v -9.656928 -0.904000 2.300000
v -9.656928 -0.896000 0.000000
v -9.656928 -0.896000 2.300000
v -9.650000 -0.892000 0.000000
v -9.650000 -0.892000 2.300000
v -9.643071 -0.896000 0.000000
v -9.643071 -0.896000 2.300000
v -9.643071 -0.904000 0.000000
v -9.643071 -0.904000 2.300000
v -9.650000 -0.708000 0.000000
v -9.650000 -0.708000 2.300000
v -9.656928 -0.704000 0.000000
v -9.656928 -0.704000 2.300000
v -9.656928 -0.696000 0.000000
v -9.656928 -0.696000 2.300000
v -9.650000 -0.692000 0.000000
v -9.650000 -0.692000 2.300000
v -9.643071 -0.696000 0.000000
v -9.643071 -0.696000 2.300000
v -9.643071 -0.704000 0.000000
v -9.643071 -0.704000 2.300000
v -9.650000 -0.508000 0.000000
v -9.650000 -0.508000 2.300000
v -9.656928 -0.504000 0.000000
v -9.656928 -0.504000 2.300000
v -9.656928 -0.496000 0.000000
v -9.656928 -0.496000 2.300000
v -9.650000 -0.492000 0.000000
v -9.650000 -0.492000 2.300000
v -9.643071 -0.496000 0.000000
v -9.643071 -0.496000 2.300000
v -9.643071 -0.504000 0.000000
v -9.643071 -0.504000 2.300000
v -9.650000 -0.308000 0.000000
v -9.650000 -0.308000 2.300000
v -9.656928 -0.304000 0.000000
v -9.656928 -0.304000 2.300000
v -9.656928 -0.296000 0.000000
v -9.656928 -0.296000 2.300000
v -9.650000 -0.292000 0.000000
v -9.650000 -0.292000 2.300000
v -9.643071 -0.296000 0.000000
v -9.643071 -0.296000 2.300000
v -9.643071 -0.304000 0.000000
v -9.643071 -0.304000 2.300000
v -9.650000 -0.108000 0.000000
v -9.650000 -0.108000 2.300000
v -9.656928 -0.104000 0.000000
v -9.656928 -0.104000 2.300000
v -9.656928 -0.096000 0.000000
v -9.656928 -0.096000 2.300000
v -9.650000 -0.092000 0.000000
v -9.650000 -0.092000 2.300000
v -9.643071 -0.096000 0.000000
v -9.643071 -0.096000 2.300000
v -9.643071 -0.104000 0.000000
v -9.643071 -0.104000 2.300000
v -9.650000 0.092000 0.000000
v -9.650000 0.092000 2.300000
v -9.656928 0.096000 0.000000
v -9.656928 0.096000 2.300000
v -9.656928 0.104000 0.000000
v -9.656928 0.104000 2.300000
v -9.650000 0.108000 0.000000
v -9.650000 0.108000 2.300000
v -9.643071 0.104000 0.000000
v -9.643071 0.104000 2.300000
v -9.643071 0.096000 0.000000
v -9.643071 0.096000 2.300000
v -9.650000 0.292000 0.000000
v -9.650000 0.292000 2.300000
v -9.656928 0.296000 0.000000
v -9.656928 0.296000 2.300000
v -9.656928 0.304000 0.000000
v -9.656928 0.304000 2.300000
v -9.650000 0.308000 0.000000
v -9.650000 0.308000 2.300000
v -9.643071 0.304000 0.000000
v -9.643071 0.304000 2.300000
v -9.643071 0.296000 0.000000
v -9.643071 0.296000 2.300000
v -9.650000 0.492000 0.000000
v -9.650000 0.492000 2.300000
v -9.656928 0.496000 0.000000
v -9.656928 0.496000 2.300000
v -9.656928 0.504000 0.000000
v -9.656928 0.504000 2.300000
v -9.650000 0.508000 0.000000
v -9.650000 0.508000 2.300000
v -9.643071 0.504000 0.000000
v -9.643071 0.504000 2.300000
v -9.643071 0.496000 0.000000
v -9.643071 0.496000 2.300000
v -9.650000 0.692000 0.000000
v -9.650000 0.692000 2.300000
v -9.656928 0.696000 0.000000
v -9.656928 0.696000 2.300000
v -9.656928 0.704000 0.000000
v -9.656928 0.704000 2.300000
v -9.650000 0.708000 0.000000
v -9.650000 0.708000 2.300000
v -9.643071 0.704000 0.000000
v -9.643071 0.704000 2.300000
v -9.643071 0.696000 0.000000
v -9.643071 0.696000 2.300000
v -9.650000 0.892000 0.000000
v -9.650000 0.892000 2.300000
v -9.656928 0.896000 0.000000
v -9.656928 0.896000 2.300000
v -9.656928 0.904000 0.000000
v -9.656928 0.904000 2.300000
v -9.650000 0.908000 0.000000
v -9.650000 0.908000 2.300000
v -9.643071 0.904000 0.000000
v -9.643071 0.904000 2.300000
v -9.643071 0.896000 0.000000
v -9.643071 0.896000 2.300000
v -9.650000 -0.900000 0.065000
v -9.650000 0.900000 0.065000
v -9.662990 -0.900000 0.057500
v -9.662990 0.900000 0.057500
v -9.662990 -0.900000 0.042500
v -9.662990 0.900000 0.042500
v -9.650000 -0.900000 0.035000
v -9.650000 0.900000 0.035000
v -9.637010 -0.900000 0.042500
v -9.637010 0.900000 0.042500
v -9.637010 -0.900000 0.057500
v -9.637010 0.900000 0.057500
v -9.650000 -0.900000 1.165000
v -9.650000 0.900000 1.165000
v -9.662990 -0.900000 1.157500
v -9.662990 0.900000 1.157500
v -9.662990 -0.900000 1.142500
v -9.662990 0.900000 1.142500
v -9.650000 -0.900000 1.135000
v -9.650000 0.900000 1.135000
v -9.637010 -0.900000 1.142500
v -9.637010 0.900000 1.142500
v -9.637010 -0.900000 1.157500
v -9.637010 0.900000 1.157500
v -9.650000 -0.900000 2.315000
v -9.650000 0.900000 2.315000
v -9.662990 -0.900000 2.307500
v -9.662990 0.900000 2.307500
v -9.662990 -0.900000 2.292500
v -9.662990 0.900000 2.292500
v -9.650000 -0.900000 2.285000
v -9.650000 0.900000 2.285000
v -9.637010 -0.900000 2.292500
v -9.637010 0.900000 2.292500
v -9.637010 -0.900000 2.307500
v -9.637010 0.900000 2.307500
v -8.000000 -0.908000 0.000000
v -8.000000 -0.908000 2.300000
v -8.006928 -0.904000 0.000000
v -8.006928 -0.904000 2.300000
v -8.006928 -0.896000 0.000000
v -8.006928 -0.896000 2.300000
v -8.000000 -0.892000 0.000000
v -8.000000 -0.892000 2.300000
v -7.993072 -0.896000 0.000000
v -7.993072 -0.896000 2.300000
v -7.993072 -0.904000 0.000000
v -7.993072 -0.904000 2.300000
v -8.000000 -0.708000 0.000000
v -8.000000 -0.708000 2.300000
v -8.006928 -0.704000 0.000000
v -8.006928 -0.704000 2.300000
v -8.006928 -0.696000 0.000000
v -8.006928 -0.696000 2.300000
v -8.000000 -0.692000 0.000000
v -8.000000 -0.692000 2.300000
v -7.993072 -0.696000 0.000000
v -7.993072 -0.696000 2.300000
v -7.993072 -0.704000 0.000000
v -7.993072 -0.704000 2.300000
v -8.000000 -0.508000 0.000000
v -8.000000 -0.508000 2.300000
v -8.006928 -0.504000 0.000000
v -8.006928 -0.504000 2.300000
v -8.006928 -0.496000 0.000000
v -8.006928 -0.496000 2.300000
v -8.000000 -0.492000 0.000000
v -8.000000 -0.492000 2.300000
v -7.993072 -0.496000 0.000000
v -7.993072 -0.496000 2.300000
v -7.993072 -0.504000 0.000000
v -7.993072 -0.504000 2.300000
v -8.000000 -0.308000 0.000000
v -8.000000 -0.308000 2.300000
v -8.006928 -0.304000 0.000000
v -8.006928 -0.304000 2.300000
v -8.006928 -0.296000 0.000000
v -8.006928 -0.296000 2.300000
v -8.000000 -0.292000 0.000000
v -8.000000 -0.292000 2.300000
v -7.993072 -0.296000 0.000000
v -7.993072 -0.296000 2.300000
v -7.993072 -0.304000 0.000000
v -7.993072 -0.304000 2.300000
v -8.000000 -0.108000 0.000000
v -8.000000 -0.108000 2.300000
v -8.006928 -0.104000 0.000000
v -8.006928 -0.104000 2.300000
v -8.006928 -0.096000 0.000000
v -8.006928 -0.096000 2.300000
v -8.000000 -0.092000 0.000000
v -8.000000 -0.092000 2.300000
v -7.993072 -0.096000 0.000000
v -7.993072 -0.096000 2.300000
v -7.993072 -0.104000 0.000000
v -7.993072 -0.104000 2.300000
v -8.000000 0.092000 0.000000
v -8.000000 0.092000 2.300000
v -8.006928 0.096000 0.000000
v -8.006928 0.096000 2.300000
v -8.006928 0.104000 0.000000
v -8.006928 0.104000 2.300000
v -8.000000 0.108000 0.000000
v -8.000000 0.108000 2.300000
v -7.993072 0.104000 0.000000
v -7.993072 0.104000 2.300000
v -7.993072 0.096000 0.000000
v -7.993072 0.096000 2.300000
v -8.000000 0.292000 0.000000
v -8.000000 0.292000 2.300000
v -8.006928 0.296000 0.000000
v -8.006928 0.296000 2.300000
v -8.006928 0.304000 0.000000
v -8.006928 0.304000 2.300000
v -8.000000 0.308000 0.000000
v -8.000000 0.308000 2.300000
v -7.993072 0.304000 0.000000
v -7.993072 0.304000 2.300000
v -7.993072 0.296000 0.000000
v -7.993072 0.296000 2.300000
v -8.000000 0.492000 0.000000
v -8.000000 0.492000 2.300000
v -8.006928 0.496000 0.000000
v -8.006928 0.496000 2.300000
v -8.006928 0.504000 0.000000
v -8.006928 0.504000 2.300000
v -8.000000 0.508000 0.000000
v -8.000000 0.508000 2.300000
v -7.993072 0.504000 0.000000
v -7.993072 0.504000 2.300000
v -7.993072 0.496000 0.000000
v -7.993072 0.496000 2.300000
v -8.000000 0.692000 0.000000
v -8.000000 0.692000 2.300000
v -8.006928 0.696000 0.000000
v -8.006928 0.696000 2.300000
v -8.006928 0.704000 0.000000
v -8.006928 0.704000 2.300000
v -8.000000 0.708000 0.000000
v -8.000000 0.708000 2.300000
v -7.993072 0.704000 0.000000
v -7.993072 0.704000 2.300000
v -7.993072 0.696000 0.000000
v -7.993072 0.696000 2.300000
v -8.000000 0.892000 0.000000
v -8.000000 0.892000 2.300000
v -8.006928 0.896000 0.000000
v -8.006928 0.896000 2.300000
v -8.006928 0.904000 0.000000
v -8.006928 0.904000 2.300000
v -8.000000 0.908000 0.000000
v -8.000000 0.908000 2.300000
v -7.993072 0.904000 0.000000
v -7.993072 0.904000 2.300000
v -7.993072 0.896000 0.000000
v -7.993072 0.896000 2.300000
v -8.000000 -0.900000 0.065000
v -8.000000 0.900000 0.065000
v -8.012990 -0.900000 0.057500
v -8.012990 0.900000 0.057500
v -8.012990 -0.900000 0.042500
v -8.012990 0.900000 0.042500
v -8.000000 -0.900000 0.035000
v -8.000000 0.900000 0.035000
v -7.987010 -0.900000 0.042500
v -7.987010 0.900000 0.042500
v -7.987010 -0.900000 0.057500
v -7.987010 0.900000 0.057500
v -8.000000 -0.900000 1.165000
v -8.000000 0.900000 1.165000
v -8.012990 -0.900000 1.157500
v -8.012990 0.900000 1.157500
v -8.012990 -0.900000 1.142500
v -8.012990 0.900000 1.142500
v -8.000000 -0.900000 1.135000
v -8.000000 0.900000 1.135000
v -7.987010 -0.900000 1.142500
v -7.987010 0.900000 1.142500
v -7.987010 -0.900000 1.157500
v -7.987010 0.900000 1.157500
v -8.000000 -0.900000 2.315000
v -8.000000 0.900000 2.315000
v -8.012990 -0.900000 2.307500
v -8.012990 0.900000 2.307500
v -8.012990 -0.900000 2.292500
v -8.012990 0.900000 2.292500
v -8.000000 -0.900000 2.285000
v -8.000000 0.900000 2.285000
v -7.987010 -0.900000 2.292500
v -7.987010 0.900000 2.292500
v -7.987010 -0.900000 2.307500
v -7.987010 0.900000 2.307500
v -7.995000 -0.150000 1.300000
v -7.995000 -0.150000 1.600000
v -7.995000 0.150000 1.300000
v -7.995000 0.150000 1.600000
v -7.990000 -0.150000 1.300000
v -7.990000 -0.150000 1.600000
v -7.990000 0.150000 1.300000
v -7.990000 0.150000 1.600000
vn -1.0000 -0.0000 -0.0000
vn -0.0000 1.0000 -0.0000
vn 1.0000 -0.0000 -0.0000
vn -0.0000 -1.0000 -0.0000
vn -0.0000 -0.0000 -1.0000
vn -0.0000 -0.0000 1.0000
vn 0.0654 0.9979 -0.0000
vn 0.1951 0.9808 -0.0000
vn 0.3214 0.9469 -0.0000
vn 0.4423 0.8969 -0.0000
vn 0.5556 0.8315 -0.0000
vn 0.6593 0.7518 -0.0000
vn 0.7518 0.6593 -0.0000
vn 0.8315 0.5556 -0.0000
vn 0.8969 0.4423 -0.0000
vn 0.9469 0.3214 -0.0000
vn 0.9808 0.1951 -0.0000
vn 0.9979 0.0654 -0.0000
vn 0.9979 -0.0654 -0.0000
vn 0.9808 -0.1951 -0.0000
vn 0.9469 -0.3214 -0.0000
vn 0.8969 -0.4423 -0.0000
vn 0.8315 -0.5556 -0.0000
vn 0.7518 -0.6593 -0.0000
vn 0.6593 -0.7518 -0.0000
vn 0.5556 -0.8315 -0.0000
vn 0.4423 -0.8969 -0.0000
vn 0.3214 -0.9469 -0.0000
vn 0.1951 -0.9808 -0.0000
vn 0.0654 -0.9979 -0.0000
vn -0.0654 -0.9979 -0.0000
vn -0.1951 -0.9808 -0.0000
vn -0.3214 -0.9469 -0.0000
vn -0.4423 -0.8969 -0.0000
vn -0.5556 -0.8315 -0.0000
vn -0.6593 -0.7518 -0.0000
vn -0.7518 -0.6593 -0.0000
vn -0.8315 -0.5556 -0.0000
vn -0.8969 -0.4423 -0.0000
vn -0.9469 -0.3214 -0.0000
vn -0.9808 -0.1951 -0.0000
vn -0.9979 -0.0654 -0.0000
vn -0.9979 0.0654 -0.0000
vn -0.9808 0.1951 -0.0000
vn -0.9469 0.3214 -0.0000
vn -0.8969 0.4423 -0.0000
vn -0.8315 0.5556 -0.0000
vn -0.7518 0.6593 -0.0000
vn -0.6593 0.7518 -0.0000
vn -0.5556 0.8315 -0.0000
vn -0.4423 0.8969 -0.0000
vn -0.3214 0.9469 -0.0000
vn -0.1951 0.9808 -0.0000
vn -0.0654 0.9979 -0.0000
vn 0.7518 -0.6594 -0.0000
vn 0.6594 -0.7518 -0.0000
vn -0.6594 -0.7518 -0.0000
vn 0.6594 0.7518 -0.0000
vn -0.7518 0.6594 -0.0000
vn -0.5000 -0.8660 -0.0000
vn -0.5000 0.8660 -0.0000
vn 0.5000 0.8660 -0.0000
vn 0.5000 -0.8660 -0.0000
vn -0.0000 0.5000 0.8660
vn -0.0000 0.5000 -0.8660
vn -0.0000 -0.5000 -0.8660
vn -0.0000 -0.5000 0.8660
vn -0.5000 -0.0000 0.8660
vn -0.5000 -0.0000 -0.8660
vn 0.5000 -0.0000 -0.8660
vn 0.5000 -0.0000 0.8660
vn 0.0001 -0.0000 1.0000
vn -0.0001 -0.0000 1.0000
vn 0.7518 0.6594 -0.0000
vn -0.7518 -0.6594 -0.0000
vn -0.6594 0.7518 -0.0000
vn 0.0002 -0.0000 1.0000
vn -0.0002 -0.0000 1.0000
vn -0.0002 -0.0000 -1.0000
vn 0.0005 -0.0000 -1.0000
vn -0.0005 -0.0000 -1.0000
vn 0.0001 -0.0000 -1.0000
vn -0.0001 -0.0000 -1.0000
vn -0.0009 -0.0000 1.0000
vn 0.0009 -0.0000 1.0000
vn 0.0002 -0.0000 -1.0000
s 0
usemtl steel_grey
f 2//1 3//1 1//1
f 4//2 7//2 3//2
f 8//3 5//3 7//3
f 6//4 1//4 5//4
f 7//5 1//5 3//5
f 4//6 6//6 8//6
f 602//60 603//60 601//60
f 604//1 605//1 603//1
f 606//61 607//61 605//61
f 608//62 609//62 607//62
f 602//6 610//6 606//6
f 610//3 611//3 609//3
f 612//63 601//63 611//63
f 603//5 607//5 611//5
f 614//60 615//60 613//60
f 616//1 617//1 615//1
f 618//61 619//61 617//61
f 620//62 621//62 619//62
f 614//6 622//6 618//6
f 622//3 623//3 621//3
f 624//63 613//63 623//63
f 615//5 619//5 623//5
f 626//60 627//60 625//60
f 628//1 629//1 627//1
f 630//61 631//61 629//61
f 632//62 633//62 631//62
f 626//6 634//6 630//6
f 634//3 635//3 633//3
f 636//63 625//63 635//63
f 627//5 631//5 635//5
f 638//60 639//60 637//60
f 640//1 641//1 639//1
f 642//61 643//61 641//61
f 644//62 645//62 643//62
f 638//6 646//6 642//6
f 646//3 647//3 645//3
f 648//63 637//63 647//63
f 639//5 643//5 647//5
f 650//60 651//60 649//60
f 652//1 653//1 651//1
f 654//61 655//61 653//61
f 656//62 657//62 655//62
f 650//6 658//6 654//6
f 658//3 659//3 657//3
f 660//63 649//63 659//63
f 651//5 655//5 659//5
f 662//60 663//60 661//60
f 664//1 665//1 663//1
f 666//61 667//61 665//61
f 668//62 669//62 667//62
f 662//6 670//6 666//6
f 670//3 671//3 669//3
f 672//63 661//63 671//63
f 663//5 667//5 671//5
f 674//60 675//60 673//60
f 676//1 677//1 675//1
f 678//61 679//61 677//61
f 680//62 681//62 679//62
f 674//6 682//6 678//6
f 682//3 683//3 681//3
f 684//63 673//63 683//63
f 675//5 679//5 683//5
f 686//60 687//60 685//60
f 688//1 689//1 687//1
f 690//61 691//61 689//61
f 692//62 693//62 691//62
f 686//6 694//6 690//6
f 694//3 695//3 693//3
f 696//63 685//63 695//63
f 687//5 691//5 695//5
f 698//60 699//60 697//60
f 700//1 701//1 699//1
f 702//61 703//61 701//61
f 704//62 705//62 703//62
f 698//6 706//6 702//6
f 706//3 707//3 705//3
f 708//63 697//63 707//63
f 699//5 703//5 707//5
f 710//64 711//64 709//64
f 712//2 713//2 711//2
f 714//65 715//65 713//65
f 716//66 717//66 715//66
f 710//3 718//3 714//3
f 718//4 719//4 717//4
f 720//67 709//67 719//67
f 711//1 715//1 719//1
f 722//64 723//64 721//64
f 724//2 725//2 723//2
f 726//65 727//65 725//65
f 728//66 729//66 727//66
f 722//3 730//3 726//3
f 730//4 731//4 729//4
f 732//67 721//67 731//67
f 723//1 727//1 731//1
f 734//64 735//64 733//64
f 736//2 737//2 735//2
f 738//65 739//65 737//65
f 740//66 741//66 739//66
f 734//3 742//3 738//3
f 742//4 743//4 741//4
f 744//67 733//67 743//67
f 735//1 739//1 743//1
f 746//60 747//60 745//60
f 748//1 749//1 747//1
f 750//61 751//61 749//61
f 752//62 753//62 751//62
f 746//6 754//6 750//6
f 754//3 755//3 753//3
f 756//63 745//63 755//63
f 747//5 751//5 755//5
f 758//60 759//60 757//60
f 760//1 761//1 759//1
f 762//61 763//61 761//61
f 764//62 765//62 763//62
f 758//6 766//6 762//6
f 766//3 767//3 765//3
f 768//63 757//63 767//63
f 759//5 763//5 767//5
f 770//60 771//60 769//60
f 772//1 773//1 771//1
f 774//61 775//61 773//61
f 776//62 777//62 775//62
f 770//6 778//6 774//6
f 778//3 779//3 777//3
f 780//63 769//63 779//63
f 771//5 775//5 779//5
f 782//60 783//60 781//60
f 784//1 785//1 783//1
f 786//61 787//61 785//61
f 788//62 789//62 787//62
f 782//6 790//6 786//6
f 790//3 791//3 789//3
f 792//63 781//63 791//63
f 783//5 787//5 791//5
f 794//60 795//60 793//60
f 796//1 797//1 795//1
f 798//61 799//61 797//61
f 800//62 801//62 799//62
f 794//6 802//6 798//6
f 802//3 803//3 801//3
f 804//63 793//63 803//63
f 795//5 799//5 803//5
f 806//60 807//60 805//60
f 808//1 809//1 807//1
f 810//61 811//61 809//61
f 812//62 813//62 811//62
f 806//6 814//6 810//6
f 814//3 815//3 813//3
f 816//63 805//63 815//63
f 807//5 811//5 815//5
f 818//60 819//60 817//60
f 820//1 821//1 819//1
f 822//61 823//61 821//61
f 824//62 825//62 823//62
f 818//6 826//6 822//6
f 826//3 827//3 825//3
f 828//63 817//63 827//63
f 819//5 823//5 827//5
f 830//60 831//60 829//60
f 832//1 833//1 831//1
f 834//61 835//61 833//61
f 836//62 837//62 835//62
f 830//6 838//6 834//6
f 838//3 839//3 837//3
f 840//63 829//63 839//63
f 831//5 835//5 839//5
f 842//60 843//60 841//60
f 844//1 845//1 843//1
f 846//61 847//61 845//61
f 848//62 849//62 847//62
f 842//6 850//6 846//6
f 850//3 851//3 849//3
f 852//63 841//63 851//63
f 843//5 847//5 851//5
f 854//64 855//64 853//64
f 856//2 857//2 855//2
f 858//65 859//65 857//65
f 860//66 861//66 859//66
f 854//3 862//3 858//3
f 862//4 863//4 861//4
f 864//67 853//67 863//67
f 855//1 859//1 863//1
f 866//64 867//64 865//64
f 868//2 869//2 867//2
f 870//65 871//65 869//65
f 872//66 873//66 871//66
f 866//3 874//3 870//3
f 874//4 875//4 873//4
f 876//67 865//67 875//67
f 867//1 871//1 875//1
f 878//64 879//64 877//64
f 880//2 881//2 879//2
f 882//65 883//65 881//65
f 884//66 885//66 883//66
f 878//3 886//3 882//3
f 886//4 887//4 885//4
f 888//67 877//67 887//67
f 879//1 883//1 887//1
f 890//60 891//60 889//60
f 892//1 893//1 891//1
f 894//61 895//61 893//61
f 896//62 897//62 895//62
f 890//6 898//6 894//6
f 898//3 899//3 897//3
f 900//63 889//63 899//63
f 891//5 895//5 899//5
f 902//60 903//60 901//60
f 904//1 905//1 903//1
f 906//61 907//61 905//61
f 908//62 909//62 907//62
f 902//6 910//6 906//6
f 910//3 911//3 909//3
f 912//63 901//63 911//63
f 903//5 907//5 911//5
f 914//60 915//60 913//60
f 916//1 917//1 915//1
f 918//61 919//61 917//61
f 920//62 921//62 919//62
f 914//6 922//6 918//6
f 922//3 923//3 921//3
f 924//63 913//63 923//63
f 915//5 919//5 923//5
f 926//60 927//60 925//60
f 928//1 929//1 927//1
f 930//61 931//61 929//61
f 932//62 933//62 931//62
f 926//6 934//6 930//6
f 934//3 935//3 933//3
f 936//63 925//63 935//63
f 927//5 931//5 935//5
f 938//60 939//60 937//60
f 940//1 941//1 939//1
f 942//61 943//61 941//61
f 944//62 945//62 943//62
f 938//6 946//6 942//6
f 946//3 947//3 945//3
f 948//63 937//63 947//63
f 939//5 943//5 947//5
f 950//60 951//60 949//60
f 952//1 953//1 951//1
f 954//61 955//61 953//61
f 956//62 957//62 955//62
f 950//6 958//6 954//6
f 958//3 959//3 957//3
f 960//63 949//63 959//63
f 951//5 955//5 959//5
f 962//60 963//60 961//60
f 964//1 965//1 963//1
f 966//61 967//61 965//61
f 968//62 969//62 967//62
f 962//6 970//6 966//6
f 970//3 971//3 969//3
f 972//63 961//63 971//63
f 963//5 967//5 971//5
f 974//60 975//60 973//60
f 976//1 977//1 975//1
f 978//61 979//61 977//61
f 980//62 981//62 979//62
f 974//6 982//6 978//6
f 982//3 983//3 981//3
f 984//63 973//63 983//63
f 975//5 979//5 983//5
f 986//60 987//60 985//60
f 988//1 989//1 987//1
f 990//61 991//61 989//61
f 992//62 993//62 991//62
f 986//6 994//6 990//6
f 994//3 995//3 993//3
f 996//63 985//63 995//63
f 987//5 991//5 995//5
f 998//60 999//60 997//60
f 1000//1 1001//1 999//1
f 1002//61 1003//61 1001//61
f 1004//62 1005//62 1003//62
f 998//6 1006//6 1002//6
f 1006//3 1007//3 1005//3
f 1008//63 997//63 1007//63
f 999//5 1003//5 1007//5
f 1010//68 1011//68 1009//68
f 1012//1 1013//1 1011//1
f 1014//69 1015//69 1013//69
f 1016//70 1017//70 1015//70
f 1010//2 1018//2 1014//2
f 1018//3 1019//3 1017//3
f 1019//71 1010//71 1009//71
f 1011//4 1015//4 1019//4
f 1022//68 1023//68 1021//68
f 1024//1 1025//1 1023//1
f 1026//69 1027//69 1025//69
f 1028//70 1029//70 1027//70
f 1022//2 1030//2 1026//2
f 1030//3 1031//3 1029//3
f 1032//71 1021//71 1031//71
f 1023//4 1027//4 1031//4
f 1034//68 1035//68 1033//68
f 1036//1 1037//1 1035//1
f 1038//69 1039//69 1037//69
f 1039//70 1042//70 1041//70
f 1034//2 1042//2 1038//2
f 1042//3 1043//3 1041//3
f 1044//71 1033//71 1043//71
f 1035//4 1039//4 1043//4
f 1046//60 1047//60 1045//60
f 1048//1 1049//1 1047//1
f 1050//61 1051//61 1049//61
f 1052//62 1053//62 1051//62
f 1046//6 1054//6 1050//6
f 1054//3 1055//3 1053//3
f 1056//63 1045//63 1055//63
f 1047//5 1051//5 1055//5
f 1058//60 1059//60 1057//60
f 1060//1 1061//1 1059//1
f 1062//61 1063//61 1061//61
f 1064//62 1065//62 1063//62
f 1058//6 1066//6 1062//6
f 1066//3 1067//3 1065//3
f 1068//63 1057//63 1067//63
f 1059//5 1063//5 1067//5
f 1070//60 1071//60 1069//60
f 1072//1 1073//1 1071//1
f 1074//61 1075//61 1073//61
f 1076//62 1077//62 1075//62
f 1070//6 1078//6 1074//6
f 1078//3 1079//3 1077//3
f 1080//63 1069//63 1079//63
f 1071//5 1075//5 1079//5
f 1082//60 1083//60 1081//60
f 1084//1 1085//1 1083//1
f 1086//61 1087//61 1085//61
f 1088//62 1089//62 1087//62
f 1082//6 1090//6 1086//6
f 1090//3 1091//3 1089//3
f 1092//63 1081//63 1091//63
f 1083//5 1087//5 1091//5
f 1094//60 1095//60 1093//60
f 1096//1 1097//1 1095//1
f 1098//61 1099//61 1097//61
f 1100//62 1101//62 1099//62
f 1094//6 1102//6 1098//6
f 1102//3 1103//3 1101//3
f 1104//63 1093//63 1103//63
f 1095//5 1099//5 1103//5
f 1106//60 1107//60 1105//60
f 1108//1 1109//1 1107//1
f 1110//61 1111//61 1109//61
f 1112//62 1113//62 1111//62
f 1106//6 1114//6 1110//6
f 1114//3 1115//3 1113//3
f 1116//63 1105//63 1115//63
f 1107//5 1111//5 1115//5
f 1118//60 1119//60 1117//60
f 1120//1 1121//1 1119//1
f 1122//61 1123//61 1121//61
f 1124//62 1125//62 1123//62
f 1118//6 1126//6 1122//6
f 1126//3 1127//3 1125//3
f 1128//63 1117//63 1127//63
f 1119//5 1123//5 1127//5
f 1130//60 1131//60 1129//60
f 1132//1 1133//1 1131//1
f 1134//61 1135//61 1133//61
f 1136//62 1137//62 1135//62
f 1130//6 1138//6 1134//6
f 1138//3 1139//3 1137//3
f 1140//63 1129//63 1139//63
f 1131//5 1135//5 1139//5
f 1142//60 1143//60 1141//60
f 1144//1 1145//1 1143//1
f 1146//61 1147//61 1145//61
f 1148//62 1149//62 1147//62
f 1142//6 1150//6 1146//6
f 1150//3 1151//3 1149//3
f 1152//63 1141//63 1151//63
f 1143//5 1147//5 1151//5
f 1154//60 1155//60 1153//60
f 1156//1 1157//1 1155//1
f 1158//61 1159//61 1157//61
f 1160//62 1161//62 1159//62
f 1154//6 1162//6 1158//6
f 1162//3 1163//3 1161//3
f 1164//63 1153//63 1163//63
f 1155//5 1159//5 1163//5
f 1166//68 1167//68 1165//68
f 1168//1 1169//1 1167//1
f 1170//69 1171//69 1169//69
f 1172//70 1173//70 1171//70
f 1166//2 1174//2 1170//2
f 1174//3 1175//3 1173//3
f 1176//71 1165//71 1175//71
f 1167//4 1171//4 1175//4
f 1178//68 1179//68 1177//68
f 1180//1 1181//1 1179//1
f 1182//69 1183//69 1181//69
f 1184//70 1185//70 1183//70
f 1178//2 1186//2 1182//2
f 1186//3 1187//3 1185//3
f 1188//71 1177//71 1187//71
f 1179//4 1183//4 1187//4
f 1190//68 1191//68 1189//68
f 1192//1 1193//1 1191//1
f 1194//69 1195//69 1193//69
f 1196//70 1197//70 1195//70
f 1190//2 1198//2 1194//2
f 1198//3 1199//3 1197//3
f 1200//71 1189//71 1199//71
f 1191//4 1195//4 1199//4
f 2//1 4//1 3//1
f 4//2 8//2 7//2
f 8//3 6//3 5//3
f 6//4 2//4 1//4
f 7//5 5//5 1//5
f 4//6 2//6 6//6
f 602//60 604//60 603//60
f 604//1 606//1 605//1
f 606//61 608//61 607//61
f 608//62 610//62 609//62
f 606//6 604//6 602//6
f 602//72 612//72 610//72
f 610//6 608//6 606//6
f 610//3 612//3 611//3
f 612//63 602//63 601//63
f 611//5 601//5 603//5
f 603//5 605//5 607//5
f 607//5 609//5 611//5
f 614//60 616//60 615//60
f 616//1 618//1 617//1
f 618//61 620//61 619//61
f 620//62 622//62 621//62
f 618//6 616//6 614//6
f 614//72 624//72 622//72
f 622//6 620//6 618//6
f 622//3 624//3 623//3
f 624//63 614//63 613//63
f 623//5 613//5 615//5
f 615//5 617//5 619//5
f 619//5 621//5 623//5
f 626//60 628//60 627//60
f 628//1 630//1 629//1
f 630//61 632//61 631//61
f 632//62 634//62 633//62
f 630//6 628//6 626//6
f 626//72 636//72 634//72
f 634//6 632//6 630//6
f 634//3 636//3 635//3
f 636//63 626//63 625//63
f 635//5 625//5 627//5
f 627//5 629//5 631//5
f 631//5 633//5 635//5
f 638//60 640//60 639//60
f 640//1 642//1 641//1
f 642//61 644//61 643//61
f 644//62 646//62 645//62
f 642//6 640//6 638//6
f 638//72 648//72 646//72
f 646//6 644//6 642//6
f 646//3 648//3 647//3
f 648//63 638//63 637//63
f 647//5 637//5 639//5
f 639//5 641//5 643//5
f 643//5 645//5 647//5
f 650//60 652//60 651//60
f 652//1 654//1 653//1
f 654//61 656//61 655//61
f 656//62 658//62 657//62
f 654//6 652//6 650//6
f 650//72 660//72 658//72
f 658//6 656//6 654//6
f 658//3 660//3 659//3
f 660//63 650//63 649//63
f 659//5 649//5 651//5
f 651//5 653//5 655//5
f 655//5 657//5 659//5
f 662//60 664//60 663//60
f 664//1 666//1 665//1
f 666//61 668//61 667//61
f 668//62 670//62 669//62
f 666//6 664//6 662//6
f 662//72 672//72 670//72
f 670//6 668//6 666//6
f 670//3 672//3 671//3
f 672//63 662//63 661//63
f 671//5 661//5 663//5
f 663//5 665//5 667//5
f 667//5 669//5 671//5
f 674//60 676//60 675//60
f 676//1 678//1 677//1
f 678//61 680//61 679//61
f 680//62 682//62 681//62
f 678//6 676//6 674//6
f 674//72 684//72 682//72
f 682//6 680//6 678//6
f 682//3 684//3 683//3
f 684//63 674//63 673//63
f 683//5 673//5 675//5
f 675//5 677//5 679//5
f 679//5 681//5 683//5
f 686//60 688//60 687//60
f 688//1 690//1 689//1
f 690//61 692//61 691//61
f 692//62 694//62 693//62
f 690//6 688//6 686//6
f 686//72 696//72 694//72
f 694//6 692//6 690//6
f 694//3 696//3 695//3
f 696//63 686//63 685//63
f 695//5 685//5 687//5
f 687//5 689//5 691//5
f 691//5 693//5 695//5
f 698//60 700//60 699//60
f 700//1 702//1 701//1
f 702//61 704//61 703//61
f 704//62 706//62 705//62
f 702//6 700//6 698//6
f 698//72 708//72 706//72
f 706//6 704//6 702//6
f 706//3 708//3 707//3
f 708//63 698//63 697//63
f 707//5 697//5 699//5
f 699//5 701//5 703//5
f 703//5 705//5 707//5
f 710//64 712//64 711//64
f 712//2 714//2 713//2
f 714//65 716//65 715//65
f 716//66 718//66 717//66
f 714//3 712//3 710//3
f 710//3 720//3 718//3
f 718//3 716//3 714//3
f 718//4 720//4 719//4
f 720//67 710//67 709//67
f 719//1 709//1 711//1
f 711//1 713//1 715//1
f 715//1 717//1 719//1
f 722//64 724//64 723//64
f 724//2 726//2 725//2
f 726//65 728//65 727//65
f 728//66 730//66 729//66
f 726//3 724//3 722//3
f 722//3 732//3 730//3
f 730//3 728//3 726//3
f 730//4 732//4 731//4
f 732//67 722//67 721//67
f 731//1 721//1 723//1
f 723//1 725//1 727//1
f 727//1 729//1 731//1
f 734//64 736//64 735//64
f 736//2 738//2 737//2
f 738//65 740//65 739//65
f 740//66 742//66 741//66
f 738//3 736//3 734//3
f 734//3 744//3 742//3
f 742//3 740//3 738//3
f 742//4 744//4 743//4
f 744//67 734//67 733//67
f 743//1 733//1 735//1
f 735//1 737//1 739//1
f 739//1 741//1 743//1
f 746//60 748//60 747//60
f 748//1 750//1 749//1
f 750//61 752//61 751//61
f 752//62 754//62 753//62
f 750//6 748//6 746//6
f 746//72 756//72 754//72
f 754//6 752//6 750//6
f 754//3 756//3 755//3
f 756//63 746//63 745//63
f 755//5 745//5 747//5
f 747//5 749//5 751//5
f 751//5 753//5 755//5
f 758//60 760//60 759//60
f 760//1 762//1 761//1
f 762//61 764//61 763//61
f 764//62 766//62 765//62
f 762//6 760//6 758//6
f 758//72 768//72 766//72
f 766//6 764//6 762//6
f 766//3 768//3 767//3
f 768//63 758//63 757//63
f 767//5 757//5 759//5
f 759//5 761//5 763//5
f 763//5 765//5 767//5
f 770//60 772//60 771//60
f 772//1 774//1 773//1
f 774//61 776//61 775//61
f 776//62 778//62 777//62
f 774//6 772//6 770//6
f 770//72 780//72 778//72
f 778//6 776//6 774//6
f 778//3 780//3 779//3
f 780//63 770//63 769//63
f 779//5 769//5 771//5
f 771//5 773//5 775//5
f 775//5 777//5 779//5
f 782//60 784//60 783//60
f 784//1 786//1 785//1
f 786//61 788//61 787//61
f 788//62 790//62 789//62
f 786//6 784//6 782//6
f 782//72 792//72 790//72
f 790//6 788//6 786//6
f 790//3 792//3 791//3
f 792//63 782//63 781//63
f 791//5 781//5 783//5
f 783//5 785//5 787//5
f 787//5 789//5 791//5
f 794//60 796//60 795//60
f 796//1 798//1 797//1
f 798//61 800//61 799//61
f 800//62 802//62 801//62
f 798//6 796//6 794//6
f 794//72 804//72 802//72
f 802//6 800//6 798//6
f 802//3 804//3 803//3
f 804//63 794//63 793//63
f 803//5 793//5 795//5
f 795//5 797//5 799//5
f 799//5 801//5 803//5
f 806//60 808//60 807//60
f 808//1 810//1 809//1
f 810//61 812//61 811//61
f 812//62 814//62 813//62
f 810//6 808//6 806//6
f 806//72 816//72 814//72
f 814//6 812//6 810//6
f 814//3 816//3 815//3
f 816//63 806//63 805//63
f 815//5 805//5 807//5
f 807//5 809//5 811//5
f 811//5 813//5 815//5
f 818//60 820//60 819//60
f 820//1 822//1 821//1
f 822//61 824//61 823//61
f 824//62 826//62 825//62
f 822//6 820//6 818//6
f 818//72 828//72 826//72
f 826//6 824//6 822//6
f 826//3 828//3 827//3
f 828//63 818//63 817//63
f 827//5 817//5 819//5
f 819//5 821//5 823//5
f 823//5 825//5 827//5
f 830//60 832//60 831//60
f 832//1 834//1 833//1
f 834//61 836//61 835//61
f 836//62 838//62 837//62
f 834//6 832//6 830//6
f 830//72 840//72 838//72
f 838//6 836//6 834//6
f 838//3 840//3 839//3
f 840//63 830//63 829//63
f 839//5 829//5 831//5
f 831//5 833//5 835//5
f 835//5 837//5 839//5
f 842//60 844//60 843//60
f 844//1 846//1 845//1
f 846//61 848//61 847//61
f 848//62 850//62 849//62
f 846//6 844//6 842//6
f 842//72 852//72 850//72
f 850//6 848//6 846//6
f 850//3 852//3 851//3
f 852//63 842//63 841//63
f 851//5 841//5 843//5
f 843//5 845//5 847//5
f 847//5 849//5 851//5
f 854//64 856//64 855//64
f 856//2 858//2 857//2
f 858//65 860//65 859//65
f 860//66 862//66 861//66
f 858//3 856//3 854//3
f 854//3 864//3 862//3
f 862//3 860//3 858//3
f 862//4 864//4 863//4
f 864//67 854//67 853//67
f 863//1 853//1 855//1
f 855//1 857//1 859//1
f 859//1 861//1 863//1
f 866//64 868//64 867//64
f 868//2 870//2 869//2
f 870//65 872//65 871//65
f 872//66 874//66 873//66
f 870//3 868//3 866//3
f 866//3 876//3 874//3
f 874//3 872//3 870//3
f 874//4 876//4 875//4
f 876//67 866//67 865//67
f 875//1 865//1 867//1
f 867//1 869//1 871//1
f 871//1 873//1 875//1
f 878//64 880//64 879//64
f 880//2 882//2 881//2
f 882//65 884//65 883//65
f 884//66 886//66 885//66
f 882//3 880//3 878//3
f 878//3 888//3 886//3
f 886//3 884//3 882//3
f 886//4 888//4 887//4
f 888//67 878//67 877//67
f 887//1 877//1 879//1
f 879//1 881//1 883//1
f 883//1 885//1 887//1
f 890//60 892//60 891//60
f 892//1 894//1 893//1
f 894//61 896//61 895//61
f 896//62 898//62 897//62
f 894//6 892//6 890//6
f 890//72 900//72 898//72
f 898//6 896//6 894//6
f 898//3 900//3 899//3
f 900//63 890//63 889//63
f 899//5 889//5 891//5
f 891//5 893//5 895//5
f 895//5 897//5 899//5
f 902//60 904//60 903//60
f 904//1 906//1 905//1
f 906//61 908//61 907//61
f 908//62 910//62 909//62
f 906//6 904//6 902//6
f 902//72 912//72 910//72
f 910//6 908//6 906//6
f 910//3 912//3 911//3
f 912//63 902//63 901//63
f 911//5 901//5 903//5
f 903//5 905//5 907//5
f 907//5 909//5 911//5
f 914//60 916//60 915//60
f 916//1 918//1 917//1
f 918//61 920//61 919//61
f 920//62 922//62 921//62
f 918//6 916//6 914//6
f 914//72 924//72 922//72
f 922//6 920//6 918//6
f 922//3 924//3 923//3
f 924//63 914//63 913//63
f 923//5 913//5 915//5
f 915//5 917//5 919//5
f 919//5 921//5 923//5
f 926//60 928//60 927//60
f 928//1 930//1 929//1
f 930//61 932//61 931//61
f 932//62 934//62 933//62
f 930//6 928//6 926//6
f 926//6 936//6 934//6
f 934//6 932//6 930//6
f 934//3 936//3 935//3
f 936//63 926//63 925//63
f 935//5 925//5 927//5
f 927//5 929//5 931//5
f 931//5 933//5 935//5
f 938//60 940//60 939//60
f 940//1 942//1 941//1
f 942//61 944//61 943//61
f 944//62 946//62 945//62
f 942//6 940//6 938//6
f 938//72 948//72 946//72
f 946//6 944//6 942//6
f 946//3 948//3 947//3
f 948//63 938//63 937//63
f 947//5 937//5 939//5
f 939//5 941//5 943//5
f 943//5 945//5 947//5
f 950//60 952//60 951//60
f 952//1 954//1 953//1
f 954//61 956//61 955//61
f 956//62 958//62 957//62
f 954//6 952//6 950//6
f 950//72 960//72 958//72
f 958//6 956//6 954//6
f 958//3 960//3 959//3
f 960//63 950//63 949//63
f 959//5 949//5 951//5
f 951//5 953//5 955//5
f 955//5 957//5 959//5
f 962//60 964//60 963//60
f 964//1 966//1 965//1
f 966//61 968//61 967//61
f 968//62 970//62 969//62
f 966//6 964//6 962//6
f 962//6 972//6 970//6
f 970//6 968//6 966//6
f 970//3 972//3 971//3
f 972//63 962//63 961//63
f 971//5 961//5 963//5
f 963//5 965//5 967//5
f 967//5 969//5 971//5
f 974//60 976//60 975//60
f 976//1 978//1 977//1
f 978//61 980//61 979//61
f 980//62 982//62 981//62
f 978//6 976//6 974//6
f 974//6 984//6 982//6
f 982//6 980//6 978//6
f 982//3 984//3 983//3
f 984//63 974//63 973//63
f 983//5 973//5 975//5
f 975//5 977//5 979//5
f 979//5 981//5 983//5
f 986//60 988//60 987//60
f 988//1 990//1 989//1
f 990//61 992//61 991//61
f 992//62 994//62 993//62
f 990//6 988//6 986//6
f 986//72 996//72 994//72
f 994//6 992//6 990//6
f 994//3 996//3 995//3
f 996//63 986//63 985//63
f 995//5 985//5 987//5
f 987//5 989//5 991//5
f 991//5 993//5 995//5
f 998//60 1000//60 999//60
f 1000//1 1002//1 1001//1
f 1002//61 1004//61 1003//61
f 1004//62 1006//62 1005//62
f 1002//6 1000//6 998//6
f 998//72 1008//72 1006//72
f 1006//6 1004//6 1002//6
f 1006//3 1008//3 1007//3
f 1008//63 998//63 997//63
f 1007//5 997//5 999//5
f 999//5 1001//5 1003//5
f 1003//5 1005//5 1007//5
f 1010//68 1012//68 1011//68
f 1012//1 1014//1 1013//1
f 1014//69 1016//69 1015//69
f 1016//70 1018//70 1017//70
f 1014//2 1012//2 1010//2
f 1010//2 1020//2 1018//2
f 1018//2 1016//2 1014//2
f 1018//3 1020//3 1019//3
f 1019//71 1020//71 1010//71
f 1019//4 1009//4 1011//4
f 1011//4 1013//4 1015//4
f 1015//4 1017//4 1019//4
f 1022//68 1024//68 1023//68
f 1024//1 1026//1 1025//1
f 1026//69 1028//69 1027//69
f 1028//70 1030//70 1029//70
f 1026//2 1024//2 1022//2
f 1022//2 1032//2 1030//2
f 1030//2 1028//2 1026//2
f 1030//3 1032//3 1031//3
f 1032//71 1022//71 1021//71
f 1031//4 1021//4 1023//4
f 1023//4 1025//4 1027//4
f 1027//4 1029//4 1031//4
f 1034//68 1036//68 1035//68
f 1036//1 1038//1 1037//1
f 1038//69 1040//69 1039//69
f 1039//70 1040//70 1042//70
f 1038//2 1036//2 1034//2
f 1034//2 1044//2 1042//2
f 1042//2 1040//2 1038//2
f 1042//3 1044//3 1043//3
f 1044//71 1034//71 1033//71
f 1043//4 1033//4 1035//4
f 1035//4 1037//4 1039//4
f 1039//4 1041//4 1043//4
f 1046//60 1048//60 1047//60
f 1048//1 1050//1 1049//1
f 1050//61 1052//61 1051//61
f 1052//62 1054//62 1053//62
f 1050//6 1048//6 1046//6
f 1046//72 1056//72 1054//72
f 1054//6 1052//6 1050//6
f 1054//3 1056//3 1055//3
f 1056//63 1046//63 1045//63
f 1055//5 1045//5 1047//5
f 1047//5 1049//5 1051//5
f 1051//5 1053//5 1055//5
f 1058//60 1060//60 1059//60
f 1060//1 1062//1 1061//1
f 1062//61 1064//61 1063//61
f 1064//62 1066//62 1065//62
f 1062//6 1060//6 1058//6
f 1058//72 1068//72 1066//72
f 1066//6 1064//6 1062//6
f 1066//3 1068//3 1067//3
f 1068//63 1058//63 1057//63
f 1067//5 1057//5 1059//5
f 1059//5 1061//5 1063//5
f 1063//5 1065//5 1067//5
f 1070//60 1072//60 1071//60
f 1072//1 1074//1 1073//1
f 1074//61 1076//61 1075//61
f 1076//62 1078//62 1077//62
f 1074//6 1072//6 1070//6
f 1070//72 1080//72 1078//72
f 1078//6 1076//6 1074//6
f 1078//3 1080//3 1079//3
f 1080//63 1070//63 1069//63
f 1079//5 1069//5 1071//5
f 1071//5 1073//5 1075//5
f 1075//5 1077//5 1079//5
f 1082//60 1084//60 1083//60
f 1084//1 1086//1 1085//1
f 1086//61 1088//61 1087//61
f 1088//62 1090//62 1089//62
f 1086//6 1084//6 1082//6
f 1082//6 1092//6 1090//6
f 1090//6 1088//6 1086//6
f 1090//3 1092//3 1091//3
f 1092//63 1082//63 1081//63
f 1091//5 1081//5 1083//5
f 1083//5 1085//5 1087//5
f 1087//5 1089//5 1091//5
f 1094//60 1096//60 1095//60
f 1096//1 1098//1 1097//1
f 1098//61 1100//61 1099//61
f 1100//62 1102//62 1101//62
f 1098//6 1096//6 1094//6
f 1094//72 1104//72 1102//72
f 1102//6 1100//6 1098//6
f 1102//3 1104//3 1103//3
f 1104//63 1094//63 1093//63
f 1103//5 1093//5 1095//5
f 1095//5 1097//5 1099//5
f 1099//5 1101//5 1103//5
f 1106//60 1108//60 1107//60
f 1108//1 1110//1 1109//1
f 1110//61 1112//61 1111//61
f 1112//62 1114//62 1113//62
f 1110//6 1108//6 1106//6
f 1106//72 1116//72 1114//72
f 1114//6 1112//6 1110//6
f 1114//3 1116//3 1115//3
f 1116//63 1106//63 1105//63
f 1115//5 1105//5 1107//5
f 1107//5 1109//5 1111//5
f 1111//5 1113//5 1115//5
f 1118//60 1120//60 1119//60
f 1120//1 1122//1 1121//1
f 1122//61 1124//61 1123//61
f 1124//62 1126//62 1125//62
f 1122//6 1120//6 1118//6
f 1118//6 1128//6 1126//6
f 1126//6 1124//6 1122//6
f 1126//3 1128//3 1127//3
f 1128//63 1118//63 1117//63
f 1127//5 1117//5 1119//5
f 1119//5 1121//5 1123//5
f 1123//5 1125//5 1127//5
f 1130//60 1132//60 1131//60
f 1132//1 1134//1 1133//1
f 1134//61 1136//61 1135//61
f 1136//62 1138//62 1137//62
f 1134//6 1132//6 1130//6
f 1130//6 1140//6 1138//6
f 1138//6 1136//6 1134//6
f 1138//3 1140//3 1139//3
f 1140//63 1130//63 1129//63
f 1139//5 1129//5 1131//5
f 1131//5 1133//5 1135//5
f 1135//5 1137//5 1139//5
f 1142//60 1144//60 1143//60
f 1144//1 1146//1 1145//1
f 1146//61 1148//61 1147//61
f 1148//62 1150//62 1149//62
f 1146//6 1144//6 1142//6
f 1142//72 1152//72 1150//72
f 1150//6 1148//6 1146//6
f 1150//3 1152//3 1151//3
f 1152//63 1142//63 1141//63
f 1151//5 1141//5 1143//5
f 1143//5 1145//5 1147//5
f 1147//5 1149//5 1151//5
f 1154//60 1156//60 1155//60
f 1156//1 1158//1 1157//1
f 1158//61 1160//61 1159//61
f 1160//62 1162//62 1161//62
f 1158//6 1156//6 1154//6
f 1154//72 1164//72 1162//72
f 1162//6 1160//6 1158//6
f 1162//3 1164//3 1163//3
f 1164//63 1154//63 1153//63
f 1163//5 1153//5 1155//5
f 1155//5 1157//5 1159//5
f 1159//5 1161//5 1163//5
f 1166//68 1168//68 1167//68
f 1168//1 1170//1 1169//1
f 1170//69 1172//69 1171//69
f 1172//70 1174//70 1173//70
f 1170//2 1168//2 1166//2
f 1166//2 1176//2 1174//2
f 1174//2 1172//2 1170//2
f 1174//3 1176//3 1175//3
f 1176//71 1166//71 1165//71
f 1175//4 1165//4 1167//4
f 1167//4 1169//4 1171//4
f 1171//4 1173//4 1175//4
f 1178//68 1180//68 1179//68
f 1180//1 1182//1 1181//1
f 1182//69 1184//69 1183//69
f 1184//70 1186//70 1185//70
f 1182//2 1180//2 1178//2
f 1178//2 1188//2 1186//2
f 1186//2 1184//2 1182//2
f 1186//3 1188//3 1187//3
f 1188//71 1178//71 1177//71
f 1187//4 1177//4 1179//4
f 1179//4 1181//4 1183//4
f 1183//4 1185//4 1187//4
f 1190//68 1192//68 1191//68
f 1192//1 1194//1 1193//1
f 1194//69 1196//69 1195//69
f 1196//70 1198//70 1197//70
f 1194//2 1192//2 1190//2
f 1190//2 1200//2 1198//2
f 1198//2 1196//2 1194//2
f 1198//3 1200//3 1199//3
f 1200//71 1190//71 1189//71
f 1199//4 1189//4 1191//4
f 1191//4 1193//4 1195//4
f 1195//4 1197//4 1199//4
usemtl bolt_black
f 10//1 11//1 9//1
f 12//2 15//2 11//2
f 16//3 13//3 15//3
f 14//4 9//4 13//4
f 15//5 9//5 11//5
f 12//6 14//6 16//6
f 18//1 19//1 17//1
f 20//2 23//2 19//2
f 24//3 21//3 23//3
f 22//4 17//4 21//4
f 23//5 17//5 19//5
f 20//6 22//6 24//6
f 10//1 12//1 11//1
f 12//2 16//2 15//2
f 16//3 14//3 13//3
f 14//4 10//4 9//4
f 15//5 13//5 9//5
f 12//6 10//6 14//6
f 18//1 20//1 19//1
f 20//2 24//2 23//2
f 24//3 22//3 21//3
f 22//4 18//4 17//4
f 23//5 21//5 17//5
f 20//6 18//6 22//6
usemtl resin
f 26//7 27//7 25//7
f 28//8 29//8 27//8
f 30//9 31//9 29//9
f 32//10 33//10 31//10
f 34//11 35//11 33//11
f 36//12 37//12 35//12
f 38//13 39//13 37//13
f 40//14 41//14 39//14
f 42//15 43//15 41//15
f 44//16 45//16 43//16
f 46//17 47//17 45//17
f 48//18 49//18 47//18
f 50//19 51//19 49//19
f 52//20 53//20 51//20
f 54//21 55//21 53//21
f 56//22 57//22 55//22
f 58//23 59//23 57//23
f 60//24 61//24 59//24
f 62//25 63//25 61//25
f 64//26 65//26 63//26
f 66//27 67//27 65//27
f 68//28 69//28 67//28
f 70//29 71//29 69//29
f 72//30 73//30 71//30
f 74//31 75//31 73//31
f 76//32 77//32 75//32
f 78//33 79//33 77//33
f 80//34 81//34 79//34
f 82//35 83//35 81//35
f 84//36 85//36 83//36
f 86//37 87//37 85//37
f 88//38 89//38 87//38
f 90//39 91//39 89//39
f 92//40 93//40 91//40
f 94//41 95//41 93//41
f 96//42 97//42 95//42
f 98//43 99//43 97//43
f 100//44 101//44 99//44
f 102//45 103//45 101//45
f 104//46 105//46 103//46
f 106//47 107//47 105//47
f 108//48 109//48 107//48
f 110//49 111//49 109//49
f 112//50 113//50 111//50
f 114//51 115//51 113//51
f 116//52 117//52 115//52
f 94//6 62//6 30//6
f 118//53 119//53 117//53
f 120//54 25//54 119//54
f 55//5 87//5 119//5
f 218//7 219//7 217//7
f 220//8 221//8 219//8
f 222//9 223//9 221//9
f 224//10 225//10 223//10
f 226//11 227//11 225//11
f 228//12 229//12 227//12
f 230//13 231//13 229//13
f 232//14 233//14 231//14
f 234//15 235//15 233//15
f 236//16 237//16 235//16
f 238//17 239//17 237//17
f 240//18 241//18 239//18
f 242//19 243//19 241//19
f 244//20 245//20 243//20
f 246//21 247//21 245//21
f 248//22 249//22 247//22
f 250//23 251//23 249//23
f 252//24 253//24 251//24
f 254//25 255//25 253//25
f 256//26 257//26 255//26
f 258//27 259//27 257//27
f 260//28 261//28 259//28
f 262//29 263//29 261//29
f 264//30 265//30 263//30
f 266//31 267//31 265//31
f 268//32 269//32 267//32
f 270//33 271//33 269//33
f 272//34 273//34 271//34
f 274//35 275//35 273//35
f 276//36 277//36 275//36
f 278//37 279//37 277//37
f 280//38 281//38 279//38
f 282//39 283//39 281//39
f 284//40 285//40 283//40
f 286//41 287//41 285//41
f 288//42 289//42 287//42
f 290//43 291//43 289//43
f 292//44 293//44 291//44
f 294//45 295//45 293//45
f 296//46 297//46 295//46
f 298//47 299//47 297//47
f 300//48 301//48 299//48
f 302//49 303//49 301//49
f 304//50 305//50 303//50
f 306//51 307//51 305//51
f 308//52 309//52 307//52
f 286//6 254//6 222//6
f 310//53 311//53 309//53
f 312//54 217//54 311//54
f 247//5 279//5 311//5
f 410//7 411//7 409//7
f 412//8 413//8 411//8
f 414//9 415//9 413//9
f 416//10 417//10 415//10
f 418//11 419//11 417//11
f 420//12 421//12 419//12
f 422//13 423//13 421//13
f 424//14 425//14 423//14
f 426//15 427//15 425//15
f 428//16 429//16 427//16
f 430//17 431//17 429//17
f 432//18 433//18 431//18
f 434//19 435//19 433//19
f 436//20 437//20 435//20
f 438//21 439//21 437//21
f 440//22 441//22 439//22
f 442//23 443//23 441//23
f 444//24 445//24 443//24
f 446//25 447//25 445//25
f 448//26 449//26 447//26
f 450//27 451//27 449//27
f 452//28 453//28 451//28
f 454//29 455//29 453//29
f 456//30 457//30 455//30
f 458//31 459//31 457//31
f 460//32 461//32 459//32
f 462//33 463//33 461//33
f 464//34 465//34 463//34
f 466//35 467//35 465//35
f 468//36 469//36 467//36
f 470//37 471//37 469//37
f 472//38 473//38 471//38
f 474//39 475//39 473//39
f 476//40 477//40 475//40
f 478//41 479//41 477//41
f 480//42 481//42 479//42
f 482//43 483//43 481//43
f 484//44 485//44 483//44
f 486//45 487//45 485//45
f 488//46 489//46 487//46
f 490//47 491//47 489//47
f 492//48 493//48 491//48
f 494//49 495//49 493//49
f 496//50 497//50 495//50
f 498//51 499//51 497//51
f 500//52 501//52 499//52
f 478//6 446//6 414//6
f 502//53 503//53 501//53
f 504//54 409//54 503//54
f 439//5 471//5 503//5
f 26//7 28//7 27//7
f 28//8 30//8 29//8
f 30//9 32//9 31//9
f 32//10 34//10 33//10
f 34//11 36//11 35//11
f 36//12 38//12 37//12
f 38//13 40//13 39//13
f 40//14 42//14 41//14
f 42//15 44//15 43//15
f 44//16 46//16 45//16
f 46//17 48//17 47//17
f 48//18 50//18 49//18
f 50//19 52//19 51//19
f 52//20 54//20 53//20
f 54//21 56//21 55//21
f 56//22 58//22 57//22
f 58//23 60//23 59//23
f 60//24 62//24 61//24
f 62//25 64//25 63//25
f 64//26 66//26 65//26
f 66//27 68//27 67//27
f 68//28 70//28 69//28
f 70//29 72//29 71//29
f 72//30 74//30 73//30
f 74//31 76//31 75//31
f 76//32 78//32 77//32
f 78//33 80//33 79//33
f 80//34 82//34 81//34
f 82//35 84//35 83//35
f 84//36 86//36 85//36
f 86//37 88//37 87//37
f 88//38 90//38 89//38
f 90//39 92//39 91//39
f 92//40 94//40 93//40
f 94//41 96//41 95//41
f 96//42 98//42 97//42
f 98//43 100//43 99//43
f 100//44 102//44 101//44
f 102//45 104//45 103//45
f 104//46 106//46 105//46
f 106//47 108//47 107//47
f 108//48 110//48 109//48
f 110//49 112//49 111//49
f 112//50 114//50 113//50
f 114//51 116//51 115//51
f 116//52 118//52 117//52
f 30//6 28//6 26//6
f 26//6 120//6 118//6
f 118//6 116//6 114//6
f 114//72 112//72 110//72
f 110//6 108//6 106//6
f 106//6 104//6 102//6
f 102//6 100//6 98//6
f 98//6 96//6 94//6
f 94//6 92//6 90//6
f 90//6 88//6 86//6
f 86//6 84//6 82//6
f 82//6 80//6 78//6
f 78//6 76//6 74//6
f 74//6 72//6 70//6
f 70//6 68//6 66//6
f 66//73 64//73 62//73
f 62//6 60//6 58//6
f 58//6 56//6 54//6
f 54//6 52//6 50//6
f 50//6 48//6 46//6
f 46//6 44//6 42//6
f 42//6 40//6 38//6
f 38//6 36//6 34//6
f 34//6 32//6 30//6
f 30//6 26//6 118//6
f 118//6 114//6 110//6
f 110//6 106//6 102//6
f 102//6 98//6 94//6
f 94//6 90//6 86//6
f 86//6 82//6 78//6
f 78//6 74//6 70//6
f 70//6 66//6 62//6
f 62//6 58//6 54//6
f 54//6 50//6 46//6
f 46//6 42//6 38//6
f 38//6 34//6 30//6
f 30//6 118//6 110//6
f 110//6 102//6 94//6
f 94//6 86//6 78//6
f 78//6 70//6 62//6
f 62//6 54//6 46//6
f 46//6 38//6 30//6
f 30//6 110//6 94//6
f 94//6 78//6 62//6
f 62//6 46//6 30//6
f 118//53 120//53 119//53
f 120//54 26//54 25//54
f 119//5 25//5 27//5
f 27//5 29//5 31//5
f 31//5 33//5 35//5
f 35//5 37//5 39//5
f 39//5 41//5 43//5
f 43//5 45//5 47//5
f 47//5 49//5 51//5
f 51//5 53//5 55//5
f 55//5 57//5 59//5
f 59//5 61//5 63//5
f 63//5 65//5 67//5
f 67//5 69//5 71//5
f 71//5 73//5 75//5
f 75//5 77//5 79//5
f 79//5 81//5 83//5
f 83//5 85//5 87//5
f 87//5 89//5 91//5
f 91//5 93//5 95//5
f 95//5 97//5 99//5
f 99//5 101//5 103//5
f 103//5 105//5 107//5
f 107//5 109//5 111//5
f 111//5 113//5 115//5
f 115//5 117//5 119//5
f 119//5 27//5 31//5
f 31//5 35//5 39//5
f 39//5 43//5 47//5
f 47//5 51//5 55//5
f 55//5 59//5 63//5
f 63//5 67//5 71//5
f 71//5 75//5 79//5
f 79//5 83//5 87//5
f 87//5 91//5 95//5
f 95//5 99//5 103//5
f 103//5 107//5 111//5
f 111//5 115//5 119//5
f 119//5 31//5 39//5
f 39//5 47//5 55//5
f 55//5 63//5 71//5
f 71//5 79//5 87//5
f 87//5 95//5 103//5
f 103//5 111//5 119//5
f 119//5 39//5 55//5
f 55//5 71//5 87//5
f 87//5 103//5 119//5
f 218//7 220//7 219//7
f 220//8 222//8 221//8
f 222//9 224//9 223//9
f 224//10 226//10 225//10
f 226//11 228//11 227//11
f 228//12 230//12 229//12
f 230//13 232//13 231//13
f 232//14 234//14 233//14
f 234//15 236//15 235//15
f 236//16 238//16 237//16
f 238//17 240//17 239//17
f 240//18 242//18 241//18
f 242//19 244//19 243//19
f 244//20 246//20 245//20
f 246//21 248//21 247//21
f 248//22 250//22 249//22
f 250//23 252//23 251//23
f 252//24 254//24 253//24
f 254//25 256//25 255//25
f 256//26 258//26 257//26
f 258//27 260//27 259//27
f 260//28 262//28 261//28
f 262//29 264//29 263//29
f 264//30 266//30 265//30
f 266//31 268//31 267//31
f 268//32 270//32 269//32
f 270//33 272//33 271//33
f 272//34 274//34 273//34
f 274//35 276//35 275//35
f 276//36 278//36 277//36
f 278//37 280//37 279//37
f 280//38 282//38 281//38
f 282//39 284//39 283//39
f 284//40 286//40 285//40
f 286//41 288//41 287//41
f 288//42 290//42 289//42
f 290//43 292//43 291//43
f 292//44 294//44 293//44
f 294//45 296//45 295//45
f 296//46 298//46 297//46
f 298//47 300//47 299//47
f 300//48 302//48 301//48
f 302//49 304//49 303//49
f 304//50 306//50 305//50
f 306//51 308//51 307//51
f 308//52 310//52 309//52
f 222//6 220//6 218//6
f 218//6 312//6 310//6
f 310//6 308//6 306//6
f 306//6 304//6 302//6
f 302//6 300//6 298//6
f 298//72 296//72 294//72
f 294//72 292//72 290//72
f 290//72 288//72 286//72
f 286//72 284//72 282//72
f 282//6 280//6 278//6
f 278//6 276//6 274//6
f 274//6 272//6 270//6
f 270//6 268//6 266//6
f 266//6 264//6 262//6
f 262//6 260//6 258//6
f 258//6 256//6 254//6
f 254//6 252//6 250//6
f 250//73 248//73 246//73
f 246//73 244//73 242//73
f 242//73 240//73 238//73
f 238//73 236//73 234//73
f 234//6 232//6 230//6
f 230//6 228//6 226//6
f 226//6 224//6 222//6
f 222//6 218//6 310//6
f 310//6 306//6 302//6
f 302//6 298//6 294//6
f 294//6 290//6 286//6
f 286//6 282//6 278//6
f 278//6 274//6 270//6
f 270//6 266//6 262//6
f 262//6 258//6 254//6
f 254//6 250//6 246//6
f 246//6 242//6 238//6
f 238//6 234//6 230//6
f 230//6 226//6 222//6
f 222//6 310//6 302//6
f 302//6 294//6 286//6
f 286//6 278//6 270//6
f 270//6 262//6 254//6
f 254//6 246//6 238//6
f 238//6 230//6 222//6
f 222//6 302//6 286//6
f 286//6 270//6 254//6
f 254//6 238//6 222//6
f 310//53 312//53 311//53
f 312//54 218//54 217//54
f 311//5 217//5 219//5
f 219//5 221//5 223//5
f 223//5 225//5 227//5
f 227//5 229//5 231//5
f 231//5 233//5 235//5
f 235//5 237//5 239//5
f 239//5 241//5 243//5
f 243//5 245//5 247//5
f 247//5 249//5 251//5
f 251//5 253//5 255//5
f 255//5 257//5 259//5
f 259//5 261//5 263//5
f 263//5 265//5 267//5
f 267//5 269//5 271//5
f 271//5 273//5 275//5
f 275//5 277//5 279//5
f 279//5 281//5 283//5
f 283//5 285//5 287//5
f 287//5 289//5 291//5
f 291//5 293//5 295//5
f 295//5 297//5 299//5
f 299//5 301//5 303//5
f 303//5 305//5 307//5
f 307//5 309//5 311//5
f 311//5 219//5 223//5
f 223//5 227//5 231//5
f 231//5 235//5 239//5
f 239//5 243//5 247//5
f 247//5 251//5 255//5
f 255//5 259//5 263//5
f 263//5 267//5 271//5
f 271//5 275//5 279//5
f 279//5 283//5 287//5
f 287//5 291//5 295//5
f 295//5 299//5 303//5
f 303//5 307//5 311//5
f 311//5 223//5 231//5
f 231//5 239//5 247//5
f 247//5 255//5 263//5
f 263//5 271//5 279//5
f 279//5 287//5 295//5
f 295//5 303//5 311//5
f 311//5 231//5 247//5
f 247//5 263//5 279//5
f 279//5 295//5 311//5
f 410//7 412//7 411//7
f 412//8 414//8 413//8
f 414//9 416//9 415//9
f 416//10 418//10 417//10
f 418//11 420//11 419//11
f 420//12 422//12 421//12
f 422//13 424//13 423//13
f 424//14 426//14 425//14
f 426//15 428//15 427//15
f 428//16 430//16 429//16
f 430//17 432//17 431//17
f 432//18 434//18 433//18
f 434//19 436//19 435//19
f 436//20 438//20 437//20
f 438//21 440//21 439//21
f 440//22 442//22 441//22
f 442//23 444//23 443//23
f 444//24 446//24 445//24
f 446//25 448//25 447//25
f 448//26 450//26 449//26
f 450//27 452//27 451//27
f 452//28 454//28 453//28
f 454//29 456//29 455//29
f 456//30 458//30 457//30
f 458//31 460//31 459//31
f 460//32 462//32 461//32
f 462//33 464//33 463//33
f 464//34 466//34 465//34
f 466//35 468//35 467//35
f 468//36 470//36 469//36
f 470//37 472//37 471//37
f 472//38 474//38 473//38
f 474//39 476//39 475//39
f 476//40 478//40 477//40
f 478//41 480//41 479//41
f 480//42 482//42 481//42
f 482//43 484//43 483//43
f 484//44 486//44 485//44
f 486//45 488//45 487//45
f 488//46 490//46 489//46
f 490//47 492//47 491//47
f 492//48 494//48 493//48
f 494//49 496//49 495//49
f 496//50 498//50 497//50
f 498//51 500//51 499//51
f 500//52 502//52 501//52
f 414//6 412//6 410//6
f 410//6 504//6 502//6
f 502//6 500//6 498//6
f 498//72 496//72 494//72
f 494//6 492//6 490//6
f 490//6 488//6 486//6
f 486//6 484//6 482//6
f 482//6 480//6 478//6
f 478//6 476//6 474//6
f 474//6 472//6 470//6
f 470//6 468//6 466//6
f 466//6 464//6 462//6
f 462//6 460//6 458//6
f 458//6 456//6 454//6
f 454//6 452//6 450//6
f 450//73 448//73 446//73
f 446//6 444//6 442//6
f 442//6 440//6 438//6
f 438//6 436//6 434//6
f 434//6 432//6 430//6
f 430//6 428//6 426//6
f 426//6 424//6 422//6
f 422//6 420//6 418//6
f 418//6 416//6 414//6
f 414//6 410//6 502//6
f 502//6 498//6 494//6
f 494//6 490//6 486//6
f 486//6 482//6 478//6
f 478//6 474//6 470//6
f 470//6 466//6 462//6
f 462//6 458//6 454//6
f 454//6 450//6 446//6
f 446//6 442//6 438//6
f 438//6 434//6 430//6
f 430//6 426//6 422//6
f 422//6 418//6 414//6
f 414//6 502//6 494//6
f 494//6 486//6 478//6
f 478//6 470//6 462//6
f 462//6 454//6 446//6
f 446//6 438//6 430//6
f 430//6 422//6 414//6
f 414//6 494//6 478//6
f 478//6 462//6 446//6
f 446//6 430//6 414//6
f 502//53 504//53 503//53
f 504//54 410//54 409//54
f 503//5 409//5 411//5
f 411//5 413//5 415//5
f 415//5 417//5 419//5
f 419//5 421//5 423//5
f 423//5 425//5 427//5
f 427//5 429//5 431//5
f 431//5 433//5 435//5
f 435//5 437//5 439//5
f 439//5 441//5 443//5
f 443//5 445//5 447//5
f 447//5 449//5 451//5
f 451//5 453//5 455//5
f 455//5 457//5 459//5
f 459//5 461//5 463//5
f 463//5 465//5 467//5
f 467//5 469//5 471//5
f 471//5 473//5 475//5
f 475//5 477//5 479//5
f 479//5 481//5 483//5
f 483//5 485//5 487//5
f 487//5 489//5 491//5
f 491//5 493//5 495//5
f 495//5 497//5 499//5
f 499//5 501//5 503//5
f 503//5 411//5 415//5
f 415//5 419//5 423//5
f 423//5 427//5 431//5
f 431//5 435//5 439//5
f 439//5 443//5 447//5
f 447//5 451//5 455//5
f 455//5 459//5 463//5
f 463//5 467//5 471//5
f 471//5 475//5 479//5
f 479//5 483//5 487//5
f 487//5 491//5 495//5
f 495//5 499//5 503//5
f 503//5 415//5 423//5
f 423//5 431//5 439//5
f 439//5 447//5 455//5
f 455//5 463//5 471//5
f 471//5 479//5 487//5
f 487//5 495//5 503//5
f 503//5 423//5 439//5
f 439//5 455//5 471//5
f 471//5 487//5 503//5
usemtl bottle_white
f 122//7 123//7 121//7
f 124//8 125//8 123//8
f 126//9 127//9 125//9
f 128//10 129//10 127//10
f 130//11 131//11 129//11
f 132//12 133//12 131//12
f 134//13 135//13 133//13
f 136//14 137//14 135//14
f 138//15 139//15 137//15
f 140//16 141//16 139//16
f 142//17 143//17 141//17
f 144//18 145//18 143//18
f 146//19 147//19 145//19
f 148//20 149//20 147//20
f 150//21 151//21 149//21
f 152//22 153//22 151//22
f 154//23 155//23 153//23
f 156//55 157//55 155//55
f 158//56 159//56 157//56
f 160//26 161//26 159//26
f 162//27 163//27 161//27
f 164//28 165//28 163//28
f 166//29 167//29 165//29
f 168//30 169//30 167//30
f 170//31 171//31 169//31
f 172//32 173//32 171//32
f 174//33 175//33 173//33
f 176//34 177//34 175//34
f 178//35 179//35 177//35
f 180//57 181//57 179//57
f 182//37 183//37 181//37
f 184//38 185//38 183//38
f 186//39 187//39 185//39
f 188//40 189//40 187//40
f 190//41 191//41 189//41
f 192//42 193//42 191//42
f 194//43 195//43 193//43
f 196//44 197//44 195//44
f 198//45 199//45 197//45
f 200//46 201//46 199//46
f 202//47 203//47 201//47
f 204//48 205//48 203//48
f 206//49 207//49 205//49
f 208//50 209//50 207//50
f 210//51 211//51 209//51
f 212//52 213//52 211//52
f 190//6 158//6 126//6
f 214//53 215//53 213//53
f 216//54 121//54 215//54
f 151//5 183//5 215//5
f 314//7 315//7 313//7
f 316//8 317//8 315//8
f 318//9 319//9 317//9
f 320//10 321//10 319//10
f 322//11 323//11 321//11
f 324//12 325//12 323//12
f 326//13 327//13 325//13
f 328//14 329//14 327//14
f 330//15 331//15 329//15
f 332//16 333//16 331//16
f 334//17 335//17 333//17
f 336//18 337//18 335//18
f 338//19 339//19 337//19
f 340//20 341//20 339//20
f 342//21 343//21 341//21
f 344//22 345//22 343//22
f 346//23 347//23 345//23
f 348//55 349//55 347//55
f 350//25 351//25 349//25
f 352//26 353//26 351//26
f 354//27 355//27 353//27
f 356//28 357//28 355//28
f 358//29 359//29 357//29
f 360//30 361//30 359//30
f 362//31 363//31 361//31
f 364//32 365//32 363//32
f 366//33 367//33 365//33
f 368//34 369//34 367//34
f 370//35 371//35 369//35
f 372//57 373//57 371//57
f 374//37 375//37 373//37
f 376//38 377//38 375//38
f 378//39 379//39 377//39
f 380//40 381//40 379//40
f 382//41 383//41 381//41
f 384//42 385//42 383//42
f 386//43 387//43 385//43
f 388//44 389//44 387//44
f 390//45 391//45 389//45
f 392//46 393//46 391//46
f 394//47 395//47 393//47
f 396//48 397//48 395//48
f 398//49 399//49 397//49
f 400//50 401//50 399//50
f 402//51 403//51 401//51
f 404//52 405//52 403//52
f 382//6 350//6 318//6
f 406//53 407//53 405//53
f 408//54 313//54 407//54
f 343//5 375//5 407//5
f 506//7 507//7 505//7
f 508//8 509//8 507//8
f 510//9 511//9 509//9
f 512//10 513//10 511//10
f 514//11 515//11 513//11
f 516//58 517//58 515//58
f 518//13 519//13 517//13
f 520//14 521//14 519//14
f 522//15 523//15 521//15
f 524//16 525//16 523//16
f 526//17 527//17 525//17
f 528//18 529//18 527//18
f 530//19 531//19 529//19
f 532//20 533//20 531//20
f 534//21 535//21 533//21
f 536//22 537//22 535//22
f 538//23 539//23 537//23
f 540//55 541//55 539//55
f 542//25 543//25 541//25
f 544//26 545//26 543//26
f 546//27 547//27 545//27
f 548//28 549//28 547//28
f 550//29 551//29 549//29
f 552//30 553//30 551//30
f 554//31 555//31 553//31
f 556//32 557//32 555//32
f 558//33 559//33 557//33
f 560//34 561//34 559//34
f 562//35 563//35 561//35
f 564//57 565//57 563//57
f 566//37 567//37 565//37
f 568//38 569//38 567//38
f 570//39 571//39 569//39
f 572//40 573//40 571//40
f 574//41 575//41 573//41
f 576//42 577//42 575//42
f 578//43 579//43 577//43
f 580//44 581//44 579//44
f 582//45 583//45 581//45
f 584//46 585//46 583//46
f 586//47 587//47 585//47
f 588//59 589//59 587//59
f 590//49 591//49 589//49
f 592//50 593//50 591//50
f 594//51 595//51 593//51
f 596//52 597//52 595//52
f 574//6 542//6 510//6
f 598//53 599//53 597//53
f 600//54 505//54 599//54
f 535//5 567//5 599//5
f 122//7 124//7 123//7
f 124//8 126//8 125//8
f 126//9 128//9 127//9
f 128//10 130//10 129//10
f 130//11 132//11 131//11
f 132//12 134//12 133//12
f 134//74 136//74 135//74
f 136//14 138//14 137//14
f 138//15 140//15 139//15
f 140//16 142//16 141//16
f 142//17 144//17 143//17
f 144//18 146//18 145//18
f 146//19 148//19 147//19
f 148//20 150//20 149//20
f 150//21 152//21 151//21
f 152//22 154//22 153//22
f 154//23 156//23 155//23
f 156//24 158//24 157//24
f 158//56 160//56 159//56
f 160//26 162//26 161//26
f 162//27 164//27 163//27
f 164//28 166//28 165//28
f 166//29 168//29 167//29
f 168//30 170//30 169//30
f 170//31 172//31 171//31
f 172//32 174//32 173//32
f 174//33 176//33 175//33
f 176//34 178//34 177//34
f 178//35 180//35 179//35
f 180//36 182//36 181//36
f 182//75 184//75 183//75
f 184//38 186//38 185//38
f 186//39 188//39 187//39
f 188//40 190//40 189//40
f 190//41 192//41 191//41
f 192//42 194//42 193//42
f 194//43 196//43 195//43
f 196//44 198//44 197//44
f 198//45 200//45 199//45
f 200//46 202//46 201//46
f 202//47 204//47 203//47
f 204//48 206//48 205//48
f 206//76 208//76 207//76
f 208//50 210//50 209//50
f 210//51 212//51 211//51
f 212//52 214//52 213//52
f 126//72 124//72 122//72
f 122//6 216//6 214//6
f 214//77 212//77 210//77
f 210//6 208//6 206//6
f 206//6 204//6 202//6
f 202//6 200//6 198//6
f 198//6 196//6 194//6
f 194//6 192//6 190//6
f 190//6 188//6 186//6
f 186//6 184//6 182//6
f 182//6 180//6 178//6
f 178//77 176//77 174//77
f 174//73 172//73 170//73
f 170//6 168//6 166//6
f 166//78 164//78 162//78
f 162//6 160//6 158//6
f 158//6 156//6 154//6
f 154//6 152//6 150//6
f 150//6 148//6 146//6
f 146//6 144//6 142//6
f 142//6 140//6 138//6
f 138//6 136//6 134//6
f 134//6 132//6 130//6
f 130//78 128//78 126//78
f 126//6 122//6 214//6
f 214//6 210//6 206//6
f 206//6 202//6 198//6
f 198//6 194//6 190//6
f 190//6 186//6 182//6
f 182//6 178//6 174//6
f 174//6 170//6 166//6
f 166//6 162//6 158//6
f 158//6 154//6 150//6
f 150//6 146//6 142//6
f 142//6 138//6 134//6
f 134//6 130//6 126//6
f 126//6 214//6 206//6
f 206//6 198//6 190//6
f 190//6 182//6 174//6
f 174//6 166//6 158//6
f 158//6 150//6 142//6
f 142//6 134//6 126//6
f 126//6 206//6 190//6
f 190//6 174//6 158//6
f 158//6 142//6 126//6
f 214//53 216//53 215//53
f 216//54 122//54 121//54
f 215//5 121//5 123//5
f 123//79 125//79 127//79
f 127//5 129//5 131//5
f 131//80 133//80 135//80
f 135//5 137//5 139//5
f 139//81 141//81 143//81
f 143//5 145//5 147//5
f 147//81 149//81 151//81
f 151//5 153//5 155//5
f 155//81 157//81 159//81
f 159//5 161//5 163//5
f 163//82 165//82 167//82
f 167//5 169//5 171//5
f 171//79 173//79 175//79
f 175//5 177//5 179//5
f 179//80 181//80 183//80
f 183//5 185//5 187//5
f 187//80 189//80 191//80
f 191//5 193//5 195//5
f 195//80 197//80 199//80
f 199//5 201//5 203//5
f 203//81 205//81 207//81
f 207//5 209//5 211//5
f 211//82 213//82 215//82
f 215//5 123//5 127//5
f 127//5 131//5 135//5
f 135//82 139//82 143//82
f 143//5 147//5 151//5
f 151//82 155//82 159//82
f 159//83 163//83 167//83
f 167//5 171//5 175//5
f 175//82 179//82 183//82
f 183//83 187//83 191//83
f 191//5 195//5 199//5
f 199//5 203//5 207//5
f 207//5 211//5 215//5
f 215//5 127//5 135//5
f 135//5 143//5 151//5
f 151//5 159//5 167//5
f 167//5 175//5 183//5
f 183//5 191//5 199//5
f 199//5 207//5 215//5
f 215//5 135//5 151//5
f 151//5 167//5 183//5
f 183//5 199//5 215//5
f 314//7 316//7 315//7
f 316//8 318//8 317//8
f 318//9 320//9 319//9
f 320//10 322//10 321//10
f 322//11 324//11 323//11
f 324//12 326//12 325//12
f 326//74 328//74 327//74
f 328//14 330//14 329//14
f 330//15 332//15 331//15
f 332//16 334//16 333//16
f 334//17 336//17 335//17
f 336//18 338//18 337//18
f 338//19 340//19 339//19
f 340//20 342//20 341//20
f 342//21 344//21 343//21
f 344//22 346//22 345//22
f 346//23 348//23 347//23
f 348//24 350//24 349//24
f 350//25 352//25 351//25
f 352//26 354//26 353//26
f 354//27 356//27 355//27
f 356//28 358//28 357//28
f 358//29 360//29 359//29
f 360//30 362//30 361//30
f 362//31 364//31 363//31
f 364//32 366//32 365//32
f 366//33 368//33 367//33
f 368//34 370//34 369//34
f 370//35 372//35 371//35
f 372//36 374//36 373//36
f 374//37 376//37 375//37
f 376//38 378//38 377//38
f 378//39 380//39 379//39
f 380//40 382//40 381//40
f 382//41 384//41 383//41
f 384//42 386//42 385//42
f 386//43 388//43 387//43
f 388//44 390//44 389//44
f 390//45 392//45 391//45
f 392//46 394//46 393//46
f 394//47 396//47 395//47
f 396//48 398//48 397//48
f 398//76 400//76 399//76
f 400//50 402//50 401//50
f 402//51 404//51 403//51
f 404//52 406//52 405//52
f 318//72 316//72 314//72
f 314//6 408//6 406//6
f 406//6 404//6 402//6
f 402//6 400//6 398//6
f 398//6 396//6 394//6
f 394//6 392//6 390//6
f 390//84 388//84 386//84
f 386//84 384//84 382//84
f 382//6 380//6 378//6
f 378//6 376//6 374//6
f 374//6 372//6 370//6
f 370//6 368//6 366//6
f 366//73 364//73 362//73
f 362//6 360//6 358//6
f 358//6 356//6 354//6
f 354//6 352//6 350//6
f 350//6 348//6 346//6
f 346//6 344//6 342//6
f 342//85 340//85 338//85
f 338//85 336//85 334//85
f 334//6 332//6 330//6
f 330//6 328//6 326//6
f 326//6 324//6 322//6
f 322//6 320//6 318//6
f 318//6 314//6 406//6
f 406//6 402//6 398//6
f 398//73 394//73 390//73
f 390//6 386//6 382//6
f 382//73 378//73 374//73
f 374//73 370//73 366//73
f 366//6 362//6 358//6
f 358//6 354//6 350//6
f 350//72 346//72 342//72
f 342//6 338//6 334//6
f 334//72 330//72 326//72
f 326//72 322//72 318//72
f 318//6 406//6 398//6
f 398//6 390//6 382//6
f 382//6 374//6 366//6
f 366//6 358//6 350//6
f 350//6 342//6 334//6
f 334//6 326//6 318//6
f 318//6 398//6 382//6
f 382//6 366//6 350//6
f 350//6 334//6 318//6
f 406//53 408//53 407//53
f 408//54 314//54 313//54
f 407//5 313//5 315//5
f 315//79 317//79 319//79
f 319//81 321//81 323//81
f 323//5 325//5 327//5
f 327//81 329//81 331//81
f 331//5 333//5 335//5
f 335//5 337//5 339//5
f 339//5 341//5 343//5
f 343//81 345//81 347//81
f 347//5 349//5 351//5
f 351//79 353//79 355//79
f 355//83 357//83 359//83
f 359//5 361//5 363//5
f 363//86 365//86 367//86
f 367//80 369//80 371//80
f 371//5 373//5 375//5
f 375//80 377//80 379//80
f 379//5 381//5 383//5
f 383//5 385//5 387//5
f 387//5 389//5 391//5
f 391//80 393//80 395//80
f 395//5 397//5 399//5
f 399//86 401//86 403//86
f 403//82 405//82 407//82
f 407//5 315//5 319//5
f 319//5 323//5 327//5
f 327//5 331//5 335//5
f 335//5 339//5 343//5
f 343//82 347//82 351//82
f 351//5 355//5 359//5
f 359//5 363//5 367//5
f 367//5 371//5 375//5
f 375//5 379//5 383//5
f 383//5 387//5 391//5
f 391//83 395//83 399//83
f 399//5 403//5 407//5
f 407//5 319//5 327//5
f 327//5 335//5 343//5
f 343//5 351//5 359//5
f 359//5 367//5 375//5
f 375//5 383//5 391//5
f 391//5 399//5 407//5
f 407//5 327//5 343//5
f 343//5 359//5 375//5
f 375//5 391//5 407//5
f 506//7 508//7 507//7
f 508//8 510//8 509//8
f 510//9 512//9 511//9
f 512//10 514//10 513//10
f 514//11 516//11 515//11
f 516//58 518//58 517//58
f 518//74 520//74 519//74
f 520//14 522//14 521//14
f 522//15 524//15 523//15
f 524//16 526//16 525//16
f 526//17 528//17 527//17
f 528//18 530//18 529//18
f 530//19 532//19 531//19
f 532//20 534//20 533//20
f 534//21 536//21 535//21
f 536//22 538//22 537//22
f 538//23 540//23 539//23
f 540//24 542//24 541//24
f 542//25 544//25 543//25
f 544//26 546//26 545//26
f 546//27 548//27 547//27
f 548//28 550//28 549//28
f 550//29 552//29 551//29
f 552//30 554//30 553//30
f 554//31 556//31 555//31
f 556//32 558//32 557//32
f 558//33 560//33 559//33
f 560//34 562//34 561//34
f 562//35 564//35 563//35
f 564//36 566//36 565//36
f 566//37 568//37 567//37
f 568//38 570//38 569//38
f 570//39 572//39 571//39
f 572//40 574//40 573//40
f 574//41 576//41 575//41
f 576//42 578//42 577//42
f 578//43 580//43 579//43
f 580//44 582//44 581//44
f 582//45 584//45 583//45
f 584//46 586//46 585//46
f 586//47 588//47 587//47
f 588//48 590//48 589//48
f 590//76 592//76 591//76
f 592//50 594//50 593//50
f 594//51 596//51 595//51
f 596//52 598//52 597//52
f 510//72 508//72 506//72
f 506//6 600//6 598//6
f 598//77 596//77 594//77
f 594//6 592//6 590//6
f 590//6 588//6 586//6
f 586//6 584//6 582//6
f 582//6 580//6 578//6
f 578//6 576//6 574//6
f 574//6 572//6 570//6
f 570//6 568//6 566//6
f 566//6 564//6 562//6
f 562//77 560//77 558//77
f 558//73 556//73 554//73
f 554//6 552//6 550//6
f 550//78 548//78 546//78
f 546//6 544//6 542//6
f 542//6 540//6 538//6
f 538//6 536//6 534//6
f 534//6 532//6 530//6
f 530//6 528//6 526//6
f 526//6 524//6 522//6
f 522//6 520//6 518//6
f 518//6 516//6 514//6
f 514//78 512//78 510//78
f 510//6 506//6 598//6
f 598//6 594//6 590//6
f 590//6 586//6 582//6
f 582//6 578//6 574//6
f 574//6 570//6 566//6
f 566//6 562//6 558//6
f 558//6 554//6 550//6
f 550//6 546//6 542//6
f 542//6 538//6 534//6
f 534//6 530//6 526//6
f 526//6 522//6 518//6
f 518//6 514//6 510//6
f 510//6 598//6 590//6
f 590//6 582//6 574//6
f 574//6 566//6 558//6
f 558//6 550//6 542//6
f 542//6 534//6 526//6
f 526//6 518//6 510//6
f 510//6 590//6 574//6
f 574//6 558//6 542//6
f 542//6 526//6 510//6
f 598//53 600//53 599//53
f 600//54 506//54 505//54
f 599//5 505//5 507//5
f 507//86 509//86 511//86
f 511//5 513//5 515//5
f 515//81 517//81 519//81
f 519//5 521//5 523//5
f 523//81 525//81 527//81
f 527//5 529//5 531//5
f 531//81 533//81 535//81
f 535//5 537//5 539//5
f 539//80 541//80 543//80
f 543//5 545//5 547//5
f 547//83 549//83 551//83
f 551//5 553//5 555//5
f 555//86 557//86 559//86
f 559//5 561//5 563//5
f 563//81 565//81 567//81
f 567//5 569//5 571//5
f 571//80 573//80 575//80
f 575//5 577//5 579//5
f 579//80 581//80 583//80
f 583//5 585//5 587//5
f 587//80 589//80 591//80
f 591//5 593//5 595//5
f 595//83 597//83 599//83
f 599//5 507//5 511//5
f 511//83 515//83 519//83
f 519//82 523//82 527//82
f 527//5 531//5 535//5
f 535//5 539//5 543//5
f 543//5 547//5 551//5
f 551//5 555//5 559//5
f 559//5 563//5 567//5
f 567//83 571//83 575//83
f 575//5 579//5 583//5
f 583//83 587//83 591//83
f 591//82 595//82 599//82
f 599//5 511//5 519//5
f 519//5 527//5 535//5
f 535//5 543//5 551//5
f 551//5 559//5 567//5
f 567//5 575//5 583//5
f 583//5 591//5 599//5
f 599//5 519//5 535//5
f 535//5 551//5 567//5
f 567//5 583//5 599//5
usemtl hatch_yellow
f 1202//1 1203//1 1201//1
f 1204//2 1207//2 1203//2
f 1208//3 1205//3 1207//3
f 1206//4 1201//4 1205//4
f 1207//5 1201//5 1203//5
f 1204//6 1206//6 1208//6
f 1202//1 1204//1 1203//1
f 1204//2 1208//2 1207//2
f 1208//3 1206//3 1205//3
f 1206//4 1202//4 1201//4
f 1207//5 1205//5 1201//5
f 1204//6 1202//6 1206//6
